<?xml version="1.0" standalone="no"?>
<!DOCTYPE svg PUBLIC "-//W3C//DTD SVG 1.1//EN" "http://www.w3.org/Graphics/SVG/1.1/DTD/svg11.dtd" >
<svg>
<metadata>
Created by FontForge 20120731 at Thu Oct  6 19:01:21 2016
 By www-data
Copyright (c) 2015 by NickyLaatz. / Made with FontLab. All rights reserved.
</metadata>
<defs>
<font id="Bonjour" horiz-adv-x="529" >
  <font-face 
    font-family="Bonjour"
    font-weight="400"
    font-stretch="normal"
    units-per-em="1000"
    panose-1="0 0 0 0 0 0 0 0 0 0"
    ascent="668"
    descent="-332"
    x-height="395"
    cap-height="752.5"
    bbox="-193 -400 988 883"
    underline-thickness="50"
    underline-position="-50"
    unicode-range="U+000D-FB02"
  />
<missing-glyph horiz-adv-x="500" 
d="M63 0v668h375v-668h-375v0zM125 63h250v543h-250v-543v0z" />
    <glyph glyph-name=".notdef" horiz-adv-x="500" 
d="M63 0v668h375v-668h-375v0zM125 63h250v543h-250v-543v0z" />
    <glyph glyph-name=".null" horiz-adv-x="0" 
 />
    <glyph glyph-name="nonmarkingreturn" unicode="&#xd;" horiz-adv-x="0" 
 />
    <glyph glyph-name="NULL" horiz-adv-x="0" 
 />
    <glyph glyph-name="NULL" horiz-adv-x="0" 
 />
    <glyph glyph-name="space" unicode=" " horiz-adv-x="199" 
 />
    <glyph glyph-name="exclam" unicode="!" horiz-adv-x="296" 
d="M290 667q0 -7 -2 -11t-4 -11q-5 -17 -6.5 -30t-6.5 -27q-2 -8 -5 -16l-6 -16q-4 -11 -6.5 -21.5t-3.5 -21.5q-1 -7 -1.5 -13.5t0.5 -13.5q0 -7 -3 -14q-4 -14 -7 -29t-8 -29q-3 -17 -10 -30q-6 -12 -8 -24.5t-5 -25.5q-1 -5 -1.5 -9.5t-2.5 -9.5q-8 -33 -12 -62
q-3 -20 -9 -40q0 -1 -4 -5q-1 -1 -2 -1t-2 -2q-5 -4 -10.5 -8t-12.5 -2q-21 5 -29 19q-2 5 -3.5 9.5t-3.5 8.5q0 11 0.5 21t-0.5 20q-1 23 2 46.5t5 46.5q2 22 5 43t5 43q1 11 0.5 23t-1.5 24t-3.5 23.5t-2.5 24.5q-1 14 0 28l2 28q2 11 3 21.5t2 24.5v14q0 5 -0.5 8t0.5 8
q0 5 2.5 7.5t2.5 7.5l-2 4t-1 4q0 7 2 11q2 7 7.5 9t11.5 7q10 7 16 13t17 6q8 1 12.5 -2t11.5 -5q14 -5 25 -7.5t22 -12.5q11 -9 17 -18.5t10 -23.5l1.5 -6zM197 118q-2 -14 -11 -23q-5 -6 -10.5 -12.5t-10.5 -12.5q-7 -8 -16 -12.5t-20 -7.5q-7 -2 -14.5 -0.5t-15.5 4.5
q-6 2 -10 6.5t-12 3.5q-2 0 -2 2q1 5 1 9.5t1 9.5q4 15 18 25q10 6 20 13.5t20 15.5q16 11 31 7q4 -2 7.5 -2t7.5 -1q19 -4 16 -25z" />
    <glyph glyph-name="quotedbl" unicode="&#x22;" horiz-adv-x="275" 
d="M250 568q-5 -20 -7 -41.5t-12 -39.5q-2 -2 -2.5 -3.5t-1.5 -3.5q-10 -22 -30 -15q-5 2 -9 2.5t-9 2.5q-8 2 -7 10q-2 4 -3 7t-3 7q-5 14 -5.5 27.5t0.5 27.5q1 17 2.5 33t3.5 33q0 6 5 4q11 -3 22.5 -5.5t22.5 -4.5t18.5 -10.5t12.5 -19.5q2 -4 2 -11zM124 568
q-4 -20 -6.5 -41.5t-12.5 -39.5q-1 -2 -1.5 -3.5t-2.5 -3.5q-10 -22 -30 -15q-5 2 -9 2.5t-9 2.5q-8 2 -6 10l-3.5 7l-3.5 7q-5 14 -5.5 27.5t0.5 27.5l6 66q1 5 5 4q11 -3 22.5 -5.5t22.5 -4.5t19 -10.5t13 -19.5q2 -8 1 -11z" />
    <glyph glyph-name="numbersign" unicode="#" horiz-adv-x="530" 
d="M476 357q-12 -17 -26 -21q-5 -2 -9 -4t-9 -4q-18 -9 -36 -18.5t-35 -18.5q-6 -3 -7 -10q-1 -5 -2.5 -10t-2.5 -10q-2 -6 -2 -9q0 -6 1.5 -7.5t6.5 0.5q2 0 3 1v-1l28 6l28 6q9 2 17.5 1t16.5 -3q6 -3 4 -10q-2 -5 -3.5 -8.5t-6.5 -5.5q-8 -4 -15.5 -8t-15.5 -8
q-15 -7 -30.5 -13.5t-31.5 -12.5q-11 -5 -13 -7.5t-4 -16.5q-1 -16 -4 -30.5t-8 -29.5l-12 -33q-5 -11 -11 -18.5t-13 -15.5q-1 -1 -2.5 -0.5t-3.5 -0.5q0 2 -0.5 3.5t-0.5 3.5v74q0 12 0.5 23.5t0.5 23.5v5t-5 0q-14 -5 -28 -8.5t-28 -7.5q-9 -3 -17.5 -6t-17.5 -5t-12 -14
q-4 -17 -7.5 -33t-8.5 -33q-5 -20 -18 -28q-5 -5 -11 -9t-11 -9q-5 -3 -6 4q-5 23 -7 47t-3 48q-1 7 -2.5 9t-7.5 0l-12 -4t-12 -3q-8 -2 -16.5 -1.5t-16.5 6.5q-2 2 -5 2.5t-5 2.5q2 1 4.5 2t5.5 3q11 5 22 10.5t22 10.5q9 4 16 5q5 2 5 6q1 14 1.5 29t0.5 29q1 7 -7 4
q-27 -11 -50 6q-5 4 -10 7.5t-10 8.5q-5 3 -8.5 6.5l-7.5 7.5q5 2 9 4l8 4q18 5 36 10.5t37 6.5q8 1 8 11q-1 28 4 54.5t9 53.5q2 6 2 8q0 8 1 9t6 0q8 -1 16.5 -1.5t16.5 0.5q5 0 8.5 1.5t8.5 -0.5q17 -7 32.5 -14.5t29.5 -22.5q9 -12 4 -28q-2 -6 -3 -12t-3 -11
q-3 -8 3 -6l48 12q5 1 6 4.5t1 7.5q3 19 6 37.5t5 37.5q2 8 2 13q3 13 15 13q8 -1 16.5 -1.5t16.5 -0.5q14 0 21.5 -10t5.5 -25q-1 -8 -1 -16.5t-3 -16.5q-2 -8 5 -5q14 5 28.5 6.5t29.5 2.5q10 1 18 -3.5t16 -9.5q3 -2 3.5 -9.5t-1.5 -9.5zM281 260q0 8 -5 3
q-2 -2 -4.5 -3.5t-4.5 -2.5q-13 -5 -25.5 -9.5t-26.5 -9.5l-10 -4t-5 -12q0 -1 -2 -5q-2 -5 -3.5 -10t-3.5 -10v-5q3 0 4 1q20 6 39.5 12t39.5 12q5 1 6 7q0 9 0.5 18t0.5 18z" />
    <glyph glyph-name="dollar" unicode="$" horiz-adv-x="393" 
d="M339 158q1 -15 -1 -29.5t-8 -28.5q-3 -7 -5 -14l-4 -14q-7 -21 -18.5 -37t-25.5 -30l-1 -1q-17 -5 -26 -22t-19 -31q-5 -8 -9.5 -18t-2.5 -23q0 -7 -1 -8q-9 -11 -16 -24t-19 -21q-22 -12 -45 1q-12 7 -24 17q-24 17 -19 51q2 17 5 32.5t5 31.5q2 10 0 11.5t-10 2.5
q-4 1 -8 2.5t-8 2.5q-5 1 -9 1t-9 2q-15 6 -27 18t-19 30q-6 17 -11.5 34.5t-11.5 34.5q0 2 -0.5 3.5t-0.5 2.5q7 18 14.5 35t26.5 22l14 4l14 4q18 -2 31 -13q6 -7 -1 -11q-5 -2 -10.5 -3.5t-10.5 -3.5q-3 -2 -6 -3t-6 -3q-15 -11 -19.5 -27.5t-4.5 -36.5q1 -12 9.5 -19.5
t19.5 -6.5q9 0 20 -3q5 -2 8.5 -2.5t7.5 3.5l4 2q20 0 31 13.5t21 30.5q23 39 31 90q2 14 -4.5 35t-19.5 29q-26 17 -47 39.5t-41 47.5q-25 30 -28 70q-1 11 1 22t6 22q10 28 24 48q23 33 53 52q2 1 3.5 0.5t3.5 -0.5h13q4 1 12 5l-2 6t-2 7q-5 20 -4 38.5t5 38.5
q2 7 4 13.5t-3 14.5q-2 3 0 5.5t5 1.5q8 -2 14.5 -4t14.5 -4q4 -2 8 -5t9 1q2 1 4.5 -1t4.5 -4q5 -5 8.5 -10.5t7.5 -10.5q7 -8 8 -17.5t-1 -20.5q-3 -14 -4.5 -29t-5.5 -29q-2 -8 0.5 -12t6.5 -8q6 -5 12.5 -9t12.5 -9q5 -4 9 -8t6 -9q6 -14 13 -27.5t15 -25.5
q5 -10 -1 -16q-3 -2 -9 -1t-8 4q-14 26 -34.5 31.5t-41.5 -11.5q-17 -13 -31 -29q-7 -8 -15 -15t-16 -15q-7 -8 -6.5 -10t8.5 -7q18 -12 35.5 -23.5t34.5 -25.5q25 -22 47.5 -46.5t41.5 -54.5q24 -37 27 -83z" />
    <glyph glyph-name="percent" unicode="%" horiz-adv-x="675" 
d="M332 430q-2 -4 -3.5 -8t-3.5 -8q-14 -33 -39.5 -47.5t-57.5 -18.5q-12 -2 -25 3t-24 12q-25 14 -39 36.5t-22 48.5q-2 5 -1 11t3 11q6 14 14 25.5t19 22.5q8 7 15 15.5t15 16.5q4 4 7.5 5.5t5.5 2.5q23 -2 43.5 -5t39.5 -11q11 -4 13 -13q4 -14 13 -24.5t18 -20.5
q22 -27 9 -54zM578 600q-19 -15 -29.5 -35.5t-24.5 -38.5q-15 -20 -29.5 -39t-28.5 -39q-10 -15 -18 -31l-16 -32l-4 -6l-4 -6q-28 -33 -51 -69.5t-49 -72.5q-23 -32 -46 -65l-46 -66q-16 -23 -26.5 -47.5t-22.5 -48.5q-11 -21 -23 -41.5t-24 -40.5q-8 -14 -14.5 -28
t-14.5 -28q-4 -10 -7 -14q-5 -6 -8 -14t-14 -6q-10 2 -19 14t-9 24q1 3 2.5 8.5t3.5 10.5q17 34 35 67.5t35 68.5q17 32 32 65.5t32 66.5q2 5 5 10l48 64t47 65q10 13 18.5 26.5t16.5 27.5q26 42 52.5 83t52.5 83q14 23 30 45t31 45q2 1 4 5q7 11 11.5 16.5t9.5 7.5t12 1
t20 -4q5 -2 11 -3t11 -3q11 -4 13.5 -11.5t-5.5 -14.5zM585 17q-14 -22 -33 -46q-11 -14 -25 -24t-30 -19q-23 -13 -45.5 -11t-45.5 11q-47 20 -69.5 56t-25.5 84q-2 23 5.5 46.5t20.5 43.5q5 7 9 13.5t9 12.5q3 4 6.5 7.5t8.5 5.5q20 9 41 16t44 8l34 -6l34 -6
q10 -3 20 -11q12 -9 -2 -17q-6 -4 -6.5 -8t1.5 -9q14 -46 43 -81q26 -32 6 -66zM244 447q-2 5 -3.5 11t-3.5 11q-7 20 -24 8q-12 -9 -18 -21t-7 -25q-1 -20 5 -24.5t23 1.5q13 3 22 11q9 7 10 12t-4 16zM525 43q-3 11 -7 20.5t-6 20.5q-5 20 -6.5 41t3.5 41q2 8 -1.5 9.5
t-8.5 0.5q-15 -4 -28.5 -11t-22.5 -20q-14 -18 -25.5 -37t-25.5 -37q-8 -10 -11.5 -21t-5.5 -22q-2 -23 12.5 -41.5t33.5 -18.5q8 0 12 1q26 8 46.5 22.5t37.5 34.5q5 7 3 17z" />
    <glyph glyph-name="ampersand" unicode="&#x26;" horiz-adv-x="516" 
d="M569 418q3 -18 -4.5 -33t-15.5 -29q-10 -18 -23.5 -27t-33.5 -12q-6 -1 -15.5 0.5t-18 5t-15.5 9t-8 12.5q-1 6 2 11q3 3 10 3q4 -1 10 -3q9 -5 19 -7t19 1q9 4 14 12.5t4 18.5q-2 15 -12 22q-8 5 -16.5 0.5t-16.5 -6.5q-9 -3 -17.5 -8t-18.5 -8q-5 -2 -10 -6.5t-10 -7.5
q-9 -4 -18 -7t-17 -7q-2 -1 -3.5 -1t-2.5 -1q-2 -2 -3 -3.5t-3 -3.5l4 -2t4 -1q13 -3 24 -9t22 -14q11 -9 20.5 -18.5t17.5 -21.5q4 -5 9.5 -9t10.5 -8q10 -9 9 -21q0 -5 0.5 -9.5t3.5 -7.5q4 -5 4.5 -9t0.5 -9q1 -4 1 -8t2 -7q8 -15 10.5 -30.5t5.5 -31.5q1 -5 1 -9.5
t2 -8.5q5 -12 1.5 -21.5t-8.5 -18.5q-3 -5 -5 -9.5t-5 -8.5q-3 -5 -5.5 -9.5t-2.5 -10.5l-2.5 -5t-3.5 -5q-5 -6 -9 -12l-8 -12q-4 -5 -8.5 -10t-10.5 -9q-13 -8 -24.5 -16t-24.5 -16q-5 -3 -10.5 -4t-11.5 -3q-13 -4 -25.5 -7.5t-25.5 -6.5q-10 -2 -19 -3t-19 -3
q-11 -1 -23 -2t-23 -1q-37 2 -71 12q-20 6 -38 15t-36 17q-13 6 -22.5 14.5t-19.5 17.5q-33 28 -50 62q-7 14 -7 26q0 11 -0.5 22.5t0.5 22.5q3 40 20 69q10 16 19.5 32t19.5 32q7 11 14.5 20t19.5 15q6 4 1 10q-4 5 -8 9t-7 9q-36 48 -45 107q-3 19 -2 37.5t4 37.5
q5 27 17 50.5t27 45.5q4 5 6.5 9.5t7.5 8.5q8 6 16 9.5t19 2.5q8 0 17 1.5t17 1.5q5 0 10.5 -1t10.5 -2l27 -3q11 -2 20.5 -5.5t18.5 -8.5q4 -2 7 -4t7 -3q8 -2 12 -7.5t7 -12.5q2 -2 2 -4t2 -4q8 -11 8.5 -22.5t-3.5 -23.5q-3 -10 -13 -20q-5 -6 -10 -11.5t-12 -10.5
q-10 -6 -20 -11.5t-23 -4.5q-9 1 -19 -2.5t-18 1.5q-9 5 -6 13q1 5 6 7t10 2q12 2 24.5 2.5t22.5 8.5q8 6 13.5 13.5t4.5 18.5q0 3 0.5 5.5t0.5 5.5q0 2 0.5 4t-0.5 4q-7 12 -8 22q-1 4 -4.5 7.5t-7.5 5.5q-31 16 -65 4q-4 -1 -7.5 -4t-5.5 -6q-8 -10 -15.5 -19.5
t-6.5 -24.5q1 -5 -1 -10.5t-4 -10.5q-3 -7 -3 -13t2 -13q3 -13 5.5 -25.5t5.5 -25.5q0 -6 3 -10q8 -16 15.5 -31.5t18.5 -29.5q2 -3 3.5 -7t3.5 -6q8 -9 15.5 -18t16.5 -17q14 -12 28 -23l28 -22q3 -3 12 -14t18 -24.5t17 -25t10 -15.5q5 -10 1 -19t-12 -11q-26 -8 -50 0
q-9 3 -23 14.5t-29 25t-29 25.5t-22 16q-15 7 -27 -5q-5 -5 -10 -9.5t-10 -9.5q-8 -9 -11.5 -20.5t-7.5 -22.5q-6 -21 -9 -42q-2 -14 3.5 -32t13.5 -30q12 -20 30 -26q3 -1 6.5 -1.5t5.5 -2.5q5 -5 4.5 -13t4.5 -13t11.5 -3t12.5 4q14 7 24 1t22 -10q19 -5 37 -5.5t38 4.5
q17 5 33 8.5t32 11.5q19 10 33.5 24t27.5 30q9 10 11 22t4 25v30v8q1 14 -1.5 26t-13.5 23q-4 5 -6 11t-5 11l-14 20t-12 21q-3 7 -10 10q-18 11 -41 21q-8 3 -15 5.5t-15 5.5q-7 2 -14 3.5t-14 3.5t-10 7q-2 3 0 7t4 6q9 9 23 11.5t25 6.5q28 9 51 25q12 8 24.5 15.5
t25.5 14.5q11 5 22 9l22 8q16 6 33.5 9t34.5 -2q12 -4 21.5 -13t11.5 -21z" />
    <glyph glyph-name="quotesingle" unicode="'" horiz-adv-x="175" 
d="M131 554q-4 -20 -6.5 -41.5t-12.5 -39.5q-1 -2 -1.5 -4t-1.5 -4q-11 -21 -31 -15q-5 2 -9 3t-9 3q-8 2 -6 9q-2 4 -3.5 7.5t-3.5 7.5q-5 14 -5.5 27.5t0.5 27.5l6 66q1 4 5 3l45 -9q21 -6 32 -31q2 -7 1 -10z" />
    <glyph glyph-name="parenleft" unicode="(" horiz-adv-x="362" 
d="M307 586q3 -9 0 -17q-2 -5 -4.5 -9.5t-6.5 -6.5q-15 -8 -22.5 -23t-11.5 -33q-4 -16 -6.5 -31.5t-6.5 -31.5q-5 -23 -11.5 -46t-11.5 -46q-4 -20 -6.5 -40.5t-4.5 -40.5v-4q-5 -17 -4 -35t1 -36q-1 -8 -2 -15.5t-1 -15.5q0 -18 0.5 -36t2.5 -36q2 -14 6 -26.5t8 -25.5
q4 -11 7 -26q4 -14 7.5 -27t6.5 -27q2 -7 3 -14l2 -14q1 -14 4.5 -25.5t11.5 -21.5q7 -9 10 -19q3 -8 1.5 -11.5t-8.5 -6.5q-11 -5 -23 -7t-24 0q-17 4 -34 11t-31 21q-7 7 -10 11q-16 26 -30.5 53t-24.5 58q-11 32 -19 64t-13 65q-3 16 -4 32t-1 33q0 33 0.5 66.5t2.5 67.5
q3 46 11 91t24 88q22 56 54 100q7 8 14.5 13t17.5 0q6 1 12 2.5t12 1.5q16 0 33 -3q15 -4 29.5 -8t29.5 -8l6 -2t4 -3z" />
    <glyph glyph-name="parenright" unicode=")" horiz-adv-x="283" 
d="M275 330q2 -30 -2 -62t-8 -65q0 -5 -1.5 -9.5t-3.5 -9.5q-4 -10 -7 -19.5t-7 -19.5q-2 -5 -3.5 -9t-3.5 -9q-5 -11 -10 -20.5t-7 -21.5q-2 -11 -7 -20.5t-10 -19.5q-11 -20 -20 -40q-3 -6 -6 -11.5t-6 -10.5q-4 -9 -7 -18t-8 -18q-4 -8 -8 -15l-8 -14q-3 -5 -6 -9.5
t-5 -9.5q-4 -7 -7.5 -14t-10.5 -11q-4 -2 -6 -7q-4 -11 -10.5 -17t-12.5 -13q-14 -14 -30.5 -20t-33.5 -10q-6 -2 -7.5 1t-0.5 11q3 27 8.5 53.5t16.5 51.5q3 8 5.5 16t4.5 16q12 32 17.5 66.5t10.5 69.5q3 25 7 49t7 49q3 23 6 45.5t3 45.5t1.5 45t1.5 45q0 41 -4 81
t-16 78q-4 14 -9.5 27t-11.5 26q-9 20 -18.5 39t-20.5 37q-4 7 -2 9t5 4q21 10 46 3q7 -2 13.5 -5t13.5 -7q8 -4 16.5 -7t16.5 -8q33 -18 61 -49q35 -38 57 -86q7 -15 11.5 -30t6.5 -32q0 -2 -0.5 -3.5t0.5 -3.5q8 -26 9.5 -54t-0.5 -60z" />
    <glyph glyph-name="asterisk" unicode="*" horiz-adv-x="239" 
d="M260 588q6 -6 -3 -8q-5 -2 -10.5 -2.5t-10.5 -2.5q-2 0 -3 0.5t-3 -0.5q-5 -3 -11.5 -4t-11.5 -4q-8 -4 -16 -5t-16 -3q-3 -1 -6.5 -1t-6.5 -1q-4 0 -6 -2q-6 -4 1 -9q9 -5 17.5 -9.5t16.5 -10.5q5 -5 11.5 -8t12.5 -6q11 -7 8 -15q-3 -16 -21 -13q-11 2 -21 7.5
t-19 11.5q-3 3 -6.5 5.5t-6.5 5.5l-3 1.5t-1 -3.5q-1 -10 -6.5 -18t-8.5 -17q-3 -12 -17 -12q-19 -2 -34 9q-6 4 -9 12q-3 9 0 18q2 6 -1 9q-2 1 -4 1q-14 -2 -26.5 -6t-25.5 -4q-6 0 -7 3q-2 3 1 6q2 2 4 3q8 5 17 10.5t17 10.5q5 3 9 5.5t8 5.5q4 2 3.5 4.5t-5.5 3.5
q-2 0 -4.5 -0.5t-5.5 0.5q-5 0 -10 -0.5t-10 -2.5t-8.5 -4t-8.5 -4q-9 -4 -14.5 3t2.5 14q6 5 16 5q5 1 9.5 1h9.5q7 1 13.5 1.5t12.5 0.5q4 0 4 3q0 2 0.5 4t-2.5 4q-6 2 -10 4q-12 6 -23 17q-3 3 -6 5t-5 7t0 8t7 0q4 -2 7.5 -5t8.5 -5t10.5 -3t10.5 -3q2 -1 4 -1q2 1 2 6
q0 3 0.5 5.5t0.5 5.5l2 12l2 12q0 4 0.5 7.5t-3.5 6.5q-2 2 -0.5 4t4.5 2h10t9 -2q10 -4 18.5 -9t18.5 -8q3 -2 5.5 -2.5t4.5 -3.5q7 -8 8 -15q4 -11 2 -26q0 -6 3 -7h4q4 2 8 3t7 3l4 4l4 4q5 5 10 9t10 9t14.5 4.5t7.5 -10.5q-1 -5 -4 -8t-6 -5q-5 -4 -9.5 -7.5t-9.5 -7.5
q-2 -2 -4 -6h7q7 1 14 1.5t15 1.5q8 2 13 4t10.5 1t9.5 -5z" />
    <glyph glyph-name="plus" unicode="+" horiz-adv-x="311" 
d="M300 243q-14 -10 -33 -13q-33 -6 -66 -6h-4q-8 -1 -8 -10q1 -3 1 -6t1 -6q1 -32 -16 -64q-9 -20 -28 -29q-5 -2 -11 -2t-11 -1q-21 -1 -31 10t-13 26q-4 16 -5 31.5t-1 32.5q-1 11 -1.5 11.5t-11.5 0.5q-3 0 -6 -0.5t-6 -0.5q-7 -2 -20.5 -3.5t-26.5 -0.5t-22 6.5
t-8 18.5q2 8 8 13q5 2 11.5 0.5t12.5 -0.5q9 2 17.5 4t17.5 4q5 1 11 1.5t11 2.5q7 0 7 8q-2 9 -2.5 18.5t-1.5 18.5q0 12 0.5 23.5t0.5 23.5q0 2 -0.5 5t-0.5 5q-1 8 6 9q4 1 7 1.5t7 0.5q9 -1 18 -1.5t18 -0.5q26 2 48 -10q8 -5 14 -11.5t7 -17.5q0 -4 -1 -6
q-1 -5 -2.5 -10.5t-1.5 -11.5q0 -7 0.5 -14t1.5 -15q0 -5 4 -3h13t12 2q23 5 44 3q18 0 36 -8q8 -3 9.5 -13.5t-5.5 -15.5z" />
    <glyph glyph-name="comma" unicode="," horiz-adv-x="230" 
d="M172 20q2 -5 -0.5 -8.5t-4.5 -8.5q-4 -5 -7 -10.5t-4 -11.5q-5 -23 -19.5 -33t-33.5 -16q-5 -2 -9.5 -2.5t-9.5 -1.5v1h-7q-6 0 -2 4q9 13 12 27.5t5 28.5q2 8 1.5 15t-2.5 15q-1 4 -4 7t-6 5q-15 11 -19 27.5t-2 31.5q1 5 4 9t6 9q1 1 5 1q5 -1 11 -1.5t11 -2.5
q3 0 5.5 -0.5t5.5 -0.5q6 -2 12.5 -3t12.5 -3q9 -3 17 -7t15 -10q6 -8 4 -18q-2 -6 -1 -12t3 -11q1 -5 0.5 -10t0.5 -10z" />
    <glyph glyph-name="hyphen" unicode="-" horiz-adv-x="401" 
d="M333 265q1 -8 -3 -9q-11 -2 -21 -5t-21 -6l-27 -6q-11 -2 -22 -2.5t-22 -2.5v2q-14 -1 -29 -1t-30 -1q-5 0 -10 -2l-10 -4q-1 0 -7 -2q-16 -5 -26.5 12.5t-18.5 43.5q-5 14 -2 29.5t11 15.5q17 1 34 -0.5t34 -1.5q11 0 22 1.5t22 2.5q10 1 19.5 2.5t19.5 -1.5
q9 -2 18 -1.5t17 8.5q14 13 29 2q6 -3 9 -11t5 -17q3 -11 5 -22.5t4 -23.5z" />
    <glyph glyph-name="period" unicode="." horiz-adv-x="181" 
d="M141 95q0 -2 -0.5 -3.5t0.5 -3.5q2 -15 -10 -22q-2 -2 -4 -6q-2 -8 -8 -12.5t-14 -6.5q-5 -2 -10.5 -3t-11.5 -3q-19 0 -35 14t-16 37q0 17 5 37q2 5 6.5 6.5t9.5 1.5q15 2 29.5 0t29.5 -3q10 -2 14 -3q18 -8 15 -30z" />
    <glyph glyph-name="slash" unicode="/" horiz-adv-x="392" 
d="M324 507q-2 -26 -4.5 -50t-4.5 -49q-3 -44 -9 -86.5t-17 -82.5q-6 -22 -10.5 -43.5t-9.5 -43.5q-2 -6 -6 -10.5t-6 -9.5q-12 -31 -24 -61.5t-13 -66.5q0 -23 -9 -39.5t-15 -35.5q-5 -17 -10.5 -33.5t-11.5 -32.5q-7 -17 -17 -27q-8 -7 -16.5 -13t-18.5 -10
q-14 -5 -26 6.5t-17 33.5q-2 8 -2.5 15t-1.5 15h-3q1 30 1 60t2 60q2 85 16 164t31 159l8 36t7 37q11 61 29 117.5t41 111.5q6 16 9 37q2 5 4 8t8 1q17 -5 33 -10t31 -16q3 -3 6.5 -5.5t7.5 -3.5q9 -2 11.5 -6t0.5 -15q-1 -14 -0.5 -28.5t3.5 -29.5q3 -13 3.5 -26.5
t-0.5 -26.5z" />
    <glyph glyph-name="zero" unicode="0" horiz-adv-x="382" 
d="M382 272q2 -9 1 -18.5t-1 -19.5q-1 -8 -1.5 -16.5t0.5 -16.5q0 -18 -8 -33q-5 -8 -7 -21q-1 -11 -6 -20.5t-12 -18.5q-8 -10 -12.5 -22t-9.5 -24q-2 -5 -4.5 -10t-8.5 -10q-5 -2 -7 -8t-5 -11q-5 -7 -9 -13.5t-9 -12.5q-9 -11 -20 -17t-26 -4q-9 1 -18 -0.5t-18 -3.5
q-25 -6 -47.5 -2t-44.5 15q-12 7 -23.5 13.5t-22.5 14.5q-14 11 -24 25.5t-16 31.5t-11 33t-10 33q-1 2 -2 3.5t-1 3.5q-1 16 -2 32.5t-3 36.5q5 25 8 55l4 30t5 29q2 12 5 23.5t8 22.5q13 28 27.5 54.5t36.5 49.5q11 11 19.5 24t17.5 25q13 15 29 25.5t31 22.5q2 1 7 -1
q6 -2 9 -6q7 -11 14 -23t13 -24q1 -4 -3 -12q-4 -9 6 -14q20 -11 39.5 -23.5t37.5 -26.5q9 -10 17 -20q16 -21 28 -43t16 -48q2 -15 6.5 -30t6.5 -30zM338 251q-7 12 -8 24q-2 11 -4 23t-7 23q-3 7 -3 14t-2 14q-1 5 -1.5 9t-2.5 8q-6 13 -12 25t-11 25q-10 20 -26 35
t-34 29q-8 4 -9 -3q-1 -11 -7.5 -18.5t-13.5 -14.5q-16 -15 -15 -36q1 -6 0 -12.5t-2 -12.5q-2 -17 -8 -32t-14 -29q-10 -23 -10 -50q-1 -34 -1.5 -68t1.5 -68q1 -16 3 -32t9 -31q5 -9 10 -12.5t13 -5.5q3 -1 6.5 -0.5t7.5 0.5q8 -2 15 2t14 9q4 4 8 12q8 13 17 24t22 19
q5 4 9 10.5t8 11.5q6 8 11 16t11 16q10 10 13 23q3 17 12 32q7 9 1 21z" />
    <glyph glyph-name="one" unicode="1" horiz-adv-x="288" 
d="M274 508q2 -8 -0.5 -12.5t-4.5 -11.5q-5 -12 -3 -25t3 -25q1 -8 0 -15t-7 -15q-8 -11 -12.5 -25t-6.5 -28q0 -7 -3 -14q-3 -10 -6 -19.5t-6 -20.5q-2 -8 -3.5 -16t-4.5 -16q-2 -7 -5 -13t-6 -13q-8 -21 -13 -42.5t-12 -43.5q-1 -2 -1 -7q-2 -21 -4 -41t-10 -40
q-4 -9 6 -11q8 -2 15 -4t15 -5q5 -2 9.5 -5.5t10.5 0.5q1 0 3.5 -2t2.5 -3q-2 -6 -2.5 -13t-5.5 -12q-4 -4 -8 -6.5t-10 1.5q-3 2 -6.5 2t-7.5 2q-15 6 -30 6q-14 2 -28.5 4t-28.5 6q-7 2 -13 1t-12 -3q-11 -2 -21 -6t-21 -9q-9 -4 -19.5 -1.5t-16.5 11.5q-1 2 -1.5 2.5
t-1.5 2.5q-3 5 -8 8l12 3q5 2 11 2.5t11 2.5q11 5 22 8.5t23 5.5q6 0 2 6l-4 6t-4 8q-1 9 1 16q8 26 15.5 52t12.5 53q5 29 12 56.5t15 54.5q4 15 8.5 29.5t9.5 28.5q7 23 11 46t9 46q4 19 6 42q0 4 -3 2q-6 -5 -12.5 -10.5t-11.5 -11.5q-9 -10 -17 -20t-17 -20
q-3 -4 -7.5 -6.5t-7.5 -7.5q-4 -5 -6.5 -9.5t-7.5 -9.5t-11 -5q-7 2 -7 11q0 4 1.5 7t3.5 6q6 9 13.5 16.5t14.5 15.5q8 9 16 18.5t16 18.5q15 16 30 30q4 3 6 6.5t5 7.5q1 2 4 5q5 5 10.5 9t10.5 9q5 6 9 9.5t13 2.5q8 -2 13 -2q8 2 15.5 -1.5t13.5 -8.5q5 -5 9 -12t7 -14
q3 -6 4.5 -12t3.5 -13z" />
    <glyph glyph-name="two" unicode="2" horiz-adv-x="362" 
d="M345 74q1 -11 -0.5 -22t-6.5 -22l-16 -30t-21 -27q-14 -11 -33 -14q-15 -3 -30 -0.5t-29 5.5q-11 2 -21 7t-21 10q-17 8 -32.5 19t-31.5 22q-6 6 -14 4q-14 -3 -25 2t-20 13q-11 9 -20.5 18t-19.5 18q-8 7 -11 14t2 17q8 17 15 34.5t15 34.5q19 42 41 85l16 30l16 30
q11 20 21.5 41t21.5 42q11 20 22 40.5t22 40.5q5 7 8 14t8 14q3 5 1 6.5t-5 3.5q-6 2 -9 2q-5 2 -8 0q-8 -1 -14.5 3t-14.5 -1q-6 -4 -12.5 -7t-12.5 -6t-9 -9.5t-9 -10.5q-3 -3 -7 -4.5t-8 -4.5q-9 -8 -12.5 -21.5t1.5 -24.5q1 -3 2.5 -6.5t0.5 -6.5q-2 -8 -9 -10t-13.5 1
t-11.5 9q-7 12 -4 27q6 28 29 49q3 3 6 7.5t5 9.5q5 8 12.5 14.5t15.5 11.5q11 6 22 12.5t24 8.5q19 4 36 -3q31 -13 58 -37q17 -17 27 -37.5t11 -48.5q1 -5 -1.5 -13t-6.5 -16q-5 -9 -8 -19t-7 -19q-2 -6 -5 -11.5t-5 -10.5q-2 -4 -2.5 -8t-2.5 -8q-6 -11 -12 -22.5
t-11 -22.5q-9 -18 -17.5 -36.5t-17.5 -36.5q-3 -7 -6.5 -13.5t-5.5 -13.5q-3 -5 -5 -11t-4 -11q-4 -9 -8.5 -17.5t-8.5 -16.5q-10 -20 -19 -41q-1 -2 1 -5.5t4 -5.5q8 -7 19 -14q17 -13 35 -25t35 -24q4 -2 7.5 -4.5t9.5 -0.5q8 3 17.5 4.5t13.5 11.5q3 8 5.5 16.5
t-2.5 18.5q-2 4 -6 8.5t1 9.5q7 6 14 10.5t17 2.5q3 -2 6.5 -2t7.5 -1q18 -2 20 -20z" />
    <glyph glyph-name="three" unicode="3" horiz-adv-x="428" 
d="M408 205q-1 -10 -3 -19t-5 -19t-10.5 -16t-11.5 -15q-5 -11 -11.5 -22t-13.5 -21q-14 -21 -30.5 -39t-35.5 -35q-11 -9 -23.5 -18t-26.5 -14q-15 -5 -29.5 -11t-30.5 -9q-4 -1 -8 -1t-8 -1q-8 -1 -16.5 -2t-16.5 -1q-6 0 -12 0.5t-11 3.5q-10 5 -19.5 10t-20.5 8
q-16 5 -21 17q-2 3 -5.5 6t-5.5 6q-6 8 -10 15.5t-4 18.5q0 13 -4 21q-7 17 -2.5 31t15.5 27q15 16 34 25l19 9.5t20 7.5q33 13 59 -9q6 -6 7 -15t2 -17q1 -9 -7.5 -18.5t-18.5 -4.5t-10 14.5t-4 16.5q-3 6 -9 9q-13 6 -23.5 2.5t-18 -11.5t-12.5 -19.5t-8 -21.5
q-7 -18 -8 -34q-1 -20 12 -33t34 -8l10 2t10 1q14 0 27 1.5t26 7.5q2 2 4.5 1.5t4.5 0.5q24 6 39 24q9 12 18.5 24t18.5 25q8 11 11 24q7 20 8 36q1 10 0.5 19.5t-0.5 23.5q1 13 -0.5 28.5t-10.5 30.5q-8 17 -20 29.5t-29 20.5q-5 2 -10 5t-10 5q-11 4 -21 4t-20 -8
q-9 -7 -18.5 -13.5t-19.5 -13.5q-15 -10 -26 1q-7 8 -12.5 15.5t-10.5 15.5q-2 3 -3.5 7t-3.5 6q-10 12 -3 28q3 5 6 10.5t7 9.5q9 8 19 16t19 16q10 8 19 17t17 18q16 18 32.5 35.5t27.5 39.5q2 2 2 4.5t1 5.5l-6 2t-6 0q-20 -5 -38 -12.5t-32 -24.5q-6 -7 -16 -8t-17 5
q-2 1 -2 3.5t1 3.5q20 27 47 40.5t60 15.5q22 1 37.5 -11t25.5 -32q0 -6 2 -12t3.5 -12t2 -12t-3.5 -12q2 -12 -2 -23t-9 -22t-11 -21.5t-13 -20.5q-3 -7 4 -9q8 -2 15 -3.5t14 -5.5q15 -7 29 -14t28 -15q17 -12 34 -26t29 -31t20.5 -37t6.5 -43z" />
    <glyph glyph-name="four" unicode="4" horiz-adv-x="408" 
d="M395 86q-4 -16 -8.5 -31t-12.5 -29t-19.5 -24t-27.5 -15q-12 -3 -24.5 -4t-24.5 -3q-2 -1 -3 -0.5t-2 0.5q-5 1 -10.5 2t-8.5 -1q-5 -4 -11 -8t-8 -12q-3 -11 -6.5 -22.5t-7.5 -22.5q-2 -5 -3 -9.5t-3 -9.5q-14 -21 -33 -5q-1 0 -3 2q-12 8 -13.5 17.5t0.5 23.5
q2 17 6 33t10 32q3 4 -2 7l-48 24q-8 4 -14 -3q-4 -6 -7 -7q-20 -8 -39.5 -8.5t-38.5 13.5q-4 3 -7.5 5.5t-7.5 4.5q-15 5 -19 15.5t-4 23.5v8h-1q2 7 3 13.5t2 13.5q1 9 1.5 18t2.5 18q2 13 3.5 25.5t3.5 26.5q2 11 3.5 22.5t3.5 22.5q1 9 2 18.5t2 18.5q1 5 1.5 9.5
t1.5 9.5q1 17 1 33.5t3 33.5q4 17 4.5 34t5.5 34q1 2 0.5 4.5t-0.5 4.5q-2 34 6.5 65.5t19.5 63.5q0 1 1 1q1 7 5 14q5 -2 9 -3.5t8 -3.5q27 -16 43 -40t27 -52q2 -7 5 -13.5t1 -12.5q-2 -13 -1.5 -25.5t6.5 -25.5q-6 -16 0.5 -29.5t7.5 -27.5q2 -16 2 -30.5t-2 -29.5
q0 -3 -1 -6t0 -5q5 -20 1 -39t-1 -39q0 -4 -1 -5q-7 -13 -7.5 -26.5t-2.5 -27.5q-1 -6 -2.5 -12.5t-3.5 -12.5q-2 -8 -2.5 -15.5t-2.5 -14.5q-3 -8 0.5 -9.5t8.5 -3.5l16 -6t16 -7q8 -3 9 -3t4 6q3 9 6 18.5t8 17.5q15 30 48 33q7 1 13.5 2.5t13.5 1.5q18 0 33 -4
q18 -4 33 -12.5t29 -21.5q7 -7 4 -17zM323 75q-11 24 -34 7q-11 -8 -15 -18.5t-11 -20.5q-1 -1 0.5 -3.5t3.5 -4.5q1 -2 3.5 -1.5t6.5 -0.5q14 3 26 11t20 22q1 4 0 9z" />
    <glyph glyph-name="five" unicode="5" horiz-adv-x="353" 
d="M347 184q-2 -9 -1 -18.5t-5 -18.5q0 -1 -0.5 -2t-0.5 -2q0 -12 -3 -23.5t-8 -22.5l-10 -22t-8 -23q-2 -6 -5.5 -11t-7.5 -10q-11 -14 -22.5 -25.5t-28.5 -16.5q-6 -2 -12.5 -3t-12.5 -3q-4 -1 -7.5 -2.5t-7.5 -3.5q-5 -2 -9.5 -5t-9.5 -3q-17 0 -34 -11q-2 -1 -5 -2t-5 0
q-11 4 -25 4.5t-22 13.5q-1 1 -5 3q-8 4 -13 9.5t-11 10.5q-7 5 -11.5 8t-6.5 12q-2 7 -2 14.5t2 15.5q2 11 5 22t10 20q7 10 15 13t17 8q5 2 6.5 3t4.5 -2q6 -6 1 -15q-9 -16 -8 -30.5t6 -28.5q3 -9 11 -4q17 11 31.5 24t22.5 33q7 17 13.5 34.5t9.5 37.5q-1 14 -1 28
t-2 28q-4 23 -24 40q-7 5 -13.5 10.5t-12.5 10.5q-8 7 -18 8t-19 4q-23 8 -46.5 10t-47.5 5q-9 0 -13 4q-3 2 -5 10q-3 11 -1 26q2 32 12 65q3 11 8 25q3 6 7.5 11.5t8.5 11.5q10 15 19 30l18 30q3 8 10 7q6 -2 12 -3t11 -4q13 -8 31 -3t36.5 9t37.5 8q17 4 33.5 8t33.5 8
q11 2 21.5 2t19.5 -5q15 -8 18 -27q1 -5 0 -10.5t-6 -7.5q-3 -3 -11 -1q-2 2 -4 3.5t-4 3.5q-17 14 -39 12q-12 -1 -23.5 -6.5t-23.5 -9.5q-13 -5 -26 -7.5t-27 -5.5q-7 -2 -13 -4t-13 -4q-20 -9 -19 -30q1 -3 1.5 -6t-1.5 -5q-7 -12 -9 -25.5t-10 -24.5q-5 -5 -2.5 -7
t5.5 -3q13 -5 26.5 -8t26.5 -8q24 -6 45 -15q54 -25 97 -67q10 -10 18.5 -21t16.5 -22q2 -3 4 -13q3 -11 7 -21t2 -22z" />
    <glyph glyph-name="six" unicode="6" horiz-adv-x="352" 
d="M343 147q0 -2 0.5 -4t-0.5 -4q-3 -8 -3.5 -17t-1.5 -17q0 -6 -2 -12.5t0 -12.5q3 -11 -1 -16.5t-12 -10.5q-3 -2 -4.5 -6t-3.5 -7q-10 -15 -20.5 -27.5t-27.5 -21.5q-20 -11 -38.5 -10t-37.5 8q-12 5 -24 7.5t-24 5.5q-45 9 -80 45q-20 23 -33 48.5t-18 55.5
q-2 7 -2 13.5t-1 14.5q0 5 1 9t1 9v8t-1 8q-1 8 -1.5 16.5t0.5 17.5q2 38 9 75.5t24 72.5q9 18 20 35t25 31q11 11 20.5 22t20.5 22q6 8 8 12q8 11 21.5 14.5t26.5 2.5q6 -1 11.5 -3t8.5 -7q3 -8 0 -16q-2 -4 -4 -7t-4 -7q-2 -5 -2.5 -9t-1.5 -9q-2 -13 -6 -23q-2 -4 -4 -12
q-1 -2 -0.5 -4t-0.5 -2q-9 -6 -8 -14.5t-1 -16.5q-1 -8 -2.5 -15t-6.5 -15t-8.5 -17t-1.5 -20q0 -4 -1 -6q-8 -20 -4.5 -39t5.5 -38q2 -17 4 -33t2 -33q-1 -15 1 -29.5t5 -28.5q1 -1 1 -3q-1 -8 0.5 -16t7.5 -14q10 -11 20.5 -19.5t25.5 -12.5q12 -3 22 1t19 12q3 3 5 8
q3 8 6 16.5t5 17.5q1 2 -1 8q-1 5 -2 10.5t-1 10.5q0 10 -9 16q-5 4 -10 7.5t-10 8.5q-8 7 -19.5 7.5t-21.5 -6.5q-4 -3 -7.5 -6t-7.5 -7q-2 -2 -4 -3.5t-4 -2.5q-3 -2 -8 1q-2 2 -2 4v4q2 7 5 8q11 9 22.5 17.5t22.5 16.5q10 7 21 1q6 -3 13 -3q27 0 53 -16q3 -2 6.5 -4
t4.5 -5q1 -6 5 -10.5t8.5 -8.5t8 -9t3.5 -12z" />
    <glyph glyph-name="seven" unicode="7" horiz-adv-x="413" 
d="M401 416q-4 -15 -12 -27.5t-13 -26.5l-9 -30q-2 -5 -3.5 -10.5t-3.5 -11.5q-6 -14 -11.5 -28.5t-11.5 -28.5q-2 -5 -4.5 -9.5t-4.5 -9.5q-2 -4 -4 -7.5t-1 -7.5q1 -11 -3 -20l-8 -18q-4 -11 -6.5 -22t-5.5 -22q-6 -19 -10 -38t-13 -36q-2 -2 -2.5 -5.5t-1.5 -6.5
q-1 -31 -19 -58q-9 -13 -23 -25q-11 -8 -21.5 -14.5t-21.5 -14.5t-23 -11.5t-25 4.5q-34 19 -38 61q-2 16 2 30t7 28q7 31 14 61t15 60q3 10 5.5 20t6.5 20q8 25 16 49.5t17 49.5q11 28 23 55.5t23 56.5q2 6 3.5 12.5t3.5 13.5q2 10 -7 9q-25 -6 -50 -4.5t-51 0.5
q-13 0 -26 -1t-26 4q-7 2 -12 -3t-4 -13q1 -24 6 -48q5 -26 -16 -29q-6 -1 -12.5 -1.5t-11.5 3.5q-7 5 -12.5 12.5t-10.5 14.5q-1 1 0 4t3 4q11 1 11 17q0 5 -0.5 9t1.5 8q3 11 1.5 17.5t-13.5 9.5q-4 1 -8.5 6.5t0.5 14.5v4q-2 3 -4.5 7t-1.5 5q5 8 13 11q17 10 34.5 14.5
t35.5 7.5q22 4 44 6.5t45 2.5q17 1 34 2.5t33 3.5q17 -2 31.5 -2.5t28.5 -2.5q4 0 4.5 1.5l1.5 4.5q1 4 1 8.5t2 4.5q10 4 16 -1q8 -5 15.5 -9t12.5 -11q10 -11 21.5 -19.5t17.5 -23.5l4 -4q17 -17 17 -36.5t-5 -40.5z" />
    <glyph glyph-name="eight" unicode="8" horiz-adv-x="347" 
d="M327 36q0 -7 -0.5 -13t-8.5 -11q-3 -2 -5 -5t-4 -7q-7 -11 -14.5 -21t-20.5 -15q-8 -10 -17 -14.5t-19.5 -7t-21 -3.5t-20.5 -4q-18 5 -37 4.5t-37 6.5q-13 5 -26 7.5t-26 7.5q-26 8 -45.5 24t-33.5 39q-9 15 -12 31.5t-1 32.5q-2 25 3.5 47t13.5 43q8 19 14.5 38
t15.5 38q8 16 18.5 31t20.5 31q3 6 7 11.5t7 11.5q5 11 -4 18q-9 8 -16 16.5t-15 17.5q-5 5 -5 11q-2 12 -2.5 23.5t-2.5 22.5q-1 22 9 41q3 5 5.5 11t4.5 12q12 47 59 54q22 4 45 6q50 3 91 -30q7 -5 13 -16q20 -30 14 -68q-2 -12 -6.5 -23.5t-8.5 -23.5q-2 -8 -4.5 -17
t-3.5 -17q-2 -13 -6 -23.5t-10 -21.5q-3 -5 -5 -9.5t-4 -9.5q-4 -8 -7 -17t-8 -17q-6 -10 -5 -12t9 -10q11 -10 21.5 -21t23.5 -19q7 -5 13.5 -10.5t12.5 -11.5q10 -10 18.5 -20.5t16.5 -22.5q3 -5 5 -11t0 -13q-3 -11 -5.5 -21.5t5.5 -21.5q2 -2 1.5 -6t-0.5 -7v-36z
M209 519q4 5 1.5 7.5t-6.5 4.5q-6 2 -8 2q-17 2 -34.5 2t-35.5 2v1h-10t-8 -2q-9 -7 -17.5 -14t-9.5 -21q-1 -5 -3.5 -10.5t-4.5 -10.5q-14 -27 -7.5 -51.5t18.5 -47.5q11 -21 26 -1l34 46l34 46q4 5 7.5 10t7.5 10q5 7 8.5 13.5t7.5 13.5zM271 100q4 9 3 16.5t-4 15
t-6.5 14.5t-4.5 15q0 2 -3 2.5t-5 2.5q-5 7 -11 13.5t-6 14.5q-1 17 -10 27t-20 21q-6 6 -9 -3q-3 -11 -7 -20.5t-8 -20.5q-5 -14 -9 -26.5t-8 -26.5q-6 -21 -9 -43q-3 -20 -5.5 -41t-4.5 -41q2 0 2 -1q0 -2 0.5 -4t-0.5 -4q-4 -11 10 -13q11 -2 22.5 -4.5t22.5 -1.5
q8 1 17 3t14 12q2 3 4.5 5.5t4.5 5.5q8 11 15 21t13 21q2 5 0 11t-2 11q0 11 4 18z" />
    <glyph glyph-name="nine" unicode="9" horiz-adv-x="334" 
d="M319 504q1 -5 -1 -9.5t-1 -9.5q2 -19 -4 -36.5t-10 -35.5q-2 -12 -5 -24t-8 -23q-2 -5 -1 -7q2 -14 -1 -27.5t-7 -26.5q-5 -17 -4.5 -34.5t3.5 -35.5q2 -13 0 -25t-4 -25q0 -2 -1.5 -3t-0.5 -2q0 -17 -3 -34l-6 -34q-2 -11 -3.5 -21t-4.5 -21q-5 -15 -8.5 -30t-8.5 -29
q-2 -8 -7 -14t-14 -8q-10 -2 -19 -6t-20 1q-2 0 -3 -0.5t-3 -0.5l-8 -4t-8 -1q-10 2 -21 5t-19 8q-35 24 -39 64q-1 8 1.5 17t4.5 17q6 20 13 39.5t12 39.5q8 30 15 60.5t9 61.5q1 15 4 29.5t5 28.5h-2q0 2 0.5 4t-0.5 4q0 5 -2 15l-6 -4l-6 -4q-9 -5 -17.5 -11.5
t-17.5 -10.5q-11 -5 -23 -7t-26 2q-12 3 -20 10.5t-15 16.5q-5 7 -8.5 15.5t-8.5 17.5q-6 14 -3.5 27.5t10.5 25.5q6 11 13 21t13 21q10 17 25.5 23t33.5 9q19 4 35 -3t32 -17q5 -4 9.5 -7t9.5 -7q6 -5 11 -11q2 4 4 7.5t4 7.5q6 10 12 19.5t11 19.5q4 5 5.5 11t-2.5 13t6 7
l9 -3q8 -2 9.5 0t0.5 10q-3 12 9 13q17 1 31 -13q5 -5 9 -11.5t14 -4.5q4 0 6 -7q3 -11 6 -21.5t5 -21.5zM155 439q-11 12 -23 23q-8 8 -12 8t-13 -5q-17 -9 -30.5 -21t-26.5 -26q-11 -14 -14 -31q-1 -6 1 -12l4 -12q1 -1 14 -3q7 2 16 3.5t17 6.5q10 5 19 11t18 13
q12 8 24 20q5 5 7 13t-1 12z" />
    <glyph glyph-name="colon" unicode=":" horiz-adv-x="291" 
d="M207 385q2 -10 1.5 -20t-7.5 -18q-6 -7 -12.5 -14t-14.5 -13q-10 -8 -21 -8.5t-21 3.5t-18 12t-11 17q-3 11 -5.5 22t-4.5 22q-2 1 0 3q7 5 11.5 11.5t14.5 7.5q11 1 21 2t24 3l10 -4q2 -1 3.5 -2t3.5 -1q11 -1 17 -8t9 -15zM202 208q-5 -23 -13.5 -44.5t-33.5 -32.5
q-4 -2 -8 -2.5t-6 -1.5q-17 1 -27.5 9t-17.5 21q-5 8 -7.5 18t-4.5 19q-1 2 0 4.5t3 4.5q6 6 11 7l30 12t31 11q8 3 16 1.5t16 -5.5q5 -4 9 -9.5t2 -11.5z" />
    <glyph glyph-name="semicolon" unicode=";" horiz-adv-x="240" 
d="M145 199q7 -20 -8 -43q-2 -2 -4 -4.5t-5 -4.5q-10 -4 -19.5 -7t-16.5 -6q-15 0 -27.5 8.5t-12.5 26.5q0 4 1 6l6 14t7 13q10 21 32 16q9 -2 18.5 -5t18.5 -5q7 -1 10 -9zM164 -12q-5 -9 -9.5 -18.5t-9.5 -18.5q-8 -13 -18.5 -22.5t-23.5 -17.5q-14 -9 -29 -4q-7 2 -10 8
l-6 12q-4 8 3 15q10 8 15.5 17.5t10.5 20.5q6 13 4.5 18.5t-11.5 13.5q-12 11 -20 25t-6 32q2 11 8 21q2 2 6 3l8 2v-1q14 -2 28 -2.5t28 -2.5q10 -1 13 -4t5 -13q0 -7 6 -15q3 -5 4 -8t-4 -8q-5 -6 -4.5 -8.5t6.5 -7.5q17 -15 6 -37z" />
    <glyph glyph-name="less" unicode="&#x3c;" horiz-adv-x="333" 
d="M295 337q-5 -16 -12.5 -30.5t-18.5 -27.5q-7 -8 -13.5 -14t-15.5 -10q-3 -2 -5.5 -4.5l-4.5 -4.5q-10 -8 -19 -17t-19 -17q-9 -7 -19 -12t-20 -11q-13 -8 -26.5 -16t-24.5 -18q14 -11 31.5 -20.5t33.5 -20.5q22 -15 44 -30.5t45 -30.5l8 -6t6 -8q2 -4 1.5 -9.5t-4.5 -7.5
q-5 -3 -10.5 -1.5t-10.5 3.5q-61 33 -119 74q-14 10 -27.5 21.5t-28.5 19.5q-14 8 -24 12.5t-18 20.5q-2 5 -2.5 9.5t-1.5 9.5q3 38 25 63l26 26q22 23 43.5 46.5t44.5 46.5q7 7 13 13.5t14 13.5q2 3 8 1l42 -12q3 -1 6.5 -1.5t5.5 0.5q6 2 10 0.5t9 -4.5q5 -5 10.5 -9
t10.5 -9q12 -14 7 -29z" />
    <glyph glyph-name="equal" unicode="=" horiz-adv-x="444" 
d="M346 290q6 -11 2 -22t-13 -11q-21 0 -41.5 0.5t-41.5 0.5q-14 0 -27 -0.5t-27 -1.5l-24 -2t-23 1t-22 1t-21 -6q-9 -5 -17.5 -5t-18.5 3q-11 5 -16 21q-4 8 -6.5 16.5t-4.5 16.5q-2 6 4 6q12 2 24.5 4.5t25.5 4.5q8 1 16.5 2t16.5 2q14 1 27 1.5t26 1.5v-1q19 1 37 1
t36 1q6 0 12 1t12 3q4 0 8 2q20 4 32.5 -9.5t23.5 -31.5zM352 170q6 -12 -5 -17q-3 -1 -9 -1q-11 2 -20.5 3t-19.5 3q-17 4 -34.5 1t-34.5 -2q-11 0 -22 1l-22 2q-13 1 -25.5 1t-25.5 -3q-5 -1 -18 -4t-26.5 -3.5t-23 3.5t-7.5 18q0 4 3 9q6 6 11 7q19 9 37 7t37 2h4
q22 1 43 1.5t43 1.5q19 1 38 0.5t39 -0.5q13 0 22 -8.5t16 -21.5z" />
    <glyph glyph-name="greater" unicode="&#x3e;" horiz-adv-x="348" 
d="M267 221q-2 -4 -5 -8t-6 -9q-1 -2 -3.5 -3t-3.5 -3q-4 -18 -25 -23q-3 -1 -6 -4l-6 -6q-15 -14 -28.5 -28.5t-31.5 -24.5q-3 -2 -5.5 -5t-5.5 -6q-12 -12 -24 -24.5t-24 -25.5q-4 -4 -6.5 -8t-6.5 -8l-10.5 -10.5t-11.5 -10.5q-2 -2 -6 -1.5t-6 2.5q-8 5 -11.5 15.5
t1.5 18.5q14 26 28 51.5t37 45.5q12 11 21.5 23t19.5 24q5 6 11 11.5t11 12.5q3 4 4 7.5t-4 8.5q-8 8 -14.5 17t-14.5 17q-14 15 -28.5 29t-28.5 29q-13 14 -25.5 28.5t-24.5 29.5q-6 7 -11.5 13.5t-10.5 13.5q-2 2 -2.5 4t-1.5 4q5 0 7 1q24 7 49 -2q5 -2 9.5 -4.5
t9.5 -4.5q8 -3 16.5 -6.5t16.5 -7.5q8 -3 15 -8t14 -11q11 -11 23 -22t24 -21q29 -23 50 -55q8 -11 14 -22l12 -22q2 -2 2.5 -5t2.5 -7z" />
    <glyph glyph-name="question" unicode="?" horiz-adv-x="406" 
d="M371 464q-1 -2 -1 -6q3 -15 -1 -28t-8 -27q-2 -7 -5 -13.5t-6 -14.5q-7 -14 -17 -24.5t-19 -21.5q-10 -11 -18 -22.5t-19 -20.5q-3 -2 -5.5 -4.5t-5.5 -4.5q-7 -6 -12.5 -12.5t-9.5 -15.5q-1 -4 -5 -12q-10 -15 -9 -33q0 -9 -3 -15q-3 -5 -3.5 -11.5t0.5 -12.5
q2 -14 0 -26.5t-3 -25.5v-8.5t-1 -8.5q0 -9 -2.5 -12t-10.5 -5q-5 0 -8 -3q-15 -9 -34 -4q-20 5 -34.5 18t-27.5 30q-10 13 -7 31q3 20 4.5 40.5t4.5 40.5q2 14 6 28.5t8 28.5q7 29 20 54.5t28 48.5q4 6 8 10l9 9q17 16 33.5 31t32.5 32q8 8 15.5 16t9.5 21q1 8 0 10.5
t-8 5.5q-14 6 -28 5t-28 -4q-23 -5 -43.5 -15.5t-40.5 -23.5q-5 -3 -9 -9q-5 -7 -10 -13.5t-10 -14.5t-11.5 -11t-13.5 -5q-3 -1 -7 3q-6 7 -13 12.5t-11 16.5q-1 3 -4.5 5.5t-3.5 5.5q0 2 3 4.5t5 5.5q5 8 8.5 15.5t8.5 14.5q11 13 26 27q9 8 18.5 15t19.5 14q10 8 20 11
l34 14t36 11q12 3 24 3q15 1 29 -2t27 -12q11 -8 20 -17t18 -20q9 -12 17 -24t16 -26q5 -11 8 -23t-1 -26zM212 -46q-1 -2 -1 -8q2 -17 -9 -25q-1 -1 -3 -7q-2 -9 -8 -13.5t-13 -7.5l-10 -4l-10 -4q-19 0 -34 15.5t-16 41.5q-1 11 0.5 21.5t3.5 20.5q1 5 5 7t9 3
q14 2 28.5 0t28.5 -3q3 -1 6.5 -1.5t6.5 -2.5q18 -6 16 -33z" />
    <glyph glyph-name="at" unicode="@" horiz-adv-x="676" 
d="M639 336q-1 -5 -3 -9.5t-2 -9.5q-1 -13 -7 -23t-8 -22q-1 -7 -4 -13.5t-5 -12.5t-2 -12.5t-2 -11.5q-3 -5 -8 -8.5t-8 -8.5q-9 -12 -22.5 -34t-30 -41.5t-35.5 -30.5t-39 0q-17 9 -30.5 21t-19.5 32q-2 5 -4.5 4.5t-4.5 -2.5q-3 -2 -5.5 -5t-4.5 -5q-6 -6 -9 -7
q-12 -4 -21.5 -10.5t-19.5 -14.5q-11 -9 -24 -13.5t-27 -5.5q-31 -2 -59 17q-19 13 -27 37q-3 13 -6.5 25.5t-4.5 25.5q-1 12 1.5 24t4.5 25q0 3 0.5 6.5t0.5 6.5q1 0 1 1q8 15 17 28q11 19 24 36t30 31q15 13 34 25q3 2 11 2q15 -4 29.5 -5.5t30.5 2.5q2 1 4 0.5t4 -0.5
q17 -5 34.5 -5t33.5 -9h1q13 1 19.5 -5.5t9.5 -17.5q1 -2 1 -3t1 -3q9 -13 -1 -32q-8 -14 -14 -28q-4 -7 -11 -4q-2 1 -3 2t-3 2q-6 2 -2 8q11 11 2 25q-1 2 -1 3.5t-1 3.5l-4 12t-4 11q-8 16 -23 4q-4 -2 -8 -4.5t-8 -5.5q-6 -5 -11 -9t-10 -10q-15 -18 -26 -40
q-13 -24 -25 -48t-18 -51q-5 -20 -5 -37q1 -8 2 -9t9 3q6 2 11.5 5t11.5 6q3 2 6.5 3.5t5.5 4.5q13 17 25 33.5t26 33.5q7 9 11.5 18.5t2.5 21.5q0 6 8 8q11 2 21.5 1.5t21.5 -2.5q12 -1 8 -13q-6 -14 -11 -28t-4 -30q0 -11 6 -16q2 -2 4.5 -5.5t2.5 -5.5q-1 -10 2.5 -19.5
t-3.5 -19.5q-6 -8 4 -12q2 -1 5 0t5 3q12 7 21 16.5t17 20.5q5 7 10.5 13t5.5 16q0 7 1.5 13.5t7.5 11.5q1 1 1 5q-4 6 -1 11t5 10t4.5 10t2.5 10q0 18 10 36q8 11 4 20t1 18q7 17 -6 33q-9 11 -8 24q0 7 -1.5 12.5t-9.5 9.5q-3 2 -5 6t-5 7q-2 4 -4.5 7.5t-5.5 5.5
q-14 9 -32 15q-9 4 -18 6.5t-18 5.5q-18 5 -36 5.5t-36 -2.5q-5 -1 -9.5 -1t-9.5 -2q-20 -7 -40 -14.5t-38 -21.5q-30 -23 -57.5 -56t-47.5 -66q-25 -44 -39 -97q-5 -17 -5.5 -35.5t-2.5 -36.5q-2 -14 -5.5 -29t-1.5 -29q5 -29 30 -50t52 -29q33 -9 61.5 -3.5t60.5 8.5
q30 2 56 4.5t52 19.5q4 2 7 4t7 2q5 1 8.5 -0.5t4.5 -6.5q1 -8 -10 -15q-27 -17 -60.5 -30t-69 -20.5t-71.5 -8.5t-68 5q-35 7 -67 18.5t-53 40.5q-23 30 -35 65.5t-18 72.5q-3 20 -7.5 38t1.5 38q7 27 19.5 53.5t25.5 50.5q11 20 23.5 38.5t24.5 38.5q11 16 22.5 31
t24.5 29q6 6 13 11.5t12 12.5q6 8 14 12.5t18 6.5q14 4 26.5 8.5t26.5 6.5q11 2 23 2t24 -1q11 -1 23 -2t23 -3q16 -2 31 -4t31 -5q7 -2 13 -5t13 -6q9 -4 18.5 -7.5t19.5 -6.5q11 -3 21 -6.5t19 -9.5q5 -3 11 -5t11 -5q12 -8 24 -15t22 -17q17 -16 27 -42l6 -18t5 -17
q2 -5 1.5 -10.5t-0.5 -10.5z" />
    <glyph glyph-name="A" unicode="A" 
d="M521 -146q-2 -3 -4.5 -6.5t-7.5 -3.5q-8 0 -10 5q-3 5 -7 8.5t-8 8.5q-3 4 -6.5 8t-5.5 9q-2 4 -3.5 8t-3.5 8l-1.5 3t2.5 2v1l-2 6l-2 6h-1q0 -3 0.5 -5.5t0.5 -5.5q-5 10 -2 18h-1q-1 -1 -1.5 -1t-1.5 -2v4q2 4 0.5 9t-5.5 7q-1 1 -1 6q0 3 -0.5 6t-0.5 6l-1 1
q-3 1 -3 3v4q1 2 0.5 4.5t-0.5 5.5q0 1 -0.5 1.5t-0.5 1.5q-1 2 -1 5q-1 3 -1 6t-1 6l-3 12l-2 -1v14q-2 5 -4 11l4 2q-4 1 -4.5 -1t-0.5 0q0 5 -1 8.5t-2 8.5q0 2 0.5 2.5t0.5 2.5q1 1 1 2l-1 1l-3 3q-1 13 -2 25t-1 25q0 6 -1.5 11.5t-1.5 10.5v12t-1 12q0 9 -0.5 18.5
t-1.5 19.5q0 5 -5 3h-1q-1 0 -1 1q-5 5 -10 4.5t-10 0.5t-9 1t-8 2q-2 2 -5.5 1.5t-6.5 0.5q-5 0 -10.5 0.5t-11.5 0.5q-2 -6 -3 -10q-2 -9 -5 -17.5t-9 -16.5q-8 -11 -13.5 -23t-10.5 -24q-6 -17 -12 -33.5t-14 -33.5q-7 -13 -15 -28.5t-20 -24.5q-20 -15 -41 -29.5
t-43 -26.5q-2 -1 -2.5 -1.5t-2.5 -1.5l-9 -3q-2 -1 -4 -1.5t-4 -1.5q-1 -1 -4 -1q-2 3 -3.5 2t-3.5 -1q-4 -1 -14 -1q-6 0 -9 1q-4 0 -7.5 1t-7.5 2q-2 0 -2.5 0.5t-2.5 -0.5q-7 -2 -13.5 -0.5t-12.5 3.5q-8 2 -14 0q-6 -1 -11.5 1t-10.5 4q-6 3 -11.5 6t-11.5 6t-12 6.5
t-12 6.5q-2 2 -4.5 2t-4.5 2v8.5t-1 9.5q0 4 -4 6q-5 4 -2 11q2 4 2 8q-1 9 1.5 17.5t7.5 16.5q5 7 8.5 13.5t8.5 13.5q2 2 5.5 3t5.5 -1q5 -3 7 -9q2 -3 3.5 -6.5t3.5 -6.5v-2q-2 -6 -0.5 -11.5t2.5 -11.5q2 -8 5 -11q2 -4 7 -2q5 1 10.5 2.5t10.5 3.5q4 1 4 5q0 1 2 7
q3 0 5 1q2 0 3 -1q5 -3 9 1q10 7 14 16q2 6 4 12.5t6 12.5q2 3 2.5 7t5.5 6l1 2q-3 4 3 6l4 4q-2 1 -2.5 1t-2.5 1q1 2 1 2.5t1 2.5q2 -2 4 -3q0 4 -1 4q-6 5 1 9l4 4t1 5q0 1 0.5 1.5t0.5 1.5q-3 4 -1 7t3 6q2 3 4.5 5.5t4.5 5.5h-2q1 5 1 9.5t1 9.5q1 1 2.5 1.5t3.5 2.5
q1 0 2 1l-1 2q2 4 4.5 7.5t4.5 8.5q-2 0 -6 2q2 2 3.5 4.5t2.5 4.5t0.5 4t0.5 4q2 9 -6 9h-2v1q0 -1 2 3h-11q-2 0 -3 0.5t-3 0.5q-4 0 -7 -0.5t-7 -0.5q-5 -1 -15 -1h-12t-12 -1h-4t-3 -3q-4 0 -6 1l-2 2l-1 -2l-1 -2h-15h-7q-8 -2 -16 -2.5t-16 -0.5q-6 0 -16 -2h-7
q-6 -1 -8 -8q0 -7 -5 -2q-2 1 -3.5 2t-3.5 3q-1 1 -5 3q-1 2 -5 4q-1 2 -2 2.5t-2 2.5t-2 5t0 5q1 5 2.5 10t3.5 10t6 2q13 -6 27 -6q8 -1 15.5 -2.5t15.5 -2.5q7 -1 13.5 -2t13.5 0q5 2 9 0t9 0q2 0 4.5 0.5t4.5 0.5q4 -1 7.5 -1t7.5 -1q6 0 12 -0.5t12 -0.5q4 -1 7.5 0
t6.5 1q8 -1 13 -2.5t12 -0.5q7 2 14 3.5t13 3.5q4 1 9 12t6 15q2 7 1 13.5t3 12.5q6 11 9 22.5t8 23.5q2 6 4 12.5t4 13.5t3 13.5t3 14.5l3 9q2 5 4 11t4 11q5 8 7 17l4 18t5.5 17.5t4.5 18.5q2 7 2.5 13.5t2.5 13.5q0 2 -0.5 2.5t-0.5 1.5q-1 -2 -1.5 -2.5t-1.5 -2.5
q-6 9 -1 15q1 2 1 4.5t1 4.5q2 5 4 9l4 8l4 12l4 12q2 5 5 10.5t5 11.5q2 3 3 6.5t4 5.5q-1 0 -1 1t-0.5 1t-0.5 1h-1q4 6 5 9q1 2 1.5 4.5t-1.5 4.5q0 2 1 3q2 6 2 8q1 6 8 5q8 -3 14.5 -5t13.5 -5q21 -8 34 -20q4 -3 8 -5.5t8 -6.5q5 -5 10.5 -10t7.5 -13q0 -2 2 -3l4 -2
q17 -3 15 -17q-1 -1 0 -1q2 -3 1.5 -6.5t0.5 -7.5q4 -14 6.5 -26.5t1.5 -26.5q-1 -9 -0.5 -17.5t0.5 -16.5q0 -4 -0.5 -7.5t-0.5 -7.5q0 -2 0.5 -4.5t0.5 -4.5q1 -3 1 -6t1 -6q1 -6 1.5 -12t1.5 -11t1.5 -9.5t1.5 -9.5v-10t1 -10q0 -2 1 -3t1 -3q0 -3 -0.5 -6t-0.5 -6
q1 -3 1 -6t1 -5q0 -5 1 -9.5t1 -9.5q1 -6 0.5 -11.5t0.5 -10.5q0 -5 0.5 -10t1.5 -10q1 -2 2 -4.5t-1 -4.5q-2 -4 -0.5 -7t1.5 -7l3 -15q1 -7 2 -13t3 -12q0 -5 2 -15q1 -8 1.5 -15.5t2.5 -15.5q2 -6 3 -12t3 -13q1 -2 1 -5t1 -6q2 -6 3 -12.5t2 -12.5q1 -7 2.5 -13.5
t3.5 -13.5q2 -8 3 -16t3 -16q1 -9 5 -20q1 -8 2 -10.5t3 -9.5t3.5 -13.5t3.5 -13.5l9 -36q1 -3 0.5 -6t0.5 -7q0 -2 2 -6q2 -7 3.5 -13t2.5 -12q1 -5 3.5 -10.5t2.5 -11.5q-1 -8 0.5 -16.5t2.5 -16.5q2 -5 1 -6zM413 248q-5 48 -13 94t-15 93q-2 -2 -2 -4.5t-1 -5.5
q-2 -6 -2 -10t0.5 -8t-0.5 -9q-1 -7 -2 -13t-3 -13q-1 -9 -1.5 -18.5t-4.5 -18.5v-3q1 -8 -1.5 -14.5t-4.5 -14.5q-2 -3 -3 -6.5t-3 -6.5q0 -2 -1 -3t0 -3q1 -13 -6 -25q-2 -2 -5 -11h68z" />
    <glyph glyph-name="B" unicode="B" horiz-adv-x="595" 
d="M630 329q-1 -1 -4 -2t-12 -8l-48 -36q-3 -3 -6 -5l-6 -4q-5 -5 -9 -8l-2.5 -2.5t-2.5 -3.5q-1 -2 -3.5 -3t-3.5 -3q-1 -3 -4 -4t-4 -4q-1 -10 8 -19q8 -9 12 -20.5t6 -23.5q2 -9 3.5 -18.5t2.5 -18.5q2 -13 2.5 -25.5t1.5 -25.5q1 -7 1.5 -14t0.5 -15q-1 -13 -2 -25
t-3 -25q-1 -5 -4.5 -9t-7.5 -7q-11 -9 -24 -15q-11 -6 -20 -13.5t-18 -15.5q-8 -8 -12 -14.5t-12 -12.5q-10 -6 -12.5 -8t-7.5 -12q-3 -5 -6.5 -8t-5.5 -8q-5 -9 -15.5 -18t-16.5 -17q-11 -14 -25 -20t-28 -11q-9 -3 -19 -2t-20 0h-21q-13 1 -23 7t-17 16q-9 14 -11 32
q-3 25 -2 45q1 10 2 17t3 13.5t5 13t7 16.5q9 20 17.5 41t18.5 41q26 54 76 91l4 4l4 4q6 6 9 8.5t3.5 4.5t-1 6l-4.5 12q-18 46 -54 81q-15 14 -32.5 19.5t-34.5 13.5q-8 2 -12 4q-7 3 -16 -1q-13 -6 -23 7q-2 2 -4 2q2 -7 3 -14t3 -14q2 -10 4.5 -19t4.5 -19
q2 -11 3 -21.5t3 -21.5q1 -11 2 -21.5t2 -21.5q2 -14 -5 -24.5t-16 -21.5q-8 -9 -15.5 -19.5t-7.5 -25.5q0 -5 -3 -10.5t-4 -10.5q-2 -9 -3.5 -19t0.5 -19q3 -14 -1.5 -26.5t-8.5 -25.5q-2 -7 -4.5 -13.5t-9.5 -10.5q-5 -2 -10.5 -4t-11.5 -4l-2 3q3 5 0 7.5t-5 4.5
q-11 11 -17.5 24.5t-9.5 28.5q-8 32 -16.5 63.5t-16.5 63.5q-5 19 -9 38t-8 39t-6.5 40t-4.5 40q-4 30 -7.5 60t-6.5 59t-2 59t3 59q1 6 1 12.5v12.5q1 11 -13 15q3 11 8 17t17 5q10 -1 19.5 0t19.5 3q4 0 7.5 1t7.5 1q11 0 22 -3q1 0 0.5 -2t-0.5 -4q5 -2 12 -3t12 -4
q7 -5 13 -11t12 -13q5 -5 8 -10t8 -10q10 -7 10 -21q-1 -12 2 -28q7 10 13 20t14 20q16 23 34.5 42t42.5 34q8 5 15 9.5t15 7.5q8 4 17.5 5.5t17.5 3.5t11 4q5 5 10.5 3.5t10.5 -3.5q20 -8 34 -16q3 -2 5 -5l4 -6q9 -16 10.5 -32.5t-2.5 -33.5q-7 -28 -26 -46l-3.5 -3.5
t-1.5 -3.5q-2 -8 -7.5 -12t-10.5 -9q-3 -3 -6.5 -6t-5.5 -8q-5 -10 -13.5 -14.5t-15.5 -12.5l-6 -6t-6 -7l-12 -15q-5 -5 -10 -10.5t-10 -11.5q14 -3 27.5 -6t25.5 -8q18 -9 35 -19.5t34 -21.5q5 -2 9.5 -4.5t9.5 -5.5l26 -18t26 -19q7 -4 12 1q5 3 5 2.5t-1 -2t-1.5 -1.5
t4.5 4q4 5 5.5 7t6.5 6q1 1 4.5 2.5t4.5 2.5v2q2 2 4 2q1 2 2 2.5t2 1.5q2 2 5 3t5 3q2 1 0.5 1t0.5 1l6.5 4t14 9t14 9t7.5 4q4 2 9 7.5t8 7.5q6 2 13 2q3 0 5 -3t0 -7q-1 -2 1.5 -6t0.5 -6zM364 611q-11 1 -20.5 0t-17.5 -8q-5 -5 -11 -7t-11 -5q-7 -4 -13 -8t-13 -8
q-10 -6 -15 -20q-1 -2 -2 -3t-2 -3q-8 -10 -15.5 -19t-11.5 -21q-2 -6 -5 -12t-7 -11q-18 -19 -27 -38q-4 -8 -7 -15.5t-7 -15.5v-4q2 -7 2.5 -14t2.5 -15q1 -8 2 -15.5t3 -16.5q4 5 6.5 9.5t6.5 7.5q5 5 10.5 9t10.5 9l18 20t17 21q20 31 39.5 61.5t38.5 62.5
q8 14 14.5 28.5t13.5 30.5zM390 41q2 17 1 33.5t-2 33.5q-1 24 -6 53q-2 -2 -3 -2.5t-2 -1.5q-3 -9 -9 -15.5t-13 -11.5q-14 -10 -23 -23t-16 -27q-10 -20 -18 -41.5t-16 -43.5q-5 -14 -9.5 -27.5t-4.5 -28.5v-6.5v-2.5v-2.5v-6.5q0 -15 3 -27q2 -8 5 -15t8 -13
q5 -8 13.5 -8t14.5 5q15 14 25 23.5t11 31.5q0 16 5 30t11 28t11 28q4 10 8 19t6 18z" />
    <glyph glyph-name="C" unicode="C" horiz-adv-x="497" 
d="M559 402q2 -1 0.5 0.5t-0.5 -0.5q8 -19 5 -39.5t-8 -40.5q-2 -8 -8 -17.5t-8 -17.5q-14 -53 -36 -108.5t-43 -105.5q-1 -2 -2.5 -4.5t-3.5 -5.5q-3 -5 -5.5 -11t-5.5 -11q-2 -4 -6 -10q-9 -15 -19 -29.5t-21 -28.5q-9 -11 -20 -20.5t-22 -19.5q-19 -17 -41.5 -21.5
t-45.5 -9.5q-27 -5 -50.5 1t-45.5 19q-23 15 -43 34.5t-31 45.5q-11 23 -20 47.5t-19 49.5q-4 10 -8 19.5t-7 20.5q-4 13 -7 25.5t-6 26.5q-5 25 -11.5 49.5t-9.5 50.5q-3 20 -2.5 41.5t0.5 42.5q0 25 -1 40.5t-1 29t2 29t8 39.5q5 20 9 40.5t16 37.5q4 7 8.5 13.5t9.5 11.5
q15 16 35 15q11 -1 21 0.5t20 8.5q5 3 11 3.5t11 0.5q14 1 27 3t27 4q16 3 32 2.5t32 -0.5q10 1 20 1.5t20 0.5q17 0 34 -14q18 -14 25.5 -33.5t21.5 -34.5q1 -8 1.5 -13t1 -8.5t1 -8.5t1.5 -13q1 -9 -0.5 -18.5t-3.5 -18.5q-7 -34 -42 -46q2 14 4 27.5t3 27.5q0 9 1 14
t2 9.5t1.5 9.5t0.5 14q0 10 -6 19q-9 13 -18.5 26t-19.5 26q-4 6 -9 7q-7 3 -16.5 2t-19 -4t-17.5 -8t-12 -11q-6 -9 -12.5 -17.5t-12.5 -18.5q-8 -13 -8.5 -26t9.5 -27q11 -15 9 -31t-8 -33q-5 -14 -11 -28t-10 -29q-3 -11 -3 -13t1 -2t3.5 -2t5.5 -14q2 -6 1 -13l-2 -14
q-2 -13 -2 -25t0.5 -24t2 -24.5t2.5 -27.5q1 -11 1 -19.5t1 -19.5q2 -14 3 -24.5t3 -25.5q2 -16 3.5 -27t3.5 -27q2 -12 2 -22.5t1 -20.5t2.5 -20t6.5 -22q7 -15 12.5 -25.5t20.5 -21.5t27 -13t22.5 2t19.5 12.5t18 19.5q43 52 71 106t45 119q11 44 31 85t34 85q1 3 2.5 8
t3.5 9t4.5 6.5t5.5 0.5z" />
    <glyph glyph-name="D" unicode="D" horiz-adv-x="625" 
d="M702 345q3 -5 -2 -10q-8 -10 -19 -17l-22 -14q-5 -4 -24.5 -22t-41.5 -39t-41.5 -39t-24.5 -21q-12 -9 -15 -24q-2 -8 -6 -13t-9 -10t-8.5 -10.5t-6.5 -11.5t-5 -12.5t-5 -12.5q-2 -4 -4 -6.5t-4 -5.5l-2 -4t-1 -4q0 -8 -6 -12q-2 0 -2 -3q4 -8 -0.5 -12t-5.5 -10
q-2 -7 -4 -12.5t-4 -11.5q-2 -7 -5 -8q-5 -2 -7 -5.5t-4 -7.5q-5 -8 -10 -17t-10 -17q-5 -7 -10 -13t-14 -8q-6 -2 -11 -4t-12 -3q-16 0 -28 4q-9 3 -17.5 5.5t-16.5 6.5q-5 2 -9.5 4.5t-9.5 5.5q-5 4 -9.5 8t-9.5 6q-2 1 -4 4.5t-2 5.5q1 8 2 15t3 13q8 24 21 44.5t33 37.5
q11 9 22 17.5t22 17.5q7 6 7 17q-1 11 -1.5 22t0.5 22q1 17 2.5 34.5t2.5 34.5q2 23 2 46.5t-5 47.5l-6 36t-8 36q-4 18 -9.5 35t-13.5 34q-4 8 -6 17t-6 17q-5 13 -10 25.5t-13 24.5q-5 7 -7.5 7.5t-7.5 -4.5q-8 -11 -15 -20.5t-15 -20.5q-6 -8 -11.5 -16.5t-8.5 -18.5
l-14 -34t-12 -35l-6 -20t-5 -21q-3 -10 -1 -26q2 -6 1 -12t-1 -12q0 -12 -0.5 -24t1.5 -23t1.5 -23t2.5 -23q2 -6 1.5 -11.5t-0.5 -10.5q1 -6 1.5 -11.5t0.5 -10.5q-1 -10 -2 -18.5t-2 -17.5q-2 -10 -2.5 -19.5t-2.5 -18.5q-2 -15 -1.5 -30t-7.5 -29v-2q5 -13 -0.5 -21
t-10.5 -16q-11 -16 -18 -37q-3 -12 -13 -18q-4 -2 -8 -3.5t-1 -8.5q-4 -2 -7.5 -5.5t-7.5 -4.5q-11 -2 -21 -2.5t-22 2.5q-14 3 -24.5 11t-20.5 18q-2 2 -2 4q0 12 -4.5 23.5t-4.5 23.5q0 23 -2.5 45.5t-3.5 45.5q-1 17 -0.5 34.5t-0.5 35.5q0 26 -0.5 51.5t-0.5 51.5
q0 20 0.5 41t0.5 42q-1 21 -0.5 42.5t-1.5 43.5q-1 11 -1 22.5v22.5q0 19 -0.5 37.5t-0.5 37.5q0 12 0.5 24t1.5 24q1 4 -2 10q-5 5 -4.5 6.5t7.5 1.5q6 -1 12.5 -2.5t13.5 -3.5q5 -1 9.5 -3.5t7.5 3.5q2 2 7 -1q20 -8 37 -14q6 -2 9 -4t4 -8t5 -11t9 -9q14 -9 17 -25v-1
q11 -14 11 -29t5 -29t8 -27.5t8 -27.5q1 -5 3.5 -8t4.5 -8q2 -3 2.5 -6t2.5 -7q2 4 3 7t3 7l12 36t13 36q4 11 9 21.5t13 19.5q5 6 9 12.5t9 13.5q4 6 4 10q-1 3 -3 6.5t2 5.5q5 2 9 5t9 5h9q1 0 3 0.5t5 -0.5q10 -3 19.5 -6.5t19.5 -6.5q9 -2 16.5 -7.5t14.5 -12.5l16 -16
t16 -17q18 -23 37 -49q7 -10 13 -19.5t12 -19.5t12 -19.5t11 -20.5t10.5 -21t7.5 -21q4 -16 10.5 -31.5t13.5 -31.5q5 -10 7 -20l4 -20q2 -8 2 -15v-15q0 -5 -0.5 -9t-1.5 -9q0 -2 -0.5 -4t-0.5 -4q2 1 3.5 1t3.5 1q4 2 14.5 12t24.5 23t29.5 28t29.5 28t25 22.5t15 11.5
q4 3 9 4l10 2q8 2 11 -6zM358 76q0 2 -0.5 2.5t-0.5 2.5q-1 -1 -2 -1t-2 -1q-2 -3 -4 -6.5t-5 -5.5q-12 -8 -22 -17.5t-14 -24.5q-1 -2 -2.5 -3t-2.5 -3q-4 -8 -8 -16.5t0 -21.5q3 -13 17 -9q11 3 17.5 11.5t12.5 16.5q12 16 13 36t3 40z" />
    <glyph glyph-name="E" unicode="E" horiz-adv-x="367" 
d="M438 710q0 -6 -4.5 -6.5t-9.5 -0.5q-3 0 -5.5 1t-5.5 1q-9 0 -18.5 1t-17.5 -1q-17 -4 -32 -8.5t-32 -8.5q-14 -4 -28.5 -6.5t-28.5 -4.5q-4 -1 -8 -1.5t-7 -2.5q-14 -6 -15.5 -10t9.5 -15q16 -19 11 -47q-1 -5 -2.5 -11t0.5 -11q4 -17 1 -34.5t-5 -34.5
q-4 -23 -7.5 -44.5t-6.5 -44.5q-3 -13 10 -9q17 5 34.5 6.5t35.5 -0.5q12 0 24 -7q6 -4 5.5 -9t-6.5 -8l-6 -3q-23 -6 -45.5 -11.5t-45.5 -11.5q-11 -2 -13 -5.5t-1 -15.5q2 -8 1 -15t-1 -15q0 -11 -0.5 -22t-0.5 -22v-9t-1 -9l-21 -93q-2 -10 -3 -19.5t-2 -19.5
q-1 -15 -1.5 -30.5t-3.5 -30.5q-2 -11 -5.5 -22.5t-7.5 -22.5q-2 -7 -5 -12.5t-5 -11.5q6 2 12.5 2.5t12.5 2.5q29 9 59 15.5t61 4.5q17 -2 32 -6q14 -4 14 -18q0 -11 -13 -14q-5 -2 -10.5 -4.5t-10.5 -2.5q-26 -1 -49 -10.5t-48 -14.5q-19 -4 -38 -7.5t-38 -8.5
q-7 -1 -14 -1.5t-12 -3.5q-11 -5 -21 -5t-21 2q-15 4 -29.5 8.5t-29.5 9.5q-1 0 -3 2l1 2q-6 17 -11.5 34.5t-6.5 35.5v33h-1q2 26 4.5 50.5t4.5 50.5q1 8 1 15.5v15.5q1 41 5 80.5t11 80.5q6 25 6 52q-2 40 5 78t15 76q6 32 14 62.5t16 62.5q2 7 2 14v14q-1 17 13 16
q14 -2 27.5 -5t27.5 -5q2 -1 5 -2t5 0q52 7 104 10t103 15q14 3 27 1.5t27 -5.5q6 -2 8 -4q2 -3 5.5 -6t3.5 -6z" />
    <glyph glyph-name="F" unicode="F" horiz-adv-x="367" 
d="M404 644q-2 -16 -18 -16q-8 1 -15 1.5t-15 0.5v-1q-31 -2 -61.5 -4t-61.5 -4h-2q-23 -4 -28.5 -11.5t-0.5 -30.5q5 -27 10.5 -53.5t10.5 -53.5q2 -8 1.5 -17t-0.5 -18q0 -3 -0.5 -6t-0.5 -6q1 -9 0.5 -14.5t1.5 -8t8 -3t18 -0.5q23 -1 45 -2.5t45 -3.5l4 -2t3 -3
q0 -4 -4 -8q-8 -8 -19 -12t-23 -6q-17 -3 -33.5 -5t-33.5 2q-9 2 -12 -2.5t-3 -10.5q-1 -16 -1 -31.5t-1 -31.5q-1 -17 -1.5 -34t-1.5 -34q-1 -14 -1 -28t-2 -28q-2 -23 -5.5 -46.5t-5.5 -46.5q-1 -9 -1 -17.5v-17.5q0 -5 1 -8.5t-1 -7.5q-4 -14 -9.5 -27.5t-11.5 -26.5
q-6 -12 -20 -17t-29 -3q-26 4 -48 14.5t-45 21.5q-5 2 -9.5 8.5t-5.5 12.5q-6 32 -12.5 64.5t-3.5 66.5q4 39 4 78t2 78q4 48 8.5 94.5t10.5 94.5q5 33 11 66t11 66q2 6 2 11.5t-3 13.5q-9 28 21 25q8 -2 16.5 -3t16.5 -4q17 -6 34 -5.5t34 2.5q12 1 24.5 2t24.5 3
q21 2 41.5 3t41.5 3q7 1 13.5 1h14.5h25.5t26.5 1q8 0 13 -4.5t5 -10.5z" />
    <glyph glyph-name="G" unicode="G" horiz-adv-x="491" 
d="M509 268q-2 -2 -4 -3.5t-4 -2.5q-24 -4 -48.5 -8t-49.5 -8q-11 -2 -13.5 -3.5t-1.5 -12.5q2 -19 4.5 -37t4.5 -37q2 -11 3.5 -20.5t3.5 -20.5q5 -15 10 -30.5t9 -30.5q4 -16 6 -35q0 -5 -1.5 -11t-7.5 -8q-13 -5 -24 3q-17 14 -27 30t-8 40q1 8 -1.5 16t-4.5 16
q-2 4 -5 8q-2 -2 -4.5 -3.5t-4.5 -3.5q-5 -7 -9.5 -14t-7.5 -15q-4 -13 -15 -26q-5 -7 -7.5 -15t-7.5 -15q-7 -13 -16 -17q-17 -8 -35.5 -15t-35.5 -15q-23 -9 -46 -5q-14 2 -27 4t-26 7q-62 17 -86 75q-8 20 -12.5 40.5t-7.5 40.5q-2 20 -3 38.5t-3 38.5q0 35 5 69t11 68
q5 26 9 52.5t14 52.5q2 5 4 11t4 11q19 35 32.5 72t33.5 71q9 15 17.5 30t17.5 30q7 10 17 20q2 2 5 2h5q3 1 6.5 1t7.5 1q2 0 3 1t2 1q15 -3 30.5 -6t29.5 -8.5t27 -13.5t24 -22q3 -4 6 -8.5t4 -9.5q3 -8 -2 -16q-2 -5 -6 -3t-8 2q-12 2 -19 9t-14 15q-10 11 -17.5 11.5
t-15.5 -11.5q-16 -26 -25 -52q-6 -17 -10 -34.5t-8 -34.5q-2 -11 -2.5 -23t-0.5 -24q1 -16 3 -31.5t1 -30.5q-1 -23 3.5 -44.5t6.5 -44.5q1 -18 3 -36l4 -36l2 -24l2 -24q2 -11 2.5 -21.5t1.5 -21.5q2 -17 2.5 -34t1.5 -34q1 -23 20 -9q11 10 21.5 20.5t18.5 24.5
q12 23 24.5 45t24.5 44q11 20 -9 30l-12 6t-12 7q-1 1 -1.5 2.5t-1.5 3.5h6q9 0 18 -1t17 1q36 5 72.5 8.5t72.5 2.5q7 0 13.5 -1.5t13.5 -3.5q2 -1 3.5 -3t3.5 -4z" />
    <glyph glyph-name="H" unicode="H" horiz-adv-x="527" 
d="M584 339q-2 -2 -4 -3q-10 -5 -21 -8.5t-22 -6.5q-6 -2 -6 -3t1.5 -1.5t1.5 -1t-6 -1.5q-18 -2 -35 -7t-34 -11q-8 -2 -16 -5l-16 -6q0 -7 1 -11q0 -2 2 -10q1 -3 2 -5.5t2 -5.5q1 -2 0.5 -3.5t-0.5 -3.5v-5q2 -8 4 -15t4 -15q1 0 1 -2q-2 -5 -1 -9.5t2 -9.5
q2 -6 2.5 -11.5t2.5 -11.5q0 -1 2 -3q1 -2 2 -3.5t2 -3.5q2 -4 4 -14q1 -7 3.5 -13t4.5 -12q2 -4 1.5 -7.5t1.5 -7.5q2 -5 5 -10t5 -11q2 -4 2.5 -8t1.5 -9q1 -1 0 -2q-4 -3 -2.5 -6t2.5 -6q2 -5 4 -9.5t2 -9.5q1 -6 4.5 -9.5t5.5 -8.5l18 -27l2 -4q9 -14 -4 -25
q-3 -2 -5.5 -5.5t-5.5 -5.5q-6 -6 -10 -8q-3 -1 -7 -1t-8 -1q-4 0 -5 -1q-4 -4 -12 0t-17 10q-9 5 -14 13.5t-10 17.5q-9 19 -17.5 37.5t-16.5 37.5q-5 11 -8.5 22t-7.5 22q-8 20 -14.5 41t-12.5 41q-4 13 -6 25t-4 25q-2 8 -4 20q-6 -2 -8 -3q-24 -9 -47.5 -18t-46.5 -19
q1 -4 1 -14q0 -6 1 -12t2 -11t2 -10.5t1 -10.5q0 -11 -0.5 -22t-2.5 -22q-2 -9 -5 -12q-2 -2 -2 -3q-1 -4 -1.5 -8t-2.5 -8q-1 -2 -2 -4.5t-2 -5.5q-3 -8 -6 -15.5t-5 -15.5q-4 -10 -7.5 -20t-15.5 -14q0 -12 -7 -17q-2 -1 -3 -4t-3 -4q-5 -3 -5.5 -7t-1.5 -9q-2 -5 -8 -13
l-8 -12t-8 -13q-1 -1 -1 -2q-8 -2 -9 -8.5t-5 -11.5q-1 -1 -1 -2l-7.5 -15t-7.5 -14q-7 -13 -19 -16q-5 -1 -10 -2.5t-10 1.5q-3 0 -4 -1q-5 -2 -9.5 -3t-9.5 2q-5 2 -9.5 4t-8.5 7q-3 4 -8.5 6t-10.5 4q2 22 -6 39q-2 5 -2.5 11.5t-0.5 12.5q-2 15 -0.5 30t3.5 31q1 5 2 9
t3 9q2 11 4.5 22t5.5 22q5 14 10 26.5t15 23.5q2 3 4.5 6.5t4.5 6.5q1 1 1 4q-1 12 -1 23.5t-2 23.5q-2 15 -3 30.5t-3 30.5q-2 14 -4 28.5t-4 28.5l-6 57q-2 17 -3.5 35t-3.5 35q-5 26 -5 52.5t-2 53.5q-1 10 -2 19.5t-3 20.5q-2 13 -4 25.5t-5 24.5q-1 8 -3.5 15t-4.5 14
q-2 3 -3.5 5t-3.5 4q13 4 22 5h17t17 -2q9 -2 17.5 -4t16.5 -4q5 -2 11 -3t11 -5q7 -6 15 -10t13 -13q2 -3 5.5 -5.5t6.5 -5.5q9 -8 12 -18q2 -10 5.5 -19.5t7.5 -19.5q4 -8 7.5 -16t6.5 -16q2 -3 2.5 -6.5t1.5 -6.5q2 -4 3.5 -8t3.5 -9q1 -3 1 -6.5t1 -7.5q1 -3 1.5 -6.5
t1.5 -6.5v-4q-1 -5 0.5 -10.5t1.5 -10.5q1 -3 0.5 -6t0.5 -6q1 -8 2 -14.5t3 -13.5q2 -9 2.5 -18t2.5 -17q2 -10 3.5 -19.5t3.5 -19.5q1 -5 0.5 -10t0.5 -10q1 -4 2 -7t3 -8l1 1q0 -2 -0.5 -4t-0.5 -4q0 -5 4 -15q-1 0 -1 -1q-1 0 -1 -4v-6.5t1 -6.5v-3q3 2 7 4q5 3 10 3h11
q10 0 13 1t10 7q2 2 5 2.5t5 1.5q11 3 21 8t20 11q-2 8 -2.5 15t-1.5 15l-2 4q3 11 -2 21q3 3 2 15l-2 40l-2 40q0 14 -1 27.5t0 27.5q1 21 3 42.5t4 43.5q2 19 4.5 38t4.5 38q1 3 -1 6t-3 7h4.5t4.5 -1q5 -1 8 -1.5t8 0.5q6 2 11.5 0t11.5 -5q6 -4 9 -4q6 -1 10.5 -4
t8.5 -7q8 -8 12 -17t6 -20q2 -8 2.5 -16t1.5 -16q0 -4 -0.5 -7.5t0.5 -8.5l2 -20t1 -20t-1.5 -19.5t-3.5 -19.5v-9q-1 -5 -1 -10.5t-2 -10.5q-2 -8 0 -15t-1 -13q-2 -6 -1 -9.5t1 -8.5t1 -10l2 -10q0 -9 1 -14q-4 -6 -5 -10q-5 -17 8 -29q-1 -2 -1 -5q10 3 19.5 6t18.5 4
q20 2 38.5 10t38.5 10q9 1 12.5 2.5t6.5 2.5t6.5 0.5t12.5 -3.5q3 -1 5.5 -4t0.5 -6zM73 -103q-2 10 -2 15q-2 13 1 25t-1 26q-2 11 -2.5 21.5t-2.5 21.5l-4 32t-4 33q-1 3 -1 6t-1 7q-5 -6 -8.5 -15.5t-3.5 -16.5q0 -8 -1 -15t-6 -15q-4 -7 -3 -11q2 -6 0 -11l-4 -10
q-4 -10 -3 -19.5t3 -19.5q1 -4 1.5 -8.5t4.5 -8.5v-4q1 -2 1 -3.5t1 -3.5q3 -6 3 -13q0 -14 2 -17t13 -5q4 -1 12 1q6 2 5 8z" />
    <glyph glyph-name="I" unicode="I" horiz-adv-x="309" 
d="M285 -9q-3 -4 -7 -6.5t-9 -4.5q-41 -16 -83 -24.5t-87 -9.5h-36l-1 1q-17 -2 -35 -3t-35 -1q-20 -1 -38.5 3t-34.5 18q-1 2 -2 3t-2 3q2 1 3.5 2t3.5 1l78 9q6 1 8.5 2.5t-2.5 8.5q-8 14 -10.5 29.5t-4.5 31.5q-2 36 4 70.5t13 69.5q7 34 13 68t9 68q5 50 7 99t5 99
q1 27 1.5 54.5t2.5 54.5q1 14 2.5 28t1.5 28q0 11 -3 14.5t-14 2.5q-5 0 -8.5 -1t-8.5 -2q-23 -4 -42 15q-1 2 -1 3.5t-1 3.5q2 0 3 1t3 1q23 2 45.5 2.5t44.5 3.5q35 5 69.5 4t68.5 9q11 3 22 2.5t21 -6.5q8 -5 8.5 -9t-2.5 -11q-5 -11 -14 -14.5t-19 -4.5t-19.5 0t-20.5 2
q-14 2 -19 -1.5t-3 -18.5q5 -40 12 -77q5 -25 10 -49t9 -49q2 -20 2.5 -40.5t2.5 -40.5t3.5 -40.5t2.5 -40.5q1 -15 3 -30t0 -30q-2 -16 0.5 -31.5t3.5 -31.5q3 -42 1.5 -83.5t-6.5 -83.5q-3 -21 -11 -42q-3 -8 -0.5 -9t7.5 0q11 2 21 3.5t20 2.5q20 2 34 -1
q13 -2 15.5 -8.5t-5.5 -16.5z" />
    <glyph glyph-name="J" unicode="J" horiz-adv-x="369" 
d="M391 253q3 -5 -3 -13q-6 -6 -12.5 -10.5t-13.5 -8.5q-5 -2 -9 -5.5t-9 -5.5t-9 -5.5t-9 -6.5t-9 -5.5t-9 -5.5q-6 -4 -11.5 -8t-11.5 -9q-7 -5 -13.5 -10.5t-12.5 -11.5q-3 -3 -1 -5q3 -7 1 -12t-5 -11q-2 -2 -2 -6t-1 -8q0 -6 -1 -9q-2 -6 -5 -12t-6 -13q0 -1 -0.5 -2
t-0.5 -2q-2 -7 -3 -13l-2 -12q-1 -5 -1 -9.5v-9.5t0.5 -11t-0.5 -11l-4 -12t-4 -11t-3 -9t-3 -8q-4 -6 -10 -10q-5 -5 -7.5 -11t-6.5 -11q-5 -5 -7 -11.5t-10 -10.5q-3 -2 -4.5 -7t-4.5 -8q-3 -5 -6.5 -8.5t-7.5 -8.5q-3 -3 -5.5 -6t-5.5 -6q-2 -2 -5.5 -3.5t-6.5 -3.5
l-4.5 -4.5l-4.5 -4.5q-3 -3 -7 -4q-5 -2 -11 -3t-12 -1q-4 -1 -7.5 0.5t-7.5 2.5h-12t-11 1q-3 0 -7 6q-3 4 -6.5 7.5t-4.5 7.5q-3 10 -8 18.5t-3 19.5q0 5 -1 9.5t-1 9.5q0 2 1.5 4t3.5 4q2 0 2 2q3 9 5.5 18t8.5 17q9 11 17.5 22.5t16.5 22.5q5 6 11.5 12t11.5 13
q2 2 1.5 6.5t-1.5 8.5q-2 6 -3.5 12t-2.5 12q-2 11 -4 22.5t-4 22.5q-2 8 -5 15.5t-5 15.5q-2 7 -2.5 13t-2.5 13q-2 9 -5 17.5t-5 17.5q-3 11 -6 22.5t-5 23.5q-2 8 -3.5 17t-3.5 18q-2 8 -3 16t-3 16q-2 11 -4.5 21t-5.5 21q-2 9 -5 18t-6 19q-2 7 -3 14t-3 15q-2 7 -3 13
t-3 13l-3 15q-2 5 -3 10t-3 11l-4 18t-4 19q-3 3 -4 3q-5 0 -7 -1q-4 -1 -7 -2.5l-7 -3.5q-1 0 -2 -0.5t-2 -0.5q-2 -1 -5 -1.5t-5 -1.5q-5 -1 -9.5 -2t-9.5 0q-8 0 -15 0.5t-14 2.5q-11 2 -20.5 6t-19.5 8q-6 2 -12 5.5t-12 7.5q-5 3 -9.5 6t-8.5 7q-3 2 -4.5 5.5t-3.5 5.5
q-1 2 -1.5 2.5t-1.5 2.5q0 2 -0.5 4t-0.5 4q2 0 4.5 0.5t5.5 -0.5q8 -1 15.5 -2.5t15.5 -3.5q7 -1 13 -2t12 -1q11 0 23 1t23 3t21.5 4t21.5 4t22 4.5t22 4.5q5 1 10 1.5t10 1.5q6 2 12.5 3t12.5 3q5 2 9 2.5t9 2.5t10.5 3.5t11.5 3.5t12 3t13 3l18 4t19 4q4 1 7.5 1t7.5 1
q14 2 27.5 5t27.5 5q10 1 19.5 0.5t19.5 0.5h16.5t16.5 -1q6 0 8 -7q1 -7 -8 -9q-5 -1 -10.5 -2.5t-11.5 -2.5q-2 -1 -3.5 -0.5t-3.5 0.5q-5 1 -9 0.5t-8 0.5q-9 2 -16 -1t-15 -7q-5 -3 -10.5 -3.5t-10.5 -1.5q-7 -2 -13 -3t-13 -3q-5 -2 -10 -2.5t-10 -2.5t-10.5 -4
t-7.5 -7l-6 -18q-2 -5 1.5 -7t5.5 -4q6 -8 10 -14q2 -3 4.5 -6t4.5 -7q4 -10 7 -23q1 -4 1 -7.5t1 -7.5q1 -3 2.5 -5.5t1.5 -4.5q0 -5 2 -8.5t5 -7.5q3 -5 5.5 -10t4.5 -10q2 -2 1 -4.5t0 -4.5q2 -5 4 -9t4 -9q2 -4 1 -7q-2 -6 1.5 -11.5t5.5 -10.5t3.5 -9.5t4.5 -9.5
q4 -7 2.5 -14.5t1.5 -13.5q2 -5 3.5 -8.5t3.5 -7.5q1 -2 0.5 -3t-0.5 -3q0 -3 2 -7l2 -6l2 -6q2 -5 1.5 -11t4.5 -11q2 -2 1.5 -5t0.5 -6q3 -9 6.5 -18.5t6.5 -19.5v-5q1 -5 1.5 -10t1.5 -10q1 -1 0.5 -2t0.5 -2l2 -12l2 -12q1 -3 1 -11q1 -2 1 -8q2 2 4 2.5t4 2.5l24 21
q8 5 15.5 10t15.5 10q12 9 23 19t24 18q3 2 6 2.5t6 2.5q3 1 7 1t6 -3zM112 -10h-2q0 8 -1 11q0 2 -1.5 2.5t-2.5 1.5q-2 1 -4 -1l-6 -8l-6 -8q-2 -4 -5.5 -6.5t-5.5 -5.5q-2 -2 -2 -4.5t-1 -4.5q-3 -5 -5 -9t-3 -10q-1 -7 -3.5 -13t-4.5 -12l-3 -3q4 -2 3 -5.5t-1 -6.5
q1 -7 1 -13v-13v-1q0 -1 1 -1q4 -2 7.5 -4t8.5 -4q2 -2 5.5 -2.5t5.5 1.5q7 7 12 19q5 11 9 27q2 6 3 12.5t1 12.5v48z" />
    <glyph glyph-name="K" unicode="K" horiz-adv-x="465" 
d="M478 26q-11 -27 -38 -30q-24 -3 -47 3q-16 4 -28 15q-5 5 -10.5 11t-10.5 11q-8 7 -14.5 13t-14.5 13q-32 25 -51 58q-7 11 -11 23.5t-10 24.5q-10 22 -17 44.5t-13 45.5q-5 21 -13 40.5t-17 39.5q-4 9 -9 17t-10 17q-1 1 -2.5 1.5t-3.5 1.5v-6q0 -5 -0.5 -11t0.5 -11
q0 -2 1 -4.5t2 -4.5q7 -14 4 -31q-1 -5 0 -10.5t2 -10.5q1 -8 1.5 -16t2.5 -16v-3q5 -10 5 -20.5t2 -21.5q0 -2 -1 -3q-1 -8 -0.5 -15t0.5 -15q-1 -23 2 -45t5 -45q1 -11 2 -21t0 -20q-2 -11 -4 -23t-13 -20q-3 -3 -4 -5q-14 -25 -44 -38q-6 -2 -12.5 -3.5t-12.5 -3.5
q-12 -3 -21 0.5t-17 11.5q-18 19 -23 41q-5 19 -10 37.5t-7 37.5q-2 11 -4.5 21t-4.5 20q1 0 1 1l-6 40t-5 40q-2 17 -2 33t-1 33v4q-2 16 -3.5 31.5t-0.5 31.5q1 23 -1 45.5t1 45.5q1 8 0.5 15t-0.5 14q0 12 0.5 23.5t0.5 22.5q1 11 1.5 21.5t1.5 21.5q2 17 2.5 35.5
t5.5 35.5v5q2 9 3.5 11t10.5 1q12 -1 24.5 -1.5t24.5 -3.5q22 -6 38 -17q8 -5 15 -10t13 -12q12 -13 9 -27q-2 -10 -3 -20t-1 -20t2 -19.5t4 -19.5l3 -18q2 -12 13 -5l15 12l21 18q6 5 12 11l12 12q10 13 23 26q11 14 19.5 28t16.5 30q4 7 7.5 13.5t7.5 14.5q2 5 7 4.5
t7 -5.5q2 -7 4.5 -13t1.5 -14q-3 -16 -9.5 -29t-14.5 -27q-10 -19 -19 -34q-10 -12 -25 -26q-5 -5 -10.5 -8t-10.5 -8q-4 -3 -8 -6.5t-8 -8.5v-2q0 -2 1 -2q12 -10 24 -19t24 -19q6 -4 12 -7.5t11 -8.5l15 -12q22 -13 36.5 -32.5t27.5 -40.5q6 -10 10.5 -20.5t5.5 -22.5
q6 -6 5.5 -13.5t0.5 -14.5q1 -5 5 -15l12 -39l3 -18q1 -5 1 -10.5t5 -10.5q2 -2 2 -5t1 -5q0 -9 5 -19q4 -7 3 -14.5t-1 -15.5v-22q0 -4 1 -7t1 -7q0 -5 -1.5 -9.5t0.5 -6.5q3 -3 8 -3.5t10 -2.5h2q8 -6 15 -2.5t15 6.5q1 0 2 1t2 1q1 1 2.5 1t1.5 -1q1 -1 1 -5z" />
    <glyph glyph-name="L" unicode="L" horiz-adv-x="320" 
d="M396 14q0 -5 -1 -6q-5 -5 -8.5 -10t-5.5 -13q0 -4 -4.5 -7t-9.5 -4q-17 -4 -33.5 -8t-33.5 -2q-15 2 -29.5 5t-28.5 8q-6 2 -12.5 3t-12.5 3q-5 1 -10.5 2.5t-10.5 3.5q-11 3 -21 6t-21 7q-9 3 -17 -5t-15.5 -14.5t-15.5 -13.5q-4 -2 -6 -2q-8 -1 -15.5 -1.5t-15.5 -1.5
q-3 0 -7 2q-5 2 -9.5 4t-9.5 3q-11 2 -17.5 9t-10.5 15q-5 11 -9.5 23t-2.5 25q2 16 3.5 31t3.5 31q2 11 2 22.5t2 22.5q2 17 3 32.5t3 32.5q1 10 1.5 20t1.5 20q2 11 3 20.5t3 19.5q1 8 1.5 15.5t2.5 15.5q2 14 4 29t4 29q2 8 2.5 15.5t1.5 15.5q2 21 5 42t7 41q2 8 2 16.5
t2 16.5q2 11 3 22l2 22q1 6 0.5 12t-1.5 11q0 3 -0.5 6t-0.5 5q0 15 14 15q6 0 12 -2q9 -3 17.5 -6t16.5 -6q5 -1 9 -1.5t9 -0.5q18 2 28 -10q4 -3 7.5 -5.5t6.5 -5.5t5.5 -6t4.5 -7q10 -20 14 -36q3 -15 6 -30.5t5 -30.5q0 -6 -2 -14q0 -5 0.5 -10.5t0.5 -10.5
q1 -7 1 -13.5t-3 -13.5q-2 -2 -3 -5t0 -5q3 -8 1 -14t-2 -13t0.5 -13.5t-0.5 -12.5q-2 -14 -1.5 -27.5t-6.5 -26.5q-1 -2 -1 -8q-1 -14 -1.5 -29t-1.5 -30q0 -5 -1 -6q-7 -9 -6.5 -19.5t-1.5 -20.5v-3q5 -14 1 -27.5t-6 -27.5t-5 -27.5t-6 -27.5q-2 -5 -4.5 -9t-4.5 -9
q-6 -9 3 -10q26 -3 50 -15q15 -7 31 -10t31 -8q16 -6 33 -7.5t33 -9.5q6 2 12.5 4t13.5 4q5 2 8.5 5t8.5 5q2 1 3 0.5t3 -0.5z" />
    <glyph glyph-name="M" unicode="M" horiz-adv-x="684" 
d="M630 429q-1 -8 -0.5 -15.5t-0.5 -15.5l-2 -16l-2 -16q-1 -2 -2 -3.5t0 -3.5q2 -9 -0.5 -16t-5.5 -15q-2 -6 -2 -12.5v-13.5q-2 -11 -2.5 -22.5t-2.5 -22.5q-2 -17 -1.5 -34.5t1.5 -34.5t-1 -32.5t-6 -31.5q-2 -8 -4.5 -17t-2.5 -17q-1 -8 1 -15t4 -15q3 -11 9 -21t5 -23
q-1 -1 2 -4q6 -6 6 -8.5t-7 -6.5q-28 -17 -56 -7q-9 3 -18.5 4.5t-18.5 6.5q-19 9 -29 24.5t-14 35.5q-7 30 -13.5 60.5t-2.5 65.5q-2 20 -4 42t-2 45q-1 22 0 43t3 42q2 29 9 57t13 57q6 31 9 63q1 5 0 9.5t-1 9.5q-1 1 -1.5 2t-1.5 2q-2 -2 -2 -3q-9 -13 -16.5 -26
t-10.5 -30q-5 -26 -11.5 -51t-12.5 -51q-2 -9 -3.5 -17.5t-3.5 -16.5q-4 -16 -8 -31.5t-8 -31.5q-4 -13 -7 -26l-6 -26q-4 -14 -6 -27t-7 -27q-5 -13 -11 -15t-18 6q-14 8 -25.5 18.5t-17.5 26.5q0 3 -2 5q-14 14 -20.5 31.5t-11.5 35.5q-5 17 -10.5 33t-12.5 32
q-16 32 -25 66t-20 68q-2 5 -3 10t-3 10q-1 2 -2.5 3.5l-3.5 3.5q-1 -2 -2 -4.5t-2 -4.5q-1 -7 -1 -14t-1 -15q0 -7 -2 -10q-8 -18 -5 -40q0 -7 -2 -15q-8 -25 -7 -49.5t6 -49.5q9 -38 12 -75q1 -17 4 -32t7 -30q5 -19 7 -37.5t0 -37.5q-1 -12 0.5 -24t3.5 -23
q3 -19 -0.5 -36.5t-8.5 -34.5q-2 -5 -5 -8q-8 -4 -4 -13q3 -8 1.5 -14.5t-3.5 -13.5q-2 -5 -4 -8t-7 -4q-4 0 -6 -4q-6 -11 -15 -13t-20 -1q-12 1 -23.5 1.5t-22.5 2.5q-8 0 -15 7q-31 27 -42 72q-8 35 -13 70.5t-7 71.5q-2 29 -5 56.5t-5 56.5q-3 31 -5 62l-4 62
q-4 55 0 110q0 8 -2 15t-1 15q1 20 2.5 38.5t3.5 38.5q0 4 1 7.5t-1 7.5q-3 10 8 9q11 -2 22 -2.5t22 -1.5q5 0 7 2q3 3 6 2.5t6 -2.5l18 -12q17 -10 22.5 -25.5t4.5 -33.5q0 -8 1.5 -15t2.5 -14q0 -2 1.5 -3.5t1.5 -3.5q2 -7 4 -17q2 5 3 9t2 9q4 20 12.5 36.5t20.5 31.5
q8 12 20 13t24 -1q18 -4 36.5 -8.5t35.5 -9.5q33 -11 51 -34t25 -56q3 -14 4.5 -27.5t-0.5 -27.5q-2 -19 -1.5 -37.5t-0.5 -36.5q0 -11 2 -20t4 -19q2 -8 2.5 -15t2.5 -15q0 -2 1 -4l2 -4q4 6 4 7q2 11 5 21.5t4 21.5q0 14 4 27t9 25q6 14 10 28.5t6 30.5q2 22 10.5 41.5
t18.5 39.5t19 40.5t23 38.5q8 11 0 28q-6 12 7 11q17 0 28 -7q16 -11 32 -21t30 -24q22 -20 28 -53q6 -26 9 -51q2 -14 3.5 -27t-0.5 -27z" />
    <glyph glyph-name="N" unicode="N" horiz-adv-x="489" 
d="M451 169q0 -21 -3 -40q-1 -7 -3 -13.5t-2 -13.5q0 -13 -9 -23q-6 -7 -7.5 -15t-2.5 -16q0 -17 -3 -33q0 -7 -3 -8q-8 -7 -16 -13t-18 -9q-6 -2 -12 -2t-12 1q-5 1 -5.5 4.5t-0.5 7.5l-6 34t-13 32q-16 24 -22.5 51.5t-16.5 53.5q-8 21 -15 42.5t-15 42.5q-6 17 -13 33
l-14 32q-11 27 -21.5 53.5t-21.5 52.5q0 2 -1 2.5t-2 2.5q0 -2 -0.5 -2.5t-0.5 -2.5q0 -6 0.5 -12t-0.5 -12q0 -5 -0.5 -8.5t-1.5 -7.5q0 -9 -0.5 -17.5t0.5 -16.5v-40q0 -11 1.5 -21t2.5 -21q0 -2 0.5 -3t0.5 -2q-6 -17 -4.5 -33t2.5 -33v-28t5 -28q1 -3 0 -6
q-2 -16 -0.5 -32t0.5 -33q-1 -9 -0.5 -19t5.5 -19q5 -7 1 -17q-3 -8 -4 -16.5t-2 -17.5q0 -2 -1.5 -5t-3.5 -3q-9 -1 -14 -11q0 -4 -4 -4q-8 1 -12 -4t-9 -9q-6 -4 -12.5 -7t-13.5 -4q-8 -2 -16.5 -3.5t-17.5 1.5q-12 4 -19 13q-5 6 -9 12t-9 12q-6 8 -7.5 17t-3.5 17
q-5 23 -8.5 46t-7.5 46q-3 15 -4.5 30.5t-2.5 31.5q-1 26 -3 52.5t-4 53.5h2v24q-2 27 -3.5 54.5t-1.5 54.5q0 14 -0.5 28t1.5 28q2 26 1 52.5t0 52.5q0 11 -1 22.5t3 22.5q1 3 1 8q-1 9 1 11.5t10 4.5t16 0q9 -2 18.5 -3.5t19.5 -3.5q5 -1 10.5 -0.5t10.5 -1.5
q19 -7 37.5 -13t34.5 -20q2 -2 3.5 -4t3.5 -4q6 -11 10.5 -21.5t-0.5 -24.5q-4 -10 4 -17q2 -2 2.5 -4t2.5 -4q3 -6 6.5 -11.5t6.5 -10.5q5 -8 10 -16.5t10 -17.5q5 -8 8.5 -16.5t7.5 -16.5q3 -8 5.5 -16t6.5 -16q2 -5 4 -8.5t3 -7.5q5 -17 13.5 -33t13.5 -33q3 -11 8 -20.5
t7 -20.5l6 -27q0 -1 0.5 -1.5t0.5 -1.5l3 3q1 2 1 6q1 11 1.5 21.5t1.5 21.5l3 60q2 14 3.5 27.5t2.5 27.5q2 20 4.5 40t8.5 40q6 24 13 48t14 47q10 38 46 60q7 4 20 2q8 -2 6 -12q-1 -10 -1 -19t2 -19q1 -4 -0.5 -8t-3.5 -9q-9 -24 -12 -50q-1 -11 -3.5 -23t-5.5 -24
q-5 -17 -1 -31q0 -2 0.5 -2.5t0.5 -1.5q-2 -9 -1.5 -18t-1.5 -17q-5 -15 -5 -30v-30q0 -10 -1 -19t1 -18q2 -5 0 -8q-5 -8 -2.5 -14t6.5 -13q3 -6 7 -12t8 -11q11 -15 12 -31q1 -11 3 -22.5t2 -22.5z" />
    <glyph glyph-name="O" unicode="O" horiz-adv-x="537" 
d="M480 321q0 -15 -0.5 -30t-0.5 -30t-3 -27q-3 -20 -4 -39.5t-9 -38.5q-3 -8 -4 -16t-4 -16q-4 -8 -8.5 -16t-9.5 -16q-7 -11 -12.5 -22.5t-14.5 -20.5q-3 -3 -4 -7t-3 -7q-7 -14 -14 -26.5t-18 -23.5q-1 -1 -0.5 -2t-0.5 -2q-6 -14 -15.5 -24.5t-22.5 -18.5
q-46 -29 -99 -32q-11 -1 -21.5 0.5t-21.5 3.5q-24 4 -50 14q-20 6 -37 17q-11 8 -23 13.5t-22 14.5q-24 24 -36 55q-11 31 -16 62.5t-7 63.5q-2 36 -1.5 71.5t2.5 70.5q1 11 3 21l4 20l21 96h2q1 5 2 9.5t3 9.5q6 24 14.5 47.5t17.5 46.5q10 23 20.5 45.5t23.5 43.5
q17 29 37 56t46 50q7 5 13 5.5t14 -1.5q5 -2 11 -4.5t11 -4.5q18 -6 35.5 -12.5t34.5 -16.5q16 -9 5 -24l-3 -3q-4 -3 -11 -10q4 -2 7.5 -3t8.5 -2q33 -9 58 -31q4 -4 7 -10q7 -16 18 -27t25 -20q16 -11 20 -31q4 -16 14 -36q7 -17 9 -35t6 -36q2 -11 -0.5 -20.5t-1.5 -19.5
q2 -11 1 -21t2 -21q2 -8 2 -16v-16zM410 406q2 11 1.5 21.5t-3.5 21.5q-2 7 -2 14t-2 14q-2 12 -4 20t-5.5 16t-4.5 16q-2 14 -8 20q-10 9 -16 20.5t-17 19.5q-2 2 -3 5.5t-1 6.5q-1 13 -15 20q-7 4 -13.5 7t-13.5 7q-10 5 -11 -5q-4 -16 -9 -31t-6 -32q0 -8 -3.5 -14.5
t-6.5 -13.5q-4 -10 -11 -19t-8 -21q0 -12 -4.5 -22t-9.5 -21q-4 -10 -6.5 -20t-5.5 -21q-2 -5 -2 -10.5t-2 -10.5q-2 -6 -4.5 -11.5t-4.5 -11.5l-9 -45q-2 -11 -6 -20.5t-3 -20.5q1 -4 -0.5 -7l-3.5 -7q0 -2 -1.5 -3.5t-0.5 -3.5q1 -15 0.5 -29.5t-2.5 -28.5
q-2 -12 -1.5 -24.5t-0.5 -25.5q0 -4 -1 -7.5t0 -6.5q4 -14 4.5 -29t-0.5 -30q0 -5 1 -9t3 -9q2 -7 5 -13.5t2 -12.5q0 -17 9 -26.5t20 -18.5q14 -11 30 -13l32 -4q11 -2 18.5 2.5t14.5 11.5q5 5 9.5 11t9.5 11q3 4 5.5 8t4.5 8q7 14 13.5 28.5t13.5 29.5q6 14 11.5 28
t5.5 31q1 2 1.5 4t1.5 4h1q2 10 2.5 19.5t1.5 19.5q1 8 1 17t2 17q2 14 4 27t0 27q-1 8 -0.5 15t1.5 14q0 11 1 21t1 21q0 14 -1 27t1 27z" />
    <glyph glyph-name="P" unicode="P" horiz-adv-x="506" 
d="M507 490q-2 -7 -1 -10q1 -8 -1.5 -14.5t-10.5 -10.5q-6 -2 -6 -9q-1 -17 -12 -26t-23 -17q-5 -4 -10 -7.5t-7 -10.5q-5 -12 -13 -18q-11 -9 -18 -20t-15 -22q-14 -17 -31.5 -26t-37.5 -15q-2 -1 -4 0.5t-4 1.5h-17q-2 0 -4 -1t-3 0q-12 8 -26 12.5t-25 15.5q-9 9 -8 19
q2 15 4.5 30t11.5 29q1 0 1 1q8 26 25 43.5t34 37.5q5 6 12 10.5t12 9.5q8 6 9 13q5 25 6 49.5t-2 50.5q-2 8 -3 16t-3 16l-4 18l-4 18q-2 8 -5 17t-13 12q-9 3 -14 -3l-10 -12q-7 -10 -15 -19.5t-13 -23.5q-8 -27 -21 -49q-13 -23 -19 -52q-2 -14 -7.5 -27.5t-11.5 -27.5
q-10 -22 -7 -46q1 -5 0 -9.5t-2 -9.5q-2 -9 -0.5 -17.5t3.5 -17.5q2 -18 0 -36t-3 -36q0 -6 0.5 -11.5t0.5 -11.5q0 -8 -1.5 -15.5t-1.5 -15.5q0 -11 0.5 -22.5t2.5 -22.5q2 -9 0.5 -17.5t-0.5 -17.5q1 -5 0.5 -11t-1.5 -12v-2q0 -1 1 -1q8 -6 7 -14t1 -16l2 -12l2 -12
q5 -23 -6 -40q-5 -5 -3 -12q2 -12 0 -23.5t-11 -21.5q-4 -5 -7 -10l-6 -10q-8 -12 -20 -11q-4 0 -6 -2q-6 -6 -14 -3q-3 1 -6.5 0.5t-7.5 -0.5q-12 -2 -13 9q0 2 -5 7q-11 8 -16 19t-8 23q-8 31 -14 61t-8 61q-1 23 -4.5 44.5t-6.5 43.5q-5 31 -8.5 61t-8.5 61h3
q-3 30 -5 60t-7 59q-4 28 -7.5 55t-5.5 55q0 13 -5 26q-5 12 -4.5 24.5t-1.5 24.5q-2 13 -3.5 25.5t-3.5 25.5q0 2 -1 3.5t-2 3.5q-7 11 -3 21q2 3 1.5 6.5t-0.5 6.5q0 15 15 16h19.5t19.5 -1q15 -2 29.5 -4t28.5 -4q14 -1 25 -9q13 -11 25 -21.5t20 -25.5q5 -9 8 -20
t-1 -23q-2 -5 -2 -10.5t2 -11.5q3 -12 3 -26q-1 -6 0.5 -11t3.5 -10q2 -7 7 -1q4 6 7 12t7 12q9 15 16.5 30t18.5 29t21 28.5t26 25.5q19 12 39.5 16t42.5 -5q11 -5 22.5 -9.5t21.5 -11.5q11 -7 20.5 -16t13.5 -22q1 -2 2.5 -3.5t2.5 -3.5q4 -6 8.5 -11.5t6.5 -11.5
q4 -13 13 -23q7 -8 10 -17l6 -18q3 -11 6 -21.5t5 -21.5q3 -9 1 -20q-2 -12 3 -19q4 -5 4.5 -11t-0.5 -12zM334 465v5q-4 -2 -4 -3l-9.5 -19t-13.5 -15q-13 -8 -21 -19t-7 -28q0 -5 -2 -10l-4 -10q0 -2 -0.5 -4.5t-0.5 -6.5q2 -7 6 -14q1 -1 3.5 -1.5t3.5 0.5q15 11 24.5 25
t12.5 33q3 17 4.5 33.5t7.5 33.5z" />
    <glyph glyph-name="Q" unicode="Q" horiz-adv-x="537" 
d="M525 -40q2 -4 -4 -10q-13 -11 -27.5 -19.5t-33.5 -10.5q-28 -2 -48 15l-30 27l-6 4l-6 4q-5 5 -12 1q-25 -15 -53 -25q-8 -3 -15 -8t-15 -7q-17 -6 -33.5 -11.5t-33.5 -10.5q-16 -4 -31 -1.5t-30 7.5q-17 5 -30.5 12.5t-26.5 17.5q-18 14 -30.5 31.5t-22.5 36.5
q-8 15 -15 31.5t-11 33.5q-3 14 -6 29t-6 29l-4 16l-4 16q0 1 -1 2t0 2q5 12 1 24t-3 25q2 12 1 24.5t0 24.5q1 14 2.5 27t3.5 26q1 10 1.5 19.5t2.5 19.5q3 27 9 52q2 14 5 26.5t6 25.5q5 20 12 39t10 39q2 13 8.5 24t11.5 23q4 10 11 18.5t16 16.5q12 11 23.5 22.5
t23.5 22.5q17 14 44 16h6.5t6.5 1q9 5 19.5 6.5t20.5 6.5q5 2 11 1.5t11 -0.5q8 -2 17 -3t17 -3q9 -2 16.5 -5.5t11.5 -11.5q2 -3 3 -5.5t-3 -4.5q-2 -2 -5.5 -3t-5.5 1q-8 6 -14.5 3t-12.5 -7q-26 -13 -39 -40q-2 -6 -6 -11t-7 -10q-6 -11 -10 -21.5t-8 -21.5q4 -8 0 -15.5
t-5 -15.5q-2 -23 -3 -45t1 -45q2 -16 -1 -31t-2 -31q0 -16 -1 -31t-2 -31q-1 -12 -2 -24.5t-2 -24.5q-2 -10 0 -13q7 -11 5.5 -21.5t-2.5 -21.5v-5q3 -14 6 -26.5t7 -25.5q5 -20 9 -39.5t15 -38.5q5 -8 9 -16.5t9 -16.5q1 -3 3 -5.5t2 -4.5q-2 -9 4.5 -15t11.5 -13
q3 -5 10 -8t16 0q6 3 13 4.5t13 4.5q9 4 10 7.5t-4 11.5t-10 15.5t-9 15.5q-5 9 -8 18t-7 17q-3 8 -10 19q-2 4 1 7q6 7 14.5 10t16.5 5q11 2 21 2.5t21 1.5q5 0 8.5 -1t8.5 -2q6 -2 4.5 -5.5t0.5 -6.5q1 -2 2 -2.5t2 -2.5q2 2 3.5 2.5t1.5 2.5q3 17 7.5 34t9.5 34
q3 10 4.5 20t3.5 21q1 4 1.5 7.5t2.5 7.5q5 11 6 22.5t3 22.5v5q8 17 6.5 33.5t1.5 33.5q6 27 -5 48q-4 6 -2 17q4 18 0 36q-2 9 -1.5 17.5t0.5 17.5q1 11 -8 20q-6 5 -10 11.5t-8 13.5q-3 5 -6.5 9t-8.5 8q-5 3 -8 8t-5 10q-5 10 -15 15q-9 5 -17.5 10.5t-18.5 10.5
q-3 2 -12 4q-8 1 -15 1h-15q-4 1 -8 1t-9 1q-4 1 -14 3q4 1 8 2.5t8 2.5q12 1 25 1.5t29 2.5q3 -1 9.5 -2t13.5 -3q2 -1 4.5 -3.5t5.5 -4.5q1 -1 1.5 -2t2.5 -2q11 -5 19 -14t16 -17q6 -7 13 -13t12 -14q4 -6 9 -11.5t10 -10.5q3 -3 5.5 -6t3.5 -6q2 -10 7.5 -18.5
t3.5 -19.5q0 -9 4 -13q5 -6 5.5 -13t0.5 -14q1 -8 2 -15.5t1 -15.5q0 -10 -1 -14q-6 -16 -5.5 -31.5t0.5 -31.5q-1 -6 -2 -12.5t-1 -12.5q0 -8 0.5 -16t3.5 -16q4 -8 2.5 -14t-1.5 -13q0 -3 -1.5 -5.5t-0.5 -4.5q3 -7 1 -13.5t-2 -12.5q0 -8 -1 -15t-2 -15q0 -2 0.5 -3
t-0.5 -3q-6 -11 -6 -23t-5 -23q-2 -4 -2 -7q0 -11 -4 -20t-9 -17q-4 -8 -7.5 -14.5t-5.5 -14.5q-2 -5 1 -11t5 -11t5 -9t6 -9q2 -5 5.5 -9t6.5 -9q7 -9 13.5 -18t12.5 -18q5 -6 7.5 -7t10.5 1q5 2 11 3t11 1q3 0 6.5 -1.5t4.5 -3.5z" />
    <glyph glyph-name="R" unicode="R" horiz-adv-x="491" 
d="M674 -70q-12 -17 -41 -29.5t-61 -18.5q-46 -8 -81.5 6t-65.5 41.5t-56.5 64t-54.5 73.5q-15 20 -23.5 35.5t-21.5 37.5q-13 20 -19.5 41t-13.5 40t-18.5 34.5t-33.5 24.5q-2 1 -3.5 1.5t-3.5 1.5q-6 1 -7.5 -3t-1 -10t1 -13t-0.5 -13l-1.5 -7.5l-1.5 -7.5v-3q0 -5 1.5 -9
t2.5 -9q0 -1 -0.5 -1.5t-0.5 -1.5q0 -6 0.5 -10.5t-2.5 -10.5q-1 -2 -1.5 -2t-1.5 -2q-5 -8 0 -15.5t3 -16.5q-1 -4 -1 -6t-2 -6q-1 -2 -2 -2.5t-1 -2.5q0 -1 1 -1.5t1 -1.5q2 -3 2 -5.5t1 -5.5q3 -20 0 -34.5t-10 -34.5q-2 -4 -2 -6q-2 -6 -1.5 -11t-0.5 -12q-2 -9 -5 -16
t-7 -14t-7 -14t-4 -17q-1 -4 -1 -7t-1 -8v-3q-2 -8 -7.5 -14t-14.5 -6q-2 0 -4 1t-4 1q-8 0 -12 -2.5t-12 -4.5q-13 -2 -25.5 -4t-20.5 9q-2 4 -1.5 7.5t-2.5 7.5q-2 4 -5 4.5t-5 4.5v4q0 2 0.5 2t0.5 2q3 6 1 11.5t-5.5 10.5t-7 11t-3.5 13q0 6 1 10.5t2 10.5
q2 15 1.5 27.5t-1.5 24.5t-2 25t-1 28q-1 50 0.5 90.5t4.5 79.5t8 79.5t11 90.5q3 25 5.5 45.5t5.5 40t6.5 40t8.5 45.5q2 9 6 15.5t2 16.5q-1 3 -3.5 5.5t0.5 4.5h3q42 -1 69.5 -18t53.5 -49q1 -2 3 -4q2 -5 1.5 -9t0.5 -10v-10.5t-1 -11.5q0 -14 -0.5 -24t-2.5 -24
q0 -2 -0.5 -3t-0.5 -3q-2 -10 -1 -16.5t-1 -16.5q-1 -5 -1.5 -9t-1.5 -9q-1 -13 0 -21.5t3 -20.5v-7q2 -13 7 -7t12 20.5t16 32t18 26.5q17 16 33 29t33 22t36 13.5t43 3.5q14 -1 26.5 0.5t21.5 -9.5q4 -5 5 -8.5t3 -8.5q2 -8 0.5 -14.5t-4.5 -13t-5.5 -13.5t-1.5 -15
q0 -2 0.5 -2.5t0.5 -2.5q3 -23 -5.5 -40t-22.5 -31t-32 -27t-36 -28q-11 -9 -21.5 -12t-16.5 -16q-7 -14 2 -19.5t25 -9t33 -8t27 -15.5q14 -16 21 -29.5t14 -33.5q3 -10 4 -18q3 -11 3 -19v-4q1 -5 4 -7t4 -7q2 -7 -3 -11t-3 -11q0 -3 1 -5l3 -6q5 -15 10.5 -26.5
t0.5 -26.5l-1.5 -3t-0.5 -3q-1 -6 2 -9t5 -8q12 -24 25 -46t28.5 -39t35 -27t46.5 -9q14 0 25 7t21.5 14.5t20.5 13.5t21 5q7 -1 11.5 -8t0.5 -12zM387 523q0 5 -4 5h-15.5t-15.5 -2q-1 0 -14 -5.5t-28.5 -12.5t-28.5 -13t-14 -7q-8 -6 -21.5 -29.5t-26.5 -51.5t-22 -53.5
t-9 -36.5q0 -2 3 -2q34 0 52 7t28 16t16 17.5t16 12.5v4l8 5l-2 2l5 3v2q0 3 5 3l2 1l11 15l3 2h2q4 0 4 6l-4 1q9 9 17.5 23t16 29t12 30.5t4.5 28.5z" />
    <glyph glyph-name="S" unicode="S" horiz-adv-x="438" 
d="M498 369l-8 -8t-8 -9q-2 -3 -2.5 -4.5t-2.5 -4.5q-7 -9 -27 -26.5t-43 -37t-43 -37t-27 -25.5q-2 -2 0 -6q2 -8 5 -8t6 -8q3 -12 6.5 -24t6.5 -24q2 -8 3.5 -15t2.5 -14q1 -11 0 -21q0 -8 -1.5 -16.5t-0.5 -16.5q1 -17 -7 -35q-4 -9 -8 -17.5t-8 -16.5q-6 -12 -15.5 -19
t-20.5 -15l-4 -4l-4 -4l-2 -2q-7 -4 -13.5 -7t-12.5 -7q-9 -5 -18 -11l-18 -12q-8 -5 -16.5 -9.5t-19.5 -5.5q-12 -1 -23.5 -4t-22.5 -5q-14 -4 -27 -0.5t-26 10.5q-15 9 -27 21t-20 29q-2 3 -2 6.5t-1 7.5q-5 14 -9 27.5t-3 27.5t1.5 27t2.5 29q1 7 1.5 11.5t2.5 10.5
q5 12 12.5 17.5t18.5 13.5q11 7 20 11t23 5h6q4 -1 10 -4l-3.5 -3.5l-3.5 -3.5q-11 -11 -21.5 -14.5t-20.5 -15.5q-9 -11 -14 -21t-7 -24q-2 -11 -2 -18.5t2 -18.5q4 -17 9 -34.5t17 -31.5q5 -6 9.5 -7t11.5 1q17 3 29.5 13t26.5 17q3 1 5 6q9 16 15 32.5t8 35.5
q2 18 2.5 36t-1.5 36q-3 42 -16 78q-10 26 -19.5 51t-21.5 49q-10 21 -22 40.5t-23 39.5q-10 17 -21 32.5t-16 34.5l-12 42t-8 44q0 5 -1 11t-1 12q-1 11 1.5 21.5t5.5 21.5q5 14 9 26.5t10 25.5q5 11 11.5 21.5t13.5 21.5q5 8 16 17q4 4 8 4h14t14 -1q16 -1 35 -6
q11 -3 22.5 -6.5t22.5 -11.5q3 -2 8 -3.5t7 -4.5q8 -11 13 -23.5t3 -26.5q-1 -8 -1 -17t-5 -17q-5 -10 -8.5 -19.5t-8.5 -19.5q-2 -5 -6 -10l-8 -10q-6 -8 -12 -15.5t-12 -15.5q-1 -1 -1 -5q0 -18 8 -31q2 -2 3.5 -5.5t3.5 -6.5q5 -8 9.5 -17t9.5 -17q2 -5 5 -8.5t6 -8.5
q5 -8 11 -15t11 -15l20 -28l20 -28q0 -1 0.5 -1.5t0.5 -1.5q2 -10 6 -18.5t9 -16.5t8.5 -17t8.5 -18q4 3 7.5 6t6.5 6q4 4 20 16t35 25.5t35 25.5t20 17q3 4 6 7t5 8q0 1 2 3l3 3q1 1 1 1.5t1 1.5q3 3 6 5.5t5 5.5q2 1 2 2t2 2q1 1 2 1.5t2 1.5q3 1 8 1q1 -1 1 -3v-4
q0 -3 1 -8.5t-1 -7.5zM228 628q2 6 2 11.5t-3 11.5q-2 5 -3.5 9.5t-3.5 8.5q-1 5 -7 9q-9 5 -18.5 10t-20.5 2h-4q-8 2 -14.5 0t-9.5 -9t-4.5 -14t2.5 -15q5 -10 6 -19t1 -19q0 -8 -1.5 -14.5t1.5 -14.5q2 -6 2 -9q4 -11 6.5 -21t6.5 -21q1 -3 3.5 -6t5.5 -7q6 8 10 14
q5 8 10 15t10 15q5 9 9.5 18.5t9.5 19.5q2 4 2 7q1 5 1 9t1 9z" />
    <glyph glyph-name="T" unicode="T" horiz-adv-x="354" 
d="M406 614q-4 -6 -9 -10.5t-13 -2.5q-2 1 -3.5 0.5t-3.5 -0.5l-1 -1q-7 2 -14 2.5t-14 2.5q-7 1 -12 -2t-10 -3.5t-10 -1.5q-21 -2 -40 -6q-11 -2 -21.5 -4.5t-21.5 -5.5l-12 -6q-5 -3 -6 -5.5t1 -9.5q3 -11 5 -21t5 -21q4 -16 4.5 -32.5t6.5 -31.5q4 -10 3.5 -20t1.5 -20
q1 -8 3 -16l4 -16q1 -2 2.5 -5.5t0.5 -5.5q-2 -8 -0.5 -15t1.5 -14q0 -6 1.5 -11.5t2.5 -11.5q2 -5 1 -7q-5 -8 -3 -16l4 -16q2 -15 5.5 -29.5t5.5 -29.5q1 -6 1 -12t2 -12q7 -10 3 -23q-2 -8 0.5 -15t3.5 -14q2 -20 4 -39.5t2 -39.5q0 -5 1.5 -11t0.5 -11
q-2 -10 -0.5 -19.5t3.5 -19.5q1 -5 0 -9.5t-3 -9.5q-2 -7 -3.5 -14t-4.5 -13q-5 -8 -10.5 -16.5t-17.5 -10.5h-2q-5 -8 -7.5 -9.5t-12.5 -3.5q-2 0 -2.5 -0.5t-1.5 -0.5q-6 -10 -15.5 -10.5t-18.5 -2.5q-11 -2 -20.5 2.5t-17.5 10.5q-5 2 -3 6q2 7 -2 12.5t-6 11.5
q-8 21 -9 43l-3 39q-1 9 -1.5 17.5t-1.5 16.5q-1 19 -1 38t-2 38l-4 36l-4 36v7q0 17 -1.5 34.5t-3.5 34.5q-2 11 -2 21t-1 21q-2 23 -3 44.5t-3 43.5q-1 18 -1.5 36t-0.5 35q0 11 1.5 21t3.5 21v11q1 3 1 6.5t1 6.5q-4 -1 -8 -0.5t-8 -1.5q-15 -8 -32 -3q-8 2 -15 0.5
t-15 0.5q-9 2 -18.5 3t-18.5 3q-7 2 -13 6t-12 7q-32 17 -46 52q-1 2 -1 2.5t-1 2.5q2 0 3.5 0.5t3.5 0.5l12 -4l12 -4q18 -5 34 -2q5 1 11 1t12 1l18 2t18 3q28 3 53 9l16 4l16 4q28 6 55.5 12t56.5 12q16 3 32.5 6t32.5 2q19 0 37 -2t35 -10q10 -4 16.5 -9.5t11.5 -13.5
q8 -13 0 -26z" />
    <glyph glyph-name="U" unicode="U" horiz-adv-x="617" 
d="M614 -32q8 -10 4.5 -18.5t-15.5 -10.5q-8 -1 -20 2q-29 5 -48 21.5t-33 42.5q-13 25 -19.5 51.5t-10.5 54.5q-3 20 -5.5 41t-4.5 42q-1 3 -1.5 6.5t-2.5 6.5q-4 9 -10 1q-2 -2 -2 -4t-2 -4q-20 -29 -34.5 -60t-29.5 -62q-4 -8 -8.5 -15t-10.5 -13q-8 -8 -12.5 -16.5
t-7.5 -17.5q-8 -21 -22 -35.5t-32 -25.5q-6 -5 -12.5 -8t-11.5 -8q-22 -20 -46.5 -25t-52.5 -1q-39 5 -64 27t-42 56q-23 49 -29 107q-1 9 -2 18.5t-3 19.5q-8 38 -12 77t-5 78q-2 23 -4 45t0 45q4 51 6.5 102t2.5 103q0 17 2 33.5t3 33.5q1 4 1 7.5t-2 5.5q-6 5 -6.5 10
t1 10t4 9.5t3.5 9.5q1 3 8 5.5t12 2.5q27 3 56 3q2 0 3.5 0.5t3.5 -0.5q13 -7 26 -7.5t27 0.5q17 2 29.5 -5.5t23.5 -19.5q4 -5 7 -9t8 -8q10 -11 14 -22.5t5 -25.5v-31h1q1 -50 1.5 -99t1.5 -98q1 -15 1.5 -30t-2.5 -29q-4 -15 -3.5 -31t-7.5 -31q-3 -5 -1 -11q7 -22 3 -43
t-5 -42q0 -6 -1 -11.5t-2 -11.5q0 -38 -7 -72q-4 -17 -8 -34.5t0 -35.5q2 -5 3 -10t4 -7q6 -4 11 -1t8 8q11 13 22.5 26t20.5 27q17 29 33 58t34 58q25 38 43 79t38 81q14 26 22 53.5t17 54.5q2 5 2.5 11t0.5 12q0 16 2 24.5t7 13.5t14.5 7.5t23.5 7.5q9 3 19.5 2.5
t21.5 -1.5q10 -2 18 -8q2 -2 3.5 -6t-0.5 -6q-9 -12 -9.5 -26t-2.5 -28q-2 -9 -3.5 -18t-2.5 -18q-2 -21 -6.5 -41.5t-2.5 -42.5q3 -26 -2 -54q-4 -17 -4 -33.5v-33.5q1 -18 0 -36t-1 -36q-2 -11 3 -20q10 -19 13.5 -39.5t5.5 -41.5q2 -14 7 -25.5t19 -18.5q11 -6 20 -18z
" />
    <glyph glyph-name="V" unicode="V" horiz-adv-x="414" 
d="M424 672q6 -14 3 -27.5t-10 -26.5q-6 -11 -9 -22q-6 -20 -11.5 -41t-10.5 -41q-2 -8 -3 -6.5t-3 -6.5q-4 -23 -7.5 -46.5t-6.5 -46.5q-2 -12 -3 -24.5t-1 -24.5q-3 -52 -9 -103q-3 -22 -4 -43.5t0 -42.5q0 -12 3.5 -18.5t5.5 -18.5q3 -30 2 -50t-12 -49q-9 -28 -39 -26
q-24 2 -47 0q-11 0 -18 4.5t-14 11.5q-9 9 -13 16.5t-6 15t-3.5 16.5t-5.5 21q-17 45 -33 85.5t-32 86.5q-11 30 -20 61t-19 62q-7 20 -14 38.5t-14 38.5q-6 15 -11 28t-9.5 25t-8.5 25t-8 29q-3 12 -8.5 24t-11.5 24t-10.5 24.5t-5.5 24.5q0 6 -1.5 12t-3.5 12h25
q6 1 12 1.5t13 1.5q15 -5 32 -6.5t32 -12.5q11 -8 24.5 -12t25.5 -11q19 -12 35 -26t24 -38q4 -16 9 -28.5t9.5 -24t9 -24t8.5 -28.5q5 -17 10.5 -33t11.5 -32q2 -8 4 -14.5t4 -13.5q2 -5 3 -9t3 -9l2.5 -5t3.5 -5q4 8 5 12q6 25 12.5 50t9.5 51q1 10 3 17t5 13.5t6.5 13
t7.5 16.5q8 20 15 40.5t14 41.5q5 16 14.5 29t20.5 25l4 4q10 7 14 -5z" />
    <glyph glyph-name="W" unicode="W" horiz-adv-x="710" 
d="M784 563q3 -5 0.5 -7t-4.5 -4q-13 -8 -25 -15.5t-26 -14.5q-18 -11 -36.5 -20.5t-39.5 -14.5q-5 -2 -10 -1t-10 1q-2 0 -3.5 0.5t-3.5 0.5q-2 -10 -2 -14q-1 -1 -1 -4q7 -11 5 -23t0 -23q1 -7 1 -13.5t4 -11.5q8 -11 9.5 -24t4.5 -25v-4q5 -13 5.5 -25.5t2.5 -25.5
q1 -9 3 -17.5t4 -16.5q2 -9 3 -18.5t2 -18.5q2 -14 3 -28.5t3 -29.5q1 -6 1.5 -12.5t0.5 -12.5t-0.5 -12t-1.5 -12q0 -2 -0.5 -4.5t-0.5 -4.5q0 -11 -2 -21t-5 -21q-4 -14 -10 -26.5t-13 -24.5q-5 -10 -11 -19.5t-18 -14.5q-8 -4 -16 -9.5t-17 -8.5q-7 -3 -14.5 -4t-15.5 -2
q-50 -1 -93 29q-19 14 -32 31t-26 35q-6 8 -10 14q-1 2 -1 7q0 2 -0.5 3t-0.5 2q-7 15 -13 29.5t-14 27.5q-13 20 -14.5 41.5t-6.5 42.5q-3 16 -5 32t-5 32q0 -1 -2 5q-5 -8 -9 -15t-7 -15q-5 -11 -8.5 -22.5t-6.5 -23.5q-2 -8 -7 -15.5t-10 -15.5q-2 -3 -2 -6.5t-2 -6.5
q-4 -12 -8 -24.5t-9 -24.5q-2 -7 -6.5 -12.5t-8.5 -11.5l-15 -27q-4 -8 -6.5 -15t-7.5 -14q-5 -8 -11.5 -16t-12.5 -16q-8 -11 -17 -19.5t-19 -16.5q-1 -1 -3 -5q-2 -8 -10 -13t-16 -7q-10 -2 -19 -2t-18 2q-31 8 -49 36q-6 9 -10 17q-2 4 -2 11q-1 6 -1 12.5t-1 12.5l-2 20
t-1 21l2 30t1 31q0 20 3.5 38.5t5.5 37.5q2 17 6 34.5t6 34.5q2 12 3 24.5t3 25.5q2 9 3.5 17.5t3.5 16.5l12 63l4 20l4 20q8 35 14.5 70.5t13.5 70.5q1 5 1 8.5t1 8.5q-1 1 -1.5 1t-1.5 1q-8 -7 -17 -13t-17 -13q-9 -5 -17.5 -11t-17.5 -11q-5 -4 -10 -7.5t-10 -6.5
q-9 -6 -17.5 -11t-16.5 -12q-10 -8 -21 -10.5t-22 -6.5q-5 -2 -11.5 0t-11.5 5q-7 5 -13.5 10.5t-12.5 11.5q-11 11 -9 28q1 5 1 15q8 -1 15 -1t14 -2q4 0 7 -1.5t0 -8.5q-2 -5 -1.5 -9.5t-3.5 -9.5q-3 -3 3.5 -10.5t11.5 -7.5q20 2 36 10t32 19q29 20 58.5 39.5t58.5 39.5
q6 3 10 12q6 15 9 30q1 3 0.5 6.5t-1.5 6.5q-4 10 7 12q13 1 26 -1t24 -9q19 -10 34 -19q2 -2 4 -3.5t4 -3.5q5 -5 9 -10.5t12 -10.5q4 -2 5 -8.5t3 -12.5q1 -2 0.5 -4.5t0.5 -5.5q5 -21 5.5 -42.5t-4.5 -43.5q-3 -14 -4 -27t-3 -26q-2 -11 -4.5 -20t-4.5 -19t-2.5 -19.5
t-2.5 -20.5q-2 -24 -5.5 -48.5t-11.5 -48.5q-3 -11 -5.5 -21.5t-5.5 -21.5q-2 -5 -4.5 -10t-4.5 -10q-2 -7 -2 -14t-1 -15q-2 -13 -3.5 -25.5t-3.5 -25.5q-1 -5 -2.5 -9.5t-3.5 -9.5q-3 -17 -5.5 -33t-7.5 -32q-2 -11 -6.5 -20.5t-7.5 -19.5q-2 -8 -3 -15t-3 -15
q-1 -4 -3 -7.5t-4 -6.5t-3 -6t-1 -8q6 6 12.5 12t12.5 13q14 15 25.5 32.5t19.5 36.5q14 32 26 63t26 63t29 64.5t29 65.5q6 13 6.5 26t1.5 27q0 15 1 30l2 30q0 6 -2 8q-6 7 4 10q16 5 31 2.5t29 -10.5t20 -16t19 -19q7 -5 11 -14t6 -17q5 -17 9 -33.5t11 -33.5q4 -9 5 -19
t0 -20q-1 -21 4 -40l9 -36q2 -7 3 -13t2 -13q2 -12 2.5 -24.5t3.5 -23.5q2 -11 6.5 -21t8.5 -20q1 -3 1 -5.5t1 -6.5q1 -2 1 -3.5t1 -3.5q1 -4 4 -10q0 -7 1.5 -11.5l3.5 -10.5q3 -8 6.5 -13t10.5 -11q5 -6 10 -10t13 -6q6 -2 10.5 -2t9.5 2t7 4.5t6 6.5q17 16 26 29.5
t11 36.5q1 18 3.5 36.5t1.5 36.5q-1 20 -3 37.5t-4 40.5v15.5t-1 14.5q-2 14 -7 29t-5 30q-1 20 -5 37t-9 35q-2 8 -2.5 16t-2.5 17q-2 16 -5 31.5t-1 31.5q0 4 -1.5 8t-3.5 8q-3 3 -10 3l-2 4l-2 4q4 4 14 5t15 -2q13 -11 30 -6q29 8 57.5 16t57.5 16q8 2 14.5 4.5
t14.5 4.5z" />
    <glyph glyph-name="X" unicode="X" horiz-adv-x="471" 
d="M483 -81q3 -13 -12 -20q-17 -8 -31.5 -8.5t-28.5 4.5q-25 11 -44.5 27.5t-38.5 33.5q-73 71 -129 158q-5 8 -7.5 8t-9.5 -11q-10 -14 -19 -29l-18 -30q-11 -20 -22 -39.5t-22 -39.5q-5 -10 -11.5 -18.5t-12.5 -17.5q-5 -8 -10 -16.5t-9 -17.5l-27 -54q-5 -10 -9.5 -11.5
t-12.5 3.5l-10 6t-10 7q-8 6 -11 14t2 20t6.5 25t6.5 25q11 32 30 60.5t48 51.5q14 11 25.5 24.5t19.5 30.5q8 15 16.5 29.5t17.5 28.5q10 17 1 29q-26 37 -46 76.5t-37 81.5q-8 19 -18 36t-18 36q-15 31 -29.5 62t-28.5 62q-11 25 -22 53q-5 11 -21 13q-4 0 -4 3q2 4 4 6
q13 8 26 11t27 5q5 1 9 0.5t9 -0.5q1 1 1 2q8 -2 15.5 -3t15.5 -2q24 -4 48 -7.5t48 -5.5q20 -2 24 -17q7 -23 21.5 -40.5t26.5 -37.5q2 -4 3.5 -7.5t3.5 -7.5q11 -23 22.5 -45t22.5 -45q4 -7 7 -14t6 -15q3 -3 5 -3t5 5q12 35 29 69t36 67q15 29 30 56.5t29 56.5q5 9 13 6
q3 -2 5.5 -2.5t4.5 -2.5q19 -19 45 -22q12 0 4 -12q-12 -18 -26 -26q-8 -4 -12.5 -9.5t-9.5 -12.5q-18 -26 -31 -52.5t-26 -53.5q-4 -8 -8 -15t-9 -15q-15 -24 -28 -49t-24 -51q-3 -9 0 -17q7 -17 14.5 -33.5t15.5 -33.5q11 -23 21.5 -44.5t21.5 -43.5q18 -37 36 -73.5
t41 -69.5q5 -7 8 -14t6 -15q2 -3 2.5 -6.5t2.5 -5.5q6 -5 8 -11t3 -12.5t1.5 -14t2.5 -13.5z" />
    <glyph glyph-name="Y" unicode="Y" horiz-adv-x="650" 
d="M686 362q-3 -11 -8 -25q-2 -6 -5 -12t-5 -13q-1 -3 -7 -10t-13.5 -15.5t-14.5 -15.5t-9 -8l-12 -10t-11 -10q-7 -9 -13.5 -18t-11.5 -19q-5 -9 -9 -18.5t-12 -17.5q-11 -11 -23 -28q-8 -11 -5 -25q2 -10 2.5 -16t-0.5 -11.5t-2 -11.5t-1 -16q-2 -16 -2 -31.5t-4 -31.5
q-1 -1 -1 -2v-1q-14 -14 -18 -33t-6 -37q-4 -26 -11.5 -50t-16.5 -48q-7 -20 -14.5 -38.5t-17.5 -36.5q-17 -27 -36 -51q-18 -24 -38.5 -46.5t-46.5 -37.5q-10 -7 -21 -8q-13 -3 -26 -0.5t-25 8.5q-6 3 -11.5 6t-10.5 8q-12 13 -15.5 30.5t1.5 34.5q3 15 10.5 27t13.5 26
q6 11 10.5 21t11.5 21q6 10 13 19.5t13 20.5q3 5 5.5 11t5.5 11q9 16 18.5 31t21.5 29q6 6 6 15q-1 20 -1 38.5v37.5v40.5t1 40.5q1 14 2.5 27.5t2.5 27.5q1 11 1 21v21q0 15 -0.5 29.5t-0.5 29.5l-3 6q-1 2 -3 0q-11 -8 -17.5 -19.5t-16.5 -21.5q-8 -8 -16 -14.5t-15 -15.5
q-26 -35 -57 -63.5t-69 -49.5q-12 -8 -23 -9.5t-26 7.5q-18 11 -33.5 31t-16.5 41q-1 14 -3.5 27.5t-0.5 27.5t3.5 28.5t3.5 28.5q2 17 4.5 34t5.5 34q6 30 12.5 59.5t13.5 58.5q4 16 7.5 32t8.5 32q6 20 11.5 39.5t11.5 39.5q0 1 0.5 2t0.5 2q0 4 -3 3q-2 -2 -4 -2.5
t-4 -2.5q-9 -8 -18 -15t-17 -15q-13 -12 -25 -24.5t-24 -24.5q-6 -6 -11.5 -12t-10.5 -14q-12 -18 -20 -39q-2 -8 -9.5 -12.5t-17.5 -0.5q-2 1 -4.5 0.5t-4.5 -0.5q-3 3 -3 4q2 9 4.5 18.5t6.5 18.5q3 8 8 16l10 16q6 8 11 16l10 16q3 5 7.5 8.5t9.5 7.5q4 2 7.5 4.5
t6.5 4.5q10 8 18.5 17.5t19.5 17.5q14 11 28 22.5t28 22.5q8 6 14.5 12.5t14.5 12.5q6 6 5 13q0 7 1 11q2 12 13 10q8 -1 16.5 -1.5t16.5 -2.5q5 -2 8.5 -3t8.5 -3q10 -5 19 -8q19 -6 27 -25q2 -7 4 -13.5t5 -13.5q2 -5 1.5 -10t-0.5 -10v-5q4 -11 2 -22.5t-1 -22.5
t-2 -20.5t-6 -18.5q-2 -8 -3.5 -17t-4.5 -17t-4 -14.5t-3 -14.5q0 -2 -1.5 -4.5t-3.5 -4.5q-1 -2 -1 -3t-1 -3q-2 -7 -3 -13t-3 -13q-2 -4 -3.5 -8t-2.5 -8q-2 -7 -3 -13t-2 -13q-1 -4 -1.5 -8t-1.5 -8q-3 -8 -4 -16.5t-2 -17.5q-1 -6 -1.5 -12.5t-2.5 -12.5v-2
q-8 -3 -6 -8.5t0 -10.5q0 -4 -1 -7.5t-2 -7.5q-2 -6 -3.5 -12t-3.5 -11q-2 -9 -5 -17.5t-2 -17.5q3 -19 -3 -37q0 -4 1 -5q1 1 2 1t2 1q17 13 32.5 27t30.5 29q9 9 17 19l16 20q3 5 7 8.5t7 7.5q5 8 10.5 15t10.5 14q5 5 8.5 10t8.5 10t7 15q3 14 6 27t5 27q1 4 1 8v8
q-2 9 1.5 13t11.5 8q11 5 20.5 3.5t19.5 -2.5q12 -2 22.5 -7t21.5 -10q7 -3 14.5 -10.5t14 -16l13 -17t12.5 -14.5q1 -2 2 -3t2 -3q2 -5 3 -9t3 -8q2 -6 2 -12.5t-1 -12.5q0 -4 -1.5 -7.5t-3.5 -6.5v-5v-32q-1 -14 0.5 -26.5t2.5 -26.5q0 -1 0.5 -2t0.5 -2q1 1 2 1.5t2 1.5
q7 10 13 20t14 20q8 11 21 22q4 4 13 13.5t18.5 20t17.5 20t12 14.5q7 9 13.5 17.5t12.5 17.5q3 5 6.5 7.5t9.5 3.5q9 0 7 -8zM336 -144v23q0 1 -2 3q-2 0 -2 -2q-2 -2 -4 -4.5t-4 -4.5q-3 -2 -5.5 -4.5t0.5 -7.5v-5q-5 -14 -14 -20q-8 -7 -11 -15q-4 -9 -8.5 -17.5
t-12.5 -15.5q-3 -3 -5.5 -6.5t-4.5 -6.5q-6 -12 -12.5 -23.5t-11.5 -23.5q-3 -8 -5 -16l-4 -16q1 -1 1 -2q-1 -6 3 -10t6 -9q5 -8 14 -9.5t16 5.5t12.5 13.5t10.5 14.5q5 9 9.5 17.5t8.5 17.5q5 15 9 30.5t8 30.5q3 16 6.5 31t1.5 32z" />
    <glyph glyph-name="Z" unicode="Z" horiz-adv-x="391" 
d="M426 10q-4 -7 -2 -14q3 -12 -6 -19q-7 -5 -11.5 -12.5t-13.5 -9.5q-4 -2 -7 -2t-6 -1q-8 -1 -14.5 -2t-14.5 -1q-14 -1 -26.5 2.5t-24.5 8.5q-20 8 -39 17.5l-39 19.5q-7 3 -13 5t-14 2q-5 0 -10.5 1t-10.5 2q-13 0 -20.5 -5t-15.5 -16q0 -1 -1 -2.5t-2 -0.5
q-8 1 -11.5 -3.5t-8.5 -8.5q-19 -12 -42 -14q-5 0 -11 -0.5t-12 -0.5q-9 -2 -9 6q1 5 -2.5 7t-6.5 4q-2 2 -4.5 3.5t-5.5 3.5q-5 2 -7 5t2 9q0 4 -1 6q-6 14 -5.5 28.5t2.5 28.5q4 23 11 44.5t15 43.5q8 23 15.5 45t15.5 45q8 22 15.5 44t15.5 44q9 23 17 46t18 46
q8 20 17.5 40.5t17.5 40.5q8 17 14.5 35t14.5 35q2 5 3.5 9.5t3.5 9.5q3 5 -4 4q-14 -4 -29 -7.5t-29 -6.5h-5q-11 3 -23 2t-23 0q-6 0 -9 1q-21 5 -25 -14q-2 -5 -3 -8.5t-6 -5.5l-12 -2t-13 4q-9 7 -10 9.5t5 13.5q10 18 34 28q11 5 23 6t23 2l48 3q2 0 4.5 1t4.5 2
q17 5 33 13t33 12h2q9 10 19 8.5t20 -3.5t19 -5l18 -6q9 -4 17 -9t13 -13q4 -7 5 -13.5t1 -14.5q1 -2 0.5 -4.5t-0.5 -4.5q-1 -14 -1.5 -27.5t-0.5 -27.5q0 -3 -1 -4q-5 -11 -6 -23t-3 -23q-2 -8 -4 -12q-6 -10 -8.5 -20.5t-4.5 -21.5q-2 -14 -7 -27.5t-10 -27.5
q-2 -8 -4.5 -15.5t-4.5 -15.5q0 -1 -0.5 -2t-0.5 -2q-10 -14 -15 -30t-9 -33q-2 -7 -5 -14t-10 -12q-1 -2 -3 -8q-2 -15 -8 -29.5t-11 -28.5q-6 -16 -11 -31.5t-11 -30.5q-4 -9 -8.5 -17t-9.5 -16q-4 -10 -4 -16q-1 -4 6 -6q9 -2 17.5 -5t16.5 -6q5 -2 9.5 -4.5t9.5 -4.5
q7 -2 13.5 -4.5t13.5 -5.5q11 -5 21.5 -10.5t22.5 -9.5q26 -8 55 5q2 1 3.5 2.5l3.5 3.5q8 8 16 17t16 17q4 4 11 2q13 -5 17.5 -18t-3.5 -25z" />
    <glyph glyph-name="bracketleft" unicode="[" horiz-adv-x="343" 
d="M266 -124q3 -8 2 -14t-7 -8q-10 -5 -20 -8.5t-21 -4.5q-12 0 -23.5 -4t-23.5 -9q-14 -5 -29 -6.5t-31 3.5q-21 5 -29 31q-5 13 -8 26l-6 26q0 1 1 1q-1 7 -1 14t-1 15q-1 7 -2.5 14t-2.5 15q-2 16 -2.5 31.5t-1.5 30.5v8t-1 8l-3 87q-2 41 0 81l4 80t4 79t4 79
q2 23 2.5 46t2.5 46q2 19 4.5 36.5t8.5 34.5q0 2 1 3q2 3 1 9t5 8q4 1 7.5 0.5t8.5 -0.5q11 -1 21 -2t21 -2l24 -2l24 -2h7.5t8.5 1q10 2 20 -2t20 -10q15 -9 2 -20q-11 -8 -23 -5q-2 0 -4 0.5t-4 0.5q-9 -2 -18 -3.5t-18 -3.5q-12 -1 -4 -15q15 -18 8 -37v-6
q3 -9 3.5 -18.5t1.5 -19.5q2 -18 4 -36.5t6 -37.5q5 -27 5.5 -53t-0.5 -52q-1 -12 -1.5 -23.5t1.5 -24.5q0 -2 0.5 -3t0.5 -3q-1 -23 -2 -46.5t-2 -46.5v-22t-1 -22q-1 -14 -2 -28.5t-2 -29.5q0 -8 0.5 -16t1.5 -16q0 -12 0.5 -24t1.5 -24q0 -13 0.5 -25t1.5 -25
q0 -4 -0.5 -7.5t-0.5 -7.5q-3 -21 13 -24q5 -1 10.5 -1t10.5 -2q6 -2 11.5 -2.5t9.5 -9.5z" />
    <glyph glyph-name="backslash" unicode="\" horiz-adv-x="581" 
d="M510 -170q4 -7 6 -16t1 -17t-4 -14.5t-8 -7.5q-5 -2 -9.5 1t-9.5 8q-9 13 -19 20t-20 15q-37 26 -62 67l-6 9q-16 21 -29 42.5t-20 40.5q-23 47 -43.5 89t-39.5 84q-12 26 -22 53t-21 53q-6 17 -13 32q-18 39 -36 78.5t-36 79.5q-11 25 -22 49.5t-22 49.5q-6 14 -14 25
t-20 20q-4 2 -7 6.5t-6 9.5q3 2 5.5 5t6.5 4q5 0 10.5 -2t11.5 -4q20 -7 41 -13.5t42 -14.5q20 -8 39 -25q28 -25 53.5 -52t42.5 -64q5 -12 13 -24t13 -23q11 -32 26.5 -62t29.5 -62q7 -15 15 -30.5t14 -31.5q11 -29 20 -58.5t18 -58.5q6 -20 11.5 -40t10.5 -40
q1 -2 1.5 -3.5t2.5 -3.5q20 -19 22.5 -36.5t3.5 -35.5q1 -5 1 -8.5v-8.5q0 -41 28 -85z" />
    <glyph glyph-name="bracketright" unicode="]" horiz-adv-x="343" 
d="M252 136q-1 -22 -1.5 -43.5t-2.5 -43.5v-16q-2 -16 -2.5 -31t-2.5 -31q-1 -8 -2 -15t-2 -15q-1 -7 -1.5 -14t-0.5 -14q1 0 1 -1q-4 -13 -7 -26t-7 -26q-9 -26 -30 -31q-15 -5 -30 -3.5t-30 6.5q-11 5 -22.5 9t-23.5 4q-11 1 -21 4t-21 8q-12 7 -4 23q4 9 9.5 9.5
t10.5 2.5t11 1.5t11 1.5q16 3 13 24q-1 5 -1 15q0 13 0.5 25t1.5 25q1 12 1 24t1 24q1 8 1.5 16t0.5 16q-1 14 -2 29t-2 29q-1 11 -1 22t-1 22l-3 93q0 4 1 6q2 13 1 24.5t-1 23.5q-2 26 -1.5 52t5.5 53q4 18 6.5 37t4.5 37q1 10 1 19t3 19q1 3 0 6q-4 11 -1 20t9 17
q8 12 -3 15q-18 4 -36 6q-3 1 -9 -1q-13 -2 -22 6q-14 11 2 20q10 6 19.5 10t20.5 2q5 -1 16 -1l24 2l24 2q11 1 21 2t21 2q4 0 8 0.5t8 -0.5q5 -2 4 -8t2 -10q-1 0 1 -2q6 -17 8.5 -34.5t4.5 -36.5q2 -23 2.5 -46.5t1.5 -46.5q2 -39 4.5 -78t4.5 -79l4 -80t0 -81z" />
    <glyph glyph-name="asciicircum" unicode="^" horiz-adv-x="383" 
d="M338 467q7 -12 -7 -12q-8 -1 -13.5 3.5t-10.5 9.5q-3 5 -5 9t-4 9q-5 13 -12 23q-9 11 -17.5 22t-16.5 22q-4 5 -6.5 10.5t-4.5 10.5q-2 4 -2.5 7t-2.5 6q-4 8 -6 8.5t-7 -7.5q-2 -2 -2.5 -5t-2.5 -6t-3 -5.5t-3 -5.5q-3 -5 -6.5 -10.5t-5.5 -11.5q-4 -10 -6.5 -19.5
t-6.5 -19.5l-10 -18l-10 -18q-3 -5 -5.5 -10t-7.5 -8q-2 -1 -4 -5q-3 -10 -11 -12.5t-16 -4.5q-5 -1 -8.5 -1t-7.5 -1q-7 -2 -17 2q-11 3 -21.5 6t-21.5 7q-13 4 -18 13q-2 3 1 4q7 2 11 7.5t9 10.5q10 14 19 29t19 30l21 30q3 4 6.5 7.5t5.5 8.5q11 19 29 37q6 7 12 13.5
t14 10.5q6 3 12 6.5t14 3.5q6 -2 14 -4q2 -1 4.5 -2t5.5 -2q9 -3 16 -13q4 -6 8 -11.5t6 -13.5l2 -2q9 -8 14 -18.5t11 -20.5l4 -6l4 -6q3 -5 6 -9.5t4 -10.5q1 -3 3 -6.5t4 -7.5q11 -14 18 -34q3 -6 8 -11l2 -4z" />
    <glyph glyph-name="underscore" unicode="_" horiz-adv-x="444" 
d="M362 54q5 -10 1 -21t-13 -11q-20 0 -41 0.5t-42 0.5q-14 0 -27 -1t-27 -1q-11 -1 -23 -2t-24 1q-11 2 -21.5 1t-21.5 -7q-17 -9 -35 -1q-7 2 -10.5 8t-6.5 12q-4 8 -6 16.5t-5 17.5q-2 6 4 6q13 2 25.5 4t24.5 4q8 2 16.5 3t16.5 2l54 3v-1h36t36 1l12 2t13 3q2 0 4 0.5
t4 0.5q20 4 32.5 -9t23.5 -32z" />
    <glyph glyph-name="grave" unicode="`" horiz-adv-x="148" 
d="M115 549q-2 -6 -2 -10q2 -5 -3 -8q-2 -2 -5.5 -3t-6.5 -3q-13 -9 -25 3q-2 1 -2.5 2t-2.5 2q-11 9 -17.5 22t-14.5 25q-1 1 -1 6q2 18 16 25q8 4 15.5 7.5t15.5 7.5q4 2 5 -1q5 -11 9.5 -20.5t9.5 -19.5q4 -8 6.5 -16.5t2.5 -18.5z" />
    <glyph glyph-name="a" unicode="a" horiz-adv-x="445" 
d="M489 332q1 -12 -2 -20.5t-5 -18.5q-2 -14 -11 -31.5t-13 -30.5q-3 -10 -12 -29.5t-19.5 -40.5t-21.5 -39.5t-18 -26.5q-6 -8 -13.5 -14t-14.5 -14q-7 -19 -22.5 -29.5t-35.5 -10.5q-29 0 -47 14.5t-28 38t-15 51.5t-8.5 55.5t-7 50.5t-10.5 35q-9 -11 -22.5 -27
t-28.5 -32t-30.5 -27t-29.5 -11q-21 0 -37.5 10t-27.5 25.5t-17 34.5t-6 38q0 20 9.5 50.5t26 59t38.5 49t46 20.5q17 0 32.5 -8t29.5 -16q1 11 2.5 22t1.5 22q0 6 -5 14q2 8 7.5 13t13.5 5q7 0 16.5 -4t16.5 -6q5 -2 10.5 -4.5t11.5 -2.5q12 0 24.5 -9t23 -22t17.5 -27.5
t7 -26.5q0 -15 -3 -29.5t-3 -29.5q0 -29 5.5 -58t12.5 -59t12.5 -60.5t5.5 -61.5q0 -6 1 -8q3 -3 6 -3q6 0 9.5 5t6.5 10q17 29 32.5 52.5t27.5 54.5q3 8 8 22t11 32t13 37.5t14 37.5l13 -2q2 -6 2 -10v-10zM171 377q-1 9 -1 18t-1 18q-1 3 -1 7.5t-2 4.5q-8 4 -15 11t-17 3
v3q-7 -2 -13.5 -4t-12.5 -6q-5 -3 -9 -8.5t-9 -10.5q-10 -8 -12.5 -18t-7.5 -21q-4 -7 -7 -14t-4 -15q-2 -13 -1.5 -25t-1.5 -27q-1 -7 -2 -11.5t0 -10.5q0 -5 1 -7.5t2 -7.5q2 -13 -0.5 -23t2.5 -20q8 -18 21 -5q7 5 11 12l22 30t21 32q9 15 16 31.5t15 32.5q4 8 5 15.5
t1 15.5z" />
    <glyph glyph-name="b" unicode="b" horiz-adv-x="353" 
d="M409 378q2 -5 1.5 -9.5t-1.5 -9.5q-2 -11 -5 -23q-1 -2 -9 -20.5t-17.5 -40t-18 -40t-9.5 -20.5q-2 -4 -5 -7l-6 -6q-6 -8 -9 -11q-4 -6 -11 -9q-4 -2 -7.5 -3t-2.5 -6q0 -2 0.5 -4.5t0.5 -4.5q2 -15 4.5 -30.5t2.5 -30.5q0 -22 -3 -43.5t-20 -39.5q-2 -2 -3 -4.5
t-3 -4.5q-4 -3 -16 -8q0 -2 1 -3q1 -2 1 -2.5t1 -2.5q-22 -17 -45.5 -28.5t-50.5 -15.5q-14 -2 -26.5 2t-24.5 10q-35 17 -58 44t-36 63q-9 26 -17 52.5t-16 52.5l-10 26t-7 27q-2 11 -2 20.5v20.5q-1 11 -1 22t-1 22q-1 42 -0.5 84t0.5 84v39.5t2 39.5q3 43 8.5 84t16.5 83
q6 19 12 42q5 -2 9 -3.5t6 -3.5q9 -9 20 -11.5t22 -6.5q14 -5 25.5 -15.5t14.5 -25.5q5 -21 13.5 -40.5t6.5 -41.5q-1 -14 0 -27.5t0 -27.5q-1 -22 -3 -43.5t-1 -43.5q1 -29 3.5 -56.5t3.5 -55.5q1 -17 0 -33.5t-1 -33.5q1 -36 5.5 -72t16.5 -71q7 -17 11 -36t11 -36
q6 -14 14.5 -27t17.5 -26q2 -5 7 -8l10 -6q17 15 14 37q-2 16 -2 32v32q0 6 0.5 11.5t0.5 10.5q-2 16 -5 19.5t-19 5.5q-12 2 -20 10q-20 20 -23 37.5t5 44.5q3 8 7 16t7 15q10 -1 18 -1t16 -1q7 -2 14 -3t15 -3q-2 -2 -2 -3l4 -10t5 -8q8 -6 14 -8.5t10.5 -5.5t7.5 -8
t4 -15q0 2 6.5 2.5t8.5 1.5l1 1q3 2 9 8q2 3 3 6.5t3 7.5q0 1 8 15t17.5 30t17.5 29.5t8 15.5q1 4 0.5 7.5t1.5 7.5q1 5 5 13q1 3 3.5 7t5.5 6.5t5.5 2.5t3.5 -6zM239 181q-3 8 -6 17l-6 18q-9 -9 -5.5 -18.5t17.5 -16.5z" />
    <glyph glyph-name="c" unicode="c" horiz-adv-x="292" 
d="M337 359q0 -9 1 -19t-2 -18q-9 -23 -19 -45t-21 -44q-8 -17 -23.5 -36t-26.5 -34q-11 -16 -23 -27t-22 -25q-6 -8 -15 -13.5t-18 -10.5q-51 -35 -104 -12q-22 11 -34.5 30.5t-24.5 39.5q-18 29 -23.5 66t2.5 75q5 25 15 48t23 45q7 11 14 19t15 19q3 3 4.5 6t5.5 6l5 5
q5 3 9 4t10 3q12 4 24 4q13 2 22 0.5t21 -4.5q23 -7 39 -16.5t27 -29.5q3 -6 3.5 -16t-7.5 -19t-16.5 -22t-20.5 -12q-5 0 -8 4q-4 4 -2 9t5.5 8t6.5 7q11 14 4.5 30t-16.5 24q-11 9 -24 8t-26 -10q-4 -2 -8.5 -3.5t-8.5 -4t-6.5 -7t-2.5 -12.5v-41q1 -13 0.5 -25t0.5 -25
q2 -29 11.5 -54.5t23.5 -48.5q5 -8 5 -12t4 -13q2 -5 5.5 -11t7.5 -9q7 -5 11 -11t13 -1q8 5 10.5 6t10.5 9q5 6 12 12t11 14q16 30 39.5 60t38.5 61l16 34t17 34q0 1 3.5 1h5.5z" />
    <glyph glyph-name="d" unicode="d" horiz-adv-x="478" 
d="M515 346q0 -31 -9 -59q-2 -9 -4 -17.5t-2 -17.5q0 -10 -2 -19.5t-4 -18.5q-7 -28 -15.5 -55.5t-19.5 -50.5q-6 -14 -13 -27t-13 -27q-7 -14 -16.5 -30t-22.5 -24q-7 -5 -15 -5q-3 0 -6 1t-7 1q-3 0 -6 -0.5t-6 -0.5q-10 0 -24.5 7t-25.5 10q-26 8 -45 34q-8 9 -16 17.5
t-14 19.5q-8 14 -12 33.5t-7 40t-4.5 41t-3.5 36.5q-7 -1 -8 -7.5t1 -11.5q-5 -26 -14.5 -47t-22.5 -44q-5 -8 -12 -14.5t-12 -14.5q-2 -9 -8.5 -15t-15.5 -9.5t-18.5 -5t-16.5 -1.5q-28 0 -47.5 12t-32 31.5t-18.5 43.5t-6 48q0 13 3.5 34.5t9 44t12.5 42t13 29.5
q3 4 6.5 6.5t6.5 6.5q8 10 16.5 20.5t19 19.5t22.5 14.5t26 5.5q16 0 30.5 -8.5t26.5 -18.5t21 -18.5t15 -8.5t9.5 14t5 31.5t2 34t1.5 22.5q1 17 0.5 33.5t1.5 33.5q5 52 17 105.5t32 101.5q3 6 6.5 16t9 20t11.5 17t14 7q3 0 9.5 -2t14 -5t14.5 -5.5t11 -3.5
q5 -2 11.5 -1.5t11.5 0.5q6 0 11 -5t8.5 -11.5t5 -14t1.5 -12.5q0 -13 -3.5 -25t-8 -22.5t-8 -20t-3.5 -17.5q0 -4 0.5 -7.5t0.5 -7.5q0 -31 -8 -62.5t-16 -61.5q-4 -17 -4.5 -39t-0.5 -40q0 -15 1.5 -30t1.5 -30q0 -13 -1 -26t-1 -26q0 -25 -1 -50t-1 -50q0 -26 -0.5 -52.5
t1.5 -52.5q1 -14 5 -22t4 -19q0 -3 1 -10.5t6 -12.5q4 -6 9 -10l6 -3q9 -2 12 7t8 17q2 4 3.5 5.5t3 3.5t3.5 5.5t4 11.5q5 21 10 35t10 27t10 27t11 35q3 11 7 28.5t7 28.5q3 12 3.5 22t3 19t7.5 17t17 15q4 2 5 2h2q1 -3 1 -8zM200 342l-3 3q-8 -1 -16.5 -2t-16.5 -1
q-14 0 -23 -6.5t-20 -8.5q-5 -8 -11 -15.5t-11 -15.5q-6 -9 -9 -16.5t-5 -14.5t-4 -14.5t-6 -16.5q-9 -20 -14.5 -36.5t-5.5 -39.5q0 -22 7 -40q7 6 13.5 11.5t11.5 13.5q35 45 61.5 96.5t51.5 102.5z" />
    <glyph glyph-name="e" unicode="e" horiz-adv-x="332" 
d="M379 321q-5 -20 -11 -39.5t-14 -38.5q-6 -14 -9.5 -30t-11.5 -31q-9 -20 -21 -43.5t-27 -46t-33.5 -39.5t-41.5 -23q-13 -4 -23.5 -8.5t-24.5 -4.5q-45 0 -76 21.5t-50.5 54.5t-28 73t-8.5 78q0 42 8.5 78.5t27.5 63t50 42t77 15.5q17 0 32.5 -8t15.5 -28
q0 -34 -15 -68.5t-41 -55.5q-8 -5 -10 -12t-2 -16q0 -35 7.5 -71.5t25.5 -66.5q2 -3 8 -6.5t13 -6t14 -4t11 -1.5q8 0 18.5 3.5t15.5 10.5q24 30 41 61t29 68q3 10 6.5 20.5t6.5 24.5q4 28 14 45.5t21 17.5q2 0 3 -1l2 -3q-1 -5 1 -12.5t0 -12.5zM176 389l-1 15l-5 8l-10 -4
q-11 -17 -21.5 -33t-20.5 -33q2 -12 3 -28t13 -22q11 3 19 15t13 27t7.5 30.5t2.5 24.5z" />
    <glyph glyph-name="f" unicode="f" horiz-adv-x="330" 
d="M359 354q-1 -2 -0.5 -5t-1.5 -4q-4 -3 -23 -22t-47 -39q-20 -14 -40 -27.5t-38 -25t-31.5 -20.5t-20.5 -13q-14 -9 -2 -21q14 -15 28.5 -29.5l28.5 -28.5q15 -15 22 -34.5t9 -41.5q3 -22 4.5 -43.5t-0.5 -43.5q-1 -23 -4.5 -45.5t-8.5 -45.5q-3 -17 -7 -32.5t-10 -31.5
q-4 -11 -10 -20.5t-13 -19.5q-9 -12 -18.5 -23.5t-19.5 -22.5q-8 -9 -16 -17t-19 -10q-9 -2 -18.5 -4.5t-18.5 -3.5t-17.5 1.5t-16.5 11.5q-19 20 -31 45t-16 55q-2 20 -5.5 40.5t-5.5 40.5q-3 23 -5.5 47t-4.5 47q-1 34 -1.5 67.5t-0.5 66.5q0 60 5.5 118.5t17.5 116.5
l16 84t19 84q7 26 16.5 51t19.5 50q1 3 3.5 5.5t4.5 1.5q19 0 37.5 3t35.5 -7q5 -2 10.5 -5t10.5 -8q12 -13 23 -26q9 -13 9.5 -28.5t0.5 -30.5q0 -11 -1 -22t-3 -22q-2 -16 -5.5 -31.5t-7.5 -31.5q-2 -13 -6 -25t-7 -25q-7 -28 -19 -52t-23 -49q-5 -10 -10.5 -19.5
t-12.5 -20.5q13 5 23 8.5t20 7.5q5 2 20.5 11.5t35 23t42 28.5t42 28.5t34.5 23t21 11.5q2 1 3.5 0t3.5 -1zM172 492q5 18 4.5 34.5t-9.5 32.5q-5 8 -12.5 14.5t-15.5 4.5q-4 -1 -6.5 -9.5t-5.5 -15.5l-1 -1q-1 -8 -2.5 -17t-1.5 -17q1 -9 3.5 -17.5t5.5 -17.5
q6 -18 4.5 -36t-6.5 -35q-2 -8 -6.5 -16t-5.5 -17q-2 -21 -2.5 -42.5t-1.5 -42.5q2 0 2.5 -0.5t1.5 -0.5q3 6 6.5 12t5.5 13q7 20 13.5 40.5t12.5 40.5q4 15 6.5 31t5.5 32q1 8 2 15.5t3 14.5zM190 -38q-1 24 -3.5 47t-15.5 44q-8 14 -16 27.5t-16 27.5q-6 11 -12.5 20
t-13.5 19l-3 -3q0 -23 0.5 -46t4.5 -46q5 -25 4.5 -50.5t1.5 -50.5q2 -18 3.5 -36.5t5.5 -35.5q6 -36 3 -72q-1 -13 -1 -26t-1 -26q2 -1 3 -1t3 -1q4 7 8.5 13t7.5 14q15 44 27 88.5t10 93.5z" />
    <glyph glyph-name="g" unicode="g" horiz-adv-x="472" 
d="M497 305q-13 -36 -33 -73q-13 -22 -29 -40t-33 -37q-30 -34 -62 -68q-1 -2 -2.5 -3t-1.5 -3q0 -15 -9.5 -24.5t-14.5 -21.5q-4 -8 -5 -17t-4 -17l-8 -22l-8 -22l-8 -24t-6 -25q-2 -15 -7.5 -28.5t-13.5 -24.5q-16 -21 -31.5 -41t-29.5 -41q-12 -17 -28.5 -20.5t-36.5 1.5
q-16 5 -29 10q-5 3 -7 8q-11 31 -10.5 60t20.5 52q23 27 47.5 51.5t49.5 50.5q9 9 9 20q3 48 6 94.5t7 94.5q1 13 2.5 25.5t3.5 26.5q0 3 -2 9q-1 0 -1.5 0.5t-1.5 0.5q-4 -6 -7.5 -12t-6.5 -12q-5 -11 -11 -21t-18 -15q-13 -6 -16 -22q-2 -9 -6 -17.5t-7 -16.5
q-2 -5 -4 -15q-3 -11 -8 -19t-19 -9l-30 -2t-30 0q-20 2 -37.5 19t-20.5 38q-3 17 -4 33.5t0 32.5q2 37 9.5 72t23.5 67q7 13 16 23.5t18 21.5t19.5 20.5t19.5 20.5t22 15t27 3q11 0 21 -2.5t20 -4.5q17 -2 25.5 -12.5t13.5 -24.5q5 -11 5.5 -21t-5.5 -21q-5 -8 -5 -17.5
t-1 -18.5q-1 -13 -13 -9q-7 2 -13.5 5.5t-13.5 6.5l4 18l4 18v8q-2 8 -2.5 15t-2.5 15q-1 4 -3 8.5t-4 5.5q-3 2 -7.5 0t-5.5 -5q-7 -18 -13.5 -36t-10.5 -38q-2 -17 -0.5 -34t0.5 -34q0 -14 -1.5 -28.5t-2.5 -29.5l-2 -12t-2 -11l3 -3q8 5 17.5 9.5t15.5 11.5
q16 18 30.5 36.5t27.5 38.5q8 12 12 25.5t10 27.5q4 8 9 16.5t10 18.5q8 -3 16.5 -6t16.5 -8q16 -12 22.5 -25t17.5 -31q6 -10 8 -19t2 -18.5t-0.5 -20t0.5 -22.5q1 -21 3 -37t-2 -34q-1 -4 -0.5 -8t-0.5 -11q13 12 25 22.5t22 22.5q13 16 24 33l22 34q6 11 11 22t12 21
q5 8 10.5 14.5t10.5 13.5q8 -5 8.5 -11t-1.5 -11zM209 -44q-3 0 -5 1q-8 -9 -15.5 -18t-17.5 -17q-16 -11 -27 -26t-22 -29q-4 -6 -4 -9q1 -18 -0.5 -35t6.5 -35q6 -14 16 -6q5 5 11 10.5t9 13.5q12 26 22.5 53t20.5 55q3 10 3.5 20.5t2.5 21.5z" />
    <glyph glyph-name="h" unicode="h" horiz-adv-x="443" 
d="M504 335q-1 -5 -1 -8v-6t-1 -8t-5 -15q-3 -10 -6.5 -23.5t-7.5 -23.5q-3 -7 -8 -19.5t-11 -28t-13 -33t-14 -33.5q-9 -20 -17.5 -40t-14.5 -29q-9 -14 -16.5 -24.5t-18.5 -24.5q-5 -7 -7 -15.5t-10 -14.5q-5 -5 -8.5 -9.5t-8.5 -9.5q-12 -17 -26.5 -24t-28.5 -5.5
t-26.5 10.5t-19.5 24q-13 25 -20 53t-3 57q2 16 1 32t2 32q3 22 8.5 43t10.5 43q2 7 2 14t1 15l-2 2q-5 -5 -10.5 -8.5t-10.5 -7.5q-8 -8 -17.5 -15t-16.5 -15q-8 -11 -15 -22.5t-5 -27.5q2 -11 0 -23t-3 -23q-2 -20 -2 -38.5t-1 -37.5q-2 -17 -7 -31q-4 -15 -22 -21
q-18 -7 -36 -3q-10 3 -20 2t-19 3q-4 1 -12 7q-11 10 -22 20.5t-16 24.5q-5 11 -5 23.5t1 24.5q2 34 2.5 67.5t-0.5 67.5q0 30 -3.5 59.5t-0.5 58.5q2 18 4 38t5 40.5t7 40.5t10 37q8 24 19.5 47t26.5 44q12 17 27 27.5t35 21.5q2 2 2.5 2t2.5 1q14 7 26.5 9.5t24.5 -2.5
q5 -2 10.5 -7t9.5 -10q7 -7 9 -16t1 -18t-3 -18.5t-3 -17.5q-2 -14 -9.5 -26t-14.5 -25q-6 -13 -14 -24.5t-13 -24.5q-5 -11 -11 -20.5t-12 -19.5q-4 -5 -4.5 -13.5t1.5 -15.5q5 -17 8 -42t3 -43q0 -12 3 -24t5 -25q16 8 31.5 16t30.5 17q3 2 4.5 5t3.5 6q13 13 29.5 18.5
t33 3.5t30.5 -12t22 -27q7 -14 8 -30.5t-1 -32.5t-6.5 -31.5t-8.5 -31.5q-20 -83 -8 -167l4 4t9 8.5t9.5 9l5.5 5.5q6 9 11.5 18.5t11.5 18.5q6 11 15.5 32t19.5 43.5t19.5 43.5t15.5 32q6 10 9.5 25t7 31.5t7 32t8.5 25.5q5 8 11 15.5t11 15.5q13 -13 10 -26zM186 599
q1 7 1 12t-2 12q-2 5 -4 9.5t-7 6.5q-3 1 -5 1.5t-7 -1.5t-8.5 -4t-7.5 -4q-23 -11 -31 -24.5t-6 -37.5l4 -32l4 -32q2 -9 3.5 -18t3.5 -18q1 0 1.5 -0.5t1.5 -0.5q8 12 14 25t13 26q7 12 12 25l10 26q3 7 5.5 13.5t4.5 15.5z" />
    <glyph glyph-name="i" unicode="i" horiz-adv-x="228" 
d="M134 420q0 -13 -9 -17q-11 -5 -21 -8t-21 -1q-5 1 -9 0.5t-9 -0.5q-7 2 -9 5q-10 10 -12 23t0 27q2 10 13 10q5 1 9.5 1h9.5q2 1 4.5 2t4.5 0q14 -5 26 -11.5t20 -21.5q1 -2 1.5 -4.5t1.5 -4.5zM293 368q0 -5 -5.5 -18.5t-11.5 -28.5t-11 -26.5l-5 -11.5
q-9 -18 -24.5 -46.5t-33.5 -57.5t-36 -55t-31 -39q-6 -8 -12.5 -8t-14.5 -5q-7 -5 -12 -10.5t-16 -5.5q-19 0 -37.5 11.5t-24.5 28.5q-8 26 -15 59.5t-7 60.5q0 21 6.5 40t6.5 39q0 8 -2 14t-2 13q0 10 6 19.5t13 14.5q5 4 11.5 3.5t12.5 -0.5q13 0 28.5 -1t28 -5.5t21 -15
t8.5 -29.5q0 -12 -3.5 -21.5t-7 -18.5t-7 -17.5t-3.5 -19.5q0 -16 -4.5 -30.5t-4.5 -31.5q0 -5 -3 -14.5t-7 -19.5t-7 -19.5t-3 -15.5q0 -3 1 -3q5 0 9.5 1t9.5 1q6 3 18 17.5t26.5 35t30.5 44.5t30.5 46t25 40t15.5 27q7 14 13 28.5t13 28.5q2 5 5 5.5t8 1.5z" />
    <glyph glyph-name="j" unicode="j" horiz-adv-x="226" 
d="M101 588q-2 -8 -2 -12q-1 -5 -1 -9.5t-1 -9.5q-3 -10 -7 -16q-3 -6 -6.5 -10t-8.5 -9q-3 -2 -6.5 -5.5t-6.5 -5.5q-7 -4 -15 -3.5t-15 2.5q-14 2 -26 6q-5 2 -5 5q0 4 -1 5q-3 2 -6.5 3t-6.5 3q-6 3 -11.5 6t-10.5 8q-5 4 -6 9q-4 8 -3 13q0 2 0.5 3.5t0.5 3.5q1 1 0.5 2
t0.5 3q1 4 3 7t4 7q1 4 0 7.5t1 7.5q1 2 5 6q6 5 13.5 7.5t14.5 6.5q4 3 8 4l12 6t13 5q9 4 21 4q5 0 8 -2l3 -3q1 -1 1 -2q0 -4 3 -5q2 -2 3 -1.5t3 -0.5t5 -2t5 -3q1 0 3 -5q4 -4 5 -6q2 -4 5 -6.5t4 -7.5v-16zM264 329q-2 -6 -4 -8q-2 -4 -4 -12q-2 -7 -5 -13.5t-6 -13.5
l-4 -8l-4 -8q-2 -6 -5.5 -12t-7.5 -12q-2 -4 -9 -11q-6 -6 -10 -9q-4 -4 -5 -8q-4 -5 -7 -10.5t-5 -11.5q-2 -9 0 -18q4 -22 -7 -48q-4 -11 -6.5 -21.5t-3.5 -21.5q-1 -17 -0.5 -35t-0.5 -35q-1 -14 -2 -29t-2 -29q-1 -5 -0.5 -10.5t-0.5 -10.5q-2 -25 -6.5 -49t-16.5 -46
q-5 -9 -8.5 -18.5t-10.5 -16.5q-8 -8 -12.5 -17.5t-9.5 -19.5q-6 -10 -14 -20q-8 -11 -18.5 -21t-21.5 -19q-2 -2 -4.5 -3.5t-4.5 -2.5q-5 -3 -9.5 -4.5t-8.5 -4.5t-6 -5.5t-7 -4.5q-17 -5 -35 -3q-13 2 -26 4.5t-26 5.5q-5 2 -9.5 4.5t-9.5 5.5q-2 1 -2 4v5
q-2 10 -4.5 19.5t-4.5 19.5q-1 6 -0.5 11.5t1.5 11.5q3 21 5.5 42.5t10.5 41.5q2 6 4 9q7 16 12.5 33t13.5 32q9 17 20 32.5t22 31.5q6 10 12.5 19.5t12.5 19.5q2 2 3 5t3 5q10 9 10 26q1 17 2 33.5t2 33.5q1 11 1.5 21t2.5 20l2 6t1 6q1 4 0 8.5t-2 9.5q0 7 -1 11q0 3 -1 6
l-2 6q-2 5 -1.5 10t1.5 10q0 22 -4 39q-2 9 -6.5 17t-3.5 18q0 4 1 7t1 7q2 11 -2.5 21t-7.5 21q-3 12 -2 24t7 22q11 17 31 21t37 -7q18 -12 33.5 -26.5t23.5 -35.5q5 -13 8.5 -26t7.5 -27q2 -4 3.5 -8t2.5 -9l3 -21q2 -6 2 -9q2 -8 2 -13q-1 -11 1.5 -21t7.5 -21
q6 8 11 14l10 12q5 7 10 13.5t11 13.5q11 11 21 26q2 5 4 11l3 9q3 4 6 6l5 5q2 1 7 1h3q2 -2 2 -3zM-23 614q-2 -2 -3.5 -4t-3.5 -4q1 1 2.5 3t3.5 4zM-39 572v2q0 -6 -1 -9l1 3v4zM14 -5l-1 1q-1 -3 -2 -5.5t-2 -5.5q-2 -4 -3 -8t-3 -8q-6 -12 -13 -24t-13 -24
q-5 -10 -8.5 -19.5t-7.5 -19.5q-5 -14 -10 -27.5t-9 -27.5t-5.5 -28.5t-3.5 -29.5q-3 -21 12 -42q9 -12 14 3q1 2 1 3.5t1 3.5q3 8 6.5 16.5t6.5 17.5q3 8 5.5 15t4.5 15q4 17 6.5 34t5.5 34q2 11 4 21.5t4 21.5q3 21 5.5 42t4.5 41z" />
    <glyph glyph-name="k" unicode="k" horiz-adv-x="343" 
d="M334 -5q-2 -6 -8 -7.5t-13 -0.5q-6 1 -9 4.5t-8 7.5q-12 9 -20.5 14.5t-16.5 12t-16 16t-19 24.5q-24 36 -64 60v-12.5t1 -11.5q1 -11 2.5 -21t2.5 -21q1 -14 1 -28.5t1 -29.5q0 -15 3 -28q1 -11 -10 -19t-21.5 -6.5t-21.5 3.5q-26 5 -48 17t-44 25q-4 2 -6.5 7t-3.5 10
q-3 19 -3 39q-1 19 -1 37.5t-2 37.5q-1 18 -2.5 36t-3.5 37q-1 10 -2 19.5t-2 19.5q-1 21 -1 42t-2 42q0 12 -1.5 24.5t-1.5 24.5q0 11 1 22.5t1 22.5q1 11 0.5 23t0.5 23l2 24t2 25q1 15 3 30t0 29q-2 22 -1.5 43.5t5.5 43.5q2 8 2 16.5t-2 16.5q-2 12 -1.5 23.5t2.5 22.5
q2 2 1 3q-2 10 3.5 12t12.5 3q10 2 20 3t21 2q8 1 15.5 -2t14.5 -8q15 -10 30 -14q14 -5 22 -14t16 -20q5 -8 10.5 -15t10.5 -15q11 -14 21 -32q7 -13 7 -26t3 -26q4 -15 0 -26.5t-9 -23.5q-4 -10 -7 -20t-8 -19t-10 -16.5t-10 -15.5t-10.5 -14.5t-10.5 -13.5q-3 -4 -7 -6
q-3 -2 -6.5 -3.5t-4.5 -3.5q-4 -9 -4 -23q1 -12 1.5 -24t0.5 -23q1 -18 1.5 -35.5t-0.5 -35.5q8 10 15 21t16 21q13 14 29 21.5t33.5 9t34.5 -4t32 -17.5q16 -14 24.5 -33t3.5 -39q-4 -20 -18 -35t-31 -24q-18 -10 -37 -15.5t-38 -12.5q-3 -1 -6 -3.5t-1 -5.5q13 -18 29 -32
q6 -5 9.5 -8.5t6 -6.5t4.5 -7t6 -11q3 -5 5 -7.5t4 -4t4 -3.5t6 -7q5 -8 12.5 -13t15.5 -13l8.5 -8.5l8.5 -8.5q5 -6 7.5 -10.5t5.5 -10.5q4 -5 9 -9t3 -11zM179 582h-1q-2 0 -2 1q-1 4 -1.5 7.5t-0.5 8.5q-1 4 -1 8t-2 8q-6 11 -14 23q-10 13 -20.5 25.5t-17.5 27.5
q-1 2 -1 3.5t-1 2.5q-10 5 -19.5 10.5t-20.5 10.5q-2 2 -6 -2q-3 -3 -6 -15t-1 -17q5 -14 10 -27t6 -27v-17q1 -8 2 -17t1 -18q0 -11 3 -20.5t7 -18.5q8 -18 15 -36.5t14 -37.5q2 -3 2 -6t2 -6q1 0 1.5 -0.5t1.5 -0.5q5 8 11.5 16t11.5 17q6 11 10.5 24t9.5 25q2 3 3 6t2 5
q1 10 1 18.5t1 18.5zM264 299q2 8 -1 15t-10 10q-13 7 -29 4q-24 -5 -40 -15.5t-27 -30.5q-8 -14 -11.5 -30t-4.5 -31q32 5 61 25t52 41q7 6 10 12z" />
    <glyph glyph-name="l" unicode="l" horiz-adv-x="249" 
d="M351 -86q0 -17 -15 -22l-51 -18q-9 -2 -18.5 -5t-18.5 -4q-11 0 -25 2t-28 5.5t-26.5 9t-21.5 12.5q-20 16 -34.5 35.5t-26.5 41.5q-20 36 -33.5 69t-24.5 77q-7 23 -9 42t-7 40q-2 6 -3 16t-1.5 20.5l-1 21t-1.5 16.5h1q0 19 0.5 33.5t-0.5 32.5q0 7 -1 14t0 14
q1 17 1.5 35t3.5 35q5 33 10.5 65.5t13.5 64.5q4 17 11.5 31.5t13.5 30.5q8 27 23.5 49t29.5 45q2 3 6.5 3.5t9.5 1.5l15 3q3 1 5.5 1.5t5.5 1.5q11 0 16 2q26 9 42 -13q3 -4 9 -6q11 -2 16 -10t11 -15q10 -12 8.5 -25t-2.5 -26q-1 -21 -7.5 -40t-8.5 -39q-2 -19 -9 -34.5
t-15 -31.5l-18 -42l-13.5 -27t-13.5 -26q-3 -7 -8 -14q-8 -8 -7.5 -18t0.5 -19q1 -12 3.5 -24t4.5 -24q1 -13 0 -34t0 -34q2 -19 6 -37t10 -35q5 -12 8.5 -23.5t8.5 -22.5q10 -19 23 -41q7 -11 13 -23t13 -23q9 -15 19 -29t18 -29t21 -18.5t24 -10.5l16 -10t9 -18zM227 636
q8 31 -11 49q-3 3 -6.5 4.5t-6.5 3.5q-6 -10 -5 -16.5t-1 -16.5q-4 -14 -9 -23t-7 -23q-2 -12 0.5 -21t-2.5 -20q-5 -10 -7.5 -20.5t-6.5 -21.5q-2 -8 -6.5 -14.5t-6.5 -14.5q-2 -7 -2 -14t-1 -15q-1 -7 -2 -13.5t-1 -13.5q0 -8 0.5 -16.5t1.5 -18.5q6 11 12 20t10 19
q11 26 20 53t19 54q5 12 9 24t7 25q2 7 1 14.5t1 15.5z" />
    <glyph glyph-name="m" unicode="m" horiz-adv-x="578" 
d="M535 130q8 -14 4.5 -23.5t-16.5 -19.5q-17 -12 -32.5 -10.5t-32.5 6.5t-28 18t-18 30q-13 31 -15.5 61.5t1.5 62.5q1 12 2 23.5t1 22.5q-2 30 2.5 59.5t9.5 59.5q1 2 0.5 4t-0.5 5q-20 -20 -30 -44t-22 -47q-14 -32 -35 -65q-14 -22 -26 -44.5t-20 -47.5q-7 -18 -8 -34
q-3 -12 -13 -12q-6 -1 -11 0t-10 7q-6 11 -6 23.5t2 23.5q11 47 13 100q0 13 1 25.5t2 25.5q-1 1 -2 1t-2 1l-18 -30t-19 -29q-3 -5 -7 -9.5t-6 -9.5q-8 -14 -16 -29l-16 -30q-2 -3 -2 -7v-8q2 -39 -12 -77q-7 -20 -26.5 -32.5t-41.5 -10.5q-8 1 -12 2l-8 2l-8 2l-12 3
q-32 6 -32 38q1 33 1.5 66.5t1.5 66.5q2 29 3 57t3 57q2 20 6 40.5t6 41.5q2 14 4.5 28t0.5 29t14.5 24.5t33.5 2.5q7 -3 10.5 -6t5.5 -6t5.5 -6t10.5 -6q15 -5 30.5 -10t30.5 -11q22 -8 29 -31q2 -8 -1.5 -15.5t1.5 -15.5q9 -12 1 -20t-4.5 -18t0.5 -21q0 -2 -1 -3.5
t-1 -4.5l8 6t9 6q11 7 21 14t21 12q8 3 17 3.5t17 -0.5q14 -2 14 -16q-1 -11 -1 -21v-21q5 8 11 15t9 15q20 44 61 75q1 1 2 1.5t2 1.5q12 16 27 15.5t31 -4.5q8 -2 17 -3.5t16 -6.5q34 -20 25 -59q-3 -14 -6 -28.5t-11 -28.5q-6 -12 -7 -25.5t7 -27.5q8 -11 8 -24.5
t-1 -27.5q-2 -42 22 -74q4 -6 7.5 -11.5t7.5 -11.5z" />
    <glyph glyph-name="n" unicode="n" horiz-adv-x="430" 
d="M487 350q0 -11 -5 -19l-10 -16q-7 -11 -13.5 -26.5t-13 -31.5t-13 -31.5t-13.5 -25.5q-6 -9 -16.5 -28t-21 -39t-20 -36.5t-13.5 -21.5q-4 -4 -11 -4q-17 0 -34.5 11t-32.5 27.5t-25 35.5t-10 35q-2 37 -6 73.5t-6 73.5q-9 -10 -27 -37.5t-35 -59t-30 -60t-13 -41.5
q0 -11 3.5 -28.5t5.5 -28.5q2 -29 -10 -36.5t-29 -7.5l-12 6t-26.5 19.5t-26.5 35.5t-12 53q0 7 0.5 13t1.5 13q0 8 -2 22t-5 30t-5.5 31.5t-3.5 26.5q-1 5 -3 11t-2 11q0 4 2 8t2 9q0 9 -3.5 13t-3.5 10q0 3 4 9.5t5 11.5q2 11 9 22t20 11l3 -1q15 -4 31.5 -11t31 -17.5
t26 -24t16.5 -28.5q2 -8 3.5 -16t3.5 -16q10 16 17 26t13.5 18.5t14 18t18.5 24.5l6 9t9 13t10 12.5t9 7.5q3 1 10.5 8t9.5 7t4.5 -1t4.5 -1q4 0 6.5 1t6.5 2q6 2 15.5 2h15.5q3 0 12.5 -7.5t12.5 -9.5t7 -15t6 -17q5 -13 6.5 -21.5t1.5 -24.5q0 -10 2.5 -17t-0.5 -15
q-1 -4 -2.5 -15.5t-2.5 -24.5t-2 -24t-1 -14q0 -2 1.5 -5t1.5 -5q0 -3 -2.5 -4.5t-2.5 -6.5t1.5 -9t1.5 -9q0 -2 -0.5 -12t2.5 -10q6 0 16 12.5t21.5 32t23 42.5t21 44t16 36.5t8.5 20.5q4 13 19 13q5 0 6 -4t1 -8z" />
    <glyph glyph-name="o" unicode="o" horiz-adv-x="314" 
d="M354 326q-4 -6 -7 -8q-2 -2 -4 -1t-4 -1t-6.5 -1.5t-6.5 -1.5t-6 -1.5t-6 -0.5q-9 -5 -28 -6t-29 2q2 -9 3.5 -18.5t2.5 -19.5q1 -8 0 -17t-3 -17q-3 -14 -6 -27.5t-8 -26.5q-6 -14 -13.5 -27t-15.5 -26q-5 -8 -11.5 -15t-12.5 -15q-9 -11 -21 -14t-24 -8q-6 -2 -10 -2
q-9 -1 -17.5 -3t-16.5 0q-69 21 -94 94q-2 5 -3.5 9t-3.5 9q-4 6 -5 10q-3 8 -1.5 17t1.5 18q-1 37 8 76q5 20 12 39.5t16 37.5q4 8 9 15.5t7 16.5q4 7 6 9q5 3 9.5 3t9.5 2h5q6 -1 14 -1.5t13 -5.5q13 -9 26 -13t27 -6q52 -6 77 -60q2 -2 6 -8q6 -2 15.5 -2.5t20 1
t20.5 3.5t16 4l4 2t4 3q4 2 7.5 3.5t7.5 3.5q3 2 6.5 3t5.5 -4q2 -4 4 -12.5t0 -11.5zM196 323q-3 5 -5.5 9t-4.5 8q-2 5 -4.5 9t-6.5 7q-13 11 -27 17q-6 3 -12 1t-8 -10q-3 -9 -0.5 -20t7.5 -13q14 -5 29 -7.5t32 -0.5zM211 211q3 7 4 18t0.5 23t-2.5 23t-5 18t-7 8.5
t-10 1.5q-8 0 -15.5 0.5t-15.5 1.5q-8 2 -16.5 3t-16.5 3v-21.5t-1 -21.5q-1 -17 -3.5 -35.5t-0.5 -35.5t7 -33.5t10 -33.5q2 -5 6.5 -8.5t9.5 -8.5q5 4 8 6.5t5 6.5q11 17 24 33.5t15 39.5l2 6z" />
    <glyph glyph-name="p" unicode="p" horiz-adv-x="380" 
d="M341 214q-3 -25 -8.5 -42.5t-18.5 -39.5q-11 -17 -19.5 -30.5t-26.5 -20.5q-12 -5 -29 -9t-29 -5q-14 -1 -24.5 11t-14.5 25q-5 16 1 30t20 23q14 11 27.5 19.5t27.5 18.5q5 3 5 8l3 114q0 8 -2.5 14t-10.5 8q-14 4 -31 -8q-13 -9 -18 -22.5t-11 -26.5q-8 -14 -15 -28
t-17 -27q-5 -7 -4.5 -17.5t-1.5 -20.5q-2 -12 -3.5 -23.5t-4.5 -23.5q-6 -29 -13.5 -56t-12.5 -56q-5 -33 -6 -66t1 -66q1 -17 2 -33t-1 -32q-2 -17 -8 -32.5t-18 -26.5q-11 -11 -27.5 -16t-32.5 -3q-10 1 -13.5 6t-3.5 12t2 14.5t2 14.5q-2 23 -4 45t-3 45q-2 29 -2 56.5
t-1 56.5q-1 38 -1 77t-2 77q-1 20 4 39t3 38q-1 7 -2.5 13.5t-1.5 12.5t1.5 12t6.5 13q4 5 7.5 10t4.5 10q2 12 -6 21t-8 20q-1 11 3 24t6 24q5 25 20.5 31.5t34.5 2t38.5 -14.5t32.5 -17q17 -9 14 -32q-1 -6 -0.5 -12.5t0.5 -13.5q13 5 24.5 10.5t23.5 9.5q14 5 29 0
l34 -10t32 -13q17 -10 27 -21t16 -31q5 -17 5 -33.5t-2 -36.5zM254 180q-21 -13 -36.5 -27.5t-22.5 -36.5q-1 -5 0 -10.5t2 -10.5q5 2 10 3t10 3q1 0 1.5 1t1.5 1q18 14 22.5 34t11.5 43z" />
    <glyph glyph-name="q" unicode="q" horiz-adv-x="390" 
d="M376 -34q-2 -5 -2 -11.5t-2 -11.5q-14 -29 -27.5 -57t-29.5 -57q-11 -20 -24.5 -40t-25.5 -40q-11 -17 -19.5 -36t-19.5 -37q-8 -13 -19 -23.5t-28 -11.5q-24 -2 -32 19q-14 30 -14 61v62q0 35 2.5 68.5t5.5 68.5q2 23 5.5 47t7.5 47q8 47 16 93t16 93q2 8 2.5 15.5
t2.5 15.5q-3 -2 -4.5 -2t-2.5 -1q-11 -11 -22.5 -20.5t-22.5 -20.5q-27 -24 -56.5 -35t-66.5 1q-31 10 -34 44q-2 24 -2.5 49.5t4 50.5t15.5 49t31 45q19 20 35 34t43 19q16 4 27 3.5t27 -3.5q4 -1 6.5 -1.5t6.5 -1.5q23 -6 39 -13.5t36 -11.5q0 4 0.5 10t1.5 12q3 39 39 23
q25 -10 51 -31q5 -3 7 -11t2 -14q-2 -14 -5.5 -28.5t-5.5 -29.5q-2 -16 -3 -31.5t1 -31.5q2 -14 -4 -27.5t-14.5 -27.5t-16.5 -27.5t-10 -26.5q-6 -47 -3.5 -94t-5.5 -94q-3 -17 -6 -33.5t-8 -33.5q-4 -13 -6 -25.5t-6 -24.5q-5 -11 -8 -22.5t-8 -22.5q-8 -17 -10 -32.5
t-10 -32.5q-5 -10 -8 -20.5t-6 -21.5q2 -2 4 -2q4 6 7 12.5t8 12.5q13 17 27 34t25 35q14 24 26 49t26 50q9 15 19.5 29.5t20.5 29.5q2 -1 2.5 -1t2.5 -1zM238 382q0 5 -1 6q-14 17 -39.5 18t-41.5 -12q-15 -12 -24.5 -20.5t-16.5 -17.5t-13 -19.5t-15 -27.5
q-6 -12 -13.5 -23.5t-13.5 -24t-10 -25.5t-3 -27q1 -11 7.5 -14t20.5 -1q1 0 4.5 3t8 6.5t8.5 7t6 4.5q10 8 14 12t7 7.5t6.5 7.5t14.5 12q24 18 42 41t35 47q6 9 9 19.5t8 20.5z" />
    <glyph glyph-name="r" unicode="r" horiz-adv-x="271" 
d="M290 5q-2 -8 -4.5 -14.5t-7.5 -11.5q-8 -10 -15.5 -19.5t-18.5 -16.5q-26 -19 -60 -22q-21 -1 -41.5 1t-40.5 10q-27 11 -44.5 31t-25.5 47q-5 13 -7.5 27t-1.5 28q2 53 18 104q7 22 12.5 44t11.5 44q2 8 4 16.5t5 16.5q4 9 -5 12q-8 2 -13 5.5t-14 4.5q-4 0 -10 2t-9 4
t-6.5 3.5t-6.5 4.5q-3 5 -6.5 7t-8.5 5q-19 11 -32 27t-23 36l-10 20t-7 22v5q0 8 1.5 18t9.5 18q14 5 24.5 7t24.5 2q15 1 26.5 0.5t25.5 -6.5q17 -8 31 -16.5t14 -27.5q0 -8 -1 -13q-2 -12 -5 -20.5t-8 -19.5q-5 -10 -11 -17.5t-8 -13.5q-2 -12 8 -14q5 -1 10.5 -2.5
t10.5 -1.5q2 0 3.5 1.5l3.5 3.5q3 2 5.5 5t4.5 4q8 2 16 3t16 -4q6 -4 12 -8.5t12 -8.5q9 -7 18 -13.5t19 -12.5q13 -8 19 -20t8 -26q2 -5 -0.5 -11.5t-4.5 -12.5q-5 -11 -10 -21t-10 -21q-2 -5 -3 -10l-2 -10q-2 -9 -2 -19t-2 -19q-1 -11 -2.5 -20.5t-3.5 -19.5
q-1 -5 0 -10t-1 -10q-2 -11 -5 -20.5t-5 -20.5q-1 -9 -0.5 -17.5t4.5 -16.5q5 -6 6 -13q1 -11 7 -17t15 -9q8 -2 15 2t12 10q12 14 27 24t23 27q3 3 7 5q7 -4 10.5 -13t1.5 -17zM27 389q-2 12 0 24t-3 24q-2 7 -4.5 13.5t-10.5 9.5q-5 2 -10.5 3.5t-10.5 3.5q-8 2 -15 -3
t-8 -13q0 -3 -1 -6.5t-1 -7.5v-8t2 -8q3 -7 10 -14q7 -6 13.5 -12t12.5 -13q5 -5 10 -9.5t11 -10.5q2 8 4.5 14.5t0.5 12.5z" />
    <glyph glyph-name="s" unicode="s" horiz-adv-x="279" 
d="M243 92q5 -29 -6.5 -56.5t-27.5 -51.5q-5 -8 -10.5 -15t-13.5 -13t-17 -12t-17 -12q-13 -8 -26 -14.5t-28 -10.5l-16 -4t-16 -5q-6 -2 -12.5 -5t-13.5 -3q-5 0 -11 1.5t-11 3.5q-8 2 -16 3.5t-16 3.5q-5 2 -9 3t-8 3q-7 4 -11.5 10t-8.5 13q-8 15 -13 34t4 36
q13 23 29.5 43t41.5 32q8 5 17 7t17 5q9 4 17.5 7t17.5 7q5 -8 2 -13.5t-8 -9.5q-11 -8 -24 -14.5t-24 -14.5q-23 -15 -37 -36t-16 -49q-1 -7 2 -13.5t12 -9.5q23 -9 44.5 -7.5t41.5 17.5q9 7 15.5 17.5t11.5 21.5q6 14 10.5 27.5t6.5 27.5q2 8 -0.5 17t-7.5 17
q-23 35 -42.5 71.5t-36.5 74.5q-29 66 -24 137q3 43 19 76q7 14 16.5 28t23.5 22q7 4 14 5t15 2q11 2 21 1t21 -3q14 -3 27 -9l26 -12q6 -3 12 -6.5t9 -8.5q4 -7 5 -14.5t3 -14.5q6 -17 6 -34q0 -9 -3 -21.5t-11 -18.5t-19.5 -6t-20.5 4l-8 4t-6 6q-2 3 -2 8t3 7l6 3
q12 5 19 12q8 10 8 21q-1 10 -10 20q-4 4 -11.5 8.5t-15 7t-14.5 1t-11 -8.5q-17 -33 -3 -71q5 -14 6 -28t4 -28q6 -27 25 -53q5 -7 10.5 -12.5t10.5 -13.5q4 -6 6.5 -13t6.5 -13q3 -5 6.5 -10t6.5 -10q6 -9 10 -18.5t8 -20.5q2 -6 4.5 -12.5t4.5 -12.5q3 -8 5.5 -16.5
t4.5 -17.5z" />
    <glyph glyph-name="t" unicode="t" horiz-adv-x="274" 
d="M317 349q0 -5 0.5 -11.5t-0.5 -11.5q-3 -17 -12 -32q-3 -5 -4.5 -9.5t-3.5 -9.5t-4 -9.5t-4 -9.5q-2 -4 -3 -8t-3 -8q-1 -3 -4.5 -16t-8 -28.5t-8.5 -28.5t-6 -16q-3 -5 -5 -10l-4 -10q-5 -14 -11.5 -32t-19.5 -36q-5 -7 -9.5 -12t-7.5 -9q-5 -8 -10.5 -11.5t-11.5 -11.5
q-3 -3 -12 -10.5t-13 -10.5q-8 -6 -19 -7.5t-20 -1.5q-19 0 -34 8q-9 5 -17.5 12t-17.5 13q-5 4 -11.5 7.5t-8.5 11.5q-4 15 -7.5 31t-3.5 31q0 11 1 22t1 22q0 6 -1 12.5t-1 13.5q0 5 0.5 10.5t1.5 10.5q1 9 1 18v17q0 14 -0.5 27t-0.5 26q0 8 1.5 14t1.5 14
q0 11 -2.5 22.5t-2.5 23.5q0 11 1 23t1 23q0 10 2 19t3 19q1 7 1 14t2 14q0 2 0.5 4t0.5 4q0 5 -1.5 10t-1.5 10q0 4 1 7t1 6q0 6 -6 6q-3 0 -6 -1t-6 -1q-10 -2 -15 -2.5t-9.5 -0.5h-10h-15.5q-8 0 -13 2.5t-12 5.5q-2 1 -7 8t-5 9t7.5 4t9.5 2q8 1 10 2t3 2.5t3 2.5t11 2
q4 0 2.5 0t-4 -1t-3.5 -1t3 0q8 2 16.5 4t17.5 3q6 1 12 1.5t13 0.5q7 1 7 8q0 20 8 40.5t13 39.5q1 2 1 6q0 2 -2 4t-2 7t2.5 10.5t4.5 10.5q1 5 7 5q5 0 12 -2.5t12 -4.5q6 -2 12 -4.5t12 -3.5q20 -3 30 -20.5t10 -35.5v-15v-21q0 -5 0.5 -8t6.5 -3h12.5t8 0.5t8 1.5
t12.5 2q3 0 6 0.5t6 0.5q4 0 6 -1q1 -2 3 -2h4q6 0 7.5 0.5t2.5 1.5t2.5 2t6.5 2t11 0.5t11 -0.5q9 0 11.5 -0.5t2.5 -11.5q0 -9 -7.5 -14.5t-17.5 -8.5t-20.5 -4t-17.5 -2q-5 0 -15.5 -2.5t-21.5 -5.5t-20 -6.5t-12 -4.5q-5 -3 -5 -8q0 -10 0.5 -19t0.5 -19q0 -13 0.5 -26
t-1.5 -27q-1 -2 -1 -6q0 -5 0.5 -10t0.5 -10q-1 -11 -2.5 -20.5t-2.5 -19.5q-4 -31 -7 -61t-3 -61v-52q1 -7 1.5 -13.5t0.5 -13.5q0 -5 -1 -10t-1 -10q0 -3 1 -9t2.5 -13t3 -13t2.5 -8q2 -3 5 -6q8 -6 10 -11t16 -5q11 0 23.5 10.5t17.5 19.5q2 4 4 8.5t4 9.5q8 14 12 27.5
t11 28.5q2 4 4 12q1 2 5.5 14t10 26.5t9.5 26.5t5 14l4 14t5 13q4 8 6 15t6 14q2 3 4 5.5t4 5.5q2 5 6 16t10 11q3 0 3.5 -3.5t0.5 -5.5z" />
    <glyph glyph-name="u" unicode="u" horiz-adv-x="453" 
d="M488 336q-2 -20 -7.5 -33t-16.5 -30q-6 -11 -15 -30.5t-19 -39.5q-11 -23 -20 -45t-17 -32q-4 -5 -7.5 -10.5t-8.5 -10.5t-10 -11t-10 -11q-2 -2 -3.5 -2.5t-3.5 -1.5q-5 -2 -10.5 -3.5t-10.5 -3.5q-3 -1 -9 1q-3 0 -5 1t-4 1q-5 5 -8 9.5t-8 8.5q-10 9 -20 17
q-8 5 -13.5 12.5t-10.5 15.5q-5 9 -11.5 18t-12.5 17h-2q-6 -10 -14.5 -18t-14.5 -19q-7 -11 -17 -21q-8 -8 -16 -15.5t-18 -11.5q-4 -2 -7 -3t-7 -3q-10 -7 -18 -9q-23 -6 -44.5 1t-38.5 23q-15 14 -20.5 37t-5.5 42q0 46 3 93q2 25 3.5 48t-0.5 48q-1 9 0.5 20.5t1 22
t-4 20t-13.5 15.5q-1 0 -1.5 0.5t-1.5 0.5q0 -1 -2 3q17 5 32 4.5t30 -8.5q44 -25 70 -69q5 -8 9 -16t6 -16q2 -10 0.5 -20t-2.5 -21q-1 -3 -1.5 -5.5t-0.5 -5.5q-4 -13 -5 -23q-1 -6 -1 -12t-1 -12q-2 -11 -3 -22t-1 -22q-1 -9 -1 -18v-19q0 -11 0.5 -21t1.5 -21
q1 -1 1.5 -1t1.5 -1q2 2 5.5 3.5t5.5 3.5q9 8 18.5 16.5t18.5 17.5q6 6 10.5 13t9.5 15q8 11 15 23.5t15 23.5q10 15 13 35q2 20 8.5 39t12.5 38q4 9 7 18.5t-1 20.5q-2 4 0 7.5t8 1.5q39 -6 67 -34q5 -6 1 -12q-2 -4 -2 -14q0 -14 1 -28t-1 -28q-2 -19 1 -35q1 -4 -1 -8
t-2 -8q-1 -8 0 -16t0 -16q-2 -13 -5 -26t-4 -27q0 -5 0.5 -9.5t2.5 -9.5t8.5 -7t11.5 0t10.5 10t9.5 13q11 12 16.5 29.5t13.5 31.5q3 5 10 19.5t14.5 31t14.5 31t10 19.5q5 10 10.5 20.5t11.5 20.5q3 4 8 5.5t8 -2.5q2 -3 2 -9z" />
    <glyph glyph-name="v" unicode="v" horiz-adv-x="321" 
d="M359 499q-2 -17 -7.5 -32t-11.5 -29q-5 -12 -11.5 -22.5t-12.5 -21.5q-8 -14 -16 -27.5t-16 -27.5t-14.5 -33t-14.5 -32q-10 -19 -15.5 -32.5t-10.5 -33.5q-5 -17 -10 -33l-10 -32q-3 -10 -4.5 -16t-2 -10.5t-1 -8.5t-1.5 -11l-3.5 -28t-1.5 -26v-18q-1 -17 -21 -24
q-11 -4 -21 -2.5t-20 3.5q-27 3 -51 13q-25 12 -31 37q-5 22 -9 43.5t-8 43.5q-2 10 -2.5 14.5t-0.5 8.5t-0.5 9l-1.5 15q-4 20 -7.5 40t-6.5 40q-3 16 -3.5 31t-2.5 31q-1 9 0.5 19t-1.5 19q-1 2 -2.5 4t-3.5 4q-4 10 -3 22t0 23v16.5t-1 19.5q5 7 14 10t23 -2
q12 -5 25 -4.5t24 -5.5q11 -7 24 -11.5t21 -17.5q5 -8 3.5 -14t0.5 -15q0 -2 0.5 -4t0.5 -5q3 -18 5.5 -32t5.5 -30q1 -3 0.5 -6t0.5 -6q3 -12 6 -23.5t6 -23.5t5.5 -24.5t4.5 -24.5q1 -3 1.5 -7t2.5 -10q5 10 9 17.5t8 15.5q22 42 43.5 81.5t41.5 81.5q17 35 33 70.5
t33 70.5q1 3 3 13q10 -11 13.5 -23t2.5 -27z" />
    <glyph glyph-name="w" unicode="w" horiz-adv-x="542" 
d="M579 323q-3 -7 -7 -9q-22 -19 -52 -21q-18 0 -31 4q-5 2 -12.5 6t-12.5 0q-5 -3 -4.5 -13.5t0.5 -15.5q-1 -9 -1.5 -18t-2.5 -18q-3 -27 -5 -55t-9 -55q-4 -13 -5.5 -26t-4.5 -27q-3 -11 -3.5 -23t-3.5 -23q-5 -17 -16.5 -27t-27.5 -15q-14 -5 -29 -6t-30 4q-3 2 -6 3
t-5 3l-33 39q-13 16 -20.5 34.5t-15.5 37.5q-2 5 -4 9.5t-4 9.5q-2 2 -2 3q2 11 -1.5 21.5t-5.5 21.5q-1 8 -2.5 15.5t-3.5 15.5q-4 15 -4 34q1 7 -0.5 17.5t-5.5 16.5q0 1 -2 1q-1 0 -1 -1q-4 -4 -5 -9.5t-3 -10.5q-2 -9 -5 -18t-8 -17q-3 -8 -7.5 -15.5t-6.5 -15.5
q-3 -16 -6.5 -31t-5.5 -31q-1 -7 0 -13.5t1 -13.5q0 -15 -9 -21q-3 -2 -4.5 -5.5t-3.5 -6.5q-4 -6 -7 -8q-5 -5 -9.5 -8.5t-6.5 -11.5q0 -2 -3 -3.5t-5 -3.5q-6 -3 -9 -6t-5.5 -5t-6 -3t-11.5 1q-8 1 -15 10q-7 8 -19 17t-17 17q-9 18 -12.5 36.5t-7.5 37.5q-8 34 -9.5 68
t-2.5 69q0 23 0.5 46.5t0.5 46.5v25q13 6 35 10t38 2q9 -2 14.5 -3t10 -3t9.5 -4.5t14 -6.5q26 -11 20 -41q-2 -8 -1 -16.5t0 -16.5v-32q0 -4 1 -6q4 -12 2 -24.5t-2 -24.5q0 -5 0.5 -9t0.5 -9q3 0 4 -1q2 5 4.5 8.5t4.5 7.5q6 14 12 27t11 27q4 8 6.5 17t5.5 17t6.5 15
t6.5 14q2 4 3 5q0 8 5 11.5t11 7.5q13 9 26 -2l12 -9q5 -5 11 -8t13 -4q6 -1 11 -4t11 -2q6 0 12 -3t12 -5q26 -11 38 -35q4 -7 5 -16t3 -17q2 -15 4 -29.5t2 -28.5q1 -11 4 -20t4 -20q3 -16 1 -37v-10.5t6 -7.5q10 -2 12 7t4 15q2 5 4.5 9.5t2.5 9.5q0 8 1.5 15t3.5 14
q2 8 2 14t1 14q1 16 2 31.5t2 31.5q1 8 1.5 15.5t-2.5 15.5q-6 14 -5 29q0 4 -0.5 7t-0.5 7q-1 5 0 8t1 8q2 8 7 14.5t14 1.5q2 -2 4 -3.5t4 -3.5q5 -5 9.5 -10t9.5 -10l14.5 -14.5t18.5 -8.5q29 -2 52 15q2 2 4.5 3.5t5.5 2.5q6 2 10 -1q4 -4 2 -11z" />
    <glyph glyph-name="x" unicode="x" horiz-adv-x="347" 
d="M325 407q1 -9 -3.5 -17t-8.5 -16q-6 -10 -15 -18t-17 -16q-3 -2 -3 -4q-2 -10 -8 -15.5t-11 -11.5q-6 -7 -11.5 -13.5t-15.5 -8.5q-6 -2 -10 -11q-2 -2 -1.5 -4.5t1.5 -4.5q10 -14 19 -28.5t19 -28.5q2 0 2 -2q2 -6 4.5 -12t3.5 -13q1 -5 1.5 -9t4.5 -8q6 -6 8 -13.5
t6 -14.5t7 -14t7 -15q1 -2 2 -2.5t1 -1.5q-2 -5 0 -9t5 -9q7 -9 3 -18q-1 -2 0 -4.5t1 -4.5v-16q0 -8 -7 -9q-3 0 -6 -3q-3 -6 -7.5 -6.5t-9.5 0.5q-4 0 -7.5 0.5t-7.5 0.5q-17 0 -29 12q-8 6 -14 13t-13 15q-2 2 -4 4.5t-4 4.5q-14 11 -25 24t-22 27l-16 18l-16 18
q-3 3 -6 0q-11 -9 -20.5 -17.5t-14.5 -22.5q-5 -10 -11 -18.5t-16 -14.5q-5 -3 -8 -7.5t-6 -9.5q-6 -8 -11.5 -17.5t-10.5 -18.5q-5 -8 -12 -4.5t-12 10.5v1q-5 10 -2 16.5t8 14.5t9 16.5t9 16.5q3 7 6.5 12.5t7.5 10.5q6 8 13 14.5t13 13.5q2 2 3.5 5.5t3.5 6.5q5 6 9 13
t9 13q6 8 1 14q-8 11 -16 22.5t-16 22.5q-12 20 -22 40.5t-18 42.5q-8 20 -11.5 40.5t-7.5 41.5q-2 7 -5 13.5t-5 13.5q-1 2 -1 4t-1 4h8q25 -3 48 -12t46 -17q21 -6 38 -19q9 -5 16 -12.5t15 -15.5q6 -6 12 -12.5t11 -14.5q4 -5 6.5 -11t5.5 -11q2 -4 4 -7t4 -7l9 12
q10 14 25 26q15 10 22 25q5 11 13 20t17 17q9 9 18 9q8 0 13.5 -6t6.5 -13zM5 7q0 -6 -6 -12q-5 -4 -14 -4q-7 0 -10.5 5.5t-5.5 12.5q-2 8 4 16t12 8q7 0 7 -4q0 -1 -0.5 -1t-0.5 -1v-2l2 -1h3l1 -1l2 -1l2 -2q0 -1 0.5 -1.5t0.5 -1.5q3 -5 3 -10z" />
    <glyph glyph-name="y" unicode="y" horiz-adv-x="541" 
d="M573 359q0 -12 -12.5 -38t-31 -59.5t-40.5 -69t-40.5 -66t-31 -51t-12.5 -23.5q0 -8 2 -16.5t2 -17.5v-21.5t-0.5 -28t-2 -27t-3.5 -19.5q-11 -11 -13.5 -27t-4.5 -31q-5 -50 -24 -99t-49 -89q-8 -11 -18 -24t-22.5 -24.5t-26.5 -19.5t-28 -8q-27 0 -48.5 18t-21.5 47
q0 17 16 50t35.5 67t35.5 59.5t16 27.5q0 47 -1.5 94t-1.5 95v18t-1 26.5t-2 25.5t-3 16h-2q-2 -1 -9.5 -9.5t-16.5 -18.5t-17 -19t-10 -12q-10 -12 -17 -17.5t-14 -8.5t-16 -5.5t-22 -9.5q-1 0 -2 -0.5t-3 -0.5q-6 0 -15 4t-18.5 9.5t-18 11.5t-14.5 10q-23 15 -30.5 42.5
t-8.5 56.5q0 17 1.5 34.5t2.5 31.5q3 35 9.5 69t14.5 68q3 11 9 24t12.5 26.5t11 27t4.5 24.5q0 5 1 11.5t8 6.5q18 0 36 -5.5t32 -16.5t21.5 -27t5.5 -36q3 -8 2.5 -16.5t-0.5 -16.5q0 -4 1 -6.5t-2 -2.5q-2 0 -2 -4q-4 -12 -6.5 -26t-4.5 -27q-7 -11 -11 -31.5t-6.5 -41.5
t-4 -39t-4.5 -23q-5 -2 -4.5 -7t0.5 -9q0 -10 -5.5 -21t-5.5 -19q0 -9 4.5 -18.5t2.5 -17.5l1 -5q8 4 23 13.5t22 17.5q4 4 16 18t24.5 30.5t22.5 30.5t11 19q6 35 10 72.5t4 72.5q0 9 7.5 12.5t15.5 3.5q9 0 27.5 -6t37 -15t32.5 -20.5t14 -21.5q0 -20 -1.5 -41t-1.5 -41
q0 -6 1.5 -11t1.5 -10q0 -7 -2 -13t-2 -12q0 -5 0.5 -16t1 -23t2 -22.5t3.5 -14.5q8 6 21 27.5t28.5 50t32.5 60t32.5 58t29 43.5t21.5 17q7 0 7 -4zM255 -202q0 8 -0.5 15.5t-1.5 15.5l-2 3q-3 -2 -8.5 -8.5t-3.5 -11.5q0 -4 -9 -18.5t-21 -34.5t-23.5 -42.5t-15.5 -41.5
q2 -8 7.5 -17.5t15.5 -9.5q14 0 25.5 19.5t19.5 45t12.5 50t4.5 35.5z" />
    <glyph glyph-name="z" unicode="z" horiz-adv-x="220" 
d="M246 36q-5 -23 -19.5 -34.5t-34.5 -17.5q-11 -3 -22 -6.5t-23 -2.5q-18 1 -36 3.5t-35 10.5q-8 4 -17 6l-18 4q-8 1 -14.5 1t-13.5 -5q-6 -4 -11 -2q-11 2 -21 4.5t-20 6.5t-16 10.5t-8 18.5q-7 40 4 83q9 35 21 65l28 76t26 76q15 45 37 86l4 12q-11 -1 -20.5 -1
t-18.5 -2q-17 -3 -32 11q-5 4 -9.5 9t-9.5 10q3 0 5 0.5t4 0.5q18 2 36.5 3.5t35.5 5.5q15 2 29.5 6t28.5 9q15 5 29 -1q11 -5 15.5 -13.5t-0.5 -19.5q-4 -9 -4 -21q0 -2 -1 -4.5t-1 -5.5q-1 -5 -1.5 -10t1.5 -10q4 -16 1 -35q-2 -8 -2 -15.5v-15.5q0 -23 -3.5 -45t-8.5 -44
q-2 -9 -3 -18t-3 -18l-9 -30q-9 -37 -29 -75q-5 -8 -10.5 -16t-11.5 -17q5 -1 11 -1q12 1 22.5 -1.5t21.5 -7.5q8 -3 14 -11q12 -11 23 -13q4 -1 8 -1h8q5 1 9.5 2t9.5 3q2 1 5 1.5t4 2.5q2 6 6.5 8.5t9 4.5t8.5 4.5t7 7.5q12 -8 14 -14t0 -18z" />
    <glyph glyph-name="braceleft" unicode="{" horiz-adv-x="358" 
d="M268 129q-2 -23 -5 -45.5t-10 -45.5t-19 -42t-28 -37q-5 -5 -8.5 -11t-5.5 -14q-2 -11 -7.5 -21t-3.5 -23q1 -5 -0.5 -9t-0.5 -9q0 -5 5 -10q11 -12 21 -24l20 -24q2 -2 6 -8q4 -10 0.5 -16.5t-14.5 -7.5q-15 -1 -28.5 4t-25.5 13q-8 5 -14 11t-14 11q-18 11 -26 27.5
t-11 36.5q-1 10 -2.5 19t-3.5 19q-2 11 -2.5 23.5t-2.5 27.5q2 17 4.5 35t4.5 37t5.5 37.5t2.5 37.5q-1 9 0.5 17.5t1.5 17.5q0 11 -3.5 20t-13.5 17t-18.5 17t-16.5 17q-6 5 -1 13q6 14 19 21q2 1 4 2.5t3 3.5q8 13 14.5 26t4.5 30q-1 5 1 11t1 11q-1 18 -2.5 36t-2.5 36
q0 23 -7 44t-12 43q-5 20 -8 40t0 40q3 25 9 49q6 22 22 35q8 8 22 11.5t26 1.5h4q19 2 35.5 -4t33.5 -10q11 -3 20.5 -9.5t19.5 -13.5q7 -5 2 -14q-8 -14 -21 -15q-12 -2 -22 -7.5t-20 -11.5q-10 -7 -8 -19q5 -32 14.5 -63t21.5 -61q7 -14 11 -29.5t8 -31.5q2 -8 0.5 -16
t-3.5 -16q-4 -13 -21 -23q-8 -5 -15 -12t-15 -14q-5 -5 -8.5 -10t-8.5 -10t-9 -9.5t-6 -12.5q-2 -5 -8 -9q-3 -3 -6.5 -5.5t-6.5 -4.5q-9 -9 3 -15q12 -4 24 -7t23 -8q17 -7 31.5 -16.5t28.5 -21.5q5 -5 7.5 -12t4.5 -14t4.5 -13.5t1.5 -13.5z" />
    <glyph glyph-name="bar" unicode="|" horiz-adv-x="250" 
d="M221 363q-3 -32 -2.5 -63t-0.5 -63q0 -17 0.5 -32.5t-1.5 -31.5q-4 -29 -8 -59t-9 -59l-8 -40l-8 -40q0 -5 1 -7q9 -21 4 -38.5t-12 -34.5q-2 -5 -4 -8.5t-4 -8.5q-18 -39 -12 -85q1 -8 -1.5 -16.5t-7 -16.5t-10 -14t-11.5 -7q-11 -2 -14 12q-2 13 -8.5 21.5t-12.5 16.5
q-24 30 -28 72q0 3 -2 9q-5 23 -7.5 45t-0.5 42q0 48 -0.5 91t0.5 86q1 27 3.5 54t4.5 54q1 8 1.5 16t0.5 16q1 41 1.5 80.5t2.5 80.5l3 102q2 29 -12 47q-2 3 -2.5 7.5t-2.5 9.5q4 2 8 5t8 2q5 0 9 -3t9 -5q17 -9 33.5 -17.5t33.5 -19.5q15 -9 26 -28q15 -27 27 -56t11 -67
q-1 -13 1.5 -25.5t0.5 -23.5z" />
    <glyph glyph-name="braceright" unicode="}" horiz-adv-x="358" 
d="M317 264q4 -7 0 -13q-8 -9 -15.5 -19t-17.5 -18q-9 -8 -12 -17.5t-2 -20.5q1 -9 3 -17.5t2 -17.5q1 -19 6 -37t8 -37t7 -37t8 -34q-1 -15 -0.5 -27.5t-0.5 -23.5q-3 -20 -3 -38q-2 -20 -8.5 -37.5t-23.5 -30.5q-7 -5 -13 -11.5t-13 -11.5q-11 -9 -24.5 -15t-27.5 -7
q-11 0 -15.5 6t-0.5 17q2 6 4 9q10 13 19.5 25.5t18.5 25.5q4 6 4 10q0 5 -1.5 9t-0.5 9q0 13 -6.5 22.5t-8.5 20.5q-2 8 -6.5 13.5t-9.5 10.5q-17 17 -31 35t-22 40t-13 44.5t-9 45.5q-2 6 0 13l4 14t3.5 14t6.5 12q25 27 56 43q11 5 23 9.5t23 9.5q12 5 2 15q-3 2 -6.5 4
t-7.5 5q-2 2 -4.5 4t-3.5 5q-2 7 -7 11t-10 9l-9.5 9.5l-9.5 9.5q-8 6 -15.5 12.5t-16.5 10.5q-8 4 -14 9t-9 13q-2 8 -4 15.5t-1 15.5q2 16 5.5 32t8.5 31q10 31 17 62t9 64q2 13 -9 18t-21.5 9.5t-22.5 5.5q-13 1 -22 14q-6 9 1 14q9 8 18 15t20 11q17 5 33 12.5t35 6.5
q1 0 2 0.5t2 0.5q12 3 26 0.5t23 -9.5q16 -14 24 -33q5 -12 8 -24t5 -24q5 -20 3.5 -40.5t-4.5 -40.5q-4 -22 -9 -43.5t-4 -44.5q1 -18 0.5 -36t0.5 -36q0 -6 2 -11.5t2 -10.5q0 -17 7.5 -29.5t15.5 -25.5q3 -4 8 -5q8 -3 12.5 -8t8.5 -11z" />
    <glyph glyph-name="asciitilde" unicode="~" horiz-adv-x="340" 
d="M326 657q3 -14 -4.5 -25t-19.5 -14q-6 -2 -11.5 -3.5t-9.5 -7.5q-1 -2 -2 -4.5t-2 -4.5q-6 -15 -22 -12q-14 2 -28 6.5t-28 10.5q-12 6 -21.5 13t-23.5 10q-26 6 -53.5 1.5t-50.5 -18.5q-5 -2 -8.5 -4.5t-8.5 -4.5t-9.5 -2t-8.5 3q-7 5 -6 11t5.5 12t10.5 10.5t9 7.5
q30 25 68 33l24 6q8 -2 16 -3.5t16 -3.5q30 -11 56 -22q11 -5 23 -8t26 -1q12 2 23.5 4.5t22.5 10.5q2 2 6 4q9 6 11 -5z" />
    <glyph glyph-name="DEL" horiz-adv-x="810" 
 />
    <glyph glyph-name="uni00A0" unicode="&#xa0;" horiz-adv-x="810" 
 />
    <glyph glyph-name="exclamdown" unicode="&#xa1;" horiz-adv-x="334" 
d="M235 591q0 -17 -16 -20q-5 -1 -13 -3q-15 -4 -26 7q-8 7 -16 13l-16 12q-11 9 -12 21q-1 4 -0.5 8t0.5 9q1 1 2 1q6 -1 10 2.5t9 5.5q17 7 26 3q10 -3 17 -6.5t12 -10.5q4 -5 7.5 -11t8.5 -11q4 -5 5 -10zM260 124q0 -7 -3 -11q-12 -16 -28 -23t-34 -12q-10 -2 -20 -3.5
t-20 -3.5q-6 -2 -11 -3t-10 -3q-12 -3 -23 3q-5 3 -6.5 5t-1.5 4.5t0.5 4.5t-0.5 5q-2 5 -3.5 9t0.5 9q1 2 1.5 3.5t1.5 3.5q1 1 1 1.5t1 1.5q2 5 5.5 7t7.5 7q3 4 6.5 5t3.5 7v19.5t1 19.5q0 25 3 48q2 11 5 20.5t5 20.5q2 10 3.5 19.5t1.5 20.5q1 18 0.5 36.5t0.5 36.5
q0 20 -0.5 39.5t3.5 39.5q2 8 2 17t2 18q2 3 3.5 7t3.5 8q9 13 26 15q7 2 11 -1t8 -7q1 -1 2 -1.5t2 -1.5q3 -3 3 -4q1 -8 2 -17t1 -17q1 -14 1.5 -27t2.5 -26q2 -10 2 -16q2 -11 2 -21.5t4 -21.5q4 -12 6 -26q2 -12 3.5 -24.5t3.5 -24.5q2 -8 1 -12q-2 -6 -2 -11.5v-11.5
q0 -17 5 -37l6 -27q3 -12 2 -24.5t3 -24.5q3 -9 3 -18z" />
    <glyph glyph-name="cent" unicode="&#xa2;" horiz-adv-x="337" 
d="M299 185q2 -5 -1 -8l-6 -6q-9 -12 -20 -23q-4 -4 -8 -5q-7 -4 -13 -7.5t-11 -9.5q-2 -3 -6 -4t-8 -3q-6 -2 -10 -3q-5 -2 -5 -7l-9 -60q-2 -10 -3 -19t-1 -19q-1 -7 -3.5 -12.5t-4.5 -11.5q-1 -3 -4 -4l-5 -2.5t-5 -0.5q-3 1 -3 4v5q-2 15 -4 30.5t-4 30.5v12t-1 11
q0 6 -0.5 11.5t-0.5 10.5q-1 7 -8 8q-13 2 -25.5 4t-25.5 7q-33 15 -49.5 41t-19.5 61q-1 5 -0.5 9t0.5 9q-1 15 0.5 30.5t9.5 29.5q2 4 2 7q8 26 26 46q4 6 7 10q9 15 28 15q4 0 4 1q4 5 8.5 4t9.5 0h22q6 -1 6 5q1 1 1 2q-1 13 1.5 25.5t5.5 25.5q0 3 -0.5 7t-0.5 8t3 3
q12 -3 23.5 -6t20.5 -13l1 -1q11 -6 14 -16.5t3 -21.5v-12t-1 -12q0 -9 8 -11q14 -2 24.5 -9t21.5 -12t10.5 -11t-4.5 -14q-5 -10 -14 -2q-7 5 -14 10.5t-14 10.5q-9 6 -11.5 4.5t-4.5 -11.5q-2 -11 -4.5 -21t-7.5 -20q-3 -5 -3.5 -11.5t-1.5 -13.5q-1 -9 -1.5 -18.5
t-1.5 -19.5v-7l2 -18l2 -18q2 -7 0 -13.5t-4 -13.5q-2 -5 0 -7q2 -1 7 -1q9 3 17.5 6.5t15.5 11.5q5 5 11 10t11 10q2 2 2.5 3t2.5 2q4 4 6 3q4 -1 8.5 -0.5t6.5 -4.5zM162 154q-1 11 -2 20.5t-2 16.5q2 13 1.5 22t-2.5 18q-2 7 -2.5 13.5t-2.5 13.5q0 2 -3 5q-3 -3 -3 -4
q-5 -14 -5.5 -28t-0.5 -28q0 -3 1.5 -6.5t0.5 -6.5q-1 -8 2 -13.5t5 -11.5q4 -8 10 -13q0 -2 2 -2q0 1 0.5 1.5t0.5 2.5z" />
    <glyph glyph-name="sterling" unicode="&#xa3;" horiz-adv-x="557" 
d="M532 178q-2 -9 -9.5 -15.5t-15.5 -7.5h-16v1l-32 -4t-33 -4q-9 -2 -18.5 -3t-18.5 -3q-4 0 -10 -2q-10 -4 -13 -16q-2 -15 -5.5 -30.5t-7.5 -30.5q-2 -5 -4.5 -9.5t-4.5 -9.5q-2 -3 -3 -5t-3 -5q-7 -11 -13.5 -21.5t-13.5 -21.5q-1 -4 -5 -6q-8 -7 -16.5 -13.5
t-16.5 -14.5t-14.5 -16.5t-14.5 -16.5q-3 -2 -1.5 -4t4.5 -1q17 2 33 -4t33 -9q6 -2 8 -3q16 -11 34 -14.5t36 -7.5q2 0 8 -2q28 -7 44 15q2 2 2.5 3.5t2.5 3.5q7 8 12 -2q2 -3 3.5 -7t0.5 -7q-2 -11 -7 -19.5t-16 -13.5q-10 -4 -20 -6.5t-20 -0.5l-48 6t-47 8q-8 2 -16 5
t-16 5q-22 8 -40 14q-18 5 -31 -7q-11 -10 -25 -15.5t-26 -13.5l-4 -2q-5 -11 -11.5 -9.5t-14.5 3.5q-8 3 -17 4.5t-17 4.5q-14 4 -17 22q-1 7 1.5 11t4.5 9q7 10 13.5 20t12.5 20q16 25 25.5 52t17.5 54q5 14 8.5 28.5t7.5 28.5q1 10 -7 9q-21 -2 -39.5 4t-37.5 13
q-11 4 -19.5 11.5t-16.5 16.5q-6 6 3 8q3 1 10 1q17 -4 32.5 -0.5t32.5 4.5l18 2t18 3q10 2 12 4.5t1 12.5q0 3 -0.5 6.5t-0.5 7.5q-2 12 -5 24t-10 23q-14 22 -24.5 44.5t-17.5 47.5q-5 22 -2 42q2 12 2.5 24.5t2.5 24.5q6 47 41 73q8 6 13.5 13t16.5 7q2 0 3 1t3 0
q14 -6 26 -1.5t25 6.5q30 4 58 0.5t54 -23.5q14 -11 26 -23t19 -29q5 -11 -3 -18q-2 -2 -3.5 -2t-3.5 -2q-3 -2 -5.5 -6t-7.5 -1q-6 3 -10.5 7.5t-4.5 12.5q-1 5 -1.5 10.5t-2.5 10.5q0 4 -4 8q-6 3 -9.5 8.5t-7.5 11.5q-5 9 -13.5 9.5t-18.5 -6.5q-15 -11 -25.5 -24.5
t-16.5 -32.5q-5 -17 -8.5 -33.5t-5.5 -33.5q-3 -24 11 -46q5 -7 8 -13.5t7 -14.5q8 -19 22.5 -32.5t28.5 -27.5q5 -5 10.5 -9.5t9.5 -9.5q7 -8 14.5 -9.5t17.5 0.5q20 4 40 7t40 1q14 -2 27.5 -5t27.5 -6q2 0 6 -2q17 -10 14 -24z" />
    <glyph glyph-name="yen" unicode="&#xa5;" horiz-adv-x="426" 
d="M385 258q0 -5 -9 -9t-18.5 -4.5t-18.5 -1.5q-11 -2 -22 -3t-22 -3l-8 -2t-9 -2q-7 -1 -9 -11l-2 -12l-2 -12q-1 -1 2 -4q2 -1 3 -0.5t3 0.5q17 2 33 4.5t33 5.5q2 0 5 0.5t1 6.5q1 0 1 1t1 1q8 -2 15 -2t14 -5q9 -6 1 -12q-4 -3 -7 -4.5t-8 0.5q-5 4 -15 0
q-21 -7 -42.5 -13.5t-41.5 -17.5q-9 -5 -8 -14q1 -6 -1.5 -12t-0.5 -12q-5 -5 -5.5 -12.5t-2.5 -14.5q-5 -13 -9.5 -25.5t-9.5 -26.5q-3 -8 -5 -16l-4 -16v-4q2 -13 -2.5 -23t-9.5 -19q-6 -10 -16 -10.5t-19 7.5q-14 12 -18 30q-15 51 -15 105v18q0 4 -4 3q-4 0 -8 -2
q-13 -5 -25.5 -6t-25.5 1q-4 0 -7.5 4t-7.5 8q-2 2 -3.5 4.5t-3.5 4.5q3 0 9 2q17 5 34.5 11t34.5 11q8 3 8 12q-1 8 0 17t1 17q1 7 -0.5 8.5t-6.5 0.5q-11 -2 -20.5 -4.5t-20.5 -4.5t-22.5 -1.5t-22.5 7.5l-2 2q1 1 1.5 1t1.5 1q19 5 38 11t39 12q5 2 10 2t7 4q3 5 3.5 11
t1.5 12q1 4 1 13q0 5 -1 6q-4 6 -7.5 12t-8.5 11q-8 9 -13 20t-9 22q-14 38 -27.5 75t-27.5 75q-4 11 -8 22.5t-9 22.5q-2 2 -3.5 4.5t-3.5 4.5q-4 5 2 7q3 1 10 1q8 0 16.5 -0.5t16.5 -5.5q3 -2 7 -2.5t7 -1.5q15 -5 29 -11.5t26 -17.5l8.5 -8.5t6.5 -9.5q11 -19 21 -37.5
t14 -41.5q0 -3 1 -5q3 -8 6 -15.5t6 -15.5l3 -9q3 -6 4.5 -6.5t5.5 3.5q2 2 4 4.5t4 4.5q8 9 15 18.5t15 19.5q7 9 13 18.5t13 18.5q4 5 7 10.5t7 10.5q12 12 20.5 26.5t17.5 28.5q5 12 14 10q6 -1 12 -1.5t11 -2.5q12 -6 1 -16l-11.5 -11.5t-11.5 -10.5q-3 -5 -7 -6
q-11 -4 -18 -19q-6 -14 -12 -27t-13 -27q-3 -5 -7 -10.5t-7 -10.5q-4 -9 -7 -18t-7 -18q-2 -5 -5 -7q-9 -8 -14.5 -18.5t-13.5 -19.5q-5 -7 2 -10q5 -4 11 -5q11 -2 17.5 -6.5t9.5 -22.5q2 -8 3 -9.5t9 -1.5q14 2 27.5 3t27.5 2q7 0 13.5 -0.5t13.5 -1.5q2 0 4 -2l4.5 -4.5
t3.5 -5.5z" />
    <glyph glyph-name="brokenbar" unicode="&#xa6;" horiz-adv-x="214" 
d="M167 530q-5 -20 -7.5 -40t-10.5 -39l3 -15q-5 -7 -9.5 -14t-8.5 -15q0 -5 -0.5 -12.5t-0.5 -16t1 -15.5t4 -10q-23 -10 -34 -7t-17.5 11t-12 16.5t-17.5 9.5l8 16t4 17q0 29 -3 57t-3 57q0 9 1 13t1.5 7.5t1.5 7.5t1 13q0 22 -8.5 36.5t-13.5 37.5q13 11 27.5 19.5
t23.5 23.5h4q8 -1 14.5 2.5t14.5 3.5q6 0 16.5 -3.5t9.5 -11.5l-9 -108l17 -24l-2 -6zM167 110q-5 -20 -7.5 -40t-10.5 -39l3 -15q-5 -7 -9.5 -14t-8.5 -15q0 -5 -0.5 -12.5t-0.5 -16t1 -15.5t4 -10q-23 -10 -34 -7t-17.5 11t-12 16.5t-17.5 9.5l8 16t4 17q0 29 -3 57t-3 57
q0 9 1 13t1.5 7.5t1.5 7.5t1 13q0 22 -8.5 36.5t-13.5 37.5q13 11 27.5 19.5t23.5 23.5h4q8 -1 14.5 2.5t14.5 3.5q6 0 16.5 -3.5t9.5 -11.5l-9 -108l17 -24l-2 -6z" />
    <glyph glyph-name="section" unicode="&#xa7;" horiz-adv-x="514" 
d="M463 132q0 -3 -0.5 -5.5t-0.5 -5.5q-1 -15 -17 -23q-3 -1 -5.5 -2t-5.5 -3q-14 -6 -4 -17q3 -4 6.5 -6.5t6.5 -6.5q5 -7 10.5 -13.5t9.5 -14.5q8 -14 6 -28t-10 -29q-7 -12 -16 -21l-18 -18q-8 -8 -18.5 -13.5t-20.5 -12.5q-16 -11 -32 -20.5t-33 -18.5q-3 -2 -5.5 -3
t-5.5 -1q-17 -5 -33 -9.5t-33 -5.5q-16 -2 -32 -4.5t-32 -2.5q-7 0 -14 2.5t-14 4.5q-39 15 -72 42q-8 7 -15 15t-10 20q-2 8 -5.5 14.5t-8.5 12.5q-8 10 0 21q28 44 91 45q7 1 16.5 -2.5t20.5 -9.5q7 -5 9 -11.5t0 -11.5q-4 -7 -12 -10t-16 1q-2 1 -4.5 2.5t-5.5 3.5
q-12 9 -22 -2q-4 -4 -7.5 -8t-7.5 -9q-8 -9 -5 -21q2 -20 9 -27.5t27 -12.5q12 -3 24 -4t25 2q9 2 18 6.5l17 8.5q5 2 9 4t9 4q24 10 35 29q5 8 11.5 14.5t10.5 14.5q5 12 8 25t7 26q3 12 -8 20q-18 16 -42 22q-7 2 -13.5 5.5t-13.5 6.5q-16 7 -32 13.5t-32 14.5
q-39 19 -55 56l-2 6t-2 5q-4 20 -3 39t10 37q6 11 5.5 14t-8.5 12q-22 24 -27 60q-4 26 3 49.5t22 43.5q5 5 12 8.5l13 6.5t12.5 5.5t12.5 5.5q7 3 13 6t13 6q2 1 4.5 2t4.5 0q23 -3 44.5 -7t44.5 -7q20 -4 39 -11t36 -17q8 -5 15 -10.5t11 -13.5q4 -6 4 -10q1 -15 -15 -14
q-11 2 -19 8t-15 14q-8 8 -16.5 12t-18.5 6q-11 2 -21.5 0.5t-21.5 -3.5q-17 -3 -33 -6.5t-31 -11.5q-17 -8 -28.5 -25t-9.5 -34q1 -11 6.5 -19t16.5 -11q9 -4 18.5 -6t18.5 -4q84 -15 154 -68q21 -16 39.5 -33.5t36.5 -36.5q8 -8 12 -18.5t1 -22.5zM330 140q-4 5 -7.5 10
t-6.5 10q-17 28 -44 46q-5 2 -9 5t-9 5q-13 5 -26 9t-27 9q-2 1 -6 1q-5 2 -8 -0.5t-5 -6.5q-2 -5 -5 -10.5t-5 -10.5q-3 -6 -2 -10q3 -27 28 -35q12 -3 24 -5t23 -2q16 -1 31 -3.5t30 -5.5z" />
    <glyph glyph-name="dieresis" unicode="&#xa8;" horiz-adv-x="329" 
d="M262 594q-1 -9 -7.5 -14t-14.5 -5q-10 0 -20 14.5t-18 34t-13 38.5t-5 28v30h11q14 -14 28.5 -28t27.5 -29l-1 -12q-2 -14 2.5 -28.5t9.5 -28.5zM153 653q0 -6 -1 -18.5t-4 -25t-8.5 -22t-14.5 -9.5q-7 0 -17 11.5t-19 26.5t-15.5 29.5t-6.5 20.5q0 2 2 11t5 19.5t6 20.5
t4 13h15l10 -6t11 -5q8 -16 20.5 -31t12.5 -35z" />
    <glyph glyph-name="copyright" unicode="&#xa9;" horiz-adv-x="691" 
d="M527 320q2 -18 2 -35.5t-4 -35.5v-4q4 -14 -0.5 -25.5t-7.5 -23.5q-3 -19 -15 -32q-3 -4 -5 -14q0 -10 -7 -13q-7 -4 -11 -9t-8 -11q-8 -12 -19 -15q-6 -1 -14 -7q-12 -9 -25.5 -12.5t-27.5 -5.5q-8 -1 -15 -1.5t-15 -2.5q-10 2 -21 3t-22 3q-16 2 -31 5.5t-30 11.5
q-20 10 -38.5 21.5t-35.5 26.5q-30 28 -41 61q-5 14 -8 28t-3 29q0 4 0.5 7t1.5 7q3 16 6.5 31.5t10.5 30.5q2 6 3.5 12.5t3.5 12.5q4 11 9.5 19.5t12.5 16.5q0 1 1 1q13 8 23.5 17.5t25.5 14.5q5 2 11.5 3t11.5 3t11 3t10 6q11 0 20 3t20 3h19.5t19.5 4q3 2 6.5 1t7.5 -1
l14 -4t15 -3q6 0 11 -2.5t10 -6.5q8 -6 16 -12.5t16 -12.5q5 -3 9 -6.5t2 -10.5q0 -4 6 -6q3 -2 6.5 -2.5t7.5 -2.5q5 -2 8.5 -5t7.5 -8q7 -11 15 -20t16 -19q3 -4 5 -7.5t2 -8.5zM473 283q5 14 3.5 27t-6.5 25q-4 11 -8.5 20.5t-9.5 19.5q-12 29 -45 29q-10 0 -19.5 1
t-18.5 5q-3 1 -8 1q-13 -1 -25.5 -2t-24.5 -3q-37 -7 -73 -23q-6 -2 -9 -5q-5 -8 -11 -16t-11 -16q-5 -7 -8 -14t-6 -15q-2 -8 -3 -15l-2 -14q-1 -5 -1.5 -10t1.5 -10q2 -10 5 -19t5 -18q2 -2 3 -5t3 -5q7 -10 13 -21t16 -19q4 -4 7.5 -8t7.5 -8q12 -15 26 -19t28 -7t28 -3
q5 1 10 1t10 1q18 2 33.5 10.5t31.5 16.5q5 3 9 8.5t9 10.5q5 7 10 14.5t10 15.5q4 4 4 7q-1 8 2 14t6 11q10 15 7 29q-1 4 1 8zM413 315q-3 -7 -7 -1q-2 2 -3 3.5t-3 3.5q-7 8 -16 9.5t-19 -0.5q-9 -2 -18 -5t-18 -7q-12 -5 -17.5 -15.5t-10.5 -21.5q-2 -5 -2 -9.5t-1 -9.5
q-2 -11 3.5 -18.5t10.5 -15.5q3 -5 9.5 -6t14.5 2q8 2 15 5t15 5q2 2 4 2q12 1 9 -10q-4 -12 -14 -20.5t-22 -10.5q-8 -2 -15.5 -2.5t-14.5 4.5q-9 6 -17.5 12.5t-16.5 13.5q-14 11 -20 27q-6 20 -3.5 41.5t19.5 35.5q20 17 46 28q8 4 17.5 4.5t19.5 2.5h2q13 -5 25.5 -11
t23.5 -16q9 -9 4 -20z" />
    <glyph glyph-name="ordfeminine" unicode="&#xaa;" horiz-adv-x="307" 
d="M279 343q0 -5 -1 -9l-2 -8q-2 -15 -3.5 -29t-6.5 -28q-1 -3 -1 -6t-1 -6q-2 -12 -8 -22l-12 -20q-6 -11 -19 -13q-7 -1 -13.5 1.5t-10.5 8.5t-5 10q-5 11 -7.5 23t1.5 24q1 2 0 5t-1 6q-3 -2 -5.5 -3t-4.5 -3q-10 -11 -19 -18q-8 -5 -16 -7l-16 -4q-11 -3 -21.5 -1
t-20.5 5q-6 2 -11.5 3.5t-10.5 4.5q-21 14 -23 46q1 2 1.5 5.5t1.5 7.5l12 36q2 5 4 9t4 9q2 2 4 5t2 7t4 6q16 17 35 27q6 4 12 7.5t11 8.5q15 11 32 12q5 1 11 2t12 1q10 2 16 -6q7 -9 17 -13t21 -5q12 -1 17.5 -7.5t10.5 -14.5q8 -15 9 -28.5t1 -28.5zM193 404
q-2 5 -4 9.5t0 11.5q4 11 -8 13q-19 1 -31 -12q-6 -8 -11.5 -14.5t-11.5 -14.5q-2 -2 -3.5 -5t-3.5 -5q-5 -9 -8 -18.5t2 -20.5q5 -9 6.5 -17.5t-1.5 -18.5q1 -5 1 -11t2 -11q0 -3 2.5 -4t4.5 1q2 1 2.5 2t2.5 2q9 8 15.5 17.5t11.5 20.5q3 5 5.5 8.5t5.5 8.5t5.5 9.5
t4.5 9.5q3 7 5.5 13.5t5.5 12.5q4 7 0 13z" />
    <glyph glyph-name="guillemotleft" unicode="&#xab;" horiz-adv-x="379" 
d="M343 251q-2 -4 -4 -9t-6 -9q-5 -8 -10.5 -15.5t-10.5 -15.5q-5 -9 -11.5 -16.5t-12.5 -15.5q-5 -5 -9 -10t-9 -10q-3 -3 0 -5q1 -2 2.5 -3.5t2.5 -3.5q3 -5 6 -9t5 -9q4 -12 17 -15l9 -3q3 -1 3.5 -3t-1.5 -4q-5 -4 -11 -7.5t-13 -1.5q-18 2 -33 10.5t-27 21.5
q-5 6 -11 11l-12 10l-7.5 7.5t-6.5 8.5q-4 5 -3 11.5t6 8.5q11 5 18 14t15 18q5 5 8 10.5t7 10.5q8 14 17 26.5t18 26.5q4 5 6.5 5.5t8.5 -1.5t12 -3t12 -3q5 -2 9 -4t9 -4q6 -2 5 -9q0 -2 0.5 -4.5t1.5 -6.5zM264 293q-1 -3 -2 -5.5t-3 -5.5q-3 -3 -3 -4q-2 -8 -6.5 -13.5
t-9.5 -10.5q-4 -4 -6.5 -7.5t-6.5 -6.5l-9.5 -9.5t-10.5 -8.5q-10 -7 -18.5 -15t-17.5 -16q-3 -3 -6.5 -5.5t-7.5 -4.5q-2 -2 -5 -2.5t-5 -1.5q-14 -9 -3 -20l18 -15q5 -4 9.5 -6.5t9.5 -6.5q16 -13 19 -34q1 -2 0.5 -4.5t-0.5 -4.5q-2 -5 -6 -5q-5 -1 -9.5 1t-8.5 4
q-11 7 -20 17q-8 8 -16.5 13t-17.5 10q-20 10 -35 23.5t-24 33.5q-3 5 -4.5 10.5t-3.5 11.5q-2 5 2 9t7 8q1 1 5 3q17 8 33 19t31 24q9 8 18 15l18 14q15 12 23 25q3 4 7 3q13 -4 25 -7l24 -6l4 -2q12 -5 12 -17z" />
    <glyph glyph-name="logicalnot" unicode="&#xac;" horiz-adv-x="620" 
d="M574 336q0 -4 0.5 -11.5t0.5 -14.5t-1 -13t-4 -7q-8 -11 -9 -23.5t-1 -25.5q0 -14 -4 -31.5t-8.5 -35.5t-8.5 -35t-4 -31q0 -5 4.5 -12.5t8.5 -14.5t5 -12t-6 -5q-14 -11 -31 -11q-11 0 -20.5 3.5t-17.5 8.5q3 28 2 59t-2.5 62.5t-4 62.5t-2.5 59l-15 20
q-10 0 -23.5 -0.5t-21.5 4.5q-31 -8 -65.5 -9t-70 0.5t-70.5 4t-66 2.5q-14 0 -23.5 -8.5t-22.5 -10.5q-13 19 -19.5 27t-8.5 10.5t-2 3t-0.5 5.5t-3.5 16.5t-11 37.5l8 14q15 -4 24.5 -6t17.5 -2.5t17.5 -0.5h24.5h191q3 0 11 2.5t11 3.5q16 -8 33 -6l14 1l27 -13h28
q9 11 19 20.5t18 20.5l14 -9q6 4 13 -2t13 -15.5t10.5 -19.5t7.5 -14q5 -9 9.5 -13.5t7.5 -8.5t5 -9.5t2 -17.5z" />
    <glyph glyph-name="registered" unicode="&#xae;" horiz-adv-x="544" 
d="M468 212q-2 -11 -1 -16q1 -7 -1 -12.5t-4 -10.5q-3 -5 -1 -8q4 -11 -4 -17q-6 -4 -4 -12q0 -6 -5 -11t-6 -9q-5 -14 -16 -18q-9 -5 -12 -15q-2 -7 -6.5 -13t-12.5 -8q-4 -2 -6 -4q-5 -5 -10.5 -8t-12.5 -4q-6 -2 -11.5 -4t-11.5 -4q-17 -5 -35 -4.5t-35 2.5
q-12 2 -24.5 3t-24.5 3q-16 4 -31.5 8.5t-29.5 12.5q-26 14 -55 33q-17 11 -28 26t-15 35q-2 7 -3 13.5t-2 13.5q-1 5 -1 9v9q2 26 6 52t9 52q3 12 6.5 24t7.5 24q5 13 15 22q5 4 9 7t9 8q3 3 6 7t6 7q17 17 38 23q5 1 15 5q5 4 11.5 4.5t12.5 2.5q6 1 12 1t11 2
q17 2 34.5 1.5t34.5 -5.5q6 -2 12 -5t12 -5q6 -3 11.5 -6t12.5 -2q3 0 4 -1q9 -11 19.5 -19.5t20.5 -17.5q5 -4 10 -7l10 -6q10 -5 13 -13l3.5 -7l3.5 -7q2 -3 2.5 -6.5t2.5 -7.5q2 -5 2.5 -11t2.5 -12q0 -3 1 -6.5t1 -6.5q-1 -12 9 -22q8 -8 6 -20q-1 -10 4 -18
q4 -5 4 -10.5t-1 -10.5zM427 199v8.5t-2 7.5q-8 14 -2 26q2 8 -1 15q-2 4 -3 7t-3 6q-4 7 -3 14q4 14 -9 27q-4 4 -4 10q0 11 -9 12l-3 3q-2 5 -4 8.5t-4 7.5q-4 9 -11 17q-5 7 -11.5 13t-9.5 15q0 2 -7 4q-1 1 -2 0.5t-3 0.5q-27 9 -58 7q-5 -1 -9.5 -1.5t-9.5 -0.5
q-8 -2 -15 -2.5t-14 -3.5q-21 -7 -43 -18q-5 -2 -7 -4q-11 -8 -19 -18t-16 -21q-6 -6 -8 -14t-5 -16t-3 -15q1 -6 0 -12l-2 -12q-3 -12 0 -24q1 -3 0.5 -6.5t-0.5 -7.5v-6.5t1 -6.5q0 -5 0.5 -8.5t0.5 -7.5q1 -9 1 -18.5t2 -18.5q0 -4 1.5 -7.5t3.5 -7.5q2 -3 3.5 -5.5
t3.5 -6.5q3 -9 11 -13l33 -21l24 -12t26 -9q12 -3 24.5 -4t25.5 -2q9 1 18 1.5t18 2.5q25 5 45 19q5 3 9.5 5.5t8.5 6.5l16 18t12 23q3 11 6.5 22t5.5 23zM357 179q10 -16 0 -28q-14 -14 -30 -5q-3 2 -6.5 3.5t-6.5 3.5q-15 9 -24 24q-8 14 -17 26.5t-17 26.5q-5 8 -14 11
q-5 2 -5 -4q0 -4 2 -12q4 -13 5 -25t-3 -25q-3 -8 -3 -16q-3 -19 -20 -11q-5 2 -8.5 5t-8.5 5q-7 2 -13 10q-5 6 -1 12q2 5 3 10.5t3 12.5q-2 4 -3 8t-4 7q-11 14 -4 34q2 5 3.5 9.5t1.5 9.5q2 11 3.5 22.5t2.5 22.5q0 2 -1 4.5t-2 4.5q0 1 -0.5 1.5t-0.5 1.5l2 1q2 -1 4 -1
q8 -4 15 5q22 25 53 24q8 0 15 -2l14 -4q11 -5 17 -15q4 -8 7 -12q1 -3 1 -11q-2 -12 -10 -20l-16 -16q-3 -3 -7 -6l-8 -6t1 -6q4 -2 7.5 -4.5t8.5 -4.5q8 -4 14.5 -9t11.5 -14q2 -5 6.5 -8.5t9.5 -7.5q6 -7 11 -14t9 -15q1 -1 1 -1.5t1 -1.5zM287 334q0 4 -2 6q-14 7 -26 2
q-29 -12 -28 -43q0 -3 0.5 -7t2.5 -6q4 -2 7.5 0.5t5.5 4.5q8 7 15 14l14 14q4 4 6.5 7.5t4.5 7.5z" />
    <glyph glyph-name="macron" unicode="&#xaf;" horiz-adv-x="282" 
d="M242 632l-3 -4q-11 0 -20.5 2t-19.5 4l-37 -10l-4 1l-8 -3q-14 4 -27.5 5t-26.5 6l-10 -2q-4 4 -11 7q-5 6 -15 6q-9 0 -16 -4q0 13 -3 24.5t-6 23.5l29 7q21 -11 42.5 -10.5t43.5 0.5q14 0 30.5 -2.5t28.5 0.5q5 -5 9 -4t10 1q2 0 4.5 -1t4.5 -1q0 -11 2.5 -22.5
t2.5 -23.5z" />
    <glyph glyph-name="degree" unicode="&#xb0;" horiz-adv-x="950" 
d="M393 684q-1 -8 -1.5 -14.5t-1.5 -14.5q-1 -2 -1 -3t-1 -2q-1 -4 -5 -12q-1 -1 -1 -1.5t-1 -1.5l-7 -7t-8 -5q-2 -2 -3 -2q-6 -8 -14 -9.5t-16 -0.5q-1 0 -1.5 0.5t-1.5 0.5q-7 0 -17 4l-6 3q-21 13 -20 33q2 25 14 42q2 3 8 7q16 15 34 9q4 -1 7 -1t6 -2q4 0 7 2
q7 3 13 1l3 -3q2 -2 3 -2q5 -2 9 -10q4 -4 2 -11zM365 683q0 1 -0.5 1.5t-0.5 1.5q-2 6 -2 10q0 2 -1 2q-6 0 -11.5 -1.5t-8.5 -6.5q-2 -2 -2.5 -4t-2.5 -4q-4 -6 -5 -13.5t-3 -15.5q2 -6 2 -11q1 -3 4 -3q5 1 8.5 2t5.5 5q2 2 4.5 4t4.5 4q1 2 2 3t2 3q2 5 2.5 11t1.5 12z
" />
    <glyph glyph-name="plusminus" unicode="&#xb1;" horiz-adv-x="457" 
d="M405 270q-2 -5 -5 -10t-11 -4q-5 1 -10 0.5t-10 -0.5l-1 2q-14 -2 -28 -3.5t-28 -3.5q-11 -2 -13 -5t-3 -14q-2 -19 -7 -37t-13 -36q-3 -7 -13 -11q-27 -8 -49 -21q-7 -5 -13.5 -4t-13.5 4q-11 5 -18 12.5t-13 17.5q-8 15 -10.5 31t-2.5 33q0 12 -2 13.5t-14 -0.5
q-5 -2 -11 -2.5t-12 -1.5q-13 -2 -23 3t-18 14q-4 5 -7.5 8.5t-7.5 8.5q-3 5 2 5q16 2 31.5 5t32.5 5q4 1 8 1t9 1q11 2 13.5 4.5t2.5 13.5q1 13 1.5 25t0.5 25q1 4 1 8t1 8q0 7 -1.5 12.5t-7.5 9.5t1 9q13 5 23 1q11 -5 23 -9l24 -8q9 -5 19 -2q14 3 23 -10q9 -14 18 -26.5
t18 -26.5q1 -2 1.5 -2.5t1.5 -2.5q4 -10 6 -11.5t13 0.5q20 4 39 3t38 -12q2 -2 4 -2.5t4 -2.5q3 -3 6.5 -6t0.5 -9zM395 63q-6 -6 -11 -7q-29 -8 -56.5 -15t-56.5 -14q-14 -3 -29 -4.5t-29 -4.5t-27 -6t-27 -7q-14 -3 -27 -7q-25 8 -34 17t-7.5 17.5t12.5 17t25.5 15.5
t31 12.5t29.5 8.5q26 6 53 12t53 13q17 5 32 4.5t30 -8.5l1 -1q11 -1 19 -6.5t16 -12.5q7 -5 7.5 -12t-5.5 -12z" />
    <glyph glyph-name="acute" unicode="&#xb4;" horiz-adv-x="332" 
d="M250 582q-2 -2 -5 -2t-5 -3q-5 -9 -21.5 -16t-26.5 -15q-21 -17 -45.5 -33.5t-52.5 -32.5q-8 5 -7 7t6 11q5 11 12.5 17t16.5 16q7 8 16.5 17.5l17.5 17.5q5 3 7.5 5.5t7.5 5.5q5 5 9 12t15 10q3 1 7.5 0t8.5 -1t7.5 2t5.5 3.5t4.5 1t5.5 -5.5q-1 -5 3.5 -7t8.5 -3
q1 -2 2 -3.5t2 -3.5z" />
    <glyph glyph-name="mu" unicode="&#xb5;" horiz-adv-x="452" 
d="M422 146q-1 -2 -1 -3.5t-1 -3.5q-9 -13 -26 -8q-10 3 -19 6.5t-19 7.5q-8 5 -13.5 12t-10.5 15q-3 5 -6 11t-6 11q-2 3 -5 5l-6 -6q-2 -4 -3.5 -8.5t-3.5 -8.5q-10 -17 -22 -26q-8 -7 -15 -14.5t-15 -15.5q-10 -10 -22 -11.5t-25 1.5q-6 2 -11.5 3t-11.5 2q-7 2 -9 0.5
t-3 -9.5l-2 -8t0 -9q0 -14 -3 -29q-2 -9 -3 -18.5t-2 -19.5q0 -5 -1.5 -6.5l-4.5 -4.5q-10 -11 -22.5 -13.5t-26.5 -3.5q-5 0 -8.5 1.5t-8.5 3.5q-2 0 -4 1l-4 2q-2 2 -4 3t-3 3q-5 8 -13 8q-5 0 -10 7q-10 12 -9 26v18q2 19 3 37.5t3 36.5q3 27 6.5 53.5t7.5 53.5
q5 32 9.5 62.5t8.5 62.5q2 11 2 22t1 22q2 13 2.5 25t2.5 25q1 4 1 7.5t-4 6.5q-7 6 -2 11t10 3q9 -4 20 2q3 1 8 1l26 -8t24 -12q14 -10 19 -23.5t10 -27.5q2 -5 0 -15q-4 -17 -2.5 -34t0.5 -34q0 -1 0.5 -2t0.5 -2q-2 -16 0 -31.5t5 -30.5q2 -11 5 -21.5t5 -21.5t4.5 -22
t4.5 -22q2 -6 4 -11.5t4 -10.5q1 -7 9 -5q5 2 10 4.5t8 6.5q11 11 20 22.5t19 23.5q4 5 5 11l15 39q2 6 3.5 12t1.5 12q2 24 6 48t10 47q5 14 7.5 28.5t0.5 29.5q0 3 3 6q4 3 10 3l39 -3q9 -2 5 -10q-4 -10 -4.5 -20t-2.5 -21q-2 -16 -4.5 -31.5t-6.5 -31.5q-2 -6 -4.5 -12
t-4.5 -12q-3 -11 -5.5 -22t-4.5 -22q-2 -13 -4.5 -25.5t-5.5 -25.5q-4 -18 1.5 -33t16.5 -29q1 -2 5 -4q9 -5 19 -9t21 0q2 1 3 0.5t3 -0.5z" />
    <glyph glyph-name="paragraph" unicode="&#xb6;" horiz-adv-x="628" 
d="M470 265q0 -23 -1 -46.5t-1 -46.5q-1 -10 -0.5 -19.5t0.5 -18.5q0 -13 -0.5 -25.5t-6.5 -24.5q-5 -14 -7.5 -27.5t-3.5 -27.5l-2 -10t-6 -10q-6 -5 -13 -6.5t-15 -2.5q-5 -1 -7.5 3.5t-3.5 9.5q0 6 -0.5 12.5t-2.5 11.5q-9 24 -11.5 48.5t-2.5 49.5q0 27 -3 54
q-4 40 2 85q4 26 6.5 53t5.5 54q2 9 4.5 18t4.5 17q3 10 6 19l6 18q1 2 1 4t1 4q2 14 -1.5 19.5t-17.5 7.5q-21 2 -41 6t-40 9q-3 0 -5.5 -0.5t-5.5 -0.5q2 -3 6 -7q4 -3 8 -11l6 -18t8 -17q5 -11 5.5 -21t0.5 -21q-1 -10 -0.5 -19t0.5 -18q2 -14 0 -28q-1 -8 -2 -15.5
t-2 -15.5q-2 -19 -2 -38t-1 -38q-1 -23 1.5 -46.5t4.5 -47.5q2 -21 2 -42.5t-1 -43.5q0 -20 -9 -35q-4 -8 -9.5 -14.5t-13.5 -9.5q-6 -1 -8 -8q-4 -6 -6.5 -8t-9.5 -1q-5 1 -10.5 1t-10.5 1q-2 1 -5 1.5t-5 2.5q-5 4 -10 7.5t-10 8.5q-3 3 -5 9q-8 26 -9.5 52t-1.5 52
q1 4 0.5 8t-0.5 8h1q-2 23 -2.5 44.5t-2.5 44.5q-2 34 1 67t8 66q2 22 5.5 43t3.5 43q0 11 2 21t3 21q1 2 1 5t1 5q0 9 -3 12t-12 1q-5 -1 -10 -2.5t-10 -3.5q-8 -3 -15.5 -6.5t-15.5 -5.5t-13 -6t-10 -9q-14 -14 -26 -29q-3 -5 -5.5 -9t-4.5 -9t-4.5 -10t-5.5 -10
q-3 -7 3 -10q9 -5 18.5 -10t19.5 -9q11 -4 22 -6.5t22 -6.5q10 -3 19 -9q10 -5 6 -16q-2 -5 -5 -6t-8 0q-5 0 -15 2q-11 3 -21.5 6.5t-21.5 6.5q-22 7 -44 21q-24 17 -28 43t11 49q4 6 8 10.5t9 9.5q9 9 17.5 18t17.5 18q5 5 11 8q16 6 31 12.5t31 11.5q6 2 12.5 2.5
t12.5 0.5q14 -2 26.5 -4t25.5 -4q21 -3 42.5 -6t43.5 -5q11 -2 18.5 -6.5t15.5 -9.5q5 -3 10 -5.5t11 -2.5q5 0 10.5 -3t10.5 -5q2 -1 2.5 -3.5t-0.5 -4.5q-3 -18 2.5 -34.5t8.5 -33.5q3 -18 2 -33q-5 -39 3 -78q2 -11 3 -23t1 -23z" />
    <glyph glyph-name="periodcentered" unicode="&#xb7;" horiz-adv-x="119" 
d="M108 318q0 -4 -1.5 -15.5t-4.5 -23.5t-7 -21t-8 -8q-3 -5 -10 -10t-12 -5t-12 6.5t-13.5 15t-11 17t-4.5 13.5q0 6 5.5 17.5t13 23t16.5 19.5t16 8q14 0 23.5 -11.5t9.5 -25.5z" />
    <glyph glyph-name="cedilla" unicode="&#xb8;" horiz-adv-x="192" 
d="M142 44q-2 -5 -4.5 -8.5t-0.5 -8.5q-8 1 -13 -9t-10 -15q-3 -5 -9 -17.5t-14.5 -24.5t-17.5 -20.5t-16 -5.5l-9 -4l-6 4q6 7 11 20.5t9.5 29.5t7 31t2.5 24l-5 10q-1 3 -1 9q0 4 4 7t7 3q5 0 14 -2.5t19 -6.5t18.5 -8.5t13.5 -7.5z" />
    <glyph glyph-name="ordmasculine" unicode="&#xba;" horiz-adv-x="291" 
d="M239 464q-5 -8 -10 -14.5t-11 -14.5q-7 -9 -15.5 -15.5t-18.5 -11.5q-15 -8 -29.5 -7t-28.5 7q-30 12 -44.5 35t-16.5 54q-1 15 4 29.5t13 27.5q4 9 11 17q6 6 10 8q13 6 26 10.5t28 4.5q11 -2 21.5 -4t21.5 -4q7 -2 13 -6q7 -6 -2 -11q-4 -2 -4 -4.5t1 -6.5
q9 -29 28 -52q16 -21 3 -42zM201 481q-2 7 -4 13t-4 13q-3 13 -4.5 26t2.5 26q1 8 -6 6q-10 -2 -18.5 -6.5t-14.5 -12.5l-16 -24t-16 -23q-5 -7 -7 -13.5t-4 -14.5q-2 -14 7.5 -26t22.5 -12q5 0 7 1q17 5 29.5 14t23.5 22q4 6 2 11z" />
    <glyph glyph-name="guillemotright" unicode="&#xbb;" horiz-adv-x="379" 
d="M332 180q-2 -12 -6 -22q-8 -20 -22.5 -34.5t-33.5 -25.5q-20 -9 -33 -24q-5 -5 -9.5 -9t-9.5 -9q-9 -6 -18 -6q-6 0 -6 5q-2 6 -1 8q1 20 17 36q5 4 9.5 7t9.5 7t8.5 7.5t8.5 7.5q11 13 -4 20q-2 1 -5 1.5t-5 2.5q-4 2 -7.5 4t-6.5 5q-10 8 -19 15.5t-19 13.5
q-11 7 -21 17q-4 3 -6.5 6.5t-6.5 6.5q-5 5 -10 10.5t-7 13.5q0 2 -1.5 2.5t-2.5 1.5q-2 4 -6 10q0 13 12 18q2 2 4 2l48 15q4 1 7 -3q5 -7 11 -12.5t13 -10.5q10 -7 19.5 -13.5t18.5 -13.5q16 -12 32 -22t34 -18q4 -2 5 -3q3 -4 7 -7.5t2 -9.5zM197 124q-3 -5 -6.5 -8.5
l-7.5 -7.5q-5 -6 -10.5 -11.5l-10.5 -10.5q-24 -29 -58 -36q-8 -2 -14 1t-11 7q-5 5 2 8q2 1 4.5 1t4.5 2q13 3 16 16q1 5 4 9t6 9q1 2 2.5 3.5t2.5 3.5q0 5 -1 6q-5 5 -9 9.5t-9 9.5q-7 8 -14 15t-12 16q-11 16 -23 29q-3 5 -5.5 9.5t-4.5 8.5q2 9 1 11q-1 6 5 10
q5 2 8.5 4t8.5 4q6 2 12 3.5t12 3.5t8.5 2t6.5 -5q10 -13 19.5 -25.5t18.5 -25.5q4 -5 7 -10.5t8 -10.5q8 -8 16 -16.5t19 -13.5q5 -2 6.5 -8.5t-2.5 -11.5z" />
    <glyph glyph-name="questiondown" unicode="&#xbf;" horiz-adv-x="406" 
d="M303 587q0 -11 -1 -21t-3 -21q-2 -5 -6 -6.5t-9 -2.5q-14 -2 -28 0t-28 3q-8 0 -14 3q-17 7 -15 33q0 2 0.5 4t0.5 4q-3 16 8 26q1 1 4 6q2 10 7.5 14.5t13.5 7.5q5 2 10 3.5t10 3.5q19 1 34 -15t16 -42zM377 51q-1 -3 -3.5 -5.5t-4.5 -5.5q-5 -8 -9 -15.5t-9 -13.5
q-11 -16 -26 -28q-9 -8 -18.5 -15t-18.5 -14l-10 -6t-10 -5q-17 -7 -34.5 -14t-35.5 -11q-6 -1 -12 -1.5t-12 -0.5q-15 -1 -29 1.5t-27 12.5q-21 14 -38 37q-9 11 -17.5 23.5t-15.5 26.5q-6 11 -8.5 22.5t1.5 25.5q0 2 0.5 3.5t0.5 3.5q-3 15 0.5 27.5t8.5 26.5q2 8 5 14.5
t6 13.5q6 15 16 25t20 21q9 11 17.5 22.5t19.5 20.5l5 5t6 5q14 11 21 28l6 12q10 16 9 33q0 8 3 14q5 10 3 24t0 26.5t2 26.5q0 4 0.5 8t0.5 8q1 9 3 12t10 5q2 1 4.5 1t4.5 2q8 6 17 6t17 -2q19 -5 34 -18t28 -30q9 -11 7 -30q-3 -20 -4.5 -41t-4.5 -41q-2 -14 -6.5 -28
t-7.5 -28q-8 -29 -20.5 -54.5t-27.5 -49.5q-7 -9 -18 -19q-16 -16 -32.5 -31t-33.5 -31q-8 -8 -15 -16t-9 -22q-2 -8 -0.5 -10.5t8.5 -4.5q14 -6 28 -5t28 4q23 5 43 15t40 24q5 3 9 8q5 7 10.5 13.5t10.5 14.5t11 11t13 6q4 0 7 -3q7 -7 14 -13t11 -17q1 -3 4.5 -5.5
t3.5 -4.5z" />
    <glyph glyph-name="Agrave" unicode="&#xc0;" 
d="M275 757q-9 11 -16 16.5t-12 17.5q-5 8 -6.5 10.5t6.5 7.5q29 -14 53.5 -32t45.5 -35q10 -8 26 -15t21 -16q2 -2 5 -2.5t5 -2.5q-2 -2 -2 -3t-2 -3q-4 -1 -8 -3t-4 -7q-3 -5 -5 -5.5t-4.5 1t-5.5 3.5t-7 2t-8 -1t-9 0q-9 4 -15 11zM521 -146q-2 -3 -4.5 -6.5t-7.5 -3.5
q-8 0 -10 5q-3 5 -7 8.5t-8 8.5q-3 4 -6.5 8t-5.5 9q-2 4 -3.5 8t-3.5 8l-1.5 3t2.5 2v1l-2 6l-2 6h-1q0 -3 0.5 -5.5t0.5 -5.5q-5 10 -2 18h-1q-1 -1 -1.5 -1t-1.5 -2v4q2 4 0.5 9t-5.5 7q-1 1 -1 6q0 3 -0.5 6t-0.5 6l-1 1q-3 1 -3 3v4q1 2 0.5 4.5t-0.5 5.5q0 1 -0.5 1.5
t-0.5 1.5q-1 2 -1 5q-1 3 -1 6t-1 6l-3 12l-2 -1v14q-2 5 -4 11l4 2q-4 1 -4.5 -1t-0.5 0q0 5 -1 8.5t-2 8.5q0 2 0.5 2.5t0.5 2.5q1 1 1 2l-1 1l-3 3q-1 13 -2 25t-1 25q0 6 -1.5 11.5t-1.5 10.5v12t-1 12q0 9 -0.5 18.5t-1.5 19.5q0 5 -5 3h-1q-1 0 -1 1q-5 5 -10 4.5
t-10 0.5t-9 1t-8 2q-2 2 -5.5 1.5t-6.5 0.5q-5 0 -10.5 0.5t-11.5 0.5q-2 -6 -3 -10q-2 -9 -5 -17.5t-9 -16.5q-8 -11 -13.5 -23t-10.5 -24q-6 -17 -12 -33.5t-14 -33.5q-7 -13 -15 -28.5t-20 -24.5q-20 -15 -41 -29.5t-43 -26.5q-2 -1 -2.5 -1.5t-2.5 -1.5l-9 -3
q-2 -1 -4 -1.5t-4 -1.5q-1 -1 -4 -1q-2 3 -3.5 2t-3.5 -1q-4 -1 -14 -1q-6 0 -9 1q-4 0 -7.5 1t-7.5 2q-2 0 -2.5 0.5t-2.5 -0.5q-7 -2 -13.5 -0.5t-12.5 3.5q-8 2 -14 0q-6 -1 -11.5 1t-10.5 4q-6 3 -11.5 6t-11.5 6t-12 6.5t-12 6.5q-2 2 -4.5 2t-4.5 2v8.5t-1 9.5
q0 4 -4 6q-5 4 -2 11q2 4 2 8q-1 9 1.5 17.5t7.5 16.5q5 7 8.5 13.5t8.5 13.5q2 2 5.5 3t5.5 -1q5 -3 7 -9q2 -3 3.5 -6.5t3.5 -6.5v-2q-2 -6 -0.5 -11.5t2.5 -11.5q2 -8 5 -11q2 -4 7 -2q5 1 10.5 2.5t10.5 3.5q4 1 4 5q0 1 2 7q3 0 5 1q2 0 3 -1q5 -3 9 1q10 7 14 16
q2 6 4 12.5t6 12.5q2 3 2.5 7t5.5 6l1 2q-3 4 3 6l4 4q-2 1 -2.5 1t-2.5 1q1 2 1 2.5t1 2.5q2 -2 4 -3q0 4 -1 4q-6 5 1 9l4 4t1 5q0 1 0.5 1.5t0.5 1.5q-3 4 -1 7t3 6q2 3 4.5 5.5t4.5 5.5h-2q1 5 1 9.5t1 9.5q1 1 2.5 1.5t3.5 2.5q1 0 2 1l-1 2q2 4 4.5 7.5t4.5 8.5
q-2 0 -6 2q2 2 3.5 4.5t2.5 4.5t0.5 4t0.5 4q2 9 -6 9h-2v1q0 -1 2 3h-11q-2 0 -3 0.5t-3 0.5q-4 0 -7 -0.5t-7 -0.5q-5 -1 -15 -1h-12t-12 -1h-4t-3 -3q-4 0 -6 1l-2 2l-1 -2l-1 -2h-15h-7q-8 -2 -16 -2.5t-16 -0.5q-6 0 -16 -2h-7q-6 -1 -8 -8q0 -7 -5 -2q-2 1 -3.5 2
t-3.5 3q-1 1 -5 3q-1 2 -5 4q-1 2 -2 2.5t-2 2.5t-2 5t0 5q1 5 2.5 10t3.5 10t6 2q13 -6 27 -6q8 -1 15.5 -2.5t15.5 -2.5q7 -1 13.5 -2t13.5 0q5 2 9 0t9 0q2 0 4.5 0.5t4.5 0.5q4 -1 7.5 -1t7.5 -1q6 0 12 -0.5t12 -0.5q4 -1 7.5 0t6.5 1q8 -1 13 -2.5t12 -0.5q7 2 14 3.5
t13 3.5q4 1 9 12t6 15q2 7 1 13.5t3 12.5q6 11 9 22.5t8 23.5q2 6 4 12.5t4 13.5t3 13.5t3 14.5l3 9q2 5 4 11t4 11q5 8 7 17l4 18t5.5 17.5t4.5 18.5q2 7 2.5 13.5t2.5 13.5q0 2 -0.5 2.5t-0.5 1.5q-1 -2 -1.5 -2.5t-1.5 -2.5q-6 9 -1 15q1 2 1 4.5t1 4.5q2 5 4 9l4 8l4 12
l4 12q2 5 5 10.5t5 11.5q2 3 3 6.5t4 5.5q-1 0 -1 1t-0.5 1t-0.5 1h-1q4 6 5 9q1 2 1.5 4.5t-1.5 4.5q0 2 1 3q2 6 2 8q1 6 8 5q8 -3 14.5 -5t13.5 -5q21 -8 34 -20q4 -3 8 -5.5t8 -6.5q5 -5 10.5 -10t7.5 -13q0 -2 2 -3l4 -2q17 -3 15 -17q-1 -1 0 -1q2 -3 1.5 -6.5
t0.5 -7.5q4 -14 6.5 -26.5t1.5 -26.5q-1 -9 -0.5 -17.5t0.5 -16.5q0 -4 -0.5 -7.5t-0.5 -7.5q0 -2 0.5 -4.5t0.5 -4.5q1 -3 1 -6t1 -6q1 -6 1.5 -12t1.5 -11t1.5 -9.5t1.5 -9.5v-10t1 -10q0 -2 1 -3t1 -3q0 -3 -0.5 -6t-0.5 -6q1 -3 1 -6t1 -5q0 -5 1 -9.5t1 -9.5
q1 -6 0.5 -11.5t0.5 -10.5q0 -5 0.5 -10t1.5 -10q1 -2 2 -4.5t-1 -4.5q-2 -4 -0.5 -7t1.5 -7l3 -15q1 -7 2 -13t3 -12q0 -5 2 -15q1 -8 1.5 -15.5t2.5 -15.5q2 -6 3 -12t3 -13q1 -2 1 -5t1 -6q2 -6 3 -12.5t2 -12.5q1 -7 2.5 -13.5t3.5 -13.5q2 -8 3 -16t3 -16q1 -9 5 -20
q1 -8 2 -10.5t3 -9.5t3.5 -13.5t3.5 -13.5l9 -36q1 -3 0.5 -6t0.5 -7q0 -2 2 -6q2 -7 3.5 -13t2.5 -12q1 -5 3.5 -10.5t2.5 -11.5q-1 -8 0.5 -16.5t2.5 -16.5q2 -5 1 -6zM413 248q-5 48 -13 94t-15 93q-2 -2 -2 -4.5t-1 -5.5q-2 -6 -2 -10t0.5 -8t-0.5 -9q-1 -7 -2 -13
t-3 -13q-1 -9 -1.5 -18.5t-4.5 -18.5v-3q1 -8 -1.5 -14.5t-4.5 -14.5q-2 -3 -3 -6.5t-3 -6.5q0 -2 -1 -3t0 -3q1 -13 -6 -25q-2 -2 -5 -11h68z" />
    <glyph glyph-name="Aacute" unicode="&#xc1;" 
d="M380 792q-2 -2 -5 -2t-5 -3q-5 -9 -21.5 -16t-26.5 -15q-21 -17 -45.5 -33.5t-52.5 -32.5q-8 5 -7 7t6 11q5 11 12.5 17t16.5 16q7 8 16.5 17.5l17.5 17.5q5 3 7.5 5.5t7.5 5.5q5 5 9 12t15 10q3 1 7.5 0t8.5 -1t7.5 2t5.5 3.5t4.5 1t5.5 -5.5q-1 -5 3.5 -7t8.5 -3
q1 -2 2 -3.5t2 -3.5zM521 -146q-2 -3 -4.5 -6.5t-7.5 -3.5q-8 0 -10 5q-3 5 -7 8.5t-8 8.5q-3 4 -6.5 8t-5.5 9q-2 4 -3.5 8t-3.5 8l-1.5 3t2.5 2v1l-2 6l-2 6h-1q0 -3 0.5 -5.5t0.5 -5.5q-5 10 -2 18h-1q-1 -1 -1.5 -1t-1.5 -2v4q2 4 0.5 9t-5.5 7q-1 1 -1 6q0 3 -0.5 6
t-0.5 6l-1 1q-3 1 -3 3v4q1 2 0.5 4.5t-0.5 5.5q0 1 -0.5 1.5t-0.5 1.5q-1 2 -1 5q-1 3 -1 6t-1 6l-3 12l-2 -1v14q-2 5 -4 11l4 2q-4 1 -4.5 -1t-0.5 0q0 5 -1 8.5t-2 8.5q0 2 0.5 2.5t0.5 2.5q1 1 1 2l-1 1l-3 3q-1 13 -2 25t-1 25q0 6 -1.5 11.5t-1.5 10.5v12t-1 12
q0 9 -0.5 18.5t-1.5 19.5q0 5 -5 3h-1q-1 0 -1 1q-5 5 -10 4.5t-10 0.5t-9 1t-8 2q-2 2 -5.5 1.5t-6.5 0.5q-5 0 -10.5 0.5t-11.5 0.5q-2 -6 -3 -10q-2 -9 -5 -17.5t-9 -16.5q-8 -11 -13.5 -23t-10.5 -24q-6 -17 -12 -33.5t-14 -33.5q-7 -13 -15 -28.5t-20 -24.5
q-20 -15 -41 -29.5t-43 -26.5q-2 -1 -2.5 -1.5t-2.5 -1.5l-9 -3q-2 -1 -4 -1.5t-4 -1.5q-1 -1 -4 -1q-2 3 -3.5 2t-3.5 -1q-4 -1 -14 -1q-6 0 -9 1q-4 0 -7.5 1t-7.5 2q-2 0 -2.5 0.5t-2.5 -0.5q-7 -2 -13.5 -0.5t-12.5 3.5q-8 2 -14 0q-6 -1 -11.5 1t-10.5 4q-6 3 -11.5 6
t-11.5 6t-12 6.5t-12 6.5q-2 2 -4.5 2t-4.5 2v8.5t-1 9.5q0 4 -4 6q-5 4 -2 11q2 4 2 8q-1 9 1.5 17.5t7.5 16.5q5 7 8.5 13.5t8.5 13.5q2 2 5.5 3t5.5 -1q5 -3 7 -9q2 -3 3.5 -6.5t3.5 -6.5v-2q-2 -6 -0.5 -11.5t2.5 -11.5q2 -8 5 -11q2 -4 7 -2q5 1 10.5 2.5t10.5 3.5
q4 1 4 5q0 1 2 7q3 0 5 1q2 0 3 -1q5 -3 9 1q10 7 14 16q2 6 4 12.5t6 12.5q2 3 2.5 7t5.5 6l1 2q-3 4 3 6l4 4q-2 1 -2.5 1t-2.5 1q1 2 1 2.5t1 2.5q2 -2 4 -3q0 4 -1 4q-6 5 1 9l4 4t1 5q0 1 0.5 1.5t0.5 1.5q-3 4 -1 7t3 6q2 3 4.5 5.5t4.5 5.5h-2q1 5 1 9.5t1 9.5
q1 1 2.5 1.5t3.5 2.5q1 0 2 1l-1 2q2 4 4.5 7.5t4.5 8.5q-2 0 -6 2q2 2 3.5 4.5t2.5 4.5t0.5 4t0.5 4q2 9 -6 9h-2v1q0 -1 2 3h-11q-2 0 -3 0.5t-3 0.5q-4 0 -7 -0.5t-7 -0.5q-5 -1 -15 -1h-12t-12 -1h-4t-3 -3q-4 0 -6 1l-2 2l-1 -2l-1 -2h-15h-7q-8 -2 -16 -2.5t-16 -0.5
q-6 0 -16 -2h-7q-6 -1 -8 -8q0 -7 -5 -2q-2 1 -3.5 2t-3.5 3q-1 1 -5 3q-1 2 -5 4q-1 2 -2 2.5t-2 2.5t-2 5t0 5q1 5 2.5 10t3.5 10t6 2q13 -6 27 -6q8 -1 15.5 -2.5t15.5 -2.5q7 -1 13.5 -2t13.5 0q5 2 9 0t9 0q2 0 4.5 0.5t4.5 0.5q4 -1 7.5 -1t7.5 -1q6 0 12 -0.5
t12 -0.5q4 -1 7.5 0t6.5 1q8 -1 13 -2.5t12 -0.5q7 2 14 3.5t13 3.5q4 1 9 12t6 15q2 7 1 13.5t3 12.5q6 11 9 22.5t8 23.5q2 6 4 12.5t4 13.5t3 13.5t3 14.5l3 9q2 5 4 11t4 11q5 8 7 17l4 18t5.5 17.5t4.5 18.5q2 7 2.5 13.5t2.5 13.5q0 2 -0.5 2.5t-0.5 1.5
q-1 -2 -1.5 -2.5t-1.5 -2.5q-6 9 -1 15q1 2 1 4.5t1 4.5q2 5 4 9l4 8l4 12l4 12q2 5 5 10.5t5 11.5q2 3 3 6.5t4 5.5q-1 0 -1 1t-0.5 1t-0.5 1h-1q4 6 5 9q1 2 1.5 4.5t-1.5 4.5q0 2 1 3q2 6 2 8q1 6 8 5q8 -3 14.5 -5t13.5 -5q21 -8 34 -20q4 -3 8 -5.5t8 -6.5
q5 -5 10.5 -10t7.5 -13q0 -2 2 -3l4 -2q17 -3 15 -17q-1 -1 0 -1q2 -3 1.5 -6.5t0.5 -7.5q4 -14 6.5 -26.5t1.5 -26.5q-1 -9 -0.5 -17.5t0.5 -16.5q0 -4 -0.5 -7.5t-0.5 -7.5q0 -2 0.5 -4.5t0.5 -4.5q1 -3 1 -6t1 -6q1 -6 1.5 -12t1.5 -11t1.5 -9.5t1.5 -9.5v-10t1 -10
q0 -2 1 -3t1 -3q0 -3 -0.5 -6t-0.5 -6q1 -3 1 -6t1 -5q0 -5 1 -9.5t1 -9.5q1 -6 0.5 -11.5t0.5 -10.5q0 -5 0.5 -10t1.5 -10q1 -2 2 -4.5t-1 -4.5q-2 -4 -0.5 -7t1.5 -7l3 -15q1 -7 2 -13t3 -12q0 -5 2 -15q1 -8 2 -15.5t2 -15.5q2 -6 3 -12t3 -13q1 -2 1 -5t1 -6
q2 -6 3 -12.5t2 -12.5q1 -7 2.5 -13.5t3.5 -13.5q2 -8 3 -16t3 -16q1 -9 5 -20q1 -8 2 -10.5t3 -9.5t3.5 -13.5t3.5 -13.5l9 -36q1 -3 0.5 -6t0.5 -7q0 -2 2 -6q2 -7 3.5 -13t2.5 -12q1 -5 3.5 -10.5t2.5 -11.5q-1 -8 0.5 -16.5t2.5 -16.5q2 -5 1 -6zM413 248q-5 48 -13 94
t-15 93q-2 -2 -2 -4.5t-1 -5.5q-2 -6 -2 -10t0.5 -8t-0.5 -9q-1 -7 -2 -13t-3 -13q-1 -9 -1.5 -18.5t-4.5 -18.5v-3q1 -8 -1.5 -14.5t-4.5 -14.5q-2 -3 -3 -6.5t-3 -6.5q0 -2 -1 -3t0 -3q1 -13 -6 -25q-2 -2 -5 -11h68z" />
    <glyph glyph-name="Acircumflex" unicode="&#xc2;" 
d="M412 707q-2 -2 -5 -3t-6 -3q-13 -2 -17.5 -1.5t-18.5 2.5q0 1 -5.5 10.5t-13 22t-16 25t-15.5 21.5h-4q-11 -13 -17.5 -22t-13 -17t-14 -15.5t-18.5 -16.5q-5 -5 -20.5 -6.5t-24.5 -3.5v1l10 12q5 5 8.5 9.5t5.5 6.5q12 13 21 22.5t17 19t16 20.5t19 27q3 0 5 0.5t7 0.5
q11 3 14 -2t12 -8q2 -8 10 -15t13 -15q8 -13 15 -22.5t16 -22.5q2 -2 6 -9t14 -18zM521 -146q-2 -3 -4.5 -6.5t-7.5 -3.5q-8 0 -10 5q-3 5 -7 8.5t-8 8.5q-3 4 -6.5 8t-5.5 9q-2 4 -3.5 8t-3.5 8l-1.5 3t2.5 2v1l-2 6l-2 6h-1q0 -3 0.5 -5.5t0.5 -5.5q-5 10 -2 18h-1
q-1 -1 -1.5 -1t-1.5 -2v4q2 4 0.5 9t-5.5 7q-1 1 -1 6q0 3 -0.5 6t-0.5 6l-1 1q-3 1 -3 3v4q1 2 0.5 4.5t-0.5 5.5q0 1 -0.5 1.5t-0.5 1.5q-1 2 -1 5q-1 3 -1 6t-1 6l-3 12l-2 -1v14q-2 5 -4 11l4 2q-4 1 -4.5 -1t-0.5 0q0 5 -1 8.5t-2 8.5q0 2 0.5 2.5t0.5 2.5q1 1 1 2
l-1 1l-3 3q-1 13 -2 25t-1 25q0 6 -1.5 11.5t-1.5 10.5v12t-1 12q0 9 -0.5 18.5t-1.5 19.5q0 5 -5 3h-1q-1 0 -1 1q-5 5 -10 4.5t-10 0.5t-9 1t-8 2q-2 2 -5.5 1.5t-6.5 0.5q-5 0 -10.5 0.5t-11.5 0.5q-2 -6 -3 -10q-2 -9 -5 -17.5t-9 -16.5q-8 -11 -13.5 -23t-10.5 -24
q-6 -17 -12 -33.5t-14 -33.5q-7 -13 -15 -28.5t-20 -24.5q-20 -15 -41 -29.5t-43 -26.5q-2 -1 -2.5 -1.5t-2.5 -1.5l-9 -3q-2 -1 -4 -1.5t-4 -1.5q-1 -1 -4 -1q-2 3 -3.5 2t-3.5 -1q-4 -1 -14 -1q-6 0 -9 1q-4 0 -7.5 1t-7.5 2q-2 0 -2.5 0.5t-2.5 -0.5q-7 -2 -13.5 -0.5
t-12.5 3.5q-8 2 -14 0q-6 -1 -11.5 1t-10.5 4q-6 3 -11.5 6t-11.5 6t-12 6.5t-12 6.5q-2 2 -4.5 2t-4.5 2v8.5t-1 9.5q0 4 -4 6q-5 4 -2 11q2 4 2 8q-1 9 1.5 17.5t7.5 16.5q5 7 8.5 13.5t8.5 13.5q2 2 5.5 3t5.5 -1q5 -3 7 -9q2 -3 3.5 -6.5t3.5 -6.5v-2q-2 -6 -0.5 -11.5
t2.5 -11.5q2 -8 5 -11q2 -4 7 -2q5 1 10.5 2.5t10.5 3.5q4 1 4 5q0 1 2 7q3 0 5 1q2 0 3 -1q5 -3 9 1q10 7 14 16q2 6 4 12.5t6 12.5q2 3 2.5 7t5.5 6l1 2q-3 4 3 6l4 4q-2 1 -2.5 1t-2.5 1q1 2 1 2.5t1 2.5q2 -2 4 -3q0 4 -1 4q-6 5 1 9l4 4t1 5q0 1 0.5 1.5t0.5 1.5
q-3 4 -1 7t3 6q2 3 4.5 5.5t4.5 5.5h-2q1 5 1 9.5t1 9.5q1 1 2.5 1.5t3.5 2.5q1 0 2 1l-1 2q2 4 4.5 7.5t4.5 8.5q-2 0 -6 2q2 2 3.5 4.5t2.5 4.5t0.5 4t0.5 4q2 9 -6 9h-2v1q0 -1 2 3h-11q-2 0 -3 0.5t-3 0.5q-4 0 -7 -0.5t-7 -0.5q-5 -1 -15 -1h-12t-12 -1h-4t-3 -3
q-4 0 -6 1l-2 2l-1 -2l-1 -2h-15h-7q-8 -2 -16 -2.5t-16 -0.5q-6 0 -16 -2h-7q-6 -1 -8 -8q0 -7 -5 -2q-2 1 -3.5 2t-3.5 3q-1 1 -5 3q-1 2 -5 4q-1 2 -2 2.5t-2 2.5t-2 5t0 5q1 5 2.5 10t3.5 10t6 2q13 -6 27 -6q8 -1 15.5 -2.5t15.5 -2.5q7 -1 13.5 -2t13.5 0q5 2 9 0t9 0
q2 0 4.5 0.5t4.5 0.5q4 -1 7.5 -1t7.5 -1q6 0 12 -0.5t12 -0.5q4 -1 7.5 0t6.5 1q8 -1 13 -2.5t12 -0.5q7 2 14 3.5t13 3.5q4 1 9 12t6 15q2 7 1 13.5t3 12.5q6 11 9 22.5t8 23.5q2 6 4 12.5t4 13.5t3 13.5t3 14.5l3 9q2 5 4 11t4 11q5 8 7 17l4 18t5.5 17.5t4.5 18.5
q2 7 2.5 13.5t2.5 13.5q0 2 -0.5 2.5t-0.5 1.5q-1 -2 -1.5 -2.5t-1.5 -2.5q-6 9 -1 15q1 2 1 4.5t1 4.5q2 5 4 9l4 8l4 12l4 12q2 5 5 10.5t5 11.5q2 3 3 6.5t4 5.5q-1 0 -1 1t-0.5 1t-0.5 1h-1q4 6 5 9q1 2 1.5 4.5t-1.5 4.5q0 2 1 3q2 6 2 8q1 6 8 5q8 -3 14.5 -5t13.5 -5
q21 -8 34 -20q4 -3 8 -5.5t8 -6.5q5 -5 10.5 -10t7.5 -13q0 -2 2 -3l4 -2q17 -3 15 -17q-1 -1 0 -1q2 -3 1.5 -6.5t0.5 -7.5q4 -14 6.5 -26.5t1.5 -26.5q-1 -9 -0.5 -17.5t0.5 -16.5q0 -4 -0.5 -7.5t-0.5 -7.5q0 -2 0.5 -4.5t0.5 -4.5q1 -3 1 -6t1 -6q1 -6 1.5 -12t1.5 -11
t1.5 -9.5t1.5 -9.5v-10t1 -10q0 -2 1 -3t1 -3q0 -3 -0.5 -6t-0.5 -6q1 -3 1 -6t1 -5q0 -5 1 -9.5t1 -9.5q1 -6 0.5 -11.5t0.5 -10.5q0 -5 0.5 -10t1.5 -10q1 -2 2 -4.5t-1 -4.5q-2 -4 -0.5 -7t1.5 -7l3 -15q1 -7 2 -13t3 -12q0 -5 2 -15q1 -8 1.5 -15.5t2.5 -15.5
q2 -6 3 -12t3 -13q1 -2 1 -5t1 -6q2 -6 3 -12.5t2 -12.5q1 -7 2.5 -13.5t3.5 -13.5q2 -8 3 -16t3 -16q1 -9 5 -20q1 -8 2 -10.5t3 -9.5t3.5 -13.5t3.5 -13.5l9 -36q1 -3 0.5 -6t0.5 -7q0 -2 2 -6q2 -7 3.5 -13t2.5 -12q1 -5 3.5 -10.5t2.5 -11.5q-1 -8 0.5 -16.5t2.5 -16.5
q2 -5 1 -6zM413 248q-5 48 -13 94t-15 93q-2 -2 -2 -4.5t-1 -5.5q-2 -6 -2 -10t0.5 -8t-0.5 -9q-1 -7 -2 -13t-3 -13q-1 -9 -1.5 -18.5t-4.5 -18.5v-3q1 -8 -1.5 -14.5t-4.5 -14.5q-2 -3 -3 -6.5t-3 -6.5q0 -2 -1 -3t0 -3q1 -13 -6 -25q-2 -2 -5 -11h68z" />
    <glyph glyph-name="Atilde" unicode="&#xc3;" 
d="M466 747q3 -14 -4.5 -25t-19.5 -14q-6 -2 -11.5 -3.5t-9.5 -7.5q-1 -2 -2 -4.5t-2 -4.5q-6 -15 -22 -12q-14 2 -28 6.5t-28 10.5q-12 6 -21.5 13t-23.5 10q-26 6 -53.5 1.5t-50.5 -18.5q-5 -2 -8.5 -4.5t-8.5 -4.5t-9.5 -2t-8.5 3q-7 5 -6 11t5.5 12t10.5 10.5t9 7.5
q30 25 68 33l24 6q8 -2 16 -3.5t16 -3.5q30 -11 56 -22q11 -5 23 -8t26 -1q12 2 23.5 4.5t22.5 10.5q2 2 6 4q9 6 11 -5zM521 -146q-2 -3 -4.5 -6.5t-7.5 -3.5q-8 0 -10 5q-3 5 -7 8.5t-8 8.5q-3 4 -6.5 8t-5.5 9q-2 4 -3.5 8t-3.5 8l-1.5 3t2.5 2v1l-2 6l-2 6h-1
q0 -3 0.5 -5.5t0.5 -5.5q-5 10 -2 18h-1q-1 -1 -1.5 -1t-1.5 -2v4q2 4 0.5 9t-5.5 7q-1 1 -1 6q0 3 -0.5 6t-0.5 6l-1 1q-3 1 -3 3v4q1 2 0.5 4.5t-0.5 5.5q0 1 -0.5 1.5t-0.5 1.5q-1 2 -1 5q-1 3 -1 6t-1 6l-3 12l-2 -1v14q-2 5 -4 11l4 2q-4 1 -4.5 -1t-0.5 0q0 5 -1 8.5
t-2 8.5q0 2 0.5 2.5t0.5 2.5q1 1 1 2l-1 1l-3 3q-1 13 -2 25t-1 25q0 6 -1.5 11.5t-1.5 10.5v12t-1 12q0 9 -0.5 18.5t-1.5 19.5q0 5 -5 3h-1q-1 0 -1 1q-5 5 -10 4.5t-10 0.5t-9 1t-8 2q-2 2 -5.5 1.5t-6.5 0.5q-5 0 -10.5 0.5t-11.5 0.5q-2 -6 -3 -10q-2 -9 -5 -17.5
t-9 -16.5q-8 -11 -13.5 -23t-10.5 -24q-6 -17 -12 -33.5t-14 -33.5q-7 -13 -15 -28.5t-20 -24.5q-20 -15 -41 -29.5t-43 -26.5q-2 -1 -2.5 -1.5t-2.5 -1.5l-9 -3q-2 -1 -4 -1.5t-4 -1.5q-1 -1 -4 -1q-2 3 -3.5 2t-3.5 -1q-4 -1 -14 -1q-6 0 -9 1q-4 0 -7.5 1t-7.5 2
q-2 0 -2.5 0.5t-2.5 -0.5q-7 -2 -13.5 -0.5t-12.5 3.5q-8 2 -14 0q-6 -1 -11.5 1t-10.5 4q-6 3 -11.5 6t-11.5 6t-12 6.5t-12 6.5q-2 2 -4.5 2t-4.5 2v8.5t-1 9.5q0 4 -4 6q-5 4 -2 11q2 4 2 8q-1 9 1.5 17.5t7.5 16.5q5 7 8.5 13.5t8.5 13.5q2 2 5.5 3t5.5 -1q5 -3 7 -9
q2 -3 3.5 -6.5t3.5 -6.5v-2q-2 -6 -0.5 -11.5t2.5 -11.5q2 -8 5 -11q2 -4 7 -2q5 1 10.5 2.5t10.5 3.5q4 1 4 5q0 1 2 7q3 0 5 1q2 0 3 -1q5 -3 9 1q10 7 14 16q2 6 4 12.5t6 12.5q2 3 2.5 7t5.5 6l1 2q-3 4 3 6l4 4q-2 1 -2.5 1t-2.5 1q1 2 1 2.5t1 2.5q2 -2 4 -3q0 4 -1 4
q-6 5 1 9l4 4t1 5q0 1 0.5 1.5t0.5 1.5q-3 4 -1 7t3 6q2 3 4.5 5.5t4.5 5.5h-2q1 5 1 9.5t1 9.5q1 1 2.5 1.5t3.5 2.5q1 0 2 1l-1 2q2 4 4.5 7.5t4.5 8.5q-2 0 -6 2q2 2 3.5 4.5t2.5 4.5t0.5 4t0.5 4q2 9 -6 9h-2v1q0 -1 2 3h-11q-2 0 -3 0.5t-3 0.5q-4 0 -7 -0.5t-7 -0.5
q-5 -1 -15 -1h-12t-12 -1h-4t-3 -3q-4 0 -6 1l-2 2l-1 -2l-1 -2h-15h-7q-8 -2 -16 -2.5t-16 -0.5q-6 0 -16 -2h-7q-6 -1 -8 -8q0 -7 -5 -2q-2 1 -3.5 2t-3.5 3q-1 1 -5 3q-1 2 -5 4q-1 2 -2 2.5t-2 2.5t-2 5t0 5q1 5 2.5 10t3.5 10t6 2q13 -6 27 -6q8 -1 15.5 -2.5
t15.5 -2.5q7 -1 13.5 -2t13.5 0q5 2 9 0t9 0q2 0 4.5 0.5t4.5 0.5q4 -1 7.5 -1t7.5 -1q6 0 12 -0.5t12 -0.5q4 -1 7.5 0t6.5 1q8 -1 13 -2.5t12 -0.5q7 2 14 3.5t13 3.5q4 1 9 12t6 15q2 7 1 13.5t3 12.5q6 11 9 22.5t8 23.5q2 6 4 12.5t4 13.5t3 13.5t3 14.5l3 9q2 5 4 11
t4 11q5 8 7 17l4 18t5.5 17.5t4.5 18.5q2 7 2.5 13.5t2.5 13.5q0 2 -0.5 2.5t-0.5 1.5q-1 -2 -1.5 -2.5t-1.5 -2.5q-6 9 -1 15q1 2 1 4.5t1 4.5q2 5 4 9l4 8l4 12l4 12q2 5 5 10.5t5 11.5q2 3 3 6.5t4 5.5q-1 0 -1 1t-0.5 1t-0.5 1h-1q4 6 5 9q1 2 1.5 4.5t-1.5 4.5q0 2 1 3
q2 6 2 8q1 6 8 5q8 -3 14.5 -5t13.5 -5q21 -8 34 -20q4 -3 8 -5.5t8 -6.5q5 -5 10.5 -10t7.5 -13q0 -2 2 -3l4 -2q17 -3 15 -17q-1 -1 0 -1q2 -3 1.5 -6.5t0.5 -7.5q4 -14 6.5 -26.5t1.5 -26.5q-1 -9 -0.5 -17.5t0.5 -16.5q0 -4 -0.5 -7.5t-0.5 -7.5q0 -2 0.5 -4.5t0.5 -4.5
q1 -3 1 -6t1 -6q1 -6 1.5 -12t1.5 -11t1.5 -9.5t1.5 -9.5v-10t1 -10q0 -2 1 -3t1 -3q0 -3 -0.5 -6t-0.5 -6q1 -3 1 -6t1 -5q0 -5 1 -9.5t1 -9.5q1 -6 0.5 -11.5t0.5 -10.5q0 -5 0.5 -10t1.5 -10q1 -2 2 -4.5t-1 -4.5q-2 -4 -0.5 -7t1.5 -7l3 -15q1 -7 2 -13t3 -12
q0 -5 2 -15q1 -8 1.5 -15.5t2.5 -15.5q2 -6 3 -12t3 -13q1 -2 1 -5t1 -6q2 -6 3 -12.5t2 -12.5q1 -7 2.5 -13.5t3.5 -13.5q2 -8 3 -16t3 -16q1 -9 5 -20q1 -8 2 -10.5t3 -9.5t3.5 -13.5t3.5 -13.5l9 -36q1 -3 0.5 -6t0.5 -7q0 -2 2 -6q2 -7 3.5 -13t2.5 -12q1 -5 3.5 -10.5
t2.5 -11.5q-1 -8 0.5 -16.5t2.5 -16.5q2 -5 1 -6zM413 248q-5 48 -13 94t-15 93q-2 -2 -2 -4.5t-1 -5.5q-2 -6 -2 -10t0.5 -8t-0.5 -9q-1 -7 -2 -13t-3 -13q-1 -9 -1.5 -18.5t-4.5 -18.5v-3q1 -8 -1.5 -14.5t-4.5 -14.5q-2 -3 -3 -6.5t-3 -6.5q0 -2 -1 -3t0 -3q1 -13 -6 -25
q-2 -2 -5 -11h68z" />
    <glyph glyph-name="Adieresis" unicode="&#xc4;" 
d="M423 750q-1 -1 -3 -7q-1 -2 -2 -3t-1 -3q0 -8 -5 -12.5t-12 -6.5q-17 -5 -29 4q-5 5 -10.5 10t-10.5 10q-11 16 -3 33t22 21q8 3 16.5 4.5t16.5 3.5q2 2 2 0q4 -5 9 -8.5t6 -11.5q0 -8 1 -16t3 -18zM285 754q2 -6 0.5 -12.5t-4.5 -11.5q-5 -11 -16 -9q-17 4 -33.5 10.5
t-24.5 25.5q-2 3 -2 6t-1 5q1 13 7 21t15 13q13 6 29 9q3 1 7 -3q3 -4 5 -8q5 -11 9 -22.5t9 -23.5zM521 -146q-2 -3 -4.5 -6.5t-7.5 -3.5q-8 0 -10 5q-3 5 -7 8.5t-8 8.5q-3 4 -6.5 8t-5.5 9q-2 4 -3.5 8t-3.5 8l-1.5 3t2.5 2v1l-2 6l-2 6h-1q0 -3 0.5 -5.5t0.5 -5.5
q-5 10 -2 18h-1q-1 -1 -1.5 -1t-1.5 -2v4q2 4 0.5 9t-5.5 7q-1 1 -1 6q0 3 -0.5 6t-0.5 6l-1 1q-3 1 -3 3v4q1 2 0.5 4.5t-0.5 5.5q0 1 -0.5 1.5t-0.5 1.5q-1 2 -1 5q-1 3 -1 6t-1 6l-3 12l-2 -1v14q-2 5 -4 11l4 2q-4 1 -4.5 -1t-0.5 0q0 5 -1 8.5t-2 8.5q0 2 0.5 2.5
t0.5 2.5q1 1 1 2l-1 1l-3 3q-1 13 -2 25t-1 25q0 6 -1.5 11.5t-1.5 10.5v12t-1 12q0 9 -0.5 18.5t-1.5 19.5q0 5 -5 3h-1q-1 0 -1 1q-5 5 -10 4.5t-10 0.5t-9 1t-8 2q-2 2 -5.5 1.5t-6.5 0.5q-5 0 -10.5 0.5t-11.5 0.5q-2 -6 -3 -10q-2 -9 -5 -17.5t-9 -16.5
q-8 -11 -13.5 -23t-10.5 -24q-6 -17 -12 -33.5t-14 -33.5q-7 -13 -15 -28.5t-20 -24.5q-20 -15 -41 -29.5t-43 -26.5q-2 -1 -2.5 -1.5t-2.5 -1.5l-9 -3q-2 -1 -4 -1.5t-4 -1.5q-1 -1 -4 -1q-2 3 -3.5 2t-3.5 -1q-4 -1 -14 -1q-6 0 -9 1q-4 0 -7.5 1t-7.5 2q-2 0 -2.5 0.5
t-2.5 -0.5q-7 -2 -13.5 -0.5t-12.5 3.5q-8 2 -14 0q-6 -1 -11.5 1t-10.5 4q-6 3 -11.5 6t-11.5 6t-12 6.5t-12 6.5q-2 2 -4.5 2t-4.5 2v8.5t-1 9.5q0 4 -4 6q-5 4 -2 11q2 4 2 8q-1 9 1.5 17.5t7.5 16.5q5 7 8.5 13.5t8.5 13.5q2 2 5.5 3t5.5 -1q5 -3 7 -9q2 -3 3.5 -6.5
t3.5 -6.5v-2q-2 -6 -0.5 -11.5t2.5 -11.5q2 -8 5 -11q2 -4 7 -2q5 1 10.5 2.5t10.5 3.5q4 1 4 5q0 1 2 7q3 0 5 1q2 0 3 -1q5 -3 9 1q10 7 14 16q2 6 4 12.5t6 12.5q2 3 2.5 7t5.5 6l1 2q-3 4 3 6l4 4q-2 1 -2.5 1t-2.5 1q1 2 1 2.5t1 2.5q2 -2 4 -3q0 4 -1 4q-6 5 1 9l4 4
t1 5q0 1 0.5 1.5t0.5 1.5q-3 4 -1 7t3 6q2 3 4.5 5.5t4.5 5.5h-2q1 5 1 9.5t1 9.5q1 1 2.5 1.5t3.5 2.5q1 0 2 1l-1 2q2 4 4.5 7.5t4.5 8.5q-2 0 -6 2q2 2 3.5 4.5t2.5 4.5t0.5 4t0.5 4q2 9 -6 9h-2v1q0 -1 2 3h-11q-2 0 -3 0.5t-3 0.5q-4 0 -7 -0.5t-7 -0.5q-5 -1 -15 -1
h-12t-12 -1h-4t-3 -3q-4 0 -6 1l-2 2l-1 -2l-1 -2h-15h-7q-8 -2 -16 -2.5t-16 -0.5q-6 0 -16 -2h-7q-6 -1 -8 -8q0 -7 -5 -2q-2 1 -3.5 2t-3.5 3q-1 1 -5 3q-1 2 -5 4q-1 2 -2 2.5t-2 2.5t-2 5t0 5q1 5 2.5 10t3.5 10t6 2q13 -6 27 -6q8 -1 15.5 -2.5t15.5 -2.5
q7 -1 13.5 -2t13.5 0q5 2 9 0t9 0q2 0 4.5 0.5t4.5 0.5q4 -1 7.5 -1t7.5 -1q6 0 12 -0.5t12 -0.5q4 -1 7.5 0t6.5 1q8 -1 13 -2.5t12 -0.5q7 2 14 3.5t13 3.5q4 1 9 12t6 15q2 7 1 13.5t3 12.5q6 11 9 22.5t8 23.5q2 6 4 12.5t4 13.5t3 13.5t3 14.5l3 9q2 5 4 11t4 11
q5 8 7 17l4 18t5.5 17.5t4.5 18.5q2 7 2.5 13.5t2.5 13.5q0 2 -0.5 2.5t-0.5 1.5q-1 -2 -1.5 -2.5t-1.5 -2.5q-6 9 -1 15q1 2 1 4.5t1 4.5q2 5 4 9l4 8l4 12l4 12q2 5 5 10.5t5 11.5q2 3 3 6.5t4 5.5q-1 0 -1 1t-0.5 1t-0.5 1h-1q4 6 5 9q1 2 1.5 4.5t-1.5 4.5q0 2 1 3
q2 6 2 8q1 6 8 5q8 -3 14.5 -5t13.5 -5q21 -8 34 -20q4 -3 8 -5.5t8 -6.5q5 -5 10.5 -10t7.5 -13q0 -2 2 -3l4 -2q17 -3 15 -17q-1 -1 0 -1q2 -3 1.5 -6.5t0.5 -7.5q4 -14 6.5 -26.5t1.5 -26.5q-1 -9 -0.5 -17.5t0.5 -16.5q0 -4 -0.5 -7.5t-0.5 -7.5q0 -2 0.5 -4.5t0.5 -4.5
q1 -3 1 -6t1 -6q1 -6 1.5 -12t1.5 -11t1.5 -9.5t1.5 -9.5v-10t1 -10q0 -2 1 -3t1 -3q0 -3 -0.5 -6t-0.5 -6q1 -3 1 -6t1 -5q0 -5 1 -9.5t1 -9.5q1 -6 0.5 -11.5t0.5 -10.5q0 -5 0.5 -10t1.5 -10q1 -2 2 -4.5t-1 -4.5q-2 -4 -0.5 -7t1.5 -7l3 -15q1 -7 2 -13t3 -12
q0 -5 2 -15q1 -8 2 -15.5t2 -15.5q2 -6 3 -12t3 -13q1 -2 1 -5t1 -6q2 -6 3 -12.5t2 -12.5q1 -7 2.5 -13.5t3.5 -13.5q2 -8 3 -16t3 -16q1 -9 5 -20q1 -8 2 -10.5t3 -9.5t3.5 -13.5t3.5 -13.5l9 -36q1 -3 0.5 -6t0.5 -7q0 -2 2 -6q2 -7 3.5 -13t2.5 -12q1 -5 3.5 -10.5
t2.5 -11.5q-1 -8 0.5 -16.5t2.5 -16.5q2 -5 1 -6zM413 248q-5 48 -13 94t-15 93q-2 -2 -2 -4.5t-1 -5.5q-2 -6 -2 -10t0.5 -8t-0.5 -9q-1 -7 -2 -13t-3 -13q-1 -9 -1.5 -18.5t-4.5 -18.5v-3q1 -8 -1.5 -14.5t-4.5 -14.5q-2 -3 -3 -6.5t-3 -6.5q0 -2 -1 -3t0 -3q1 -13 -6 -25
q-2 -2 -5 -11h68z" />
    <glyph glyph-name="Aring" unicode="&#xc5;" 
d="M384 774q-1 -8 -1.5 -14.5t-1.5 -14.5q-1 -2 -1 -3t-1 -2q-1 -4 -5 -12q-1 -1 -1 -1.5t-1 -1.5l-7 -7t-8 -5q-2 -2 -3 -2q-6 -8 -14 -9.5t-16 -0.5q-1 0 -1.5 0.5t-1.5 0.5q-7 0 -17 4l-6 3q-21 13 -20 33q2 25 14 42q2 3 8 7q16 15 34 9q4 -1 7 -1t6 -2q4 0 7 2
q7 3 13 1l3 -3q2 -2 3 -2q5 -2 9 -10q4 -4 2 -11zM521 -146q-2 -3 -4.5 -6.5t-7.5 -3.5q-8 0 -10 5q-3 5 -7 8.5t-8 8.5q-3 4 -6.5 8t-5.5 9q-2 4 -3.5 8t-3.5 8l-1.5 3t2.5 2v1l-2 6l-2 6h-1q0 -3 0.5 -5.5t0.5 -5.5q-5 10 -2 18h-1q-1 -1 -1.5 -1t-1.5 -2v4q2 4 0.5 9
t-5.5 7q-1 1 -1 6q0 3 -0.5 6t-0.5 6l-1 1q-3 1 -3 3v4q1 2 0.5 4.5t-0.5 5.5q0 1 -0.5 1.5t-0.5 1.5q-1 2 -1 5q-1 3 -1 6t-1 6l-3 12l-2 -1v14q-2 5 -4 11l4 2q-4 1 -4.5 -1t-0.5 0q0 5 -1 8.5t-2 8.5q0 2 0.5 2.5t0.5 2.5q1 1 1 2l-1 1l-3 3q-1 13 -2 25t-1 25
q0 6 -1.5 11.5t-1.5 10.5v12t-1 12q0 9 -0.5 18.5t-1.5 19.5q0 5 -5 3h-1q-1 0 -1 1q-5 5 -10 4.5t-10 0.5t-9 1t-8 2q-2 2 -5.5 1.5t-6.5 0.5q-5 0 -10.5 0.5t-11.5 0.5q-2 -6 -3 -10q-2 -9 -5 -17.5t-9 -16.5q-8 -11 -13.5 -23t-10.5 -24q-6 -17 -12 -33.5t-14 -33.5
q-7 -13 -15 -28.5t-20 -24.5q-20 -15 -41 -29.5t-43 -26.5q-2 -1 -2.5 -1.5t-2.5 -1.5l-9 -3q-2 -1 -4 -1.5t-4 -1.5q-1 -1 -4 -1q-2 3 -3.5 2t-3.5 -1q-4 -1 -14 -1q-6 0 -9 1q-4 0 -7.5 1t-7.5 2q-2 0 -2.5 0.5t-2.5 -0.5q-7 -2 -13.5 -0.5t-12.5 3.5q-8 2 -14 0
q-6 -1 -11.5 1t-10.5 4q-6 3 -11.5 6t-11.5 6t-12 6.5t-12 6.5q-2 2 -4.5 2t-4.5 2v8.5t-1 9.5q0 4 -4 6q-5 4 -2 11q2 4 2 8q-1 9 1.5 17.5t7.5 16.5q5 7 8.5 13.5t8.5 13.5q2 2 5.5 3t5.5 -1q5 -3 7 -9q2 -3 3.5 -6.5t3.5 -6.5v-2q-2 -6 -0.5 -11.5t2.5 -11.5q2 -8 5 -11
q2 -4 7 -2q5 1 10.5 2.5t10.5 3.5q4 1 4 5q0 1 2 7q3 0 5 1q2 0 3 -1q5 -3 9 1q10 7 14 16q2 6 4 12.5t6 12.5q2 3 2.5 7t5.5 6l1 2q-3 4 3 6l4 4q-2 1 -2.5 1t-2.5 1q1 2 1 2.5t1 2.5q2 -2 4 -3q0 4 -1 4q-6 5 1 9l4 4t1 5q0 1 0.5 1.5t0.5 1.5q-3 4 -1 7t3 6q2 3 4.5 5.5
t4.5 5.5h-2q1 5 1 9.5t1 9.5q1 1 2.5 1.5t3.5 2.5q1 0 2 1l-1 2q2 4 4.5 7.5t4.5 8.5q-2 0 -6 2q2 2 3.5 4.5t2.5 4.5t0.5 4t0.5 4q2 9 -6 9h-2v1q0 -1 2 3h-11q-2 0 -3 0.5t-3 0.5q-4 0 -7 -0.5t-7 -0.5q-5 -1 -15 -1h-12t-12 -1h-4t-3 -3q-4 0 -6 1l-2 2l-1 -2l-1 -2h-15
h-7q-8 -2 -16 -2.5t-16 -0.5q-6 0 -16 -2h-7q-6 -1 -8 -8q0 -7 -5 -2q-2 1 -3.5 2t-3.5 3q-1 1 -5 3q-1 2 -5 4q-1 2 -2 2.5t-2 2.5t-2 5t0 5q1 5 2.5 10t3.5 10t6 2q13 -6 27 -6q8 -1 15.5 -2.5t15.5 -2.5q7 -1 13.5 -2t13.5 0q5 2 9 0t9 0q2 0 4.5 0.5t4.5 0.5
q4 -1 7.5 -1t7.5 -1q6 0 12 -0.5t12 -0.5q4 -1 7.5 0t6.5 1q8 -1 13 -2.5t12 -0.5q7 2 14 3.5t13 3.5q4 1 9 12t6 15q2 7 1 13.5t3 12.5q6 11 9 22.5t8 23.5q2 6 4 12.5t4 13.5t3 13.5t3 14.5l3 9q2 5 4 11t4 11q5 8 7 17l4 18t5.5 17.5t4.5 18.5q2 7 2.5 13.5t2.5 13.5
q0 2 -0.5 2.5t-0.5 1.5q-1 -2 -1.5 -2.5t-1.5 -2.5q-6 9 -1 15q1 2 1 4.5t1 4.5q2 5 4 9l4 8l4 12l4 12q2 5 5 10.5t5 11.5q2 3 3 6.5t4 5.5q-1 0 -1 1t-0.5 1t-0.5 1h-1q4 6 5 9q1 2 1.5 4.5t-1.5 4.5q0 2 1 3q2 6 2 8q1 6 8 5q8 -3 14.5 -5t13.5 -5q21 -8 34 -20
q4 -3 8 -5.5t8 -6.5q5 -5 10.5 -10t7.5 -13q0 -2 2 -3l4 -2q17 -3 15 -17q-1 -1 0 -1q2 -3 1.5 -6.5t0.5 -7.5q4 -14 6.5 -26.5t1.5 -26.5q-1 -9 -0.5 -17.5t0.5 -16.5q0 -4 -0.5 -7.5t-0.5 -7.5q0 -2 0.5 -4.5t0.5 -4.5q1 -3 1 -6t1 -6q1 -6 1.5 -12t1.5 -11t1.5 -9.5
t1.5 -9.5v-10t1 -10q0 -2 1 -3t1 -3q0 -3 -0.5 -6t-0.5 -6q1 -3 1 -6t1 -5q0 -5 1 -9.5t1 -9.5q1 -6 0.5 -11.5t0.5 -10.5q0 -5 0.5 -10t1.5 -10q1 -2 2 -4.5t-1 -4.5q-2 -4 -0.5 -7t1.5 -7l3 -15q1 -7 2 -13t3 -12q0 -5 2 -15q1 -8 2 -15.5t2 -15.5q2 -6 3 -12t3 -13
q1 -2 1 -5t1 -6q2 -6 3 -12.5t2 -12.5q1 -7 2.5 -13.5t3.5 -13.5q2 -8 3 -16t3 -16q1 -9 5 -20q1 -8 2 -10.5t3 -9.5t3.5 -13.5t3.5 -13.5l9 -36q1 -3 0.5 -6t0.5 -7q0 -2 2 -6q2 -7 3.5 -13t2.5 -12q1 -5 3.5 -10.5t2.5 -11.5q-1 -8 0.5 -16.5t2.5 -16.5q2 -5 1 -6z
M356 773q0 1 -0.5 1.5t-0.5 1.5q-2 6 -2 10q0 2 -1 2q-6 0 -11.5 -1.5t-8.5 -6.5q-2 -2 -2.5 -4t-2.5 -4q-4 -6 -5 -13.5t-3 -15.5q2 -6 2 -11q1 -3 4 -3q5 1 8.5 2t5.5 5q2 2 4.5 4t4.5 4q1 2 2 3t2 3q2 5 2.5 11t1.5 12zM413 248q-5 48 -13 94t-15 93q-2 -2 -2 -4.5
t-1 -5.5q-2 -6 -2 -10t0.5 -8t-0.5 -9q-1 -7 -2 -13t-3 -13q-1 -9 -1.5 -18.5t-4.5 -18.5v-3q1 -8 -1.5 -14.5t-4.5 -14.5q-2 -3 -3 -6.5t-3 -6.5q0 -2 -1 -3t0 -3q1 -13 -6 -25q-2 -2 -5 -11h68z" />
    <glyph glyph-name="AE" unicode="&#xc6;" horiz-adv-x="910" 
d="M870 -171q8 -18 -4 -29q-6 -8 -19 -13q-20 -11 -41 -15.5t-43 -7.5q-26 -4 -52 -6t-52 -5q-45 2 -89 7.5t-88 18.5q-5 2 -10 3.5t-10 2.5q-9 2 -15 -1q-6 -2 -12 -3t-11 -2q-14 -2 -23.5 2.5t-18.5 12.5q-14 14 -21.5 30.5t-13.5 34.5q-10 32 -14 64.5t-6 65.5
q0 13 -1 25t-3 24q-1 10 -1.5 19t-1.5 18q-1 14 -3 16t-16 2h-19q-15 2 -29.5 3t-29.5 2q-11 1 -22 1.5t-22 1.5q-7 0 -8 -8q0 -7 -1 -14l-2 -14q-2 -8 -2.5 -15.5t1.5 -16.5q2 -11 0.5 -22.5t-3.5 -22.5t-5 -21t-5 -21q-2 -8 -2.5 -15t-1.5 -14q0 -5 -1 -6
q-11 -11 -13.5 -25.5t-10.5 -27.5q-7 -12 -15 -19q-23 -16 -49 -24.5t-55 -3.5q-5 1 -9.5 1t-9.5 1h-6.5t-6.5 2q-4 2 -6.5 4t-6.5 4q3 2 5.5 4.5t5.5 3.5q9 2 14 8t8 14q9 23 18 45.5t17 45.5q3 8 3.5 16.5t2.5 16.5q8 34 17 67l18 66q5 19 9 37.5t9 37.5q8 27 16 53.5
t16 54.5q5 16 8 32t7 33l33 114q8 29 20.5 55.5t23.5 53.5q6 14 11 27t10 27q1 2 0.5 5.5t-0.5 6.5q0 8 -0.5 15.5t0.5 15.5q0 8 4.5 12t11.5 2q22 -5 43.5 -4t42.5 0q12 0 17 -6q6 -8 12 -15.5t11 -15.5q6 -9 15 -9l46 -2l46 -2q48 -1 94.5 -1.5t94.5 -2.5q21 -1 41 -6
t40 -13q5 -2 9 -5.5t8 -6.5q5 -3 8.5 -6.5t8.5 -5.5q9 -5 13.5 -12.5t6.5 -16.5q2 -7 -3 -13.5t-13 -10.5q-29 -13 -63 -13q-10 0 -19 -0.5t-19 -1.5q-20 -2 -40.5 -1.5t-40.5 5.5q-2 1 -4.5 2t-4.5 0q-27 -4 -53 -0.5t-52 5.5l-32 2t-32 5q-11 2 -9 -9q2 -12 3 -25t4 -25.5
t8 -24t15 -21.5q5 -5 7.5 -12.5t4.5 -15.5q5 -19 9 -38.5t3 -39.5q4 -4 4.5 -9t0.5 -10.5t0.5 -11t3.5 -9.5t2 -10t0 -11q1 -9 5 -11t13 0q24 7 48.5 11t50.5 1q13 -2 24.5 -4.5t22.5 -9.5q8 -7 1 -14q-5 -5 -11 -6t-13 -1q-11 -1 -23 -1.5t-24 -2.5q-18 -2 -35.5 -5.5
t-35.5 -5.5q-8 -1 -7 -10q0 -8 0.5 -15t1.5 -15q0 -5 1 -9t0 -9q-2 -20 1.5 -39t2.5 -39q0 -18 0.5 -36t4.5 -36q2 -13 1 -26t2 -26q2 -10 -0.5 -20.5t-4.5 -20.5q-1 -7 -3.5 -13.5t-4.5 -13.5t2 -14q1 -2 5 -2.5t7 1.5q16 4 37 -1q54 -14 110 -6q14 2 27.5 3t27.5 2
q7 0 14 -1l14 -2q10 -2 19.5 -2.5t18.5 -2.5q15 -3 30 -7t30 -9q14 -6 24 -22zM310 176q-1 6 -0.5 12.5t0.5 12.5q-2 12 -2.5 24t-3.5 24q-4 21 -9 42.5t-10 42.5q-5 26 -9 52t-10 52q-6 23 -12.5 46.5t-6.5 48.5q0 3 -4 7q-1 -2 -2 -2.5t-2 -2.5l-21 -81q-2 -8 -4.5 -16.5
t-4.5 -16.5q-3 -11 -5.5 -22t-1.5 -22q0 -13 -1 -26t-6 -26q-3 -9 -5.5 -17.5t-3.5 -17.5q0 -16 -4 -31t0 -31q2 -5 0 -9.5t-3 -9.5q-2 -8 -3 -17t-3 -17q-1 -8 5 -8q15 1 29.5 1.5t29.5 2.5q11 2 22 1.5t22 -2.5q5 -2 10.5 -2.5t10.5 -1.5q10 -1 8 10z" />
    <glyph glyph-name="Ccedilla" unicode="&#xc7;" horiz-adv-x="506" 
d="M437 57q5 -20 6.5 -39.5t-7.5 -39.5q-5 -8 -9 -16t-7 -16q-11 -28 -29.5 -46.5t-43.5 -33.5q-10 -7 -21 -10t-23 -5q-7 -1 -15 -2t-11 -8v-2q17 2 27 -11q5 -5 7 -12.5t3 -15.5q3 -26 -9 -49.5t-34 -36.5q-21 -14 -47.5 -14t-48.5 14q-10 6 -17 14.5t-9 19.5
q-1 11 7 21.5t19 8.5q8 -1 14.5 -6t14.5 -7q14 -5 26.5 4.5t15.5 23.5q5 20 -8 40t-33 25q-8 2 -15.5 2.5t-15.5 3.5q-11 5 -22 11t-21 13q-48 33 -73.5 79t-38.5 100q-5 20 -10 41t-8 42q-5 33 -7 66t1 66q2 21 4.5 42t2.5 41q0 33 7.5 63.5t17.5 60.5q7 20 15 40l16 40
q12 33 37 62q14 15 27 30t26 31q5 6 11.5 7t14.5 0q11 -1 21.5 -1.5t21.5 0.5q35 5 66.5 -2.5t60.5 -24.5q8 -5 15.5 -14t13.5 -20t9 -22.5t3 -20.5q0 -14 -1 -28t-8 -28q-19 -39 -56 -30q-5 2 -5 6q2 8 3 15.5t3 15.5q7 19 11 34q3 8 5 16t-3 17q-6 12 -13.5 23t-21.5 17
q-7 3 -14 0q-9 -5 -17.5 -10.5t-17.5 -11.5l-4.5 -4.5t-3.5 -5.5q-10 -30 -20.5 -59t-6.5 -63q4 -25 8.5 -50.5t0.5 -51.5q-1 -8 3 -16.5t5 -16.5q5 -30 9.5 -60.5t7.5 -61.5q2 -22 3 -43.5t3 -43.5q2 -14 6.5 -28.5t8.5 -28.5q4 -15 8 -29.5t-1 -31.5q-3 -14 2 -27t9 -27
q2 -9 6.5 -17.5t6.5 -16.5q2 -14 9.5 -21.5t17.5 -14.5q8 -4 13 1q19 17 31.5 36t16.5 45q2 17 10.5 33.5t15.5 33.5q2 7 6.5 7t9.5 -3q6 -4 6 -8z" />
    <glyph glyph-name="Egrave" unicode="&#xc8;" horiz-adv-x="367" 
d="M155 817q-9 11 -16 16.5t-12 17.5q-5 8 -6.5 10.5t6.5 7.5q29 -14 53.5 -32t45.5 -35q10 -8 26 -15t21 -16q2 -2 5 -2.5t5 -2.5q-2 -2 -2 -3t-2 -3q-4 -1 -8 -3t-4 -7q-3 -5 -5 -5.5t-4.5 1t-5.5 3.5t-7 2t-8 -1t-9 0q-9 4 -15 11zM438 710q0 -6 -4.5 -6.5t-9.5 -0.5
q-3 0 -5.5 1t-5.5 1q-9 0 -18.5 1t-17.5 -1q-17 -4 -32 -8.5t-32 -8.5q-14 -4 -28.5 -6.5t-28.5 -4.5q-4 -1 -8 -1.5t-7 -2.5q-14 -6 -15.5 -10t9.5 -15q16 -19 11 -47q-1 -5 -2.5 -11t0.5 -11q4 -17 1 -34.5t-5 -34.5q-4 -23 -7.5 -44.5t-6.5 -44.5q-3 -13 10 -9
q17 5 34.5 6.5t35.5 -0.5q12 0 24 -7q6 -4 5.5 -9t-6.5 -8l-6 -3q-23 -6 -45.5 -11.5t-45.5 -11.5q-11 -2 -13 -5.5t-1 -15.5q2 -8 1 -15t-1 -15q0 -11 -0.5 -22t-0.5 -22v-9t-1 -9l-21 -93q-2 -10 -3 -19.5t-2 -19.5q-1 -15 -1.5 -30.5t-3.5 -30.5q-2 -11 -5.5 -22.5
t-7.5 -22.5q-2 -7 -5 -12.5t-5 -11.5q6 2 12.5 2.5t12.5 2.5q29 9 59 15.5t61 4.5q17 -2 32 -6q14 -4 14 -18q0 -11 -13 -14q-5 -2 -10.5 -4.5t-10.5 -2.5q-26 -1 -49 -10.5t-48 -14.5q-19 -4 -38 -7.5t-38 -8.5q-7 -1 -14 -1.5t-12 -3.5q-11 -5 -21 -5t-21 2
q-15 4 -29.5 8.5t-29.5 9.5q-1 0 -3 2l1 2q-6 17 -11.5 34.5t-6.5 35.5v33h-1q2 26 4.5 50.5t4.5 50.5q1 8 1 15.5v15.5q1 41 5 80.5t11 80.5q6 25 6 52q-2 40 5 78t15 76q6 32 14 63l16 62q2 7 2 14v14q-1 17 13 16q14 -2 27.5 -5t27.5 -5q2 -1 5 -2t5 0q52 7 104 10
t103 15q14 3 27 1.5t27 -5.5q6 -2 8 -4q2 -3 5.5 -6t3.5 -6z" />
    <glyph glyph-name="Eacute" unicode="&#xc9;" horiz-adv-x="367" 
d="M310 852q-2 -2 -5 -2t-5 -3q-5 -9 -21.5 -16t-26.5 -15q-21 -17 -45.5 -33.5t-52.5 -32.5q-8 5 -7 7t6 11q5 11 12.5 17t16.5 16q7 8 16.5 17.5l17.5 17.5q5 3 7.5 5.5t7.5 5.5q5 5 9 12t15 10q3 1 7.5 0t8.5 -1t7.5 2t5.5 3.5t4.5 1t5.5 -5.5q-1 -5 3.5 -7t8.5 -3
q1 -2 2 -3.5t2 -3.5zM438 710q0 -6 -4.5 -6.5t-9.5 -0.5q-3 0 -5.5 1t-5.5 1q-9 0 -18.5 1t-17.5 -1q-17 -4 -32 -8.5t-32 -8.5q-14 -4 -28.5 -6.5t-28.5 -4.5q-4 -1 -8 -1.5t-7 -2.5q-14 -6 -15.5 -10t9.5 -15q16 -19 11 -47q-1 -5 -2.5 -11t0.5 -11q4 -17 1 -34.5
t-5 -34.5q-4 -23 -7.5 -44.5t-6.5 -44.5q-3 -13 10 -9q17 5 34.5 6.5t35.5 -0.5q12 0 24 -7q6 -4 5.5 -9t-6.5 -8l-6 -3q-23 -6 -45.5 -11.5t-45.5 -11.5q-11 -2 -13 -5.5t-1 -15.5q2 -8 1 -15t-1 -15q0 -11 -0.5 -22t-0.5 -22v-9t-1 -9l-21 -93q-2 -10 -3 -19.5t-2 -19.5
q-1 -15 -1.5 -30.5t-3.5 -30.5q-2 -11 -5.5 -22.5t-7.5 -22.5q-2 -7 -5 -12.5t-5 -11.5q6 2 12.5 2.5t12.5 2.5q29 9 59 15.5t61 4.5q17 -2 32 -6q14 -4 14 -18q0 -11 -13 -14q-5 -2 -10.5 -4.5t-10.5 -2.5q-26 -1 -49 -10.5t-48 -14.5q-19 -4 -38 -7.5t-38 -8.5
q-7 -1 -14 -1.5t-12 -3.5q-11 -5 -21 -5t-21 2q-15 4 -29.5 8.5t-29.5 9.5q-1 0 -3 2l1 2q-6 17 -11.5 34.5t-6.5 35.5v33h-1q2 26 4.5 50.5t4.5 50.5q1 8 1 15.5v15.5q1 41 5 80.5t11 80.5q6 25 6 52q-2 40 5 78t15 76q6 32 14 62.5t16 62.5q2 7 2 14v14q-1 17 13 16
q14 -2 27.5 -5t27.5 -5q2 -1 5 -2t5 0q52 7 104 10t103 15q14 3 27 1.5t27 -5.5q6 -2 8 -4q2 -3 5.5 -6t3.5 -6z" />
    <glyph glyph-name="Ecircumflex" unicode="&#xca;" horiz-adv-x="367" 
d="M312 767q-2 -2 -5 -3t-6 -3q-13 -2 -17.5 -1.5t-18.5 2.5q0 1 -5.5 10.5t-13 22t-16 25t-15.5 21.5h-4q-11 -13 -17.5 -22t-13 -17t-14 -15.5t-18.5 -16.5q-5 -5 -20.5 -6.5t-24.5 -3.5v1l10 12q5 5 8.5 9.5t5.5 6.5q12 13 21 22.5t17 19t16 20.5t19 27q3 0 5 0.5t7 0.5
q11 3 14 -2t12 -8q2 -8 10 -15t13 -15q8 -13 15 -22.5t16 -22.5q2 -2 6 -9t14 -18zM438 710q0 -6 -4.5 -6.5t-9.5 -0.5q-3 0 -5.5 1t-5.5 1q-9 0 -18.5 1t-17.5 -1q-17 -4 -32 -8.5t-32 -8.5q-14 -4 -28.5 -6.5t-28.5 -4.5q-4 -1 -8 -1.5t-7 -2.5q-14 -6 -15.5 -10t9.5 -15
q16 -19 11 -47q-1 -5 -2.5 -11t0.5 -11q4 -17 1 -34.5t-5 -34.5q-4 -23 -7.5 -44.5t-6.5 -44.5q-3 -13 10 -9q17 5 34.5 6.5t35.5 -0.5q12 0 24 -7q6 -4 5.5 -9t-6.5 -8l-6 -3q-23 -6 -45.5 -11.5t-45.5 -11.5q-11 -2 -13 -5.5t-1 -15.5q2 -8 1 -15t-1 -15q0 -11 -0.5 -22
t-0.5 -22v-9t-1 -9l-21 -93q-2 -10 -3 -19.5t-2 -19.5q-1 -15 -1.5 -30.5t-3.5 -30.5q-2 -11 -5.5 -22.5t-7.5 -22.5q-2 -7 -5 -12.5t-5 -11.5q6 2 12.5 2.5t12.5 2.5q29 9 59 15.5t61 4.5q17 -2 32 -6q14 -4 14 -18q0 -11 -13 -14q-5 -2 -10.5 -4.5t-10.5 -2.5
q-26 -1 -49 -10.5t-48 -14.5q-19 -4 -38 -7.5t-38 -8.5q-7 -1 -14 -1.5t-12 -3.5q-11 -5 -21 -5t-21 2q-15 4 -29.5 8.5t-29.5 9.5q-1 0 -3 2l1 2q-6 17 -11.5 34.5t-6.5 35.5v33h-1q2 26 4.5 50.5t4.5 50.5q1 8 1 15.5v15.5q1 41 5 80.5t11 80.5q6 25 6 52q-2 40 5 78
t15 76q6 32 14 63l16 62q2 7 2 14v14q-1 17 13 16q14 -2 27.5 -5t27.5 -5q2 -1 5 -2t5 0q52 7 104 10t103 15q14 3 27 1.5t27 -5.5q6 -2 8 -4q2 -3 5.5 -6t3.5 -6z" />
    <glyph glyph-name="Edieresis" unicode="&#xcb;" horiz-adv-x="367" 
d="M306 784q-1 -1 -3 -7q-1 -2 -2 -3t-1 -3q0 -8 -5 -12.5t-12 -6.5q-17 -5 -29 4q-5 5 -10.5 10t-10.5 10q-11 16 -3 33t22 21q8 3 16.5 4.5t16.5 3.5q2 2 2 0q4 -5 9 -8.5t6 -11.5q0 -8 1 -16t3 -18zM168 788q2 -6 0.5 -12.5t-4.5 -11.5q-5 -11 -16 -9q-17 4 -33.5 10.5
t-24.5 25.5q-2 3 -2 6t-1 5q1 13 7 21t15 13q13 6 29 9q3 1 7 -3q3 -4 5 -8q5 -11 9 -22.5t9 -23.5zM438 710q0 -6 -4.5 -6.5t-9.5 -0.5q-3 0 -5.5 1t-5.5 1q-9 0 -18.5 1t-17.5 -1q-17 -4 -32 -8.5t-32 -8.5q-14 -4 -28.5 -6.5t-28.5 -4.5q-4 -1 -8 -1.5t-7 -2.5
q-14 -6 -15.5 -10t9.5 -15q16 -19 11 -47q-1 -5 -2.5 -11t0.5 -11q4 -17 1 -34.5t-5 -34.5q-4 -23 -7.5 -44.5t-6.5 -44.5q-3 -13 10 -9q17 5 34.5 6.5t35.5 -0.5q12 0 24 -7q6 -4 5.5 -9t-6.5 -8l-6 -3q-23 -6 -45.5 -11.5t-45.5 -11.5q-11 -2 -13 -5.5t-1 -15.5
q2 -8 1 -15t-1 -15q0 -11 -0.5 -22t-0.5 -22v-9t-1 -9l-21 -93q-2 -10 -3 -19.5t-2 -19.5q-1 -15 -1.5 -30.5t-3.5 -30.5q-2 -11 -5.5 -22.5t-7.5 -22.5q-2 -7 -5 -12.5t-5 -11.5q6 2 12.5 2.5t12.5 2.5q29 9 59 15.5t61 4.5q17 -2 32 -6q14 -4 14 -18q0 -11 -13 -14
q-5 -2 -10.5 -4.5t-10.5 -2.5q-26 -1 -49 -10.5t-48 -14.5q-19 -4 -38 -7.5t-38 -8.5q-7 -1 -14 -1.5t-12 -3.5q-11 -5 -21 -5t-21 2q-15 4 -29.5 8.5t-29.5 9.5q-1 0 -3 2l1 2q-6 17 -11.5 34.5t-6.5 35.5v33h-1q2 26 4.5 50.5t4.5 50.5q1 8 1 15.5v15.5q1 41 5 80.5
t11 80.5q6 25 6 52q-2 40 5 78t15 76q6 32 14 63l16 62q2 7 2 14v14q-1 17 13 16q14 -2 27.5 -5t27.5 -5q2 -1 5 -2t5 0q52 7 104 10t103 15q14 3 27 1.5t27 -5.5q6 -2 8 -4q2 -3 5.5 -6t3.5 -6z" />
    <glyph glyph-name="Igrave" unicode="&#xcc;" horiz-adv-x="309" 
d="M65 787q-9 11 -16 16.5t-12 17.5q-5 8 -6.5 10.5t6.5 7.5q29 -14 53.5 -32t45.5 -35q10 -8 26 -15t21 -16q2 -2 5 -2.5t5 -2.5q-2 -2 -2 -3t-2 -3q-4 -1 -8 -3t-4 -7q-3 -5 -5 -5.5t-4.5 1t-5.5 3.5t-7 2t-8 -1t-9 0q-9 4 -15 11zM285 -9q-2 -5 -6.5 -6.5t-9.5 -4.5
q-22 -13 -41.5 -19.5t-39.5 -9.5t-42 -3.5t-47 -1.5q-11 -1 -18.5 -1t-18.5 1v1q-20 -5 -35 -6t-35 1q-23 3 -40 4.5t-33 17.5q-3 3 -4 5q5 3 7 4q11 4 22 2t21 -3.5t19 0t16 10.5q3 5 6 11q4 9 2.5 16t-5 14t-7.5 14.5t-5 16.5q-3 20 -1.5 37t4.5 33t7 32.5t7 37.5
q3 20 6 36l6 32t5.5 32t4.5 36q2 19 3.5 34t3 29.5t2.5 30t3 33.5q2 32 2 55t2 55q2 17 7 29.5t-3 26.5l-7 10.5t-10 6.5q-5 1 -8.5 -1t-8.5 -3q-13 0 -24.5 2t-17.5 14q-2 4 -2 6q4 2 6 2q12 4 23 5.5t21.5 1.5t21.5 -0.5t24 0.5q20 1 36.5 3.5t32.5 5t32.5 4t36.5 0.5
q13 -1 24.5 2.5t18.5 -6.5t6 -21q-2 -11 -12 -13.5t-21 -4.5q-11 -3 -20.5 1.5t-19.5 0.5q-8 -4 -12.5 -8.5t-9.5 -12.5q-6 -9 -5.5 -18t3.5 -18t7.5 -19t6.5 -21q2 -14 4.5 -25.5l5 -23t4.5 -23t4 -26.5q3 -23 2.5 -40.5t3.5 -40.5q1 -5 1 -8t1 -8q2 -17 3.5 -28t3.5 -28
q2 -18 2.5 -31t1.5 -31q1 -24 2 -44.5t1 -40t-1.5 -39t-6.5 -43.5q-3 -13 -10.5 -22.5t-0.5 -19.5q2 -4 7 -9q5 -4 9.5 -3.5t9.5 2.5t10.5 4.5t11.5 2.5q10 1 18 3t16 -4q6 -5 10 -11t0 -14z" />
    <glyph glyph-name="Iacute" unicode="&#xcd;" horiz-adv-x="309" 
d="M240 792q-2 -2 -5 -2t-5 -3q-5 -9 -21.5 -16t-26.5 -15q-21 -17 -45.5 -33.5t-52.5 -32.5q-8 5 -7 7t6 11q5 11 12.5 17t16.5 16q7 8 16.5 17.5l17.5 17.5q5 3 7.5 5.5t7.5 5.5q5 5 9 12t15 10q3 1 7.5 0t8.5 -1t7.5 2t5.5 3.5t4.5 1t5.5 -5.5q-1 -5 3.5 -7t8.5 -3
q1 -2 2 -3.5t2 -3.5zM285 -9q-2 -5 -6.5 -6.5t-9.5 -4.5q-22 -13 -41.5 -19.5t-39.5 -9.5t-42 -3.5t-47 -1.5q-11 -1 -18.5 -1t-18.5 1v1q-20 -5 -35 -6t-35 1q-23 3 -40 4.5t-33 17.5q-3 3 -4 5q5 3 7 4q11 4 22 2t21 -3.5t19 0t16 10.5q3 5 6 11q4 9 2.5 16t-5 14
t-7.5 14.5t-5 16.5q-3 20 -1.5 37t4.5 33t7 32.5t7 37.5q3 20 6 36l6 32t5.5 32t4.5 36q2 19 3.5 34t3 29.5t2.5 30t3 33.5q2 32 2 55t2 55q2 17 7 29.5t-3 26.5l-7 10.5t-10 6.5q-5 1 -8.5 -1t-8.5 -3q-13 0 -24.5 2t-17.5 14q-2 4 -2 6q4 2 6 2q12 4 23 5.5t21.5 1.5
t21.5 -0.5t24 0.5q20 1 36.5 3.5t32.5 5t32.5 4t36.5 0.5q13 -1 24.5 2.5t18.5 -6.5t6 -21q-2 -11 -12 -13.5t-21 -4.5q-11 -3 -20.5 1.5t-19.5 0.5q-8 -4 -12.5 -8.5t-9.5 -12.5q-6 -9 -5.5 -18t3.5 -18t7.5 -19t6.5 -21q2 -14 4.5 -25.5l5 -23t4.5 -23t4 -26.5
q3 -23 2.5 -40.5t3.5 -40.5q1 -5 1 -8t1 -8q2 -17 3.5 -28t3.5 -28q2 -18 2.5 -31t1.5 -31q1 -24 2 -44.5t1 -40t-1.5 -39t-6.5 -43.5q-3 -13 -10.5 -22.5t-0.5 -19.5q2 -4 7 -9q5 -4 9.5 -3.5t9.5 2.5t10.5 4.5t11.5 2.5q10 1 18 3t16 -4q6 -5 10 -11t0 -14z" />
    <glyph glyph-name="Icircumflex" unicode="&#xce;" horiz-adv-x="309" 
d="M212 718q-2 -2 -5 -3t-6 -3q-13 -2 -17.5 -1.5t-18.5 2.5q0 1 -5.5 10.5t-13 22t-16 25t-15.5 21.5h-4q-11 -13 -17.5 -22t-13 -17t-14 -15.5t-18.5 -16.5q-5 -5 -20.5 -6.5t-24.5 -3.5v1l10 12q5 5 8.5 9.5t5.5 6.5q12 13 21 22.5t17 19t16 20.5t19 27q3 0 5 0.5t7 0.5
q11 3 14 -2t12 -8q2 -8 10 -15t13 -15q8 -13 15 -22.5t16 -22.5q2 -2 6 -9t14 -18zM285 -9q-2 -5 -6.5 -6.5t-9.5 -4.5q-22 -13 -41.5 -19.5t-39.5 -9.5t-42 -3.5t-47 -1.5q-11 -1 -18.5 -1t-18.5 1v1q-20 -5 -35 -6t-35 1q-23 3 -40 4.5t-33 17.5q-3 3 -4 5q5 3 7 4
q11 4 22 2t21 -3.5t19 0t16 10.5q3 5 6 11q4 9 2.5 16t-5 14t-7.5 14.5t-5 16.5q-3 20 -1.5 37t4.5 33t7 32.5t7 37.5q3 20 6 36l6 32t5.5 32t4.5 36q2 19 3.5 34t3 29.5t2.5 30t3 33.5q2 32 2 55t2 55q2 17 7 29.5t-3 26.5l-7 10.5t-10 6.5q-5 1 -8.5 -1t-8.5 -3
q-13 0 -24.5 2t-17.5 14q-2 4 -2 6q4 2 6 2q12 4 23 5.5t21.5 1.5t21.5 -0.5t24 0.5q20 1 36.5 3.5t32.5 5t32.5 4t36.5 0.5q13 -1 24.5 2.5t18.5 -6.5t6 -21q-2 -11 -12 -13.5t-21 -4.5q-11 -3 -20.5 1.5t-19.5 0.5q-8 -4 -12.5 -8.5t-9.5 -12.5q-6 -9 -5.5 -18t3.5 -18
t7.5 -19t6.5 -21q2 -14 4.5 -25.5l5 -23t4.5 -23t4 -26.5q3 -23 2.5 -40.5t3.5 -40.5q1 -5 1 -8t1 -8q2 -17 3.5 -28t3.5 -28q2 -18 2.5 -31t1.5 -31q1 -24 2 -44.5t1 -40t-1.5 -39t-6.5 -43.5q-3 -13 -10.5 -22.5t-0.5 -19.5q2 -4 7 -9q5 -4 9.5 -3.5t9.5 2.5t10.5 4.5
t11.5 2.5q10 1 18 3t16 -4q6 -5 10 -11t0 -14z" />
    <glyph glyph-name="Idieresis" unicode="&#xcf;" horiz-adv-x="309" 
d="M226 754q-1 -1 -3 -7q-1 -2 -2 -3t-1 -3q0 -8 -5 -12.5t-12 -6.5q-17 -5 -29 4q-5 5 -10.5 10t-10.5 10q-11 16 -3 33t22 21q8 3 16.5 4.5t16.5 3.5q2 2 2 0q4 -5 9 -8.5t6 -11.5q0 -8 1 -16t3 -18zM88 758q2 -6 0.5 -12.5t-4.5 -11.5q-5 -11 -16 -9q-17 4 -33.5 10.5
t-24.5 25.5q-2 3 -2 6t-1 5q1 13 7 21t15 13q13 6 29 9q3 1 7 -3q3 -4 5 -8q5 -11 9 -22.5t9 -23.5zM285 -9q-2 -5 -6.5 -6.5t-9.5 -4.5q-22 -13 -41.5 -19.5t-39.5 -9.5t-42 -3.5t-47 -1.5q-11 -1 -18.5 -1t-18.5 1v1q-20 -5 -35 -6t-35 1q-23 3 -40 4.5t-33 17.5
q-3 3 -4 5q5 3 7 4q11 4 22 2t21 -3.5t19 0t16 10.5q3 5 6 11q4 9 2.5 16t-5 14t-7.5 14.5t-5 16.5q-3 20 -1.5 37t4.5 33t7 32.5t7 37.5q3 20 6 36l6 32t5.5 32t4.5 36q2 19 3.5 34t3 29.5t2.5 30t3 33.5q2 32 2 55t2 55q2 17 7 29.5t-3 26.5l-7 10.5t-10 6.5q-5 1 -8.5 -1
t-8.5 -3q-13 0 -24.5 2t-17.5 14q-2 4 -2 6q4 2 6 2q12 4 23 5.5t21.5 1.5t21.5 -0.5t24 0.5q20 1 36.5 3.5t32.5 5t32.5 4t36.5 0.5q13 -1 24.5 2.5t18.5 -6.5t6 -21q-2 -11 -12 -13.5t-21 -4.5q-11 -3 -20.5 1.5t-19.5 0.5q-8 -4 -12.5 -8.5t-9.5 -12.5q-6 -9 -5.5 -18
t3.5 -18t7.5 -19t6.5 -21q2 -14 4.5 -25.5l5 -23t4.5 -23t4 -26.5q3 -23 2.5 -40.5t3.5 -40.5q1 -5 1 -8t1 -8q2 -17 3.5 -28t3.5 -28q2 -18 2.5 -31t1.5 -31q1 -24 2 -44.5t1 -40t-1.5 -39t-6.5 -43.5q-3 -13 -10.5 -22.5t-0.5 -19.5q2 -4 7 -9q5 -4 9.5 -3.5t9.5 2.5
t10.5 4.5t11.5 2.5q10 1 18 3t16 -4q6 -5 10 -11t0 -14z" />
    <glyph glyph-name="Eth" unicode="&#xd0;" horiz-adv-x="585" 
d="M534 193q0 -5 -1.5 -10.5t-2.5 -11.5q-2 -11 -4.5 -22t0.5 -23q0 -2 0.5 -4t-0.5 -4q-5 -14 -10 -28.5t-10 -28.5q0 -3 -1 -3q-11 -11 -15 -25t-10 -28q-3 -7 -8 -12.5t-10 -10.5q-5 -6 -10.5 -12t-10.5 -13q-8 -11 -18 -16t-23 0q-16 4 -30 10t-27 17q-8 6 -12.5 14
t-3.5 20q1 8 1.5 16t2.5 16t3.5 16.5t2.5 16.5q4 33 26 58q7 9 14 6q2 -1 4 -7.5t0 -11.5q-5 -14 -5.5 -29.5t-2.5 -31.5q-1 -5 -2 -9t-2 -9t-1 -8.5v-8.5q-1 -4 0 -7.5t5 -4.5q9 -2 11 8q2 8 4 15.5t4 15.5q2 11 2.5 20.5t-0.5 20.5q-1 14 0 28l2 28q0 2 0.5 5.5t-0.5 5.5
q-3 12 -3 24t-1 24q0 31 -0.5 61.5t-1.5 61.5q-1 3 -1 5.5t-1 5.5q-5 20 -5.5 39.5t-1.5 39.5q0 19 -6 36q-5 11 -7 20.5t-4 20.5q-1 5 -1.5 9t-2.5 8q-5 14 -10.5 29t-11.5 29q-3 8 -4.5 8t-7.5 -5q-4 -5 -8 -8t-9 -8t-9.5 -10t-6.5 -13v-2q-11 -9 -15.5 -23t-10.5 -27
q-8 -18 -10 -43q-2 -14 -2.5 -27.5t-4.5 -26.5q-5 -15 -4.5 -29t0.5 -29q0 -5 1 -10.5t1 -11.5q1 -9 3.5 -11.5t10.5 -2.5q4 0 8 2q18 4 34 -0.5t31 -14.5q6 -3 8 -11q2 -9 -8 -13l-1 -1q-13 -2 -23.5 -10t-23.5 -11q-4 -2 -7 -3q-16 -7 -19 -14.5t0 -27.5q3 -22 5.5 -43.5
t4.5 -43.5v-3q7 -14 5.5 -30t0.5 -31q1 -8 0.5 -17.5t-0.5 -18.5q0 -8 -0.5 -16.5t-4.5 -17.5q-2 -6 -3 -13.5t-3 -14.5q-8 -26 -27 -37q-3 -2 -5 -5q-5 -11 -13 -13.5t-16 -4.5q-8 -3 -16.5 -4.5t-16.5 -2.5q-6 -1 -12.5 -1.5t-12.5 0.5q-6 2 -12 9q-8 9 -11 21t-6 23
q-7 26 -8.5 52.5t-3.5 53.5q-1 17 -2 34.5t-2 34.5q-2 14 -2.5 27t-1.5 26v7q-2 15 -4.5 18.5t-14.5 6.5q-18 4 -34 12t-30 25q-9 11 -20 15q-2 1 -2.5 2t-2.5 3q2 3 5 5q8 6 12 7q14 3 28.5 5.5t28.5 4.5q0 -1 0.5 -1.5t0.5 -1.5q5 0 9 0.5t9 -0.5q8 -1 6 7v22.5t-1 22.5
q-1 16 -2.5 31t-1.5 30q-2 47 -2 93.5t-2 93.5q-2 39 3 78q2 5 0 8q0 3 -1 5.5t-2 4.5q4 0 10 2q18 4 40 -4q3 -1 10 -1q8 2 15.5 -2t15.5 -6q4 -2 7 -6l21 -27q8 -9 11.5 -21.5t6.5 -24.5q4 -13 6.5 -26.5t5.5 -27.5q2 -8 2 -10q1 -6 5 -2q1 1 1 1.5t1 1.5q7 20 19 34
t22 31q8 12 15.5 24t15.5 23q2 4 6 7t8 3q14 1 27.5 2.5t26.5 -5.5q16 -8 31 -16.5t26 -25.5q2 -2 2 -4q3 -11 9.5 -19t12.5 -16q10 -12 17.5 -24.5t11.5 -29.5q3 -11 7 -20.5t8 -20.5q5 -14 9 -28t6 -30q2 -21 4.5 -42t6.5 -41q9 -54 5 -105z" />
    <glyph glyph-name="Ntilde" unicode="&#xd1;" horiz-adv-x="489" 
d="M406 717q3 -14 -4.5 -25t-19.5 -14q-6 -2 -11.5 -3.5t-9.5 -7.5q-1 -2 -2 -4.5t-2 -4.5q-6 -15 -22 -12q-14 2 -28 6.5t-28 10.5q-12 6 -21.5 13t-23.5 10q-26 6 -53.5 1.5t-50.5 -18.5q-5 -2 -8.5 -4.5t-8.5 -4.5t-9.5 -2t-8.5 3q-7 5 -6 11t5.5 12t10.5 10.5t9 7.5
q30 25 68 33l24 6q8 -2 16 -3.5t16 -3.5q30 -11 56 -22q11 -5 23 -8t26 -1q12 2 23.5 4.5t22.5 10.5q2 2 6 4q9 6 11 -5zM451 169q0 -21 -3 -40q-1 -7 -3 -13.5t-2 -13.5q0 -13 -9 -23q-6 -7 -7.5 -15t-2.5 -16q0 -17 -3 -33q0 -7 -3 -8q-8 -7 -16 -13t-18 -9q-6 -2 -12 -2
t-12 1q-5 1 -5.5 4.5t-0.5 7.5l-6 34t-13 32q-16 24 -22.5 51.5t-16.5 53.5q-8 21 -15 42.5t-15 42.5q-6 17 -13 33l-14 32q-11 27 -21.5 53.5t-21.5 52.5q0 2 -1 2.5t-2 2.5q0 -2 -0.5 -2.5t-0.5 -2.5q0 -6 0.5 -12t-0.5 -12q0 -5 -0.5 -8.5t-1.5 -7.5q0 -9 -0.5 -17.5
t0.5 -16.5v-40q0 -11 1.5 -21t2.5 -21q0 -2 0.5 -3t0.5 -2q-6 -17 -4.5 -33t2.5 -33v-28t5 -28q1 -3 0 -6q-2 -16 -0.5 -32t0.5 -33q-1 -9 -0.5 -19t5.5 -19q5 -7 1 -17q-3 -8 -4 -16.5t-2 -17.5q0 -2 -1.5 -5t-3.5 -3q-9 -1 -14 -11q0 -4 -4 -4q-8 1 -12 -4t-9 -9
q-6 -4 -12.5 -7t-13.5 -4q-8 -2 -16.5 -3.5t-17.5 1.5q-12 4 -19 13q-5 6 -9 12t-9 12q-6 8 -7.5 17t-3.5 17q-5 23 -8.5 46t-7.5 46q-3 15 -4.5 30.5t-2.5 31.5q-1 26 -3 52.5t-4 53.5h2v24q-2 27 -3.5 54.5t-1.5 54.5q0 14 -0.5 28t1.5 28q2 26 1 52.5t0 52.5
q0 11 -1 22.5t3 22.5q1 3 1 8q-1 9 1 11.5t10 4.5t16 0q9 -2 18.5 -3.5t19.5 -3.5q5 -1 10.5 -0.5t10.5 -1.5q19 -7 37.5 -13t34.5 -20q2 -2 3.5 -4t3.5 -4q6 -11 10.5 -21.5t-0.5 -24.5q-4 -10 4 -17q2 -2 2.5 -4t2.5 -4q3 -6 6.5 -11.5t6.5 -10.5q5 -8 10 -16.5t10 -17.5
q5 -8 8.5 -16.5t7.5 -16.5q3 -8 5.5 -16t6.5 -16q2 -5 4 -8.5t3 -7.5q5 -17 13.5 -33t13.5 -33q3 -11 8 -20.5t7 -20.5l6 -27q0 -1 0.5 -1.5t0.5 -1.5l3 3q1 2 1 6q1 11 1.5 21.5t1.5 21.5l3 60q2 14 3.5 27.5t2.5 27.5q2 20 4.5 40t8.5 40q6 24 13 48t14 47q10 38 46 60
q7 4 20 2q8 -2 6 -12q-1 -10 -1 -19t2 -19q1 -4 -0.5 -8t-3.5 -9q-9 -24 -12 -50q-1 -11 -3.5 -23t-5.5 -24q-5 -17 -1 -31q0 -2 0.5 -2.5t0.5 -1.5q-2 -9 -1.5 -18t-1.5 -17q-5 -15 -5 -30v-30q0 -10 -1 -19t1 -18q2 -5 0 -8q-5 -8 -2.5 -14t6.5 -13q3 -6 7 -12t8 -11
q11 -15 12 -31q1 -11 3 -22.5t2 -22.5z" />
    <glyph glyph-name="Ograve" unicode="&#xd2;" horiz-adv-x="537" 
d="M245 807q-9 11 -16 16.5t-12 17.5q-5 8 -6.5 10.5t6.5 7.5q29 -14 53.5 -32t45.5 -35q10 -8 26 -15t21 -16q2 -2 5 -2.5t5 -2.5q-2 -2 -2 -3t-2 -3q-4 -1 -8 -3t-4 -7q-3 -5 -5 -5.5t-4.5 1t-5.5 3.5t-7 2t-8 -1t-9 0q-9 4 -15 11zM480 321q0 -15 -0.5 -30t-0.5 -30
t-3 -27q-3 -20 -4 -39.5t-9 -38.5q-3 -8 -4 -16t-4 -16q-4 -8 -8.5 -16t-9.5 -16q-7 -11 -12.5 -22.5t-14.5 -20.5q-3 -3 -4 -7t-3 -7q-7 -14 -14 -26.5t-18 -23.5q-1 -1 -0.5 -2t-0.5 -2q-6 -14 -15.5 -24.5t-22.5 -18.5q-46 -29 -99 -32q-11 -1 -21.5 0.5t-21.5 3.5
q-24 4 -50 14q-20 6 -37 17q-11 8 -23 13.5t-22 14.5q-24 24 -36 55q-11 31 -16 62.5t-7 63.5q-2 36 -1.5 71.5t2.5 70.5q1 11 3 21l4 20l21 96h2q1 5 2 9.5t3 9.5q6 24 14.5 47.5t17.5 46.5q10 23 20.5 45.5t23.5 43.5q17 29 37 56t46 50q7 5 13 5.5t14 -1.5q5 -2 11 -4.5
t11 -4.5q18 -6 35.5 -12.5t34.5 -16.5q16 -9 5 -24l-3 -3q-4 -3 -11 -10q4 -2 7.5 -3t8.5 -2q33 -9 58 -31q4 -4 7 -10q7 -16 18 -27t25 -20q16 -11 20 -31q4 -16 14 -36q7 -17 9 -35t6 -36q2 -11 -0.5 -20.5t-1.5 -19.5q2 -11 1 -21t2 -21q2 -8 2 -16v-16zM410 406
q2 11 1.5 21.5t-3.5 21.5q-2 7 -2 14t-2 14q-2 12 -4 20t-5.5 16t-4.5 16q-2 14 -8 20q-10 9 -16 20.5t-17 19.5q-2 2 -3 5.5t-1 6.5q-1 13 -15 20q-7 4 -13.5 7t-13.5 7q-10 5 -11 -5q-4 -16 -9 -31t-6 -32q0 -8 -3.5 -14.5t-6.5 -13.5q-4 -10 -11 -19t-8 -21
q0 -12 -4.5 -22t-9.5 -21q-4 -10 -6.5 -20t-5.5 -21q-2 -5 -2 -10.5t-2 -10.5q-2 -6 -4.5 -11.5t-4.5 -11.5l-9 -45q-2 -11 -6 -20.5t-3 -20.5q1 -4 -0.5 -7l-3.5 -7q0 -2 -1.5 -3.5t-0.5 -3.5q1 -15 0.5 -29.5t-2.5 -28.5q-2 -12 -1.5 -24.5t-0.5 -25.5q0 -4 -1 -7.5
t0 -6.5q4 -14 4.5 -29t-0.5 -30q0 -5 1 -9t3 -9q2 -7 5 -13.5t2 -12.5q0 -17 9 -26.5t20 -18.5q14 -11 30 -13l32 -4q11 -2 18.5 2.5t14.5 11.5q5 5 9.5 11t9.5 11q3 4 5.5 8t4.5 8q7 14 13.5 28.5t13.5 29.5q6 14 11.5 28t5.5 31q1 2 1.5 4t1.5 4h1q2 10 2.5 19.5t1.5 19.5
q1 8 1 17t2 17q2 14 4 27t0 27q-1 8 -0.5 15t1.5 14q0 11 1 21t1 21q0 14 -1 27t1 27z" />
    <glyph glyph-name="Oacute" unicode="&#xd3;" horiz-adv-x="537" 
d="M310 852q-2 -2 -5 -2t-5 -3q-5 -9 -21.5 -16t-26.5 -15q-21 -17 -45.5 -33.5t-52.5 -32.5q-8 5 -7 7t6 11q5 11 12.5 17t16.5 16q7 8 16.5 17.5l17.5 17.5q5 3 7.5 5.5t7.5 5.5q5 5 9 12t15 10q3 1 7.5 0t8.5 -1t7.5 2t5.5 3.5t4.5 1t5.5 -5.5q-1 -5 3.5 -7t8.5 -3
q1 -2 2 -3.5t2 -3.5zM480 321q0 -15 -0.5 -30t-0.5 -30t-3 -27q-3 -20 -4 -39.5t-9 -38.5q-3 -8 -4 -16t-4 -16q-4 -8 -8.5 -16t-9.5 -16q-7 -11 -12.5 -22.5t-14.5 -20.5q-3 -3 -4 -7t-3 -7q-7 -14 -14 -26.5t-18 -23.5q-1 -1 -0.5 -2t-0.5 -2q-6 -14 -15.5 -24.5
t-22.5 -18.5q-46 -29 -99 -32q-11 -1 -21.5 0.5t-21.5 3.5q-24 4 -50 14q-20 6 -37 17q-11 8 -23 13.5t-22 14.5q-24 24 -36 55q-11 31 -16 62.5t-7 63.5q-2 36 -1.5 71.5t2.5 70.5q1 11 3 21l4 20l21 96h2q1 5 2 9.5t3 9.5q6 24 14.5 47.5t17.5 46.5q10 23 20.5 45.5
t23.5 43.5q17 29 37 56t46 50q7 5 13 5.5t14 -1.5q5 -2 11 -4.5t11 -4.5q18 -6 35.5 -12.5t34.5 -16.5q16 -9 5 -24l-3 -3q-4 -3 -11 -10q4 -2 7.5 -3t8.5 -2q33 -9 58 -31q4 -4 7 -10q7 -16 18 -27t25 -20q16 -11 20 -31q4 -16 14 -36q7 -17 9 -35t6 -36q2 -11 -0.5 -20.5
t-1.5 -19.5q2 -11 1 -21t2 -21q2 -8 2 -16v-16zM410 406q2 11 1.5 21.5t-3.5 21.5q-2 7 -2 14t-2 14q-2 12 -4 20t-5.5 16t-4.5 16q-2 14 -8 20q-10 9 -16 20.5t-17 19.5q-2 2 -3 5.5t-1 6.5q-1 13 -15 20q-7 4 -13.5 7t-13.5 7q-10 5 -11 -5q-4 -16 -9 -31t-6 -32
q0 -8 -3.5 -14.5t-6.5 -13.5q-4 -10 -11 -19t-8 -21q0 -12 -4.5 -22t-9.5 -21q-4 -10 -6.5 -20t-5.5 -21q-2 -5 -2 -10.5t-2 -10.5q-2 -6 -4.5 -11.5t-4.5 -11.5l-9 -45q-2 -11 -6 -20.5t-3 -20.5q1 -4 -0.5 -7l-3.5 -7q0 -2 -1.5 -3.5t-0.5 -3.5q1 -15 0.5 -29.5
t-2.5 -28.5q-2 -12 -1.5 -24.5t-0.5 -25.5q0 -4 -1 -7.5t0 -6.5q4 -14 4.5 -29t-0.5 -30q0 -5 1 -9t3 -9q2 -7 5 -13.5t2 -12.5q0 -17 9 -26.5t20 -18.5q14 -11 30 -13l32 -4q11 -2 18.5 2.5t14.5 11.5q5 5 9.5 11t9.5 11q3 4 5.5 8t4.5 8q7 14 13.5 28.5t13.5 29.5
q6 14 11.5 28t5.5 31q1 2 1.5 4t1.5 4h1q2 10 2.5 19.5t1.5 19.5q1 8 1 17t2 17q2 14 4 27t0 27q-1 8 -0.5 15t1.5 14q0 11 1 21t1 21q0 14 -1 27t1 27z" />
    <glyph glyph-name="Ocircumflex" unicode="&#xd4;" horiz-adv-x="537" 
d="M347 731q-2 -2 -5.5 -3t-6.5 -3q-14 -2 -20 -1.5t-21 2.5q0 1 -6 11.5t-14 24t-18 28t-17 23.5h-4q-12 -14 -20 -24t-15 -18.5t-15 -17t-21 -19.5q-6 -5 -22.5 -7t-26.5 -4v2l11 13q9 12 15 18q13 15 23 25.5t19 21t18 22.5t21 29l6 1.5t8 0.5q11 3 14.5 -2.5t13.5 -8.5
q3 -10 12 -18t14 -16q8 -14 16 -25t18 -25q2 -2 7 -10t16 -20zM480 321q0 -15 -0.5 -30t-0.5 -30t-3 -27q-3 -20 -4 -39.5t-9 -38.5q-3 -8 -4 -16t-4 -16q-4 -8 -8.5 -16t-9.5 -16q-7 -11 -12.5 -22.5t-14.5 -20.5q-3 -3 -4 -7t-3 -7q-7 -14 -14 -26.5t-18 -23.5
q-1 -1 -0.5 -2t-0.5 -2q-6 -14 -15.5 -24.5t-22.5 -18.5q-46 -29 -99 -32q-11 -1 -21.5 0.5t-21.5 3.5q-24 4 -50 14q-20 6 -37 17q-11 8 -23 13.5t-22 14.5q-24 24 -36 55q-11 31 -16 62.5t-7 63.5q-2 36 -1.5 71.5t2.5 70.5q1 11 3 21l4 20l21 96h2q1 5 2 9.5t3 9.5
q6 24 14.5 47.5t17.5 46.5q10 23 20.5 45.5t23.5 43.5q17 29 37 56t46 50q7 5 13 5.5t14 -1.5q5 -2 11 -4.5t11 -4.5q18 -6 35.5 -12.5t34.5 -16.5q16 -9 5 -24l-3 -3q-4 -3 -11 -10q4 -2 7.5 -3t8.5 -2q33 -9 58 -31q4 -4 7 -10q7 -16 18 -27t25 -20q16 -11 20 -31
q4 -16 14 -36q7 -17 9 -35t6 -36q2 -11 -0.5 -20.5t-1.5 -19.5q2 -11 1 -21t2 -21q2 -8 2 -16v-16zM410 406q2 11 1.5 21.5t-3.5 21.5q-2 7 -2 14t-2 14q-2 12 -4 20t-5.5 16t-4.5 16q-2 14 -8 20q-10 9 -16 20.5t-17 19.5q-2 2 -3 5.5t-1 6.5q-1 13 -15 20q-7 4 -13.5 7
t-13.5 7q-10 5 -11 -5q-4 -16 -9 -31t-6 -32q0 -8 -3.5 -14.5t-6.5 -13.5q-4 -10 -11 -19t-8 -21q0 -12 -4.5 -22t-9.5 -21q-4 -10 -6.5 -20t-5.5 -21q-2 -5 -2 -10.5t-2 -10.5q-2 -6 -4.5 -11.5t-4.5 -11.5l-9 -45q-2 -11 -6 -20.5t-3 -20.5q1 -4 -0.5 -7l-3.5 -7
q0 -2 -1.5 -3.5t-0.5 -3.5q1 -15 0.5 -29.5t-2.5 -28.5q-2 -12 -1.5 -24.5t-0.5 -25.5q0 -4 -1 -7.5t0 -6.5q4 -14 4.5 -29t-0.5 -30q0 -5 1 -9t3 -9q2 -7 5 -13.5t2 -12.5q0 -17 9 -26.5t20 -18.5q14 -11 30 -13l32 -4q11 -2 18.5 2.5t14.5 11.5q5 5 9.5 11t9.5 11
q3 4 5.5 8t4.5 8q7 14 13.5 28.5t13.5 29.5q6 14 11.5 28t5.5 31q1 2 1.5 4t1.5 4h1q2 10 2.5 19.5t1.5 19.5q1 8 1 17t2 17q2 14 4 27t0 27q-1 8 -0.5 15t1.5 14q0 11 1 21t1 21q0 14 -1 27t1 27z" />
    <glyph glyph-name="Otilde" unicode="&#xd5;" horiz-adv-x="537" 
d="M406 817q3 -14 -4.5 -25t-19.5 -14q-6 -2 -11.5 -3.5t-9.5 -7.5q-1 -2 -2 -4.5t-2 -4.5q-6 -15 -22 -12q-14 2 -28 6.5t-28 10.5q-12 6 -21.5 13t-23.5 10q-26 6 -53.5 1.5t-50.5 -18.5q-5 -2 -8.5 -4.5t-8.5 -4.5t-9.5 -2t-8.5 3q-7 5 -6 11t5.5 12t10.5 10.5t9 7.5
q30 25 68 33l24 6q8 -2 16 -3.5t16 -3.5q30 -11 56 -22q11 -5 23 -8t26 -1q12 2 23.5 4.5t22.5 10.5q2 2 6 4q9 6 11 -5zM480 321q0 -15 -0.5 -30t-0.5 -30t-3 -27q-3 -20 -4 -39.5t-9 -38.5q-3 -8 -4 -16t-4 -16q-4 -8 -8.5 -16t-9.5 -16q-7 -11 -12.5 -22.5t-14.5 -20.5
q-3 -3 -4 -7t-3 -7q-7 -14 -14 -26.5t-18 -23.5q-1 -1 -0.5 -2t-0.5 -2q-6 -14 -15.5 -24.5t-22.5 -18.5q-46 -29 -99 -32q-11 -1 -21.5 0.5t-21.5 3.5q-24 4 -50 14q-20 6 -37 17q-11 8 -23 13.5t-22 14.5q-24 24 -36 55q-11 31 -16 62.5t-7 63.5q-2 36 -1.5 71.5t2.5 70.5
q1 11 3 21l4 20l21 96h2q1 5 2 9.5t3 9.5q6 24 14.5 47.5t17.5 46.5q10 23 20.5 45.5t23.5 43.5q17 29 37 56t46 50q7 5 13 5.5t14 -1.5q5 -2 11 -4.5t11 -4.5q18 -6 35.5 -12.5t34.5 -16.5q16 -9 5 -24l-3 -3q-4 -3 -11 -10q4 -2 7.5 -3t8.5 -2q33 -9 58 -31q4 -4 7 -10
q7 -16 18 -27t25 -20q16 -11 20 -31q4 -16 14 -36q7 -17 9 -35t6 -36q2 -11 -0.5 -20.5t-1.5 -19.5q2 -11 1 -21t2 -21q2 -8 2 -16v-16zM410 406q2 11 1.5 21.5t-3.5 21.5q-2 7 -2 14t-2 14q-2 12 -4 20t-5.5 16t-4.5 16q-2 14 -8 20q-10 9 -16 20.5t-17 19.5q-2 2 -3 5.5
t-1 6.5q-1 13 -15 20q-7 4 -13.5 7t-13.5 7q-10 5 -11 -5q-4 -16 -9 -31t-6 -32q0 -8 -3.5 -14.5t-6.5 -13.5q-4 -10 -11 -19t-8 -21q0 -12 -4.5 -22t-9.5 -21q-4 -10 -6.5 -20t-5.5 -21q-2 -5 -2 -10.5t-2 -10.5q-2 -6 -4.5 -11.5t-4.5 -11.5l-9 -45q-2 -11 -6 -20.5
t-3 -20.5q1 -4 -0.5 -7l-3.5 -7q0 -2 -1.5 -3.5t-0.5 -3.5q1 -15 0.5 -29.5t-2.5 -28.5q-2 -12 -1.5 -24.5t-0.5 -25.5q0 -4 -1 -7.5t0 -6.5q4 -14 4.5 -29t-0.5 -30q0 -5 1 -9t3 -9q2 -7 5 -13.5t2 -12.5q0 -17 9 -26.5t20 -18.5q14 -11 30 -13l32 -4q11 -2 18.5 2.5
t14.5 11.5q5 5 9.5 11t9.5 11q3 4 5.5 8t4.5 8q7 14 13.5 28.5t13.5 29.5q6 14 11.5 28t5.5 31q1 2 1.5 4t1.5 4h1q2 10 2.5 19.5t1.5 19.5q1 8 1 17t2 17q2 14 4 27t0 27q-1 8 -0.5 15t1.5 14q0 11 1 21t1 21q0 14 -1 27t1 27z" />
    <glyph glyph-name="Odieresis" unicode="&#xd6;" horiz-adv-x="537" 
d="M346 774q-1 -1 -3 -7q-1 -2 -2 -3t-1 -3q0 -8 -5 -12.5t-12 -6.5q-17 -5 -29 4q-5 5 -10.5 10t-10.5 10q-11 16 -3 33t22 21q8 3 16.5 4.5t16.5 3.5q2 2 2 0q4 -5 9 -8.5t6 -11.5q0 -8 1 -16t3 -18zM208 778q2 -6 0.5 -12.5t-4.5 -11.5q-5 -11 -16 -9q-17 4 -33.5 10.5
t-24.5 25.5q-2 3 -2 6t-1 5q1 13 7 21t15 13q13 6 29 9q3 1 7 -3q3 -4 5 -8q5 -11 9 -22.5t9 -23.5zM480 297q0 -14 -0.5 -28t-0.5 -28q0 -13 -3 -25q-3 -18 -4 -36.5t-9 -35.5q-3 -7 -4 -14.5t-4 -14.5q-4 -8 -8.5 -15t-9.5 -15q-7 -11 -12.5 -21.5t-14.5 -18.5
q-3 -3 -4 -6.5t-3 -6.5q-7 -13 -14 -24.5t-18 -21.5q-1 -1 -0.5 -2t-0.5 -3q-11 -23 -38 -39q-45 -27 -99 -30q-11 -1 -21.5 0.5t-21.5 3.5q-13 2 -25.5 5t-24.5 8q-10 3 -19.5 7t-17.5 9q-11 7 -23 12t-22 14q-25 23 -36 51q-11 29 -16 58t-7 59q-2 33 -1.5 66t2.5 66
q1 9 3 18.5t4 19.5q5 22 10.5 44t10.5 45h2l2 8t3 9q6 23 14.5 44.5t17.5 42.5q10 22 20.5 42.5t23.5 40.5q17 27 37 52t46 46q7 5 13 5.5t14 -1.5q10 -3 22 -8q18 -6 35.5 -12t34.5 -15q16 -9 5 -23q-1 -1 -1.5 -1t-1.5 -1q-3 -2 -5.5 -4.5t-5.5 -4.5q4 -2 7.5 -3t8.5 -2
q34 -9 58 -29q3 -3 7 -9q7 -14 18 -25t25 -19q16 -11 20 -28q2 -9 5.5 -17.5t8.5 -16.5q7 -16 9 -32.5t6 -33.5q2 -10 -0.5 -19t-1.5 -18q2 -10 1 -19.5t2 -19.5q2 -8 2 -15v-15zM410 376q3 23 -2 40q-2 6 -2 12.5t-2 13.5q-1 5 -1.5 9.5t-2.5 8.5q-2 8 -5.5 15.5t-4.5 15.5
q-2 12 -8 18q-10 8 -16 18.5t-17 18.5q-2 1 -3 4.5t-1 6.5q-1 12 -15 19q-7 3 -13.5 6t-13.5 7q-10 5 -11 -5q-4 -14 -9 -28.5t-6 -30.5q0 -6 -3.5 -12.5t-6.5 -12.5q-4 -10 -11 -18t-8 -19q0 -11 -4.5 -20.5t-9.5 -19.5q-4 -9 -6.5 -18.5t-5.5 -19.5q-2 -5 -2 -10t-2 -10
t-4.5 -10.5t-4.5 -10.5l-9 -42q-2 -10 -6 -19t-3 -20q1 -2 -0.5 -5.5t-3.5 -6.5q0 -2 -1.5 -3.5t-0.5 -3.5q1 -14 0.5 -26.5t-2.5 -26.5q-2 -12 -1.5 -24t-0.5 -23q0 -3 -1 -6.5t0 -6.5q4 -14 4.5 -27.5t-0.5 -27.5q0 -6 4 -16q2 -7 5 -13t2 -11q0 -16 9 -25t20 -17
q14 -11 30 -12.5t32 -3.5q11 -2 18.5 2.5t14.5 10.5q5 5 9.5 10.5t9.5 10.5q3 3 5.5 6.5t4.5 7.5l27 54q6 13 11.5 26.5t5.5 28.5q1 2 1.5 3.5t1.5 3.5h1q2 9 2.5 18t1.5 18q1 8 1 16t2 16q2 13 4 25t0 26q-1 6 -0.5 12.5t1.5 13.5q0 10 1 19.5t1 19.5q0 13 -1 25.5t1 24.5z
" />
    <glyph glyph-name="multiply" unicode="&#xd7;" horiz-adv-x="311" 
d="M293 168q3 -8 -3.5 -16t-14.5 -7q-16 3 -32 14q-27 19 -51 42l-3 3q-7 5 -12 -1q-2 -2 -4 -5t-4 -5q-11 -13 -25 -21t-31 -13q-22 -8 -40 -1q-5 2 -9.5 6t-9.5 8q-15 14 -14 28.5t9 27.5q8 14 19 26l22 24q8 8 7.5 9t-7.5 9q-2 2 -5 3.5t-5 3.5q-6 4 -16.5 12.5t-19 18
t-11 20t7.5 18.5q7 6 14 4q5 -2 8.5 -7.5t8.5 -9.5q8 -5 15.5 -9.5t15.5 -9.5q5 -4 9 -7t9 -6q6 -4 10 1q6 8 12 14.5t13 14.5q8 8 16.5 16t16.5 16q2 2 3.5 4t3.5 4q5 7 11 2q6 -4 10 -8l24 -27q19 -16 27 -41q3 -9 2.5 -18t-7.5 -17q-3 -3 -5 -4q-5 -3 -9.5 -6t-8.5 -7
q-5 -5 -10 -10.5t-10 -10.5q-3 -4 1 -6q5 -5 9.5 -9t9.5 -7q17 -11 34 -29q6 -7 11 -14.5t8 -16.5z" />
    <glyph glyph-name="Oslash" unicode="&#xd8;" horiz-adv-x="672" 
d="M616 628q-11 -18 -22.5 -36t-22.5 -36q-8 -13 -15.5 -26t-15.5 -27q-2 -3 -1 -7.5t2 -8.5q6 -18 12.5 -36t12.5 -36q8 -23 10 -44.5t4 -43.5q1 -14 4 -27t5 -27q1 -6 1 -12.5v-13.5l-4 -42t-5 -41q-3 -17 -7.5 -33.5t-9.5 -33.5q-1 -5 -2.5 -8.5t-1.5 -8.5
q-1 -17 -6 -30.5t-13 -27.5q-5 -11 -10 -22.5t-11 -22.5q-11 -19 -22 -37.5t-28 -32.5q-10 -9 -19 -19l-18 -20q-8 -9 -4 -23q5 -16 -7 -27q-8 -7 -14 -14.5t-14 -14.5q-10 -9 -22 -10q-23 -5 -46.5 -9t-46.5 -6q-61 -3 -110 40q-11 10 -21 20t-20 21q-7 8 -11 2
q-7 -8 -13 -16l-12 -16q-5 -5 -8 -10t-7 -10q-12 -17 -24 -33t-23 -33q-12 -19 -25 -43q-4 -5 -6.5 -11t-4.5 -12q-8 -25 -29 -4q-13 13 -13.5 17.5t7.5 19.5q7 14 12.5 28.5t12.5 28.5q7 13 14.5 25.5t15.5 24.5q8 11 13 23.5t18 20.5q2 2 1.5 5.5t1.5 5.5q2 5 3.5 10
t8.5 5q2 1 5 2t3 3q1 9 4.5 17.5t5.5 17t2 18t-5 20.5q-14 28 -20 56.5t-9 57.5q-2 25 -4.5 49t-6.5 48q-5 33 -4 65t3 64q5 75 28 141q2 6 3 12.5t2 13.5q2 14 7 26t14 23q12 13 21.5 27.5t21.5 26.5q18 18 36 35.5t44 26.5q14 5 28 7.5t26 11.5q2 2 6.5 0t9.5 -2
q3 0 5.5 0.5t5.5 0.5q-2 2 -5 2.5t-5 2.5q-2 1 -2.5 2t-2.5 3q2 0 3 0.5t3 0.5h10q8 -3 16.5 -3.5t17.5 -0.5t18.5 -1t18.5 -7h4q15 6 30 1t30 -7q9 -1 18 -3.5t15 -13.5q2 -5 9 -5t10.5 -4t7.5 -9q5 -7 7 -13t-6 -12q-2 -1 -2.5 -3.5t0.5 -4.5q3 -4 6 -7.5t7 -6.5q1 1 3 2
q3 2 5 5l54 87q5 10 8 11t14 -2q5 -2 11 -3t12 -3q11 -3 12.5 -7.5t-3.5 -13.5zM467 483q11 14 -5 27q-5 5 -10.5 8t-10.5 8q-2 2 -4 5t-2 5q2 11 -6 15t-13 10q-13 15 -31 5q-34 -14 -59 -37.5t-44 -54.5q-2 -5 -4 -9.5t-3 -9.5q-3 -15 -7.5 -30t-15.5 -27q-3 -3 -4.5 -7.5
t-3.5 -9.5q-6 -21 -8.5 -43t0.5 -45q2 -11 3 -21.5t2 -21.5q2 -18 2.5 -37t2.5 -40q0 -1 1 -2q0 -1 2 -5q2 2 3 3.5t2 3.5q19 42 52 77q12 14 19 26q18 29 36 56.5t40 53.5q20 22 35 47t31 50zM528 215q3 11 0.5 21t-7.5 21q-2 3 -3.5 7t-2.5 7q-2 23 -4 45t-4 45h-1
q-1 10 -1.5 19t-2.5 19q-1 5 -3.5 9t-4.5 9q-3 -2 -6.5 -4.5t-7.5 -4.5l-4 -4q-18 -27 -36.5 -53.5t-36.5 -53.5q-19 -29 -37 -58.5t-37 -58.5q-8 -11 -15 -23t-15 -24q-5 -11 -10 -21t-11 -20q-5 -9 -5 -18t3 -19q2 -4 3.5 -8t2.5 -8q6 -20 11.5 -40.5t11.5 -40.5
q15 -44 52 -78q12 -10 21 -1q7 6 13.5 12.5t14.5 11.5q23 14 39 40q12 20 23 41l22 42q2 3 2 6.5t1 7.5q4 14 7.5 27t8.5 27q7 17 11.5 35t2.5 38q-1 13 1 25t4 23z" />
    <glyph glyph-name="Ugrave" unicode="&#xd9;" horiz-adv-x="617" 
d="M305 747q-9 11 -16 16.5t-12 17.5q-5 8 -6.5 10.5t6.5 7.5q29 -14 53.5 -32t45.5 -35q10 -8 26 -15t21 -16q2 -2 5 -2.5t5 -2.5q-2 -2 -2 -3t-2 -3q-4 -1 -8 -3t-4 -7q-3 -5 -5 -5.5t-4.5 1t-5.5 3.5t-7 2t-8 -1t-9 0q-9 4 -15 11zM614 -32q8 -10 4.5 -18.5t-15.5 -10.5
q-8 -1 -20 2q-29 5 -48 21.5t-33 42.5q-13 25 -19.5 51.5t-10.5 54.5q-3 20 -5.5 41t-4.5 42q-1 3 -1.5 6.5t-2.5 6.5q-4 9 -10 1q-2 -2 -2 -4t-2 -4q-20 -29 -34.5 -60t-29.5 -62q-4 -8 -8.5 -15t-10.5 -13q-8 -8 -12.5 -16.5t-7.5 -17.5q-8 -21 -22 -35.5t-32 -25.5
q-6 -5 -12.5 -8t-11.5 -8q-22 -20 -46.5 -25t-52.5 -1q-39 5 -64 27t-42 56q-23 49 -29 107q-1 9 -2 18.5t-3 19.5q-8 38 -12 77t-5 78q-2 23 -4 45t0 45q4 51 6.5 102t2.5 103q0 17 2 33.5t3 33.5q1 4 1 7.5t-2 5.5q-6 5 -6.5 10t1 10t4 9.5t3.5 9.5q1 3 8 5.5t12 2.5
q27 3 56 3q2 0 3.5 0.5t3.5 -0.5q13 -7 26 -7.5t27 0.5q17 2 29.5 -5.5t23.5 -19.5q4 -5 7 -9t8 -8q10 -11 14 -22.5t5 -25.5v-31h1q1 -50 1.5 -99t1.5 -98q1 -15 1.5 -30t-2.5 -29q-4 -15 -3.5 -31t-7.5 -31q-3 -5 -1 -11q7 -22 3 -43t-5 -42q0 -6 -1 -11.5t-2 -11.5
q0 -38 -7 -72q-4 -17 -8 -34.5t0 -35.5q2 -5 3 -10t4 -7q6 -4 11 -1t8 8q11 13 22.5 26t20.5 27q17 29 33 58t34 58q25 38 43 79t38 81q14 26 22 53.5t17 54.5q2 5 2.5 11t0.5 12q0 16 2 24.5t7 13.5t14.5 7.5t23.5 7.5q9 3 19.5 2.5t21.5 -1.5q10 -2 18 -8q2 -2 3.5 -6
t-0.5 -6q-9 -12 -9.5 -26t-2.5 -28q-2 -9 -3.5 -18t-2.5 -18q-2 -21 -6.5 -41.5t-2.5 -42.5q3 -26 -2 -54q-4 -17 -4 -33.5v-33.5q1 -18 0 -36t-1 -36q-2 -11 3 -20q10 -19 13.5 -39.5t5.5 -41.5q2 -14 7 -25.5t19 -18.5q11 -6 20 -18z" />
    <glyph glyph-name="Uacute" unicode="&#xda;" horiz-adv-x="617" 
d="M490 692q-2 -2 -5 -2t-5 -3q-5 -9 -21.5 -16t-26.5 -15q-21 -17 -45.5 -33.5t-52.5 -32.5q-8 5 -7 7t6 11q5 11 12.5 17t16.5 16q7 8 16.5 17.5l17.5 17.5q5 3 7.5 5.5t7.5 5.5q5 5 9 12t15 10q3 1 7.5 0t8.5 -1t7.5 2t5.5 3.5t4.5 1t5.5 -5.5q-1 -5 3.5 -7t8.5 -3
q1 -2 2 -3.5t2 -3.5zM614 -32q8 -10 4.5 -18.5t-15.5 -10.5q-8 -1 -20 2q-29 5 -48 21.5t-33 42.5q-13 25 -19.5 51.5t-10.5 54.5q-3 20 -5.5 41t-4.5 42q-1 3 -1.5 6.5t-2.5 6.5q-4 9 -10 1q-2 -2 -2 -4t-2 -4q-20 -29 -34.5 -60t-29.5 -62q-4 -8 -8.5 -15t-10.5 -13
q-8 -8 -12.5 -16.5t-7.5 -17.5q-8 -21 -22 -35.5t-32 -25.5q-6 -5 -12.5 -8t-11.5 -8q-22 -20 -46.5 -25t-52.5 -1q-39 5 -64 27t-42 56q-23 49 -29 107q-1 9 -2 18.5t-3 19.5q-8 38 -12 77t-5 78q-2 23 -4 45t0 45q4 51 6.5 102t2.5 103q0 17 2 33.5t3 33.5q1 4 1 7.5
t-2 5.5q-6 5 -6.5 10t1 10t4 9.5t3.5 9.5q1 3 8 5.5t12 2.5q27 3 56 3q2 0 3.5 0.5t3.5 -0.5q13 -7 26 -7.5t27 0.5q17 2 29.5 -5.5t23.5 -19.5q4 -5 7 -9t8 -8q10 -11 14 -22.5t5 -25.5v-31h1q1 -50 1.5 -99t1.5 -98q1 -15 1.5 -30t-2.5 -29q-4 -15 -3.5 -31t-7.5 -31
q-3 -5 -1 -11q7 -22 3 -43t-5 -42q0 -6 -1 -11.5t-2 -11.5q0 -38 -7 -72q-4 -17 -8 -34.5t0 -35.5q2 -5 3 -10t4 -7q6 -4 11 -1t8 8q11 13 22.5 26t20.5 27q17 29 33 58t34 58q25 38 43 79t38 81q14 26 22 53.5t17 54.5q2 5 2.5 11t0.5 12q0 16 2 24.5t7 13.5t14.5 7.5
t23.5 7.5q9 3 19.5 2.5t21.5 -1.5q10 -2 18 -8q2 -2 3.5 -6t-0.5 -6q-9 -12 -9.5 -26t-2.5 -28q-2 -9 -3.5 -18t-2.5 -18q-2 -21 -6.5 -41.5t-2.5 -42.5q3 -26 -2 -54q-4 -17 -4 -33.5v-33.5q1 -18 0 -36t-1 -36q-2 -11 3 -20q10 -19 13.5 -39.5t5.5 -41.5q2 -14 7 -25.5
t19 -18.5q11 -6 20 -18z" />
    <glyph glyph-name="Ucircumflex" unicode="&#xdb;" horiz-adv-x="617" 
d="M537 631q-2 -2 -5.5 -3t-6.5 -3q-14 -2 -20 -1.5t-21 2.5q0 1 -6 11.5t-14 24t-18 28t-17 23.5h-4q-12 -14 -20 -24t-15 -18.5t-15 -17t-21 -19.5q-6 -5 -22.5 -7t-26.5 -4v2l11 13q9 12 15 18q13 15 23 25.5t19 21t18 22.5t21 29l6 1.5t8 0.5q11 3 14.5 -2.5t13.5 -8.5
q3 -10 12 -18t14 -16q8 -14 16 -25t18 -25q2 -2 7 -10t16 -20zM614 -32q8 -10 4.5 -18.5t-15.5 -10.5q-8 -1 -20 2q-29 5 -48 21.5t-33 42.5q-13 25 -19.5 51.5t-10.5 54.5q-3 20 -5.5 41t-4.5 42q-1 3 -1.5 6.5t-2.5 6.5q-4 9 -10 1q-2 -2 -2 -4t-2 -4q-20 -29 -34.5 -60
t-29.5 -62q-4 -8 -8.5 -15t-10.5 -13q-8 -8 -12.5 -16.5t-7.5 -17.5q-8 -21 -22 -35.5t-32 -25.5q-6 -5 -12.5 -8t-11.5 -8q-22 -20 -46.5 -25t-52.5 -1q-39 5 -64 27t-42 56q-23 49 -29 107q-1 9 -2 18.5t-3 19.5q-8 38 -12 77t-5 78q-2 23 -4 45t0 45q4 51 6.5 102
t2.5 103q0 17 2 33.5t3 33.5q1 4 1 7.5t-2 5.5q-6 5 -6.5 10t1 10t4 9.5t3.5 9.5q1 3 8 5.5t12 2.5q27 3 56 3q2 0 3.5 0.5t3.5 -0.5q13 -7 26 -7.5t27 0.5q17 2 29.5 -5.5t23.5 -19.5q4 -5 7 -9t8 -8q10 -11 14 -22.5t5 -25.5v-31h1q1 -50 1.5 -99t1.5 -98q1 -15 1.5 -30
t-2.5 -29q-4 -15 -3.5 -31t-7.5 -31q-3 -5 -1 -11q7 -22 3 -43t-5 -42q0 -6 -1 -11.5t-2 -11.5q0 -38 -7 -72q-4 -17 -8 -34.5t0 -35.5q2 -5 3 -10t4 -7q6 -4 11 -1t8 8q11 13 22.5 26t20.5 27q17 29 33 58t34 58q25 38 43 79t38 81q14 26 22 53.5t17 54.5q2 5 2.5 11
t0.5 12q0 16 2 24.5t7 13.5t14.5 7.5t23.5 7.5q9 3 19.5 2.5t21.5 -1.5q10 -2 18 -8q2 -2 3.5 -6t-0.5 -6q-9 -12 -9.5 -26t-2.5 -28q-2 -9 -3.5 -18t-2.5 -18q-2 -21 -6.5 -41.5t-2.5 -42.5q3 -26 -2 -54q-4 -17 -4 -33.5v-33.5q1 -18 0 -36t-1 -36q-2 -11 3 -20
q10 -19 13.5 -39.5t5.5 -41.5q2 -14 7 -25.5t19 -18.5q11 -6 20 -18z" />
    </font>
</defs>
</svg>
